<svg width="96" height="96" viewBox="0 0 96 96" fill="none" xmlns="http://www.w3.org/2000/svg">
<path fill-rule="evenodd" clip-rule="evenodd" d="M64.6585 83.1641C63.5155 82.9829 62.498 82.9271 62.498 82.3135C62.498 82.0764 62.637 81.8259 62.8601 81.6591C63.0558 81.5052 63.5713 81.4494 63.9194 81.4494C64.2825 81.4494 64.6451 81.6307 64.8677 81.8678C65.0067 82.0351 65.174 82.3 65.2024 82.5789H67.0566C67.0148 81.8961 66.7219 81.2268 66.192 80.8503C65.6765 80.4737 65.0071 80.0135 64.0868 80.0135C63.2092 80.0135 62.3446 80.0419 61.7455 80.4877C61.1454 80.9195 60.7136 81.6441 60.7136 82.2722C60.7136 82.6347 60.6862 83.0665 60.8256 83.331C60.9795 83.5959 61.4248 84.1403 61.7729 84.349C62.261 84.6279 63.404 84.7394 64.0315 84.9068C64.547 85.0318 65.1745 85.0602 65.3144 85.5761C65.3971 85.8824 65.3 86.1613 65.0216 86.3426C64.7561 86.5234 64.3522 86.6489 63.906 86.6489C63.4458 86.6489 62.9996 86.51 62.7764 86.2311C62.5817 85.9661 62.4701 85.7151 62.3162 85.3107H60.4621C60.5039 86.1608 60.9785 86.9976 61.5632 87.4717C62.135 87.9319 62.9019 88.1545 63.8771 88.1545C64.8538 88.1545 65.7039 87.9872 66.3314 87.5409C66.944 87.0952 67.2787 86.259 67.2787 85.5761C67.2787 84.9905 67.1114 84.5303 66.8469 84.1682C66.3036 83.457 65.3279 83.2623 64.6585 83.1641ZM40.4862 87.9324H42.3683V80.1251H40.4862V87.9324ZM40.4862 79.5957H42.3822V77.7136H40.4862V79.5957ZM37.74 81.157C37.0433 80.6127 36.1513 80.2367 35.1751 80.2088H35.0775C32.9165 80.2088 31.1604 81.9654 31.1604 84.1124C31.1604 86.2729 32.9165 88.0434 35.0775 88.0434H35.1751C36.1508 88.03 37.0428 87.639 37.7266 86.9702L37.74 87.9329H39.5245V77.7141H37.74V81.157ZM35.1891 86.4402H35.1751C34.5581 86.4392 33.9666 86.1936 33.5303 85.7573C33.0939 85.3209 32.8483 84.7295 32.8473 84.1124C32.8473 82.8439 33.8927 81.7846 35.1751 81.7846H35.1891C36.4576 81.7846 37.5169 82.83 37.5169 84.1124C37.5169 85.3949 36.4576 86.4402 35.1891 86.4402ZM49.4215 81.1287C48.7253 80.5848 47.8328 80.2083 46.8566 80.1809H46.759C44.5985 80.1809 42.828 81.9514 42.828 84.098C42.828 86.259 44.5985 88.0295 46.759 88.0295H46.8566C47.8323 88.0016 48.7103 87.6111 49.4081 86.9418V87.904H51.1921V77.7002H49.4081L49.4215 81.1287ZM46.8571 86.4263C45.5747 86.4263 44.5153 85.367 44.5153 84.0845C44.5153 82.8155 45.5747 81.7706 46.8571 81.7706C48.1396 81.7706 49.1994 82.816 49.1994 84.0845C49.1989 85.367 48.1396 86.4263 46.8571 86.4263ZM28.6508 80.1251V80.8642C28.2882 80.4737 28.1214 80.3487 27.703 80.1948C27.3265 80.0559 26.8106 79.9299 26.3085 79.9159H26.2254C25.6257 79.9159 25.0963 80.0131 24.6222 80.2083C24.162 80.404 23.7297 80.7103 23.3397 81.1287C22.9911 81.4917 22.7127 81.937 22.5035 82.4256C22.3186 82.9155 22.2242 83.4349 22.2246 83.9585C22.2246 85.1438 22.6151 86.1334 23.3955 86.8999C24.1625 87.6804 25.1381 88.0853 26.309 88.0853H26.323C26.7971 88.0853 27.3126 87.9458 27.7309 87.7919C28.1488 87.6385 28.4561 87.513 28.6508 87.2346V87.9458L30.4632 87.9324L30.4492 80.1117L28.6508 80.1251ZM26.323 86.3147H26.309C26.0049 86.3155 25.7037 86.2562 25.4226 86.1402C25.1415 86.0242 24.8861 85.8538 24.6711 85.6388C24.4561 85.4238 24.2857 85.1684 24.1697 84.8873C24.0537 84.6062 23.9944 84.3049 23.9951 84.0008C23.9959 83.3874 24.24 82.7993 24.6737 82.3656C25.1075 81.9318 25.6956 81.6877 26.309 81.687H26.323C27.5915 81.687 28.6369 82.7323 28.6369 84.0008C28.6361 84.6143 28.392 85.2024 27.9583 85.6361C27.5245 86.0699 26.9364 86.3139 26.323 86.3147ZM58.2184 80.0972L58.2318 80.8358C57.8698 80.4598 57.689 80.3338 57.2846 80.1664C56.836 80.0082 56.3659 79.919 55.8905 79.902H55.8069C55.2067 79.902 54.6773 79.9991 54.2037 80.1809C53.7291 80.3766 53.2973 80.6969 52.9207 81.1013C52.5587 81.4638 52.2798 81.9096 52.084 82.4121C51.8935 82.9009 51.7943 83.4205 51.7912 83.9451C51.7912 85.1165 52.1956 86.1056 52.977 86.8865C53.7291 87.653 54.7192 88.0574 55.8905 88.0574C56.3781 88.0574 56.8936 87.9324 57.298 87.765C57.7164 87.6111 58.0371 87.4856 58.2318 87.2072V87.9184L60.0442 87.9045L60.0168 80.0977H58.2184V80.0972ZM55.8905 86.3008C54.6076 86.2869 53.5617 85.2549 53.5617 83.9725C53.5617 82.704 54.6076 81.6725 55.8905 81.6586C57.1725 81.6586 58.2184 82.704 58.2184 83.9725C58.2184 85.2554 57.1725 86.3008 55.8905 86.3008ZM68.855 75.971C68.8406 75.971 68.8266 75.9575 68.8266 75.9575C67.6134 75.9575 66.6243 76.9471 66.6243 78.1598C66.6243 79.3726 67.6134 80.3492 68.8266 80.3492H68.855C70.0533 80.3348 71.0289 79.3591 71.0289 78.1598C71.0289 76.9606 70.0533 75.9849 68.855 75.971ZM68.855 79.9996C68.6133 79.9999 68.3739 79.9526 68.1505 79.8602C67.9271 79.7679 67.7241 79.6324 67.5532 79.4615C67.3822 79.2906 67.2467 79.0877 67.1543 78.8643C67.0619 78.641 67.0145 78.4016 67.0148 78.1598C67.0148 77.1702 67.8365 76.3335 68.855 76.3475C69.8725 76.3475 70.6943 77.1697 70.6943 78.1738C70.6943 79.1773 69.8725 79.9996 68.855 79.9996Z" fill="white"/>
<path fill-rule="evenodd" clip-rule="evenodd" d="M69.496 78.5219C69.4159 78.4427 69.3272 78.3727 69.2316 78.3132C69.4408 78.2849 69.6071 78.2012 69.7052 78.0757C69.8023 77.9786 69.8726 77.8252 69.8726 77.6573C69.8726 77.5184 69.8163 77.3784 69.7605 77.2674C69.6883 77.17 69.592 77.0931 69.4811 77.0442C69.37 77.0024 69.1882 76.989 68.9238 76.989H67.9063V79.3721H68.3944V78.3685H68.478C68.5891 78.3685 68.6728 78.3825 68.7281 78.3964C68.7843 78.4109 68.8127 78.4382 68.8546 78.4806C68.8546 78.494 68.868 78.494 68.868 78.5085C68.9233 78.5364 69.007 78.6619 69.1325 78.8432L69.4806 79.3721H70.0524L69.7595 78.9124C69.6489 78.7311 69.5513 78.5777 69.496 78.5219ZM68.8551 77.993H68.3949V77.3934H68.8551C68.994 77.3934 69.0916 77.3934 69.1195 77.4073C69.1882 77.4115 69.2527 77.4414 69.3003 77.491C69.3556 77.5323 69.3705 77.6025 69.3705 77.6718C69.3705 77.741 69.3561 77.8257 69.3143 77.867C69.2734 77.8954 69.2316 77.9367 69.1888 77.9646C69.1335 77.9786 69.0224 77.9786 68.8551 77.993ZM40.305 65.4185H24.3996C29.1529 68.3599 34.7155 70.3117 41.0441 71.6221L40.305 65.4185ZM52.4332 65.4325L51.485 71.259C57.8419 70.0881 63.4459 68.2484 68.3112 65.4325H52.4332ZM50.6064 65.4046L41.8663 65.418C43.093 67.969 44.6549 70.116 46.4388 72.1655C48.1954 70.0742 49.3663 67.9137 50.6064 65.4046ZM74.1243 61.5293L18.4889 61.5009C16.6347 60.0233 15.3801 59.2568 13.8885 57.291H78.7934C77.3441 58.8808 75.6857 60.3161 74.1243 61.5293ZM82.4177 52.468L10.5148 52.4959C9.55306 51.1577 8.4514 49.2761 7.76859 47.7845H85.1648C84.4402 49.4569 83.4635 51.0043 82.4177 52.468ZM30.9648 42.682L5.85861 42.696C3.55867 37.3844 2.10888 31.906 1.41162 25.1033C14.3487 27.4032 24.3299 32.7148 30.9648 42.682ZM56.685 42.7239H36.0393C35.5791 29.4387 39.2596 15.9583 46.3691 7.84521C53.5902 15.7496 57.3265 29.1737 56.685 42.7239ZM87.2835 42.696L61.6888 42.7099C68.7565 32.7706 78.905 27.1527 92.0507 25.159C91.229 31.8089 89.695 37.4541 87.2835 42.696ZM89.695 13.5612C89.6676 13.5473 89.6397 13.5473 89.6113 13.5473C86.907 13.5473 84.6768 15.764 84.6768 18.4684C84.6768 21.1727 86.9075 23.389 89.6113 23.389H89.695C92.4004 23.3477 94.5887 21.1448 94.5887 18.4684C94.5887 15.7914 92.3999 13.6025 89.695 13.5612ZM89.695 22.622C87.4374 22.622 85.5832 20.7539 85.5832 18.4958C85.5832 16.2651 87.4374 14.3835 89.695 14.4114C91.982 14.4114 93.8213 16.2656 93.8213 18.5097C93.8213 20.7818 91.982 22.622 89.695 22.622Z" fill="white"/>
<path fill-rule="evenodd" clip-rule="evenodd" d="M91.1306 19.2904C90.9583 19.116 90.7668 18.9616 90.5599 18.8302C91.02 18.7605 91.3816 18.6071 91.6326 18.3142C91.8562 18.0772 91.9818 17.7425 91.9818 17.3525C91.9818 17.0318 91.8697 16.7389 91.7307 16.4879C91.5769 16.2648 91.3398 16.0701 91.0888 16.0003C90.8388 15.8888 90.4204 15.8335 89.8347 15.8335H87.6045V21.1999H88.6504V18.9557H88.873C89.124 18.9557 89.3048 18.9691 89.4303 19.0115C89.514 19.0533 89.6111 19.1091 89.6948 19.1928C89.7092 19.2067 89.7376 19.2207 89.751 19.2346C89.8347 19.3601 90.0294 19.6111 90.3218 20.0295L91.0883 21.2004H92.3852L91.7442 20.1689C91.4932 19.7506 91.2706 19.4298 91.1306 19.2904ZM89.6948 18.0916H88.6499V16.7673H89.6948C90.002 16.7673 90.2112 16.7673 90.2805 16.7813C90.4762 16.7952 90.6151 16.8928 90.6988 16.9904C90.8109 17.0736 90.8388 17.2415 90.8388 17.4083C90.8388 17.5477 90.8104 17.7151 90.7406 17.8266C90.657 17.9103 90.5599 17.994 90.4204 18.0358C90.3083 18.0637 90.0857 18.0777 89.6948 18.0916Z" fill="white"/>
</svg>
