<svg width="72" height="72" viewBox="0 0 72 72" fill="none" xmlns="http://www.w3.org/2000/svg">
<path d="M4.5 27.2999C4.5 19.3192 4.5 15.3289 6.05315 12.2806C7.41935 9.59933 9.59933 7.41935 12.2806 6.05315C15.3289 4.5 19.3192 4.5 27.2999 4.5H44.7001C52.6808 4.5 56.6712 4.5 59.7193 6.05315C62.4006 7.41935 64.5806 9.59933 65.9468 12.2806C67.5 15.3289 67.5 19.3192 67.5 27.2999V44.7001C67.5 52.6808 67.5 56.6712 65.9468 59.7193C64.5806 62.4006 62.4006 64.5806 59.7193 65.9468C56.6712 67.5 52.6808 67.5 44.7001 67.5H27.2999C19.3192 67.5 15.3289 67.5 12.2806 65.9468C9.59933 64.5806 7.41935 62.4006 6.05315 59.7193C4.5 56.6712 4.5 52.6808 4.5 44.7001V27.2999Z" fill="#001E36"/>
<path d="M18 50.6614V22.9576C18 22.7693 18.0787 22.6616 18.2625 22.6616C20.9752 22.6616 23.6867 22.5 26.3999 22.5C30.803 22.5 35.5703 24.0055 37.2413 28.6114C37.6351 29.7423 37.845 30.8999 37.845 32.1116C37.845 34.427 37.3201 36.3384 36.27 37.8461C33.3369 42.0577 28.2533 41.9922 23.6963 41.9922V50.6347C23.7319 50.8905 23.5138 51.0116 23.3026 51.0116H18.315C18.105 51.0116 18 50.9038 18 50.6614ZM23.7224 27.8577V36.9038C25.5294 37.0361 27.4201 37.0505 29.1562 36.4732C31.0729 35.9201 32.1226 34.2612 32.1226 32.2731C32.1757 30.5791 31.2527 28.9537 29.6813 28.3423C27.9662 27.6291 25.5739 27.5863 23.7224 27.8577Z" fill="#31A8FF"/>
<path d="M54.2176 35.1167C53.4234 34.698 52.5774 34.3917 51.7028 34.2063C50.5791 33.942 46.1471 33.0159 46.1453 35.3334C46.1847 36.6271 48.2385 37.261 49.1459 37.6306C52.3317 38.7244 55.9366 40.6794 55.8657 44.6095C55.9632 49.5019 51.2229 51.4578 47.1596 51.4582C45.0444 51.4801 42.8407 51.1524 40.9048 50.2443C40.7198 50.1465 40.6011 49.9375 40.6089 49.7241V45.0428C40.588 44.8551 40.7896 44.6911 40.9471 44.8261C42.8438 45.9732 45.092 46.5303 47.2865 46.56C48.2551 46.56 50.1748 46.4661 50.1604 45.0428C50.1604 43.677 47.8638 43.0491 46.9483 42.7021C45.6213 42.2285 44.363 41.5722 43.2081 40.7516C41.594 39.6003 40.5815 37.7544 40.6089 35.7235C40.5995 31.1169 44.9629 29.0491 48.8925 29.0482C50.7294 29.0329 52.7022 29.169 54.4122 29.9151C54.6582 29.9874 54.709 30.2466 54.7081 30.4785V34.8566C54.7236 35.1284 54.4219 35.2209 54.2176 35.1167Z" fill="#31A8FF"/>
</svg>
