<svg width="298" height="231" viewBox="0 0 298 231" fill="none" xmlns="http://www.w3.org/2000/svg">
<rect x="3" y="3" width="292" height="225" rx="16" fill="white"/>
<rect x="3" y="3" width="292" height="225" rx="16" stroke="url(#paint0_linear_94_3582)" stroke-width="5"/>
<mask id="mask0_94_3582" style="mask-type:luminance" maskUnits="userSpaceOnUse" x="113" y="53" width="30" height="45">
<path d="M113.398 53.6121H142.583V97.585H113.398V53.6121Z" fill="white"/>
</mask>
<g mask="url(#mask0_94_3582)">
<path d="M113.402 97.6004C117.856 95.9905 128.616 93.1436 142.579 96.3938C138.165 93.9204 130.474 91.6678 117.883 93.7184L116.093 94.0104V53.6689C115.369 53.6634 114.411 53.6854 113.402 53.7306V97.6004Z" fill="#312468"/>
</g>
<path d="M147.457 95.943V57.0444C146.19 55.3695 138.967 47.3526 119.178 50.1925V90.408C122.141 90.0001 124.848 89.8208 127.311 89.8208C138.094 89.8208 144.269 93.2464 147.457 95.943Z" fill="#312468"/>
<mask id="mask1_94_3582" style="mask-type:luminance" maskUnits="userSpaceOnUse" x="155" y="53" width="30" height="45">
<path d="M155.391 53.6121H184.602V97.585H155.391V53.6121Z" fill="white"/>
</mask>
<g mask="url(#mask1_94_3582)">
<path d="M184.593 97.6006V53.7308C183.584 53.6863 182.625 53.6643 181.903 53.6691V94.0106L180.113 93.7186C167.501 91.6618 159.808 93.9199 155.4 96.3978C169.367 93.1416 180.138 95.9907 184.593 97.6006Z" fill="#312468"/>
</g>
<path d="M178.818 90.4079V50.1924C159.019 47.3433 151.824 55.3516 150.541 57.0451V95.943C154.458 92.6317 162.889 88.2244 178.818 90.4079Z" fill="#312468"/>
<path d="M141.155 80.4739L138.719 83.7454C138.203 84.4388 138.348 85.4286 139.042 85.9449L139.213 86.0723C139.493 86.281 139.822 86.3818 140.148 86.3818C140.629 86.3818 141.105 86.1631 141.413 85.75L143.848 82.4785C144.364 81.7853 144.219 80.7952 143.526 80.279L143.355 80.1518C143.074 79.9429 142.745 79.8423 142.419 79.8423C141.938 79.8423 141.462 80.0608 141.155 80.4739Z" fill="#FFE500"/>
<mask id="mask2_94_3582" style="mask-type:luminance" maskUnits="userSpaceOnUse" x="142" y="83" width="6" height="6">
<path d="M142.369 83.3334H147.303V88.7094H142.369V83.3334Z" fill="white"/>
</mask>
<g mask="url(#mask2_94_3582)">
<path d="M144.32 83.9099L142.659 86.1409C142.198 86.76 142.327 87.6438 142.947 88.1048L143.388 88.433C143.638 88.6196 143.932 88.7096 144.223 88.7096C144.653 88.7096 145.077 88.5145 145.352 88.1455L147.013 85.9148C147.473 85.2957 147.344 84.4119 146.725 83.9507L146.284 83.6222C146.033 83.4359 145.74 83.3461 145.448 83.3461C145.019 83.3461 144.594 83.5412 144.32 83.9099Z" fill="#FFE500"/>
</g>
<path d="M135.439 76.626L134.769 76.1274C134.544 75.9602 134.281 75.8792 134.019 75.8792C133.633 75.8794 133.251 76.0548 133.004 76.3861L131.887 77.8874C131.473 78.4439 131.589 79.2381 132.145 79.6522L132.815 80.1508C133.04 80.3182 133.304 80.399 133.566 80.399C133.951 80.399 134.333 80.2236 134.58 79.8923L135.698 78.3908C136.112 77.8345 135.995 77.0403 135.439 76.626Z" fill="#FFE500"/>
<path d="M140.394 76.8583C140.094 76.6351 139.743 76.5272 139.393 76.5274C138.879 76.5274 138.37 76.7611 138.041 77.203L135.069 81.1953C134.517 81.9374 134.672 82.9961 135.414 83.5483C135.714 83.7715 136.066 83.8791 136.415 83.8791C136.879 83.8791 137.338 83.689 137.665 83.3274C137.714 83.2436 137.768 83.1614 137.828 83.0818L139.239 81.1861L140.263 79.8103C140.333 79.7162 140.41 79.6269 140.492 79.5426L140.739 79.2112C141.291 78.4694 141.136 77.4107 140.394 76.8583Z" fill="#FFE500"/>
<path d="M132.021 58.2298L124.855 71.0513C124.628 71.4577 124.774 71.9711 125.18 72.1981L127.655 73.5812C128.061 73.8082 128.574 73.6629 128.801 73.2567L135.966 60.435C136.193 60.0288 136.048 59.5154 135.642 59.2882L133.167 57.9051C132.761 57.678 132.247 57.8233 132.021 58.2298Z" fill="#FFE500"/>
<mask id="mask3_94_3582" style="mask-type:luminance" maskUnits="userSpaceOnUse" x="162" y="58" width="12" height="17">
<path d="M162.041 58.3842H173.367V74.2859H162.041V58.3842Z" fill="white"/>
</mask>
<g mask="url(#mask3_94_3582)">
<path d="M162.148 61.0276L169.314 73.8494C169.541 74.2556 170.054 74.4009 170.46 74.1739L172.935 72.7907C173.341 72.5637 173.486 72.0503 173.259 71.6439L166.094 58.8222C165.867 58.416 165.354 58.2707 164.948 58.4977L162.473 59.8808C162.066 60.1079 161.921 60.6212 162.148 61.0276Z" fill="#FFE500"/>
</g>
<path d="M165.073 78.3983C165.093 77.8066 164.815 77.2439 164.344 76.8861L160.625 74.0684C159.281 73.1213 157.605 72.0362 155.643 70.8432C152.876 69.1613 150.269 67.7058 149.06 67.0414C148.871 66.9375 148.65 66.9104 148.441 66.9649L147.083 67.3211C146.883 67.3735 146.709 67.4962 146.593 67.667L146.591 67.6691C146.214 68.2213 145.795 68.7282 145.345 69.1756C144.817 69.7007 144.257 70.1368 143.679 70.4715C142.987 70.8732 142.274 71.1267 141.561 71.2243C141.403 71.246 141.244 71.257 141.089 71.257C140.529 71.257 140.008 71.1133 139.581 70.8417C139.034 70.4939 138.683 69.9839 138.566 69.3672C138.431 68.6542 138.616 67.8394 139.131 66.877C139.493 66.1991 139.945 65.5794 140.275 65.1268C140.357 65.0158 140.427 64.9198 140.483 64.8402C140.71 64.517 140.975 64.1475 141.272 63.7609C141.348 63.6618 141.268 63.5205 141.144 63.5345C140.52 63.6063 139.109 63.536 136.888 62.1598C136.691 62.0376 136.431 62.1045 136.318 62.3075L130.163 73.3214C130.034 73.5527 130.065 73.8402 130.241 74.0382L131.873 75.8742C131.896 75.8994 131.921 75.9223 131.948 75.942L132.112 75.7222C132.336 75.4208 132.633 75.1743 132.971 75.0094C133.295 74.8512 133.657 74.7676 134.018 74.7674C134.267 74.7674 134.514 74.8065 134.75 74.8832C134.995 74.9625 135.225 75.0814 135.432 75.2357L136.102 75.7343C136.359 75.9251 136.57 76.1617 136.731 76.4373C136.769 76.5019 136.804 76.5681 136.835 76.6355C136.877 76.7256 136.999 76.7382 137.058 76.6586L137.148 76.539C137.412 76.1846 137.76 75.8946 138.157 75.7007C138.539 75.5142 138.973 75.4156 139.389 75.4156C139.681 75.4156 139.975 75.4613 140.253 75.5516C140.541 75.645 140.813 75.7846 141.057 75.9663C141.359 76.1912 141.608 76.4692 141.797 76.7935C141.979 77.1048 142.098 77.4443 142.15 77.8026C142.187 78.051 142.19 78.3002 142.16 78.5463C142.148 78.647 142.227 78.7359 142.329 78.7323C142.359 78.7314 142.389 78.7309 142.419 78.7309C142.697 78.7309 142.979 78.7747 143.246 78.8614C143.524 78.9513 143.782 79.0856 144.017 79.2602L144.188 79.3877C145.026 80.0118 145.395 81.0355 145.229 82.0014C145.208 82.1241 145.304 82.2354 145.429 82.2344C145.435 82.2342 145.442 82.2342 145.449 82.2342C145.713 82.2342 145.974 82.2754 146.224 82.3566C146.484 82.441 146.727 82.5667 146.947 82.7304L147.388 83.0589C148.502 83.8884 148.733 85.4642 147.904 86.5786L147.686 86.8707C147.584 87.0081 147.608 87.2051 147.746 87.3069C147.771 87.3247 147.797 87.3388 147.825 87.3488C148.32 87.5244 153.092 89.1452 154.44 86.8712C154.529 86.7215 154.469 86.5276 154.313 86.4512L149.862 84.2745C149.594 84.1433 149.453 83.8372 149.54 83.5515C149.604 83.3431 149.785 83.1547 150.226 83.1358C150.272 83.1339 150.318 83.1444 150.36 83.1659L154.938 85.5545C155.452 85.823 156.036 85.9352 156.611 85.864C157.316 85.7765 158.084 85.4135 158.151 84.2619C158.168 83.9594 158.013 83.673 157.751 83.5206L152.038 80.1924C151.815 80.0626 151.695 79.8079 151.738 79.5532C151.778 79.3153 151.905 79.0728 152.256 79.0596C152.371 79.0554 152.484 79.0861 152.584 79.1437L158.586 82.6327C158.888 82.8078 159.233 82.8929 159.581 82.8767C160.182 82.849 161.058 82.6668 161.404 81.8847C161.708 81.1977 161.44 80.3906 160.795 80.004L154.223 76.0604C154.029 75.944 153.915 75.7291 153.93 75.5032C153.95 75.2055 154.1 74.8679 154.711 74.9656C154.785 74.9775 154.856 75.0044 154.92 75.0428L162.386 79.493C162.941 79.8236 163.622 79.8787 164.216 79.6242C164.657 79.4351 165.05 79.0758 165.073 78.3983Z" fill="#FFE500"/>
<path d="M167.803 73.5961L161.572 62.4464C161.522 62.3575 161.418 62.3149 161.32 62.344C160.873 62.4769 160.313 62.6127 160.232 62.6227C159.991 62.6525 159.749 62.6665 159.508 62.6665C158.687 62.6665 157.867 62.504 157.093 62.2377C155.287 61.6174 153.042 61.4387 151.04 61.4387C149.559 61.4387 148.211 61.5366 147.271 61.625C146.496 61.6981 145.744 61.7544 144.993 61.9761C144.288 62.1844 143.684 62.6653 143.192 63.1977C143.061 63.3385 142.934 63.4827 142.809 63.6289C142.304 64.2188 141.837 64.8479 141.393 65.4797C140.742 66.4054 138.662 68.9386 140.179 69.9034C140.448 70.0749 140.769 70.145 141.09 70.145C141.198 70.145 141.305 70.1369 141.411 70.1226C142.624 69.9563 143.711 69.2331 144.562 68.3869C144.975 67.9767 145.346 67.5229 145.674 67.0422C145.73 66.96 145.953 66.4678 146.048 66.443L148.129 65.8973L148.825 65.7148C148.844 65.71 148.863 65.7076 148.882 65.7076C148.919 65.7076 148.955 65.7167 148.988 65.7346C150.061 66.3163 159.418 71.4476 164.787 76.0817C164.787 76.0822 164.788 76.0826 164.788 76.0829C164.862 76.1462 164.971 76.146 165.046 76.0843L167.79 73.8281C167.838 73.7595 167.844 73.6695 167.803 73.5961Z" fill="#FFE500"/>
<g clip-path="url(#clip0_94_3582)">
<path d="M141.347 118.486C141.095 118.786 140.812 119.95 140.686 121.077C140.528 122.766 140.308 123.367 139.394 124.456C138.103 125.995 137.851 128.173 138.89 128.811C139.205 129.037 139.552 129.074 139.678 128.962C139.93 128.624 139.93 129.074 139.426 135.044C139.174 137.935 138.859 142.178 138.733 144.506L138.512 148.711L137.568 148.148C136.843 147.698 136.056 147.585 134.071 147.773C131.016 148.035 131.016 148.035 128.843 147.773C127.363 147.585 126.953 147.698 126.008 148.449C125.41 148.937 124.875 149.725 124.812 150.176C124.686 151.189 124.78 151.189 126.229 150.251C126.89 149.838 127.772 149.5 128.213 149.5C128.969 149.537 128.969 149.575 127.835 150.739C125.883 152.729 125.064 154.343 125.064 156.108C125.064 158.774 126.733 159.788 129.568 158.849C132.843 157.798 134.575 153.104 132.686 150.514C132.245 149.913 132.245 149.8 132.623 149.462C133.19 149.049 134.701 149.387 135.678 150.101C136.843 150.964 137.316 152.203 137.694 155.32C137.914 156.972 138.229 158.549 138.386 158.811C138.827 159.487 139.772 159.375 140.024 158.624C140.402 157.385 140.591 152.954 140.276 151.903C139.961 150.776 140.528 141.728 141.694 130.351L142.229 124.907L143.646 123.968C144.843 123.179 145.473 123.029 147.741 123.029C150.04 123.029 150.67 123.179 152.213 124.081C156.339 126.484 159.079 132.491 159.079 138.949C159.048 143.455 157.347 149.012 155.016 152.203C152.938 154.982 148.528 157.347 146.26 156.821C145.001 156.559 144.938 155.808 146.103 154.944C147.552 153.818 148.686 152.391 148.686 151.678C148.686 149.387 146.418 147.36 144.339 147.773C142.796 148.035 142.229 148.786 142.67 149.838C142.953 150.438 143.331 150.626 144.213 150.626C145.631 150.626 146.67 151.377 146.386 152.241C146.292 152.579 145.379 153.367 144.339 153.968C142.197 155.245 141.662 155.883 141.82 157.084C141.977 158.511 143.174 158.962 146.166 158.736C151.426 158.361 155.205 155.92 157.977 151.039C162.386 143.229 162.26 131.815 157.662 125.92C154.418 121.715 149.158 119.988 144.339 121.49L142.701 121.978V119.988C142.701 117.848 142.292 117.397 141.347 118.486ZM130.922 152.166C131.867 154.418 130.701 157.385 128.843 157.385C127.835 157.385 127.268 156.521 127.268 154.982C127.268 154.005 129.379 151.002 130.04 151.002C130.229 151.002 130.638 151.527 130.922 152.166Z" fill="#312468"/>
<path d="M122.103 135.87C122.04 136.246 121.442 140.864 120.812 146.121C120.182 151.377 119.615 155.883 119.552 156.146C119.458 156.446 119.08 156.371 118.229 155.845C117.599 155.47 116.843 155.132 116.592 155.132C116.277 155.132 116.529 154.606 117.253 153.705C118.733 151.865 119.08 151.002 119.08 149.124C119.08 147.81 118.891 147.322 117.977 146.233C116.906 144.957 116.78 144.882 115.017 145.107C112.088 145.407 110.261 146.947 110.733 148.749C111.017 149.8 111.741 149.688 113.001 148.373C114.576 146.721 116.245 146.872 116.812 148.749C117.536 151.114 115.962 153.893 113.158 155.132C109.82 156.634 108.749 157.685 109.19 159.037C109.473 159.975 110.828 159.75 112.686 158.511C114.922 156.972 116.78 156.972 118.166 158.436L119.174 159.487L117.977 168.686C117.347 173.718 116.749 178.336 116.655 178.899C116.497 179.913 116.529 179.95 117.379 179.838C118.576 179.688 119.773 177.097 120.623 172.779C121.536 168.236 121.725 165.157 121.316 161.703C120.969 158.999 121.032 157.873 121.946 150.063C122.481 145.295 123.048 141.277 123.174 141.089C123.332 140.939 123.71 141.127 124.056 141.54C124.812 142.441 125.064 142.253 125.064 140.902C125.032 139.174 123.269 135.232 122.513 135.232C122.387 135.232 122.198 135.532 122.103 135.87Z" fill="#312468"/>
<path d="M174.292 148.561C171.898 149.35 170.418 150.326 168.496 152.428C165.189 156.071 163.52 160.539 163.205 166.771L163.016 170.714L162.418 169.4C161.441 167.297 161.63 163.655 162.985 158.661C164.717 152.353 164.496 151.377 161.441 151.077C159.93 150.927 159.52 151.002 159.174 151.602C158.386 152.879 158.67 153.255 160.339 153.255C161.504 153.255 161.977 153.405 162.134 153.855C162.229 154.193 161.788 156.446 161.158 158.849C159.835 163.693 159.426 167.748 159.993 169.85C160.465 171.577 161.693 173.042 162.89 173.342C163.552 173.53 163.993 174.018 164.433 175.032C166.985 180.964 174.827 183.179 181.032 179.65C183.552 178.261 186.26 175.069 187.489 172.141C188.339 170.076 188.528 169.137 188.622 166.358C188.748 163.505 188.685 162.979 188.244 162.791C187.93 162.641 187.457 162.829 187.111 163.204C186.607 163.768 186.481 164.368 186.481 166.621C186.481 173.38 183.048 178.148 177.41 179.162C173.126 179.95 169.536 178.486 167.331 175.032L166.26 173.38L167.93 172.704C170.355 171.728 171.142 170.714 170.449 169.475C170.26 169.062 169.819 169.212 168.465 170.113C167.52 170.751 166.512 171.277 166.26 171.277C165.221 171.277 165.063 166.058 166.008 161.778C167.457 154.982 171.583 150.025 176.213 149.612C178.67 149.35 180.024 150.063 180.339 151.753C180.748 154.043 179.363 156.821 177.914 156.559C177.284 156.446 177.189 156.258 177.221 154.644C177.221 153.029 177.158 152.879 176.496 152.879C175.552 152.879 174.796 154.306 174.733 156.258C174.638 159.3 177.126 160.163 179.835 158.023C181.882 156.408 182.701 152.804 181.599 150.288C180.717 148.223 177.662 147.51 174.292 148.561Z" fill="#312468"/>
</g>
<defs>
<linearGradient id="paint0_linear_94_3582" x1="149" y1="3" x2="149" y2="228" gradientUnits="userSpaceOnUse">
<stop stop-color="#8133F1"/>
<stop offset="1" stop-color="#090909"/>
</linearGradient>
<clipPath id="clip0_94_3582">
<rect width="80" height="63.8298" fill="white" transform="translate(109 117.585)"/>
</clipPath>
</defs>
</svg>
