<svg width="869" height="708" viewBox="0 0 869 708" fill="none" xmlns="http://www.w3.org/2000/svg">
<g clip-path="url(#clip0_1_11745)">
<g opacity="0.5">
<g opacity="0.2">
<path d="M0.380859 76.5215V77.4091H155.103V141.105H492.072C492.342 141.252 644.075 222.488 644.075 222.488H868.991V221.6H644.395C644.125 221.454 492.392 140.217 492.392 140.217H156.192V76.5296H0.380859V76.5215Z" fill="#9654F4"/>
<path d="M116.022 0V107.482H387.464V174.712H688.222V72.0997H819.595V107.482H869V106.594H820.685V71.212H687.133V173.824H388.544V106.594H117.101V0H116.012H116.022Z" fill="#9654F4"/>
<path d="M317.969 44.6733V140.649H319.058V45.5528H446.094V140.649H447.183V44.6733H317.979H317.969Z" fill="#9654F4"/>
<path d="M0.380859 152.595V153.483H81.2699V257.862H320.139V353.52H642.616V425.937H869.001V425.057H643.705V352.64H321.228V256.982H82.3594V152.595H0.380859Z" fill="#9654F4"/>
<path d="M478.438 605.07L352.871 707.373L353.641 708C353.641 708 478.567 606.219 478.887 605.958H619.816V648.864H869V647.977H620.905V605.07H478.448H478.438Z" fill="#9654F4"/>
<path d="M535.129 260.516V353.08H536.218V261.396H780.515V316.24H869.01V315.353H781.604V260.508H535.139L535.129 260.516Z" fill="#9654F4"/>
<path d="M105.158 433.013V527.669H0.380859V528.557H106.247V433.901H563.676C563.995 434.161 612.531 473.705 612.531 473.705H869.001V472.817H612.981C612.661 472.556 564.125 433.013 564.125 433.013H105.158Z" fill="#9654F4"/>
<path d="M440.297 212.749V353.08H441.386V213.628H578.557V260.956H579.646V212.749H440.307H440.297Z" fill="#9654F4"/>
<path d="M106.246 528.109H105.156V707.682H106.246V528.109Z" fill="#9654F4"/>
<path d="M161.399 76.9612C161.399 79.5507 158.82 81.6517 155.642 81.6517C152.463 81.6517 149.895 79.5507 149.895 76.9612C149.895 74.3717 152.473 72.2708 155.642 72.2708C158.81 72.2708 161.399 74.3717 161.399 76.9612Z" fill="#9654F4"/>
<path d="M161.399 140.649C161.399 143.238 158.82 145.339 155.642 145.339C152.463 145.339 149.895 143.238 149.895 140.649C149.895 138.059 152.473 135.967 155.642 135.967C158.81 135.967 161.399 138.067 161.399 140.649Z" fill="#9654F4"/>
<path d="M497.988 140.649C497.988 143.238 495.41 145.339 492.241 145.339C489.073 145.339 486.494 143.238 486.494 140.649C486.494 138.059 489.073 135.967 492.241 135.967C495.41 135.967 497.988 138.067 497.988 140.649Z" fill="#9654F4"/>
<path d="M446.594 213.188C446.594 215.778 444.015 217.879 440.847 217.879C437.679 217.879 435.09 215.778 435.09 213.188C435.09 210.599 437.669 208.506 440.847 208.506C444.025 208.506 446.594 210.607 446.594 213.188Z" fill="#9654F4"/>
<path d="M649.331 222.04C649.331 224.328 647.052 226.185 644.244 226.185C641.435 226.185 639.156 224.328 639.156 222.04C639.156 219.752 641.435 217.895 644.244 217.895C647.052 217.895 649.331 219.752 649.331 222.04Z" fill="#9654F4"/>
<path d="M692.771 71.0492C692.771 73.3374 690.492 75.194 687.683 75.194C684.875 75.194 682.596 73.3374 682.596 71.0492C682.596 68.7609 684.875 66.9043 687.683 66.9043C690.492 66.9043 692.771 68.7609 692.771 71.0492Z" fill="#9654F4"/>
<path d="M692.771 174.264C692.771 176.552 690.492 178.409 687.683 178.409C684.875 178.409 682.596 176.552 682.596 174.264C682.596 171.976 684.875 170.119 687.683 170.119C690.492 170.119 692.771 171.976 692.771 174.264Z" fill="#9654F4"/>
<path d="M593.031 178.409C595.841 178.409 598.118 176.553 598.118 174.264C598.118 171.975 595.841 170.119 593.031 170.119C590.221 170.119 587.943 171.975 587.943 174.264C587.943 176.553 590.221 178.409 593.031 178.409Z" fill="#9654F4"/>
<path d="M451.722 45.1131C451.722 47.4014 449.443 49.258 446.634 49.258C443.826 49.258 441.547 47.4014 441.547 45.1131C441.547 42.8249 443.826 40.9683 446.634 40.9683C449.443 40.9683 451.722 42.8249 451.722 45.1131Z" fill="#9654F4"/>
<path d="M121.649 107.034C121.649 109.322 119.371 111.179 116.562 111.179C113.753 111.179 111.475 109.322 111.475 107.034C111.475 104.746 113.753 102.889 116.562 102.889C119.371 102.889 121.649 104.746 121.649 107.034Z" fill="#9654F4"/>
<path d="M323.606 45.1131C323.606 47.4014 321.328 49.258 318.519 49.258C315.71 49.258 313.432 47.4014 313.432 45.1131C313.432 42.8249 315.71 40.9683 318.519 40.9683C321.328 40.9683 323.606 42.8249 323.606 45.1131Z" fill="#9654F4"/>
<path d="M825.233 71.6517C825.233 73.9399 822.955 75.7966 820.146 75.7966C817.337 75.7966 815.059 73.9399 815.059 71.6517C815.059 69.3635 817.337 67.5068 820.146 67.5068C822.955 67.5068 825.233 69.3635 825.233 71.6517Z" fill="#9654F4"/>
<path d="M825.233 107.034C825.233 109.322 822.955 111.179 820.146 111.179C817.337 111.179 815.059 109.322 815.059 107.034C815.059 104.746 817.337 102.889 820.146 102.889C822.955 102.889 825.233 104.746 825.233 107.034Z" fill="#9654F4"/>
<path d="M374.871 580.746C374.871 582.66 372.972 584.207 370.623 584.207C368.274 584.207 366.375 582.66 366.375 580.746C366.375 578.833 368.274 577.286 370.623 577.286C372.972 577.286 374.871 578.833 374.871 580.746Z" fill="#9654F4"/>
<path d="M374.871 473.265C374.871 475.17 372.972 476.726 370.623 476.726C368.274 476.726 366.375 475.178 366.375 473.265C366.375 471.351 368.274 469.804 370.623 469.804C372.972 469.804 374.871 471.351 374.871 473.265Z" fill="#9654F4"/>
<path d="M765.754 580.746C765.754 582.66 763.854 584.207 761.506 584.207C759.157 584.207 757.258 582.66 757.258 580.746C757.258 578.833 759.157 577.286 761.506 577.286C763.854 577.286 765.754 578.833 765.754 580.746Z" fill="#9654F4"/>
<path opacity="0.6" d="M542.086 648.416C542.086 650.322 540.187 651.877 537.838 651.877C535.489 651.877 533.59 650.33 533.59 648.416C533.59 646.503 535.489 644.956 537.838 644.956C540.187 644.956 542.086 646.503 542.086 648.416Z" fill="#9654F4"/>
<path opacity="0.6" d="M430.254 648.416C430.254 650.322 428.354 651.877 426.006 651.877C423.657 651.877 421.758 650.33 421.758 648.416C421.758 646.503 423.657 644.956 426.006 644.956C428.354 644.956 430.254 646.503 430.254 648.416Z" fill="#9654F4"/>
<path d="M307.875 140.649C307.875 145.429 312.643 149.321 318.51 149.321C324.377 149.321 329.144 145.429 329.144 140.649C329.144 135.869 324.377 131.985 318.51 131.985C312.643 131.985 307.875 135.869 307.875 140.649ZM310.054 140.649C310.054 136.846 313.852 133.752 318.52 133.752C323.187 133.752 326.985 136.846 326.985 140.649C326.985 144.452 323.187 147.546 318.52 147.546C313.852 147.546 310.054 144.452 310.054 140.649Z" fill="#9654F4"/>
<path d="M324.886 140.649C324.886 143.515 322.038 145.844 318.519 145.844C315.001 145.844 312.143 143.515 312.143 140.649C312.143 137.783 314.991 135.454 318.519 135.454C322.048 135.454 324.886 137.783 324.886 140.649Z" fill="#9654F4"/>
<path d="M666.803 580.747C666.803 585.005 671.051 588.474 676.278 588.474C681.505 588.474 685.753 585.014 685.753 580.747C685.753 576.48 681.505 573.027 676.278 573.027C671.051 573.027 666.803 576.488 666.803 580.747ZM668.972 580.747C668.972 577.465 672.25 574.794 676.278 574.794C680.306 574.794 683.584 577.465 683.584 580.747C683.584 584.028 680.306 586.699 676.278 586.699C672.25 586.699 668.972 584.028 668.972 580.747Z" fill="#9654F4"/>
<path d="M681.876 580.747C681.876 583.263 679.367 585.307 676.279 585.307C673.19 585.307 670.682 583.263 670.682 580.747C670.682 578.23 673.19 576.187 676.279 576.187C679.367 576.187 681.876 578.23 681.876 580.747Z" fill="#9654F4"/>
<path d="M816.956 425.497V502.092H458.668V535.259H235.551V707.682H236.64V536.138H459.757V502.963H818.046V425.489H816.956V425.497Z" fill="#9654F4"/>
<path d="M0.000458628 404.577L216.771 581.186H371.173V473.705H544.125C544.445 473.965 676.048 581.186 676.048 581.186H762.045V528.549H868.99V527.661H760.955V580.291H676.488C676.168 580.03 544.565 472.809 544.565 472.809H370.073V580.291H217.2C216.881 580.03 0.750079 403.942 0.750079 403.942L-0.0195312 404.569L0.000458628 404.577Z" fill="#9654F4"/>
<path opacity="0.6" d="M221.238 580.746C221.238 582.66 219.339 584.207 216.99 584.207C214.641 584.207 212.742 582.66 212.742 580.746C212.742 578.833 214.641 577.286 216.99 577.286C219.339 577.286 221.238 578.833 221.238 580.746Z" fill="#9654F4"/>
<path d="M277.85 580.747C277.85 585.356 282.457 589.11 288.114 589.11C293.772 589.11 298.379 585.356 298.379 580.747C298.379 576.138 293.772 572.384 288.114 572.384C282.457 572.384 277.85 576.138 277.85 580.747ZM280.019 580.747C280.019 577.115 283.647 574.159 288.104 574.159C292.562 574.159 296.19 577.115 296.19 580.747C296.19 584.378 292.562 587.334 288.104 587.334C283.647 587.334 280.019 584.378 280.019 580.747Z" fill="#9654F4"/>
<path d="M288.115 585.73C291.493 585.73 294.232 583.499 294.232 580.747C294.232 577.994 291.493 575.763 288.115 575.763C284.737 575.763 281.998 577.994 281.998 580.747C281.998 583.499 284.737 585.73 288.115 585.73Z" fill="#9654F4"/>
<path d="M378.34 679.817C378.34 683.921 382.438 687.251 387.465 687.251C392.493 687.251 396.591 683.913 396.591 679.817C396.591 675.721 392.493 672.382 387.465 672.382C382.438 672.382 378.34 675.721 378.34 679.817ZM380.509 679.817C380.509 676.69 383.627 674.149 387.465 674.149C391.303 674.149 394.422 676.69 394.422 679.817C394.422 682.944 391.303 685.484 387.465 685.484C383.627 685.484 380.509 682.944 380.509 679.817Z" fill="#9654F4"/>
<path d="M392.822 679.816C392.822 682.227 390.424 684.189 387.455 684.189C384.487 684.189 382.088 682.235 382.088 679.816C382.088 677.398 384.487 675.444 387.455 675.444C390.424 675.444 392.822 677.398 392.822 679.816Z" fill="#9654F4"/>
<path d="M464.306 502.532C464.306 504.82 462.027 506.676 459.218 506.676C456.41 506.676 454.131 504.82 454.131 502.532C454.131 500.243 456.41 498.387 459.218 498.387C462.027 498.387 464.306 500.243 464.306 502.532Z" fill="#9654F4"/>
<path d="M241.189 535.699C241.189 537.987 238.91 539.843 236.101 539.843C233.293 539.843 231.014 537.987 231.014 535.699C231.014 533.41 233.293 531.554 236.101 531.554C238.91 531.554 241.189 533.41 241.189 535.699Z" fill="#9654F4"/>
<path d="M822.595 425.497C822.595 427.785 820.316 429.642 817.507 429.642C814.699 429.642 812.42 427.785 812.42 425.497C812.42 423.209 814.699 421.352 817.507 421.352C820.316 421.352 822.595 423.209 822.595 425.497Z" fill="#9654F4"/>
<path d="M785.603 316.248C785.603 318.536 783.324 320.393 780.515 320.393C777.707 320.393 775.428 318.536 775.428 316.248C775.428 313.96 777.707 312.103 780.515 312.103C783.324 312.103 785.603 313.96 785.603 316.248Z" fill="#9654F4"/>
<path d="M110.794 528.109C110.794 530.397 108.515 532.254 105.707 532.254C102.898 532.254 100.619 530.397 100.619 528.109C100.619 525.821 102.898 523.964 105.707 523.964C108.515 523.964 110.794 525.821 110.794 528.109Z" fill="#9654F4"/>
<path d="M464.306 535.699C464.306 537.987 462.027 539.843 459.218 539.843C456.41 539.843 454.131 537.987 454.131 535.699C454.131 533.41 456.41 531.554 459.218 531.554C462.027 531.554 464.306 533.41 464.306 535.699Z" fill="#9654F4"/>
<path opacity="0.6" d="M624.605 605.51C624.605 607.424 622.706 608.971 620.357 608.971C618.008 608.971 616.109 607.424 616.109 605.51C616.109 603.597 618.008 602.049 620.357 602.049C622.706 602.049 624.605 603.597 624.605 605.51Z" fill="#9654F4"/>
<path d="M593.57 0H592.48V174.264H593.57V0Z" fill="#9654F4"/>
<path d="M599.817 79.8357H586.244V82.9301H599.817V79.8357Z" fill="#9654F4"/>
<path d="M599.817 86.0244H586.244V89.1188H599.817V86.0244Z" fill="#9654F4"/>
<path d="M599.817 92.2214H586.244V95.3158H599.817V92.2214Z" fill="#9654F4"/>
<path d="M599.817 98.4102H586.244V101.505H599.817V98.4102Z" fill="#9654F4"/>
<path d="M123.349 26.7585H109.775V29.8529H123.349V26.7585Z" fill="#9654F4"/>
<path d="M123.349 32.9553H109.775V36.0497H123.349V32.9553Z" fill="#9654F4"/>
<path d="M123.349 39.1443H109.775V42.2387H123.349V39.1443Z" fill="#9654F4"/>
<path d="M123.349 45.333H109.775V48.4274H123.349V45.333Z" fill="#9654F4"/>
<path d="M112.493 601.162H98.9199V604.256H112.493V601.162Z" fill="#9654F4"/>
<path d="M112.493 607.35H98.9199V610.445H112.493V607.35Z" fill="#9654F4"/>
<path d="M112.493 613.547H98.9199V616.642H112.493V613.547Z" fill="#9654F4"/>
<path d="M112.493 619.736H98.9199V622.83H112.493V619.736Z" fill="#9654F4"/>
<path d="M242.888 628.8H229.314V631.894H242.888V628.8Z" fill="#9654F4"/>
<path d="M242.888 634.997H229.314V638.091H242.888V634.997Z" fill="#9654F4"/>
<path d="M242.888 641.185H229.314V644.28H242.888V641.185Z" fill="#9654F4"/>
<path d="M242.888 647.374H229.314V650.468H242.888V647.374Z" fill="#9654F4"/>
<path d="M537.298 527.669V647.977H288.654V580.747H287.564V648.864H538.378V528.557H761.505V527.669H537.298Z" fill="#9654F4"/>
</g>
</g>
<g opacity="0.2">
<path d="M775.077 0.309326H773.988V126.366H695.817V400.905C695.637 401.124 595.928 524.746 595.928 524.746V707.992H597.017V525.006C597.197 524.787 696.907 401.157 696.907 401.157V127.253H775.087V0.309326H775.077Z" fill="#9654F4"/>
<path d="M869 94.526H737.077V315.678H654.559V560.714H780.505V667.748H737.077V708H738.156V668.636H781.584V559.827H655.638V316.558H738.156V95.4054H868.99V94.5178L869 94.526Z" fill="#9654F4"/>
<path d="M814.168 259.059H696.357V259.946H813.078V363.446H696.357V364.334H814.168V259.067V259.059Z" fill="#9654F4"/>
<path d="M681.705 0.309326H680.616V66.212H552.491V260.826H435.08V523.557H346.195V708H347.285V524.445H436.17V261.713H553.58V67.0996H681.705V0.309326Z" fill="#9654F4"/>
<path d="M126.336 389.797L0.76961 287.495L0 288.122C0 288.122 124.927 389.903 125.247 390.164V504.982H72.5833V708H73.6727V505.87H126.336V389.805V389.797Z" fill="#9654F4"/>
<path d="M549.241 435.985H435.629V436.873H548.162V635.908H480.846V708.008H481.935V636.796H549.251V435.993L549.241 435.985Z" fill="#9654F4"/>
<path d="M337.519 85.6742H221.337V0.309326H220.248V86.5618H336.429V459.242C336.109 459.503 287.574 499.046 287.574 499.046V708H288.663V499.412C288.983 499.152 337.519 459.609 337.519 459.609V85.6742Z" fill="#9654F4"/>
<path d="M607.872 358.723H435.629V359.611H606.792V471.367H548.702V472.255H607.882V358.731L607.872 358.723Z" fill="#9654F4"/>
<path d="M220.787 85.6743H0.378906V86.5619H220.787V85.6743Z" fill="#9654F4"/>
<path d="M774.538 131.496C771.36 131.496 768.791 129.395 768.791 126.805C768.791 124.216 771.37 122.123 774.538 122.123C777.707 122.123 780.295 124.224 780.295 126.805C780.295 129.387 777.716 131.496 774.538 131.496Z" fill="#9654F4"/>
<path d="M696.356 131.496C693.178 131.496 690.609 129.395 690.609 126.805C690.609 124.216 693.188 122.123 696.356 122.123C699.525 122.123 702.113 124.224 702.113 126.805C702.113 129.387 699.535 131.496 696.356 131.496Z" fill="#9654F4"/>
<path d="M696.356 405.725C693.178 405.725 690.609 403.624 690.609 401.043C690.609 398.462 693.188 396.361 696.356 396.361C699.525 396.361 702.113 398.462 702.113 401.043C702.113 403.624 699.535 405.725 696.356 405.725Z" fill="#9654F4"/>
<path d="M607.333 363.853C604.155 363.853 601.586 361.752 601.586 359.171C601.586 356.59 604.165 354.48 607.333 354.48C610.501 354.48 613.09 356.581 613.09 359.171C613.09 361.76 610.511 363.853 607.333 363.853Z" fill="#9654F4"/>
<path d="M596.468 529.029C593.66 529.029 591.381 527.173 591.381 524.884C591.381 522.596 593.66 520.74 596.468 520.74C599.277 520.74 601.556 522.596 601.556 524.884C601.556 527.173 599.277 529.029 596.468 529.029Z" fill="#9654F4"/>
<path d="M781.794 564.42C778.986 564.42 776.707 562.563 776.707 560.275C776.707 557.987 778.986 556.13 781.794 556.13C784.603 556.13 786.882 557.987 786.882 560.275C786.882 562.563 784.603 564.42 781.794 564.42Z" fill="#9654F4"/>
<path d="M655.099 564.42C652.291 564.42 650.012 562.563 650.012 560.275C650.012 557.987 652.291 556.13 655.099 556.13C657.908 556.13 660.187 557.987 660.187 560.275C660.187 562.563 657.908 564.42 655.099 564.42Z" fill="#9654F4"/>
<path d="M655.099 487.304C652.291 487.304 650.012 485.447 650.012 483.159C650.012 480.871 652.291 479.014 655.099 479.014C657.908 479.014 660.187 480.871 660.187 483.159C660.187 485.447 657.908 487.304 655.099 487.304Z" fill="#9654F4"/>
<path d="M813.628 368.03C810.82 368.03 808.541 366.174 808.541 363.886C808.541 361.597 810.82 359.741 813.628 359.741C816.437 359.741 818.716 361.597 818.716 363.886C818.716 366.174 816.437 368.03 813.628 368.03Z" fill="#9654F4"/>
<path d="M737.617 99.1106C734.808 99.1106 732.529 97.2539 732.529 94.9657C732.529 92.6774 734.808 90.8208 737.617 90.8208C740.425 90.8208 742.704 92.6774 742.704 94.9657C742.704 97.2539 740.425 99.1106 737.617 99.1106Z" fill="#9654F4"/>
<path d="M813.628 263.651C810.82 263.651 808.541 261.795 808.541 259.506C808.541 257.218 810.82 255.362 813.628 255.362C816.437 255.362 818.716 257.218 818.716 259.506C818.716 261.795 816.437 263.651 813.628 263.651Z" fill="#9654F4"/>
<path d="M781.054 672.341C778.246 672.341 775.967 670.484 775.967 668.196C775.967 665.908 778.246 664.051 781.054 664.051C783.863 664.051 786.142 665.908 786.142 668.196C786.142 670.484 783.863 672.341 781.054 672.341Z" fill="#9654F4"/>
<path d="M737.617 672.341C734.808 672.341 732.529 670.484 732.529 668.196C732.529 665.908 734.808 664.051 737.617 664.051C740.425 664.051 742.704 665.908 742.704 668.196C742.704 670.484 740.425 672.341 737.617 672.341Z" fill="#9654F4"/>
<path d="M156.191 305.426C153.842 305.426 151.943 303.879 151.943 301.965C151.943 300.051 153.842 298.504 156.191 298.504C158.54 298.504 160.439 300.051 160.439 301.965C160.439 303.879 158.54 305.426 156.191 305.426Z" fill="#9654F4"/>
<path d="M288.115 305.426C285.766 305.426 283.867 303.879 283.867 301.965C283.867 300.051 285.766 298.504 288.115 298.504C290.464 298.504 292.363 300.051 292.363 301.965C292.363 303.879 290.464 305.426 288.115 305.426Z" fill="#9654F4"/>
<path d="M156.191 623.881C153.842 623.881 151.943 622.334 151.943 620.42C151.943 618.506 153.842 616.959 156.191 616.959C158.54 616.959 160.439 618.506 160.439 620.42C160.439 622.334 158.54 623.881 156.191 623.881Z" fill="#9654F4"/>
<path opacity="0.6" d="M73.1326 441.653C70.7838 441.653 68.8848 440.106 68.8848 438.192C68.8848 436.279 70.7838 434.731 73.1326 434.731C75.4814 434.731 77.3805 436.279 77.3805 438.192C77.3805 440.106 75.4814 441.653 73.1326 441.653Z" fill="#9654F4"/>
<path opacity="0.6" d="M73.1326 350.539C70.7838 350.539 68.8848 348.992 68.8848 347.078C68.8848 345.165 70.7838 343.617 73.1326 343.617C75.4814 343.617 77.3805 345.165 77.3805 347.078C77.3805 348.992 75.4814 350.539 73.1326 350.539Z" fill="#9654F4"/>
<path d="M696.357 250.834C690.49 250.834 685.723 254.718 685.723 259.498C685.723 264.278 690.5 268.163 696.357 268.163C702.214 268.163 707.002 264.278 707.002 259.498C707.002 254.718 702.224 250.834 696.357 250.834ZM696.357 252.609C701.025 252.609 704.823 255.704 704.823 259.506C704.823 263.309 701.025 266.404 696.357 266.404C691.69 266.404 687.892 263.309 687.892 259.506C687.892 255.704 691.69 252.609 696.357 252.609Z" fill="#9654F4"/>
<path d="M696.357 264.694C692.839 264.694 689.99 262.373 689.99 259.507C689.99 256.64 692.839 254.311 696.357 254.311C699.875 254.311 702.734 256.632 702.734 259.507C702.734 262.381 699.875 264.694 696.357 264.694Z" fill="#9654F4"/>
<path d="M156.19 543.264C150.963 543.264 146.715 546.725 146.715 550.983C146.715 555.242 150.963 558.703 156.19 558.703C161.417 558.703 165.665 555.242 165.665 550.983C165.665 546.725 161.417 543.264 156.19 543.264ZM156.19 545.031C160.218 545.031 163.496 547.702 163.496 550.983C163.496 554.265 160.218 556.936 156.19 556.936C152.162 556.936 148.884 554.265 148.884 550.983C148.884 547.702 152.162 545.031 156.19 545.031Z" fill="#9654F4"/>
<path d="M156.191 555.543C153.102 555.543 150.594 553.499 150.594 550.983C150.594 548.467 153.102 546.423 156.191 546.423C159.279 546.423 161.788 548.467 161.788 550.983C161.788 553.499 159.279 555.543 156.191 555.543Z" fill="#9654F4"/>
<path d="M346.744 665.599H252.731V373.69H212.012V191.91H0.378906V192.798H210.932V374.578H251.642V666.486H346.734V665.599H346.744Z" fill="#9654F4"/>
<path d="M372.421 -7.10767e-05L155.65 176.609V302.405H287.574V443.314C287.254 443.575 155.65 550.796 155.65 550.796V620.86H220.258V707.992H221.347V619.972H156.74V551.154C157.06 550.894 288.663 443.673 288.663 443.673V301.509H156.74V176.959C157.06 176.699 373.19 0.610667 373.19 0.610667L372.421 -0.0163574V-7.10767e-05Z" fill="#9654F4"/>
<path opacity="0.6" d="M156.191 180.249C153.842 180.249 151.943 178.702 151.943 176.788C151.943 174.875 153.842 173.327 156.191 173.327C158.54 173.327 160.439 174.875 160.439 176.788C160.439 178.702 158.54 180.249 156.191 180.249Z" fill="#9654F4"/>
<path d="M156.191 226.372C150.533 226.372 145.926 230.126 145.926 234.735C145.926 239.344 150.533 243.098 156.191 243.098C161.848 243.098 166.455 239.352 166.455 234.735C166.455 230.118 161.848 226.372 156.191 226.372ZM156.191 228.139C160.648 228.139 164.276 231.095 164.276 234.727C164.276 238.359 160.648 241.315 156.191 241.315C151.733 241.315 148.105 238.359 148.105 234.727C148.105 231.095 151.733 228.139 156.191 228.139Z" fill="#9654F4"/>
<path d="M156.191 239.719C152.813 239.719 150.064 237.487 150.064 234.727C150.064 231.966 152.803 229.735 156.191 229.735C159.58 229.735 162.308 231.966 162.308 234.727C162.308 237.487 159.57 239.719 156.191 239.719Z" fill="#9654F4"/>
<path d="M34.5824 308.243C29.545 308.243 25.457 311.582 25.457 315.678C25.457 319.774 29.555 323.113 34.5824 323.113C39.6099 323.113 43.7078 319.774 43.7078 315.678C43.7078 311.582 39.6099 308.243 34.5824 308.243ZM34.5824 310.01C38.4205 310.01 41.5389 312.551 41.5389 315.678C41.5389 318.805 38.4205 321.346 34.5824 321.346C30.7444 321.346 27.6259 318.805 27.6259 315.678C27.6259 312.551 30.7444 310.01 34.5824 310.01Z" fill="#9654F4"/>
<path d="M34.5821 320.043C31.6236 320.043 29.2148 318.089 29.2148 315.67C29.2148 313.251 31.6136 311.297 34.5821 311.297C37.5506 311.297 39.9494 313.251 39.9494 315.67C39.9494 318.089 37.5506 320.043 34.5821 320.043Z" fill="#9654F4"/>
<path d="M252.193 378.283C249.384 378.283 247.105 376.426 247.105 374.138C247.105 371.85 249.384 369.993 252.193 369.993C255.001 369.993 257.28 371.85 257.28 374.138C257.28 376.426 255.001 378.283 252.193 378.283Z" fill="#9654F4"/>
<path d="M211.482 196.503C208.673 196.503 206.395 194.646 206.395 192.358C206.395 190.07 208.673 188.213 211.482 188.213C214.291 188.213 216.569 190.07 216.569 192.358C216.569 194.646 214.291 196.503 211.482 196.503Z" fill="#9654F4"/>
<path d="M346.744 670.191C343.935 670.191 341.656 668.334 341.656 666.046C341.656 663.758 343.935 661.901 346.744 661.901C349.552 661.901 351.831 663.758 351.831 666.046C351.831 668.334 349.552 670.191 346.744 670.191Z" fill="#9654F4"/>
<path d="M480.837 640.053C478.029 640.053 475.75 638.197 475.75 635.909C475.75 633.62 478.029 631.764 480.837 631.764C483.646 631.764 485.925 633.62 485.925 635.909C485.925 638.197 483.646 640.053 480.837 640.053Z" fill="#9654F4"/>
<path d="M220.798 90.267C217.99 90.267 215.711 88.4104 215.711 86.1222C215.711 83.8339 217.99 81.9773 220.798 81.9773C223.607 81.9773 225.886 83.8339 225.886 86.1222C225.886 88.4104 223.607 90.267 220.798 90.267Z" fill="#9654F4"/>
<path d="M211.482 378.283C208.673 378.283 206.395 376.426 206.395 374.138C206.395 371.85 208.673 369.993 211.482 369.993C214.291 369.993 216.569 371.85 216.569 374.138C216.569 376.426 214.291 378.283 211.482 378.283Z" fill="#9654F4"/>
<path opacity="0.6" d="M125.787 508.883C123.438 508.883 121.539 507.336 121.539 505.422C121.539 503.509 123.438 501.961 125.787 501.961C128.136 501.961 130.035 503.509 130.035 505.422C130.035 507.336 128.136 508.883 125.787 508.883Z" fill="#9654F4"/>
<path d="M868.989 482.711H655.098V483.599H868.989V482.711Z" fill="#9654F4"/>
<path d="M771.009 477.63H767.211V488.688H771.009V477.63Z" fill="#9654F4"/>
<path d="M763.404 477.63H759.605V488.688H763.404V477.63Z" fill="#9654F4"/>
<path d="M755.808 477.63H752.01V488.688H755.808V477.63Z" fill="#9654F4"/>
<path d="M748.2 477.63H744.402V488.688H748.2V477.63Z" fill="#9654F4"/>
<path d="M836.157 89.4363H832.359V100.495H836.157V89.4363Z" fill="#9654F4"/>
<path d="M828.55 89.4363H824.752V100.495H828.55V89.4363Z" fill="#9654F4"/>
<path d="M820.954 89.4363H817.156V100.495H820.954V89.4363Z" fill="#9654F4"/>
<path d="M813.349 89.4363H809.551V100.495H813.349V89.4363Z" fill="#9654F4"/>
<path d="M131.134 80.5928H127.336V91.6512H131.134V80.5928Z" fill="#9654F4"/>
<path d="M123.538 80.5928H119.74V91.6512H123.538V80.5928Z" fill="#9654F4"/>
<path d="M115.931 80.5928H112.133V91.6512H115.931V80.5928Z" fill="#9654F4"/>
<path d="M108.335 80.5928H104.537V91.6512H108.335V80.5928Z" fill="#9654F4"/>
<path d="M97.2102 186.829H93.4121V197.887H97.2102V186.829Z" fill="#9654F4"/>
<path d="M89.6047 186.829H85.8066V197.887H89.6047V186.829Z" fill="#9654F4"/>
<path d="M82.009 186.829H78.2109V197.887H82.009V186.829Z" fill="#9654F4"/>
<path d="M74.4016 186.829H70.6035V197.887H74.4016V186.829Z" fill="#9654F4"/>
<path d="M221.339 437.752H73.6734V235.175H156.192V234.287H72.584V438.632H220.249V620.42H221.339V437.752Z" fill="#9654F4"/>
</g>
</g>
<defs>
<clipPath id="clip0_1_11745">
<rect width="869" height="708" fill="white"/>
</clipPath>
</defs>
</svg>
