<svg width="128" height="128" viewBox="0 0 128 128" fill="none" xmlns="http://www.w3.org/2000/svg">
<path fill-rule="evenodd" clip-rule="evenodd" d="M88.1761 71.7665L97.3062 56.2339H127.898V58.7949H104.95L102.684 62.7133H114.798L113.338 65.2743H101.16L98.8296 69.1927H111.007L109.484 71.7665H88.1761ZM66.2152 67.7201H75.3963C75.0891 68.1682 74.9481 68.6164 75.1404 68.8981C75.4731 69.3975 76.6514 69.1541 76.9589 69.0518C77.5733 68.8597 77.9064 68.4756 78.2006 67.9634L79.7374 65.2743H70.377C68.4175 65.2743 68.3536 64.109 69.1477 62.7133L72.0287 57.8217C72.8867 56.4132 74.0393 56.2339 75.5117 56.2339H91.787C93.439 56.2339 93.439 57.5784 92.7732 58.7949L91.8512 60.4468H82.6187C82.9004 59.909 82.9129 59.4352 82.6955 59.1406C82.337 58.6541 81.3894 58.7565 80.89 59.0126C80.4931 59.2303 80.1601 59.6016 79.8014 60.2035L78.329 62.7133H87.3822C89.2903 62.7133 89.5849 64.1092 88.9828 65.2743L86.2298 69.8713C85.4871 71.0878 84.2067 71.7665 82.734 71.7665H66.5741C64.9863 71.7665 64.4358 70.7165 65.1141 69.564L66.2152 67.7201ZM46.8795 58.7949C48.3521 56.2339 50.7978 56.2339 52.693 56.2339H66.5227C67.9823 56.2339 69.2116 57.4504 68.4175 58.7949L62.3096 69.1927C61.0163 71.2671 59.9791 71.7665 58.3272 71.7665H42.2312C40.6434 71.7665 39.9135 70.6012 40.7715 69.1927L46.8795 58.7949ZM54.9083 60.2035L50.2472 67.9634C50.0936 68.2451 50.0295 68.501 50.1192 68.7061C50.4137 69.3463 52.2192 69.2311 52.8467 69.103C53.743 68.8981 53.9735 68.2579 54.1656 67.9634L58.7626 60.2035C59.0827 59.6528 59.0443 59.2943 58.7626 59.0766C58.3529 58.7565 57.098 58.7309 56.4065 58.923C55.8174 59.0894 55.3309 59.4608 54.9083 60.2035ZM24.5474 56.2339H42.2953C43.7038 56.2339 44.8051 57.5144 43.8831 59.051L42.052 62.1626C41.258 63.5712 39.9135 64.2371 38.9275 64.2371C39.9135 64.7877 39.9135 65.7607 39.4141 66.6188L37.583 69.8071C37.0964 70.6651 36.3537 71.7665 34.1 71.7665H0V69.1927H16.9027L24.5474 56.2339ZM29.8743 62.7133H34.3945C35.4445 62.7133 35.8671 62.1626 36.1104 61.6761L37.0324 60.2035C37.4037 59.5376 37.4037 58.7949 36.6098 58.7949H32.192L29.8743 62.7133ZM26.02 69.1927H30.5402C31.5902 69.1927 32.0128 68.6419 32.2559 68.1554L33.178 66.6829C33.5494 66.0042 33.5494 65.2743 32.7427 65.2743H28.3377L26.02 69.1927ZM126.706 61.9065C126.002 61.9065 125.4 61.3559 125.4 60.6132C125.4 59.8705 126.002 59.3327 126.706 59.3327C127.411 59.3327 128 59.8705 128 60.6132C128 61.3559 127.411 61.9065 126.706 61.9065ZM125.656 60.6132C125.656 61.2279 126.118 61.6889 126.706 61.6889C127.283 61.6889 127.744 61.2279 127.744 60.6132C127.744 59.9986 127.283 59.5376 126.706 59.5376C126.118 59.5376 125.656 59.9986 125.656 60.6132ZM126.438 60.7157V61.3559H126.207V59.8705H126.771C127.129 59.8705 127.296 59.9986 127.296 60.2931C127.296 60.562 127.129 60.6773 126.911 60.7029L127.334 61.3559H127.078L126.694 60.7157H126.438ZM126.438 60.5236H126.707C126.899 60.5236 127.065 60.5108 127.065 60.2803C127.065 60.101 126.899 60.0626 126.745 60.0626H126.438V60.5236Z" fill="white"/>
</svg>
