<svg width="55" height="55" viewBox="0 0 55 55" fill="none" xmlns="http://www.w3.org/2000/svg">
<path d="M53.4546 37.3058L50.178 36.8373C49.9793 36.1906 49.7193 35.5643 49.4014 34.967L51.3875 32.3201C51.5161 32.1486 51.5785 31.9364 51.5633 31.7226C51.548 31.5088 51.4562 31.3076 51.3046 31.156L48.786 28.6329C48.6344 28.4813 48.4332 28.3895 48.2194 28.3743C48.0056 28.359 47.7934 28.4215 47.6219 28.5501L44.975 30.5362C44.3777 30.2183 43.7514 29.9582 43.1047 29.7595L42.6362 26.4829C42.6056 26.27 42.4991 26.0753 42.3362 25.9349C42.1733 25.7944 41.9651 25.7177 41.75 25.7188H38.1875C37.9732 25.7187 37.7661 25.796 37.6041 25.9364C37.4421 26.0767 37.3362 26.2708 37.3058 26.4829L36.8373 29.7595C36.1906 29.9582 35.5643 30.2183 34.967 30.5362L32.3201 28.5501C32.1486 28.4215 31.9364 28.359 31.7226 28.3743C31.5088 28.3895 31.3076 28.4813 31.156 28.6329L28.6329 31.1516C28.4813 31.3032 28.3895 31.5043 28.3743 31.7181C28.359 31.932 28.4215 32.1441 28.5501 32.3156L30.5362 34.9626C30.2183 35.5598 29.9582 36.1861 29.7595 36.8329L26.4829 37.3013C26.27 37.3319 26.0753 37.4384 25.9349 37.6013C25.7944 37.7642 25.7177 37.9724 25.7188 38.1875V41.75C25.7187 41.9643 25.796 42.1715 25.9364 42.3334C26.0767 42.4954 26.2708 42.6013 26.4829 42.6317L29.7595 43.1002C29.9582 43.747 30.2183 44.3732 30.5362 44.9705L28.5501 47.6175C28.4215 47.789 28.359 48.0011 28.3743 48.2149C28.3895 48.4288 28.4813 48.6299 28.6329 48.7815L31.1516 51.3046C31.3032 51.4562 31.5043 51.548 31.7181 51.5633C31.932 51.5785 32.1441 51.5161 32.3156 51.3875L34.9626 49.4014C35.5598 49.7193 36.1861 49.9793 36.8329 50.178L37.3013 53.4546C37.3319 53.6675 37.4384 53.8622 37.6013 54.0026C37.7642 54.1431 37.9724 54.2199 38.1875 54.2188H41.75C41.9643 54.2188 42.1715 54.1415 42.3334 54.0012C42.4954 53.8608 42.6013 53.6667 42.6317 53.4546L43.1002 50.178C43.747 49.9793 44.3732 49.7193 44.9705 49.4014L47.6175 51.3875C47.789 51.5161 48.0011 51.5785 48.2149 51.5633C48.4288 51.548 48.6299 51.4562 48.7815 51.3046L51.3046 48.786C51.4562 48.6344 51.548 48.4332 51.5633 48.2194C51.5785 48.0056 51.5161 47.7934 51.3875 47.6219L49.4014 44.975C49.7193 44.3777 49.9793 43.7514 50.178 43.1047L53.4546 42.6362C53.6675 42.6056 53.8622 42.4991 54.0026 42.3362C54.1431 42.1733 54.2199 41.9651 54.2188 41.75V38.1875C54.2188 37.9732 54.1415 37.7661 54.0012 37.6041C53.8608 37.4421 53.6667 37.3362 53.4546 37.3058ZM52.4375 40.9778L49.3488 41.4187C49.1727 41.4439 49.0082 41.5212 48.8764 41.6407C48.7447 41.7603 48.6518 41.9165 48.6096 42.0893C48.3955 42.9686 48.0474 43.8097 47.5774 44.5831C47.4854 44.7353 47.441 44.9116 47.4501 45.0892C47.4591 45.2668 47.5211 45.4376 47.6281 45.5797L49.4984 48.0734L48.0734 49.4984L45.5797 47.6281C45.4375 47.5214 45.2665 47.4597 45.0889 47.451C44.9113 47.4422 44.7351 47.4869 44.5831 47.5792C43.8097 48.0492 42.9686 48.3973 42.0893 48.6114C41.9165 48.6535 41.7603 48.7465 41.6407 48.8782C41.5212 49.01 41.4439 49.1745 41.4187 49.3506L40.9778 52.4375H38.9597L38.5188 49.3488C38.4936 49.1727 38.4163 49.0082 38.2968 48.8764C38.1773 48.7447 38.021 48.6518 37.8482 48.6096C36.9689 48.3955 36.1278 48.0474 35.3544 47.5774C35.2024 47.4851 35.0262 47.4405 34.8486 47.4492C34.671 47.4579 34.5001 47.5196 34.3578 47.6264L31.8641 49.4967L30.4391 48.0717L32.3094 45.5779C32.4161 45.4357 32.4778 45.2647 32.4865 45.0871C32.4953 44.9095 32.4506 44.7333 32.3584 44.5813C31.8884 43.808 31.5402 42.9669 31.3261 42.0876C31.284 41.9147 31.191 41.7585 31.0593 41.639C30.9275 41.5194 30.763 41.4421 30.5869 41.4169L27.5 40.9778V38.9597L30.5887 38.5188C30.7648 38.4936 30.9293 38.4163 31.0611 38.2968C31.1928 38.1773 31.2858 38.021 31.3279 37.8482C31.542 36.9689 31.8901 36.1278 32.3602 35.3544C32.4524 35.2024 32.4971 35.0262 32.4883 34.8486C32.4796 34.671 32.4179 34.5001 32.3112 34.3578L30.4409 31.8641L31.8659 30.4391L34.3596 32.3094C34.5018 32.4161 34.6728 32.4778 34.8504 32.4865C35.028 32.4953 35.2042 32.4506 35.3562 32.3584C36.1296 31.8884 36.9707 31.5402 37.85 31.3261C38.0228 31.284 38.179 31.191 38.2986 31.0593C38.4181 30.9275 38.4954 30.763 38.5206 30.5869L38.9597 27.5H40.9778L41.4187 30.5887C41.4439 30.7648 41.5212 30.9293 41.6407 31.0611C41.7603 31.1928 41.9165 31.2858 42.0893 31.3279C42.9686 31.542 43.8097 31.8901 44.5831 32.3602C44.7353 32.4522 44.9116 32.4965 45.0892 32.4875C45.2668 32.4784 45.4376 32.4164 45.5797 32.3094L48.0734 30.4391L49.4984 31.8641L47.6281 34.3578C47.5214 34.5001 47.4597 34.671 47.451 34.8486C47.4422 35.0262 47.4869 35.2024 47.5792 35.3544C48.0492 36.1278 48.3973 36.9689 48.6114 37.8482C48.6535 38.021 48.7465 38.1773 48.8782 38.2968C49.01 38.4163 49.1745 38.4936 49.3506 38.5188L52.4375 38.9597V40.9778Z" fill="#8133F1"/>
<path d="M39.9688 33.7344C38.7357 33.7344 37.5304 34.1 36.5051 34.7851C35.4799 35.4701 34.6808 36.4438 34.2089 37.583C33.7371 38.7221 33.6136 39.9757 33.8542 41.185C34.0947 42.3944 34.6885 43.5052 35.5604 44.3771C36.4323 45.249 37.5431 45.8428 38.7525 46.0833C39.9618 46.3239 41.2154 46.2004 42.3545 45.7286C43.4937 45.2567 44.4674 44.4576 45.1524 43.4324C45.8375 42.4071 46.2031 41.2018 46.2031 39.9688C46.2012 38.3159 45.5438 36.7312 44.375 35.5625C43.2063 34.3937 41.6216 33.7363 39.9688 33.7344ZM39.9688 44.4219C39.088 44.4219 38.227 44.1607 37.4947 43.6714C36.7624 43.1821 36.1916 42.4866 35.8546 41.6729C35.5176 40.8592 35.4294 39.9638 35.6012 39.1C35.773 38.2362 36.1971 37.4427 36.8199 36.8199C37.4427 36.1971 38.2362 35.773 39.1 35.6012C39.9638 35.4294 40.8592 35.5176 41.6729 35.8546C42.4866 36.1916 43.1821 36.7624 43.6714 37.4947C44.1607 38.227 44.4219 39.088 44.4219 39.9688C44.4205 41.1494 43.9508 42.2812 43.116 43.116C42.2812 43.9508 41.1494 44.4205 39.9688 44.4219Z" fill="#8133F1"/>
<path d="M2.5625 42.6406V9.6875H45.3125V27.5H47.0938V5.23438C47.0923 4.05377 46.6227 2.92192 45.7879 2.0871C44.9531 1.25229 43.8212 0.782664 42.6406 0.78125H5.23438C4.05377 0.782664 2.92192 1.25229 2.0871 2.0871C1.25229 2.92192 0.782664 4.05377 0.78125 5.23438V42.6406C0.782664 43.8212 1.25229 44.9531 2.0871 45.7879C2.92192 46.6227 4.05377 47.0923 5.23438 47.0938H26.6094V45.3125H5.23438C4.52575 45.3125 3.84615 45.031 3.34507 44.5299C2.844 44.0289 2.5625 43.3493 2.5625 42.6406ZM5.23438 2.5625H42.6406C43.3493 2.5625 44.0289 2.844 44.5299 3.34507C45.031 3.84615 45.3125 4.52575 45.3125 5.23438V7.90625H2.5625V5.23438C2.5625 4.52575 2.844 3.84615 3.34507 3.34507C3.84615 2.844 4.52575 2.5625 5.23438 2.5625Z" fill="#8133F1"/>
<path d="M7.90625 4.34375H6.125V6.125H7.90625V4.34375Z" fill="#8133F1"/>
<path d="M11.4688 4.34375H9.6875V6.125H11.4688V4.34375Z" fill="#8133F1"/>
<path d="M15.0312 4.34375H13.25V6.125H15.0312V4.34375Z" fill="#8133F1"/>
<path d="M38.1875 4.34375H18.5938V6.125H38.1875V4.34375Z" fill="#8133F1"/>
<path d="M41.75 23.9375V15.0312C41.75 14.5588 41.5623 14.1058 41.2283 13.7717C40.8942 13.4377 40.4412 13.25 39.9688 13.25H7.90625C7.43383 13.25 6.98077 13.4377 6.64672 13.7717C6.31267 14.1058 6.125 14.5588 6.125 15.0312V31.0625C6.125 31.5349 6.31267 31.988 6.64672 32.322C6.98077 32.6561 7.43383 32.8438 7.90625 32.8438H26.6094V31.0625H7.90625V15.0312H39.9688V23.9375H41.75Z" fill="#8133F1"/>
<path d="M21.2656 36.4062H7.01562V38.1875H21.2656V36.4062Z" fill="#8133F1"/>
<path d="M21.2656 39.9688H7.01562V41.75H21.2656V39.9688Z" fill="#8133F1"/>
<path d="M24.8281 22.1562H23.0469V23.9375H24.8281V22.1562Z" fill="#8133F1"/>
<path d="M30.1719 22.1562H26.6094V23.9375H30.1719V22.1562Z" fill="#8133F1"/>
<path d="M21.2656 22.1562H17.7031V23.9375H21.2656V22.1562Z" fill="#8133F1"/>
<path d="M40.8594 30.1719H39.0781V31.9531H40.8594V30.1719Z" fill="#8133F1"/>
<path d="M33.6707 32.4116L32.4111 33.6711L33.6707 34.9307L34.9302 33.6711L33.6707 32.4116Z" fill="#8133F1"/>
<path d="M31.9531 39.0781H30.1719V40.8594H31.9531V39.0781Z" fill="#8133F1"/>
<path d="M33.6707 45.0068L32.4111 46.2664L33.6707 47.5259L34.9302 46.2664L33.6707 45.0068Z" fill="#8133F1"/>
<path d="M40.8594 47.9844H39.0781V49.7656H40.8594V47.9844Z" fill="#8133F1"/>
<path d="M46.2664 45.0068L45.0068 46.2664L46.2664 47.5259L47.5259 46.2664L46.2664 45.0068Z" fill="#8133F1"/>
<path d="M49.7656 39.0781H47.9844V40.8594H49.7656V39.0781Z" fill="#8133F1"/>
<path d="M46.2664 32.4116L45.0068 33.6711L46.2664 34.9307L47.5259 33.6711L46.2664 32.4116Z" fill="#8133F1"/>
</svg>
