<svg width="57" height="57" viewBox="0 0 57 57" fill="none" xmlns="http://www.w3.org/2000/svg">
<g clip-path="url(#clip0_1_9252)">
<path d="M36.1417 18.5607C36.0167 18.48 35.9139 18.3692 35.8427 18.2385C35.7716 18.1078 35.7343 17.9614 35.7343 17.8126C35.7343 17.6638 35.7716 17.5174 35.8427 17.3867C35.9139 17.256 36.0167 17.1452 36.1417 17.0645C36.2798 16.9655 36.3868 16.829 36.4499 16.6712C36.5131 16.5134 36.5297 16.3408 36.4979 16.1738C36.2869 15.17 35.888 14.2151 35.3223 13.3595C35.2267 13.2164 35.0917 13.1041 34.9336 13.0362C34.7756 12.9682 34.6012 12.9475 34.4317 12.9765C34.2859 13.0083 34.1344 13.0029 33.9913 12.9609C33.8481 12.9189 33.7178 12.8416 33.6122 12.7361C33.5067 12.6306 33.4294 12.5002 33.3874 12.3571C33.3454 12.2139 33.34 12.0624 33.3718 11.9167C33.4008 11.7471 33.3801 11.5727 33.3121 11.4147C33.2442 11.2566 33.1319 11.1216 32.9888 11.026C32.1318 10.4394 31.1705 10.0222 30.1567 9.79697C29.9897 9.76518 29.8171 9.78182 29.6593 9.84495C29.5015 9.90808 29.365 10.015 29.266 10.1532C29.1779 10.2678 29.0645 10.3606 28.9348 10.4244C28.8051 10.4883 28.6625 10.5215 28.5179 10.5215C28.3733 10.5215 28.2307 10.4883 28.101 10.4244C27.9713 10.3606 27.858 10.2678 27.7698 10.1532C27.6708 10.015 27.5343 9.90808 27.3765 9.84495C27.2187 9.78182 27.0461 9.76518 26.8792 9.79697C25.8679 10.0113 24.9067 10.4164 24.047 10.9904C23.9039 11.086 23.7916 11.221 23.7237 11.379C23.6557 11.5371 23.635 11.7115 23.664 11.881C23.6958 12.0268 23.6904 12.1783 23.6484 12.3214C23.6064 12.4646 23.5291 12.5949 23.4236 12.7004C23.3181 12.806 23.1877 12.8833 23.0446 12.9253C22.9014 12.9673 22.7499 12.9726 22.6042 12.9409C22.4346 12.9119 22.2602 12.9326 22.1022 13.0006C21.9441 13.0685 21.8091 13.1808 21.7135 13.3238C21.1269 14.1809 20.7097 15.1422 20.4845 16.156C20.4527 16.323 20.4693 16.4956 20.5325 16.6534C20.5956 16.8112 20.7025 16.9477 20.8407 17.0467C20.9657 17.1274 21.0685 17.2382 21.1397 17.3689C21.2108 17.4995 21.2481 17.646 21.2481 17.7948C21.2481 17.9436 21.2108 18.09 21.1397 18.2207C21.0685 18.3514 20.9657 18.4622 20.8407 18.5429C20.7025 18.6419 20.5956 18.7783 20.5325 18.9362C20.4693 19.094 20.4527 19.2666 20.4845 19.4335C20.6988 20.4448 21.1039 21.406 21.6779 22.2657C21.7735 22.4088 21.9085 22.521 22.0665 22.589C22.2246 22.657 22.399 22.6777 22.5685 22.6487C22.7143 22.6169 22.8658 22.6223 23.0089 22.6643C23.1521 22.7063 23.2824 22.7836 23.3879 22.8891C23.4935 22.9946 23.5708 23.125 23.6128 23.2681C23.6548 23.4113 23.6602 23.5627 23.6284 23.7085C23.5994 23.8781 23.6201 24.0525 23.6881 24.2105C23.756 24.3686 23.8683 24.5036 24.0113 24.5992C24.8684 25.1858 25.8297 25.603 26.8435 25.8282C27.0105 25.86 27.1831 25.8434 27.3409 25.7802C27.4987 25.7171 27.6352 25.6101 27.7342 25.472C27.8223 25.3574 27.9357 25.2646 28.0654 25.2008C28.1951 25.1369 28.3377 25.1037 28.4823 25.1037C28.6269 25.1037 28.7695 25.1369 28.8992 25.2008C29.0289 25.2646 29.1422 25.3574 29.2304 25.472C29.3124 25.5871 29.4205 25.681 29.546 25.7461C29.6714 25.8111 29.8105 25.8454 29.9518 25.846H30.1388C31.1452 25.6241 32.1002 25.213 32.9532 24.6348C33.0963 24.5392 33.2085 24.4042 33.2765 24.2461C33.3445 24.0881 33.3652 23.9137 33.3362 23.7442C33.3044 23.5984 33.3098 23.4469 33.3518 23.3038C33.3938 23.1606 33.4711 23.0303 33.5766 22.9247C33.6821 22.8192 33.8125 22.7419 33.9556 22.6999C34.0988 22.6579 34.2502 22.6525 34.396 22.6843C34.5656 22.7133 34.74 22.6926 34.898 22.6246C35.0561 22.5567 35.1911 22.4444 35.2867 22.3013C35.8733 21.4443 36.2905 20.483 36.5157 19.4692C36.5493 19.2977 36.5318 19.1202 36.4653 18.9587C36.3988 18.7972 36.2862 18.6588 36.1417 18.5607ZM34.6365 19.5938C34.5027 20.0555 34.3175 20.5006 34.0843 20.9209C33.4367 20.9628 32.8265 21.239 32.3676 21.6979C31.9087 22.1568 31.6325 22.767 31.5906 23.4146C31.1703 23.6478 30.7251 23.833 30.2635 23.9668C29.7737 23.5287 29.1395 23.2864 28.4823 23.2864C27.8251 23.2864 27.1909 23.5287 26.701 23.9668C26.2394 23.833 25.7943 23.6478 25.374 23.4146C25.3321 22.767 25.0559 22.1568 24.597 21.6979C24.1381 21.239 23.5279 20.9628 22.8803 20.9209C22.6594 20.4991 22.4861 20.054 22.3637 19.5938C22.8018 19.104 23.0441 18.4698 23.0441 17.8126C23.0441 17.1554 22.8018 16.5212 22.3637 16.0313C22.4975 15.5697 22.6827 15.1246 22.9159 14.7043C23.5635 14.6624 24.1737 14.3862 24.6326 13.9273C25.0915 13.4684 25.3677 12.8582 25.4096 12.2106C25.825 11.9848 26.2641 11.8056 26.7188 11.6762C27.2178 12.0952 27.8485 12.3249 28.5001 12.3249C29.1517 12.3249 29.7824 12.0952 30.2813 11.6762C30.743 11.81 31.1881 11.9952 31.6084 12.2284C31.6503 12.876 31.9265 13.4862 32.3854 13.9451C32.8443 14.404 33.4545 14.6802 34.1021 14.7221C34.3279 15.1375 34.5071 15.5766 34.6365 16.0313C34.1984 16.5212 33.9561 17.1554 33.9561 17.8126C33.9561 18.4698 34.1984 19.104 34.6365 19.5938Z" fill="#8133F1"/>
<path d="M28.5 14.25C27.7954 14.25 27.1066 14.4589 26.5208 14.8504C25.9349 15.2418 25.4783 15.7982 25.2087 16.4492C24.939 17.1002 24.8685 17.8165 25.006 18.5075C25.1434 19.1986 25.4827 19.8333 25.9809 20.3316C26.4792 20.8298 27.1139 21.1691 27.805 21.3065C28.4961 21.444 29.2124 21.3735 29.8633 21.1038C30.5143 20.8342 31.0707 20.3776 31.4621 19.7917C31.8536 19.2059 32.0625 18.5171 32.0625 17.8125C32.0625 16.8677 31.6872 15.9615 31.0191 15.2934C30.351 14.6253 29.4448 14.25 28.5 14.25ZM28.5 19.5938C28.1477 19.5938 27.8033 19.4893 27.5104 19.2936C27.2175 19.0978 26.9892 18.8196 26.8543 18.4942C26.7195 18.1687 26.6842 17.8105 26.753 17.465C26.8217 17.1195 26.9914 16.8021 27.2405 16.553C27.4896 16.3039 27.807 16.1342 28.1525 16.0655C28.498 15.9967 28.8562 16.032 29.1817 16.1668C29.5071 16.3017 29.7853 16.53 29.9811 16.8229C30.1768 17.1158 30.2813 17.4602 30.2813 17.8125C30.2813 18.2849 30.0936 18.738 29.7595 19.072C29.4255 19.4061 28.9724 19.5938 28.5 19.5938Z" fill="#8133F1"/>
<path d="M24.0469 4.45312C21.921 4.45313 19.8822 5.29763 18.379 6.80085C16.8758 8.30407 16.0312 10.3429 16.0312 12.4688H17.8125C17.8125 10.8153 18.4693 9.22955 19.6385 8.06038C20.8077 6.89121 22.3934 6.23438 24.0469 6.23438V4.45312Z" fill="#8133F1"/>
<path d="M55.5661 42.8214L49.875 40.3811V35.6252C49.875 35.3889 49.7812 35.1624 49.6142 34.9954C49.4471 34.8284 49.2206 34.7345 48.9844 34.7345H31.0116C30.8786 34.361 30.6641 34.0218 30.3838 33.7414C30.1034 33.461 29.7642 33.2466 29.3906 33.1136V31.172H41.8594C44.2473 31.1647 46.5503 30.2854 48.3355 28.6995C50.1208 27.1137 51.2653 24.9304 51.5541 22.56C51.8429 20.1896 51.256 17.7953 49.9037 15.8272C48.5514 13.8591 46.5269 12.4527 44.2106 11.8722C43.6905 9.9948 42.5691 8.33974 41.0184 7.16061C39.4677 5.98148 37.5731 5.34331 35.625 5.3439C34.8673 5.34454 34.1129 5.44333 33.3806 5.63781C31.9658 3.70308 29.9854 2.25513 27.7127 1.49374C25.44 0.732357 22.9871 0.695069 20.6923 1.38702C18.3975 2.07898 16.374 3.46607 14.901 5.3569C13.4281 7.24773 12.5782 9.54909 12.4688 11.9434C10.1885 12.584 8.21754 14.029 6.92067 16.011C5.6238 17.9929 5.08884 20.3775 5.41482 22.7235C5.74081 25.0695 6.90565 27.218 8.69375 28.7712C10.4818 30.3245 12.7721 31.1774 15.1406 31.172H27.6094V33.1136C27.2359 33.2466 26.8966 33.461 26.6162 33.7414C26.3359 34.0218 26.1214 34.361 25.9884 34.7345H8.01563C7.77942 34.7345 7.55289 34.8284 7.38587 34.9954C7.21884 35.1624 7.12501 35.3889 7.12501 35.6252V40.3811L1.43391 42.8214C1.27293 42.8896 1.13558 43.0036 1.03897 43.1493C0.942365 43.295 0.890775 43.466 0.890632 43.6408V51.6564C0.890009 51.8133 0.930866 51.9677 1.00907 52.1037C1.08727 52.2398 1.20003 52.3528 1.33594 52.4312L7.57032 55.9937C7.70571 56.0719 7.85929 56.1131 8.01563 56.1131C8.17197 56.1131 8.32555 56.0719 8.46094 55.9937L14.6953 52.4312C14.8312 52.3528 14.944 52.2398 15.0222 52.1037C15.1004 51.9677 15.1413 51.8133 15.1406 51.6564V43.6408C15.1405 43.466 15.0889 43.295 14.9923 43.1493C14.8957 43.0036 14.7583 42.8896 14.5974 42.8214L8.90626 40.3811V36.5158H25.9884C26.1214 36.8893 26.3359 37.2285 26.6162 37.5089C26.8966 37.7893 27.2359 38.0037 27.6094 38.1367V40.3811L21.9183 42.8214C21.7573 42.8896 21.62 43.0036 21.5233 43.1493C21.4267 43.295 21.3751 43.466 21.375 43.6408V51.6564C21.3744 51.8133 21.4152 51.9677 21.4934 52.1037C21.5716 52.2398 21.6844 52.3528 21.8203 52.4312L28.0547 55.9937C28.1901 56.0719 28.3437 56.1131 28.5 56.1131C28.6563 56.1131 28.8099 56.0719 28.9453 55.9937L35.1797 52.4312C35.3156 52.3528 35.4284 52.2398 35.5066 52.1037C35.5848 51.9677 35.6256 51.8133 35.625 51.6564V43.6408C35.6249 43.466 35.5733 43.295 35.4767 43.1493C35.3801 43.0036 35.2427 42.8896 35.0817 42.8214L29.3906 40.3811V38.1367C29.7642 38.0037 30.1034 37.7893 30.3838 37.5089C30.6641 37.2285 30.8786 36.8893 31.0116 36.5158H48.0938V40.3811L42.4027 42.8214C42.2417 42.8896 42.1043 43.0036 42.0077 43.1493C41.9111 43.295 41.8595 43.466 41.8594 43.6408V51.6564C41.8588 51.8133 41.8996 51.9677 41.9778 52.1037C42.056 52.2398 42.1688 52.3528 42.3047 52.4312L48.5391 55.9937C48.6745 56.0719 48.828 56.1131 48.9844 56.1131C49.1407 56.1131 49.2943 56.0719 49.4297 55.9937L55.6641 52.4312C55.8 52.3528 55.9128 52.2398 55.9909 52.1037C56.0691 51.9677 56.11 51.8133 56.1094 51.6564V43.6408C56.1092 43.466 56.0577 43.295 55.961 43.1493C55.8644 43.0036 55.7271 42.8896 55.5661 42.8214ZM7.12501 53.687L2.67188 51.1398V44.9945L7.12501 46.9005V53.687ZM13.3594 51.1398L8.90626 53.687V46.9005L13.3594 44.9945V51.1398ZM11.9878 43.6408L8.01563 45.3419L4.04344 43.6408L8.01563 41.9397L11.9878 43.6408ZM15.1406 29.3908C13.1536 29.3906 11.2375 28.6523 9.76397 27.3193C8.29046 25.9862 7.36461 24.1534 7.16601 22.1763C6.96742 20.1992 7.51024 18.2188 8.68918 16.6193C9.86812 15.0198 11.5991 13.9153 13.5464 13.5198C13.7506 13.4782 13.9337 13.3663 14.0639 13.2035C14.1941 13.0408 14.2631 12.8376 14.2589 12.6292L14.25 12.4689C14.2439 10.3517 14.9239 8.28952 16.188 6.59115C17.4522 4.89278 19.2325 3.64964 21.2624 3.04789C23.2923 2.44615 25.4625 2.51818 27.448 3.25321C29.4335 3.98823 31.1275 5.34669 32.2763 7.12515C32.3844 7.29087 32.5447 7.41585 32.7318 7.48036C32.9188 7.54487 33.1221 7.54524 33.3094 7.4814C34.2652 7.15307 35.2799 7.03182 36.2862 7.12572C37.2924 7.21961 38.2672 7.5265 39.1457 8.02601C40.0243 8.52551 40.7865 9.2062 41.3818 10.0229C41.9772 10.8396 42.3919 11.7735 42.5986 12.7628C42.6331 12.938 42.7196 13.0988 42.8466 13.2242C42.9737 13.3497 43.1355 13.4341 43.3111 13.4664C45.3114 13.7939 47.1133 14.8671 48.354 16.4698C49.5948 18.0726 50.1824 20.0859 49.9983 22.1044C49.8143 24.1229 48.8724 25.9968 47.3623 27.3487C45.8521 28.7007 43.8859 29.4303 41.8594 29.3908H15.1406ZM27.6094 53.687L23.1563 51.1398V44.9945L27.6094 46.9005V53.687ZM33.8438 51.1398L29.3906 53.687V46.9005L33.8438 44.9945V51.1398ZM32.4722 43.6408L28.5 45.3419L24.5278 43.6408L28.5 41.9397L32.4722 43.6408ZM28.5 36.5158C28.3239 36.5158 28.1517 36.4635 28.0052 36.3657C27.8587 36.2678 27.7446 36.1287 27.6772 35.966C27.6098 35.8032 27.5921 35.6242 27.6265 35.4514C27.6609 35.2786 27.7457 35.1199 27.8702 34.9954C27.9948 34.8708 28.1535 34.786 28.3263 34.7516C28.499 34.7173 28.6781 34.7349 28.8408 34.8023C29.0036 34.8697 29.1427 34.9839 29.2405 35.1303C29.3384 35.2768 29.3906 35.449 29.3906 35.6252C29.3906 35.8614 29.2968 36.0879 29.1298 36.2549C28.9627 36.4219 28.7362 36.5158 28.5 36.5158ZM48.0938 53.687L43.6406 51.1398V44.9945L48.0938 46.9005V53.687ZM48.9844 45.3419L45.0122 43.6408L48.9844 41.9397L52.9566 43.6408L48.9844 45.3419ZM54.3281 51.1398L49.875 53.687V46.9005L54.3281 44.9945V51.1398Z" fill="#8133F1"/>
</g>
<defs>
<clipPath id="clip0_1_9252">
<rect width="57" height="57" fill="white"/>
</clipPath>
</defs>
</svg>
