<svg width="57" height="57" viewBox="0 0 57 57" fill="none" xmlns="http://www.w3.org/2000/svg">
<path d="M21.375 40.0781H35.625C38.0803 40.0781 40.0781 38.0803 40.0781 35.625C40.0781 33.742 38.9135 32.1025 37.1853 31.4606C36.5313 29.1984 34.4595 27.6094 32.0625 27.6094C31.6494 27.6094 31.2345 27.6607 30.8222 27.7633C29.8116 26.5405 28.3226 25.8281 26.7188 25.8281C23.772 25.8281 21.375 28.2252 21.375 31.1719C18.9197 31.1719 16.9219 33.1697 16.9219 35.625C16.9219 38.0803 18.9197 40.0781 21.375 40.0781ZM21.375 32.9531H22.3552C22.6222 32.9531 22.8753 32.8331 23.0449 32.6261C23.2137 32.4191 23.2815 32.1477 23.2284 31.8859C23.1806 31.6502 23.1562 31.4102 23.1562 31.1719C23.1562 29.2071 24.754 27.6094 26.7188 27.6094C27.9408 27.6094 29.0645 28.2339 29.7246 29.2793C29.9507 29.6376 30.3978 29.7864 30.7961 29.635C32.9775 28.8035 35.1806 30.2134 35.5589 32.3208C35.6215 32.6705 35.8868 32.9496 36.233 33.0305C37.448 33.3149 38.2969 34.3821 38.2969 35.625C38.2969 37.0984 37.0984 38.2969 35.625 38.2969H21.375C19.9016 38.2969 18.7031 37.0984 18.7031 35.625C18.7031 34.1516 19.9016 32.9531 21.375 32.9531ZM48.9844 17.8125H8.01562C7.52335 17.8125 7.125 18.2108 7.125 18.7031V47.2031C7.125 47.6954 7.52335 48.0938 8.01562 48.0938H48.9844C49.4767 48.0938 49.875 47.6954 49.875 47.2031V18.7031C49.875 18.2108 49.4767 17.8125 48.9844 17.8125ZM48.0938 46.3125H8.90625V19.5938H48.0938V46.3125ZM8.27394 10.4292C8.11304 10.2596 8.01562 10.0282 8.01562 9.79688C8.01562 9.56552 8.11304 9.3333 8.27394 9.16457C8.61227 8.83493 9.20023 8.83493 9.53856 9.16457C9.69859 9.3333 9.79688 9.56552 9.79688 9.79688C9.79688 10.0282 9.69859 10.2596 9.53856 10.4292C9.36896 10.5892 9.1376 10.6875 8.90625 10.6875C8.6749 10.6875 8.44267 10.5892 8.27394 10.4292ZM17.1802 10.4292C17.0193 10.2596 16.9219 10.0369 16.9219 9.79688C16.9219 9.55595 17.0193 9.3333 17.1802 9.16457C17.5185 8.83493 18.1065 8.83493 18.4448 9.16457C18.6048 9.3333 18.7031 9.56552 18.7031 9.79688C18.7031 10.0282 18.6048 10.2596 18.4448 10.4292C18.2752 10.5892 18.0526 10.6875 17.8125 10.6875C17.5811 10.6875 17.3489 10.5892 17.1802 10.4292ZM12.7271 10.4292C12.5662 10.2596 12.4688 10.0282 12.4688 9.79688C12.4688 9.56552 12.5662 9.3333 12.7271 9.16457C13.0654 8.83493 13.6534 8.83493 13.9917 9.16457C14.1517 9.3333 14.25 9.56552 14.25 9.79688C14.25 10.0282 14.1517 10.2596 13.9917 10.4292C13.8221 10.5892 13.5907 10.6875 13.3594 10.6875C13.1185 10.6875 12.8958 10.5892 12.7271 10.4292ZM50.7656 4.45312H6.23438C3.77907 4.45312 1.78125 6.45094 1.78125 8.90625V48.0938C1.78125 50.5491 3.77907 52.5469 6.23438 52.5469H50.7656C53.2209 52.5469 55.2188 50.5491 55.2188 48.0938V8.90625C55.2188 6.45094 53.2209 4.45312 50.7656 4.45312ZM6.23438 6.23438H50.7656C52.239 6.23438 53.4375 7.43289 53.4375 8.90625V13.3594H3.5625V8.90625C3.5625 7.43289 4.76102 6.23438 6.23438 6.23438ZM50.7656 50.7656H6.23438C4.76102 50.7656 3.5625 49.5671 3.5625 48.0938V15.1406H53.4375V48.0938C53.4375 49.5671 52.239 50.7656 50.7656 50.7656ZM22.2656 9.79688C22.2656 9.3046 22.664 8.90625 23.1562 8.90625H48.0938C48.586 8.90625 48.9844 9.3046 48.9844 9.79688C48.9844 10.2892 48.586 10.6875 48.0938 10.6875H23.1562C22.664 10.6875 22.2656 10.2892 22.2656 9.79688Z" fill="#8133F1"/>
</svg>
