<svg width="79" height="57" viewBox="0 0 79 57" fill="none" xmlns="http://www.w3.org/2000/svg">
<path d="M4.55642 52.3559H43.6919C44.189 52.3559 44.5923 52.0092 44.5923 51.5817C44.5923 51.1543 44.189 50.8076 43.6919 50.8076H4.55642C3.03703 50.8076 1.80076 49.7441 1.80076 48.4377V3.91727C1.80076 2.61084 3.03703 1.54836 4.55642 1.54836H71.1652C72.6846 1.54836 73.9209 2.61084 73.9209 3.91727V15.9987C73.9209 16.4261 74.3242 16.7729 74.8213 16.7729C75.3184 16.7729 75.7216 16.4261 75.7216 15.9987V3.91727C75.7216 1.75703 73.6776 0 71.1652 0H4.55642C2.04403 0 0 1.75703 0 3.91727V48.4377C0 50.5979 2.04403 52.3559 4.55642 52.3559Z" fill="#8133F1"/>
<path d="M12.5189 6.27394C11.1931 4.63296 8.17854 5.16798 7.75971 7.16505C7.50237 8.39487 8.4561 9.5763 9.88639 9.79807C12.21 10.1559 13.845 7.91851 12.5189 6.27394ZM9.53233 7.43924C9.60502 7.09247 9.95732 6.84853 10.3536 6.84853C10.8712 6.84853 11.2689 7.25215 11.1754 7.69428C11.0939 8.08439 10.6643 8.34749 10.2053 8.27391C9.75274 8.20435 9.45027 7.82936 9.53233 7.43924Z" fill="#8133F1"/>
<path d="M21.1032 7.96974C21.3605 6.73992 20.4068 5.55849 18.9765 5.33672C16.6756 4.97671 15.0107 7.20976 16.344 8.86085C17.6878 10.5241 20.6894 9.94116 21.1032 7.96974ZM18.6576 6.86089C19.1102 6.93044 19.4126 7.30543 19.3306 7.69555C19.2491 8.08566 18.8153 8.34775 18.3604 8.27417C17.9057 8.20308 17.6052 7.83087 17.6875 7.4395C17.7602 7.09274 18.2142 6.78911 18.6576 6.86089Z" fill="#8133F1"/>
<path d="M29.2615 7.97003C29.5188 6.74021 28.5651 5.55878 27.1348 5.33701C25.7086 5.11323 24.3311 5.93579 24.0732 7.16561C23.8159 8.39543 24.7696 9.57686 26.1999 9.79863C27.6508 10.0221 29.0066 9.18426 29.2615 7.97003ZM25.8458 7.4398C25.9276 7.04949 26.3649 6.78902 26.8159 6.86118C27.2685 6.93073 27.571 7.30573 27.4889 7.69584C27.4068 8.08596 26.976 8.34805 26.5188 8.27446C26.0662 8.2049 25.7637 7.82991 25.8458 7.4398Z" fill="#8133F1"/>
<path d="M64.9624 8.34133C65.4594 8.34133 65.8627 7.99456 65.8627 7.56715C65.8627 7.13974 65.4594 6.79297 64.9624 6.79297H56.0166C55.5195 6.79297 55.1162 7.13974 55.1162 7.56715C55.1162 7.99456 55.5195 8.34133 56.0166 8.34133H64.9624Z" fill="#8133F1"/>
<path d="M68.2775 13.9504C68.2775 13.523 67.8742 13.1763 67.3771 13.1763H6.53222C6.03513 13.1763 5.63184 13.523 5.63184 13.9504C5.63184 14.3779 6.03513 14.7246 6.53222 14.7246H67.3771C67.8742 14.7246 68.2775 14.3779 68.2775 13.9504Z" fill="#8133F1"/>
<path d="M17.4074 24.2527C17.075 23.9352 16.5041 23.911 16.1354 24.1973L11.2788 27.9694C10.8663 28.2903 10.8859 28.8557 11.3281 29.1538C16.6659 32.667 16.4543 32.7677 17.0129 32.7677C17.8653 32.7677 18.2422 31.8366 17.568 31.3836L13.2806 28.5016L17.3429 25.3464C17.7116 25.0601 17.7403 24.5702 17.4074 24.2527Z" fill="#8133F1"/>
<path d="M36.1206 27.9694L31.2634 24.1973C30.8953 23.911 30.3255 23.9352 29.9914 24.2527C29.6585 24.5702 29.6872 25.0601 30.0559 25.3464L34.1188 28.5016L29.8308 31.3836C29.1564 31.8368 29.5338 32.7677 30.3859 32.7677C30.9449 32.7677 30.7402 32.6622 36.0713 29.1538C36.5143 28.8551 36.5324 28.2897 36.1206 27.9694Z" fill="#8133F1"/>
<path d="M24.5183 23.9131L20.9871 33.0218C20.7934 33.5226 21.2265 34.0409 21.8412 34.0409C22.2181 34.0409 22.5698 33.8363 22.6953 33.5117L26.2264 24.403C26.3835 23.9968 26.1285 23.5593 25.6573 23.4232C25.186 23.2901 24.6748 23.5068 24.5183 23.9131Z" fill="#8133F1"/>
<path d="M12.7598 44.239H19.9839C20.481 44.239 20.8843 43.8923 20.8843 43.4649C20.8843 43.0374 20.481 42.6907 19.9839 42.6907H12.7598C12.2627 42.6907 11.8594 43.0374 11.8594 43.4649C11.8594 43.8923 12.2627 44.239 12.7598 44.239Z" fill="#8133F1"/>
<path d="M27.6348 42.6907C27.1377 42.6907 26.7344 43.0374 26.7344 43.4649C26.7344 43.8923 27.1377 44.239 27.6348 44.239H34.8589C35.356 44.239 35.7593 43.8923 35.7593 43.4649C35.7593 43.0374 35.356 42.6907 34.8589 42.6907H27.6348Z" fill="#8133F1"/>
<path d="M53.6707 50.8418C53.6707 51.2692 54.074 51.6159 54.571 51.6159C55.0681 51.6159 55.4714 51.2692 55.4714 50.8418C55.556 50.4334 54.8251 46.6936 58.6122 43.7844C61.5992 41.4916 61.6067 37.4602 58.6122 35.1616C54.8606 32.2797 55.5514 28.49 55.4714 28.1043C55.4714 27.6768 55.0681 27.3301 54.571 27.3301C54.074 27.3301 53.6707 27.6768 53.6707 28.1043C53.7537 28.4932 52.992 32.9194 57.4129 36.3168C59.5993 37.9952 59.6052 40.9463 57.4129 42.6292C52.9939 46.0252 53.7534 50.4546 53.6707 50.8418Z" fill="#8133F1"/>
<path d="M75.0283 28.1043C75.0283 27.6768 74.6251 27.3301 74.128 27.3301C73.6309 27.3301 73.2276 27.6768 73.2276 28.1043C73.143 28.5126 73.8739 32.2524 70.0868 35.1616C67.0998 37.4544 67.0923 41.4858 70.0868 43.7844C73.8384 46.6663 73.1476 50.456 73.2276 50.8418C73.2276 51.2692 73.6309 51.6159 74.128 51.6159C74.6251 51.6159 75.0283 51.2692 75.0283 50.8418C74.9453 50.4529 75.707 46.0266 71.2861 42.6292C69.0997 40.9508 69.0938 37.9997 71.2861 36.3168C75.7051 32.9209 74.9456 28.4915 75.0283 28.1043Z" fill="#8133F1"/>
<path d="M75.718 21.8586H53.2055C51.5982 21.8586 50.291 22.9826 50.291 24.3646C50.291 25.7457 51.5982 26.8696 53.2055 26.8696H75.718C77.3253 26.8696 78.6325 25.7457 78.6325 24.3646C78.6325 22.9826 77.3253 21.8586 75.718 21.8586ZM75.718 25.3213H53.2055C52.5912 25.3213 52.0918 24.8919 52.0918 24.3646C52.0918 23.8364 52.5912 23.407 53.2055 23.407H75.718C76.3323 23.407 76.8317 23.8364 76.8317 24.3646C76.8317 24.8919 76.3323 25.3213 75.718 25.3213Z" fill="#8133F1"/>
<path d="M75.718 51.988H53.2055C51.5982 51.988 50.291 53.112 50.291 54.494C50.291 55.8761 51.5982 57 53.2055 57H75.718C77.3253 57 78.6325 55.8761 78.6325 54.494C78.6325 53.112 77.3253 51.988 75.718 51.988ZM75.718 55.4517H53.2055C52.5912 55.4517 52.0918 55.0223 52.0918 54.494C52.0918 53.9658 52.5912 53.5364 53.2055 53.5364H75.718C76.3323 53.5364 76.8317 53.9658 76.8317 54.494C76.8317 55.0223 76.3323 55.4517 75.718 55.4517Z" fill="#8133F1"/>
<path d="M58.7803 49.8713C58.8554 50.2422 59.2293 50.5124 59.6672 50.5124H69.9741C70.429 50.5124 70.8124 50.2201 70.8681 49.832C71.2309 47.2786 70.157 45.199 67.6751 43.6506C67.0315 43.2501 66.4074 42.8346 65.3767 42.1527C65.0595 41.946 64.6217 41.942 64.301 42.1446L63.5882 42.5861C60.9686 44.195 57.9995 46.0195 58.7803 49.8713ZM64.8151 43.7343C65.4307 44.1411 66.0216 44.532 66.6182 44.9046C68.3551 45.9883 69.1681 47.2907 69.1365 48.964H60.4668C60.2993 46.4466 62.4246 45.203 64.8151 43.7343Z" fill="#8133F1"/>
<path d="M67.6945 31.0657H61.896C60.6534 31.0657 59.9985 32.3484 60.8525 33.1261C61.9632 34.1353 63.1109 35.624 64.2442 36.4013C64.574 36.6261 65.0418 36.626 65.3685 36.3992C66.5066 35.6141 67.5962 34.1733 68.7408 33.1221C69.5898 32.3455 68.9359 31.0657 67.6945 31.0657ZM64.8028 34.736C64.1773 34.1691 63.4835 33.3642 62.7365 32.614H66.8574C66.1508 33.3292 65.4254 34.1677 64.8028 34.736Z" fill="#8133F1"/>
<path d="M65.6963 39.7453V38.95C65.6963 38.5225 65.293 38.1758 64.7959 38.1758C64.2988 38.1758 63.8955 38.5225 63.8955 38.95V39.7453C63.8955 40.1727 64.2988 40.5195 64.7959 40.5195C65.293 40.5195 65.6963 40.1727 65.6963 39.7453Z" fill="#8133F1"/>
</svg>
