<svg width="57" height="57" viewBox="0 0 57 57" fill="none" xmlns="http://www.w3.org/2000/svg">
<g clip-path="url(#clip0_1_9183)">
<path d="M53.8739 4.12507e-10H3.10828C2.28228 0.00470664 1.49171 0.336139 0.909305 0.921886C0.326896 1.50763 -1.34089e-05 2.30008 4.12507e-10 3.12609L4.12507e-10 53.8917C0.00470664 54.7177 0.336139 55.5083 0.921886 56.0907C1.50763 56.6731 2.30008 57 3.12609 57H53.8917C54.7177 56.9953 55.5083 56.6639 56.0907 56.0781C56.6731 55.4924 57 54.6999 57 53.8739V3.10828C56.9953 2.28228 56.6639 1.49171 56.0781 0.909305C55.4924 0.326896 54.6999 -1.34089e-05 53.8739 4.12507e-10ZM3.10828 1.72781H53.8739C54.2448 1.72781 54.6004 1.87513 54.8626 2.13736C55.1249 2.39959 55.2722 2.75525 55.2722 3.12609V10.6875H1.72781V3.12609C1.72781 2.75525 1.87513 2.39959 2.13736 2.13736C2.39959 1.87513 2.75525 1.72781 3.12609 1.72781H3.10828ZM53.8739 55.2722H3.10828C2.73743 55.2722 2.38178 55.1249 2.11955 54.8626C1.85732 54.6004 1.71 54.2448 1.71 53.8739V12.3975H55.2722V53.8739C55.2722 54.2448 55.1249 54.6004 54.8626 54.8626C54.6004 55.1249 54.2448 55.2722 53.8739 55.2722Z" fill="#8133F1"/>
<path d="M10.4029 31.5547C10.9232 31.8386 11.4727 32.0655 12.0416 32.2316V33.1222C12.0416 33.2474 12.0663 33.3713 12.1142 33.4869C12.1621 33.6026 12.2323 33.7076 12.3208 33.7961C12.4093 33.8846 12.5143 33.9548 12.6299 34.0027C12.7456 34.0506 12.8695 34.0752 12.9946 34.0752H15.6665C15.9201 34.0752 16.1634 33.9751 16.3435 33.7966C16.5236 33.6182 16.626 33.3758 16.6284 33.1222V32.2316C17.1939 32.0639 17.7402 31.837 18.2582 31.5547L18.8816 32.1782C19.0618 32.3566 19.305 32.4567 19.5585 32.4567C19.812 32.4567 20.0553 32.3566 20.2354 32.1782L22.0701 30.2812C22.163 30.1951 22.2365 30.0902 22.2856 29.9735C22.3347 29.8567 22.3584 29.7309 22.3551 29.6043C22.347 29.3529 22.2491 29.1127 22.079 28.9274L21.4556 28.3129C21.7393 27.8069 21.9692 27.2726 22.1413 26.7187H23.032C23.1571 26.7187 23.281 26.694 23.3966 26.6461C23.5123 26.5982 23.6173 26.528 23.7058 26.4395C23.7943 26.351 23.8645 26.246 23.9124 26.1304C23.9603 26.0148 23.9849 25.8908 23.9849 25.7657V23.0938C23.9849 22.9687 23.9603 22.8447 23.9124 22.7291C23.8645 22.6135 23.7943 22.5084 23.7058 22.42C23.6173 22.3315 23.5123 22.2613 23.3966 22.2134C23.281 22.1655 23.1571 22.1408 23.032 22.1408H22.1413C21.9754 21.5647 21.7454 21.0091 21.4556 20.4843L22.0701 19.8697C22.1608 19.782 22.2328 19.6768 22.2818 19.5605C22.3308 19.4441 22.3557 19.3191 22.3551 19.1929C22.347 18.9415 22.2491 18.7013 22.079 18.516L20.1998 16.6457C20.1119 16.5566 20.0073 16.4858 19.8918 16.4375C19.7764 16.3891 19.6525 16.3643 19.5273 16.3643C19.4022 16.3643 19.2783 16.3891 19.1629 16.4375C19.0474 16.4858 18.9428 16.5566 18.8549 16.6457L18.2315 17.2602C17.7135 16.978 17.1672 16.7511 16.6016 16.5833V15.6927C16.5993 15.4392 16.4969 15.1968 16.3168 15.0183C16.1367 14.8399 15.8933 14.7397 15.6398 14.7397H12.9679C12.7152 14.7397 12.4728 14.8401 12.294 15.0189C12.1153 15.1976 12.0149 15.44 12.0149 15.6927V16.5833C11.4459 16.7494 10.8965 16.9764 10.3762 17.2602L9.79727 16.6546C9.70867 16.5652 9.60324 16.4942 9.48706 16.4458C9.37088 16.3974 9.24626 16.3724 9.1204 16.3724C8.99453 16.3724 8.86991 16.3974 8.75373 16.4458C8.63755 16.4942 8.53212 16.5652 8.44352 16.6546L6.5643 18.516C6.38299 18.6983 6.28062 18.9446 6.2793 19.2018C6.28891 19.4528 6.38666 19.6925 6.5554 19.8787L7.17883 20.4932C6.89277 21.0125 6.66573 21.5621 6.50196 22.1319H5.61133C5.48544 22.1308 5.36056 22.1545 5.24391 22.2019C5.12726 22.2493 5.02116 22.3193 4.93172 22.4079C4.84228 22.4965 4.77129 22.6019 4.72284 22.7181C4.6744 22.8344 4.64945 22.959 4.64946 23.0849V25.7568C4.64821 25.885 4.67283 26.0121 4.72185 26.1305C4.77087 26.2489 4.84328 26.3563 4.93474 26.4461C5.02621 26.5359 5.13485 26.6063 5.25416 26.6531C5.37348 26.7 5.50102 26.7223 5.62915 26.7187H6.51977C6.68354 27.2884 6.91058 27.8381 7.19665 28.3574L6.58212 28.9719C6.40214 29.1515 6.29981 29.3946 6.29712 29.6488C6.30518 29.9002 6.40314 30.1404 6.57321 30.3257L8.45243 32.2049C8.63254 32.3833 8.8758 32.4834 9.1293 32.4834C9.38281 32.4834 9.62606 32.3833 9.80618 32.2049L10.4029 31.5547ZM9.11149 30.4058L8.32774 29.6221L8.82649 29.1233C8.97632 28.9628 9.06612 28.7555 9.08073 28.5364C9.09533 28.3174 9.03384 28.1 8.90665 27.921C8.47659 27.2489 8.17463 26.5031 8.01602 25.7212C7.97803 25.5091 7.86929 25.3161 7.70754 25.1738C7.5458 25.0314 7.34059 24.9481 7.1254 24.9374H6.39508V23.8597H7.1254C7.33808 23.8499 7.54134 23.7691 7.70276 23.6303C7.86418 23.4915 7.97446 23.3026 8.01602 23.0938C8.17626 22.3151 8.47814 21.5725 8.90665 20.9029C9.02923 20.7199 9.08469 20.5002 9.06358 20.281C9.04247 20.0618 8.94611 19.8567 8.79087 19.7005L8.29212 19.2018L9.07587 18.418L9.57462 18.9168C9.72824 19.0727 9.93128 19.1704 10.149 19.1931C10.3667 19.2159 10.5855 19.1623 10.7681 19.0415C11.4421 18.6091 12.1913 18.307 12.9768 18.1508C13.1889 18.1025 13.3783 17.9837 13.5142 17.8139C13.65 17.6441 13.7243 17.4332 13.7249 17.2157V16.5121H14.8738V17.2157C14.8749 17.4344 14.9505 17.6462 15.0881 17.8162C15.2257 17.9862 15.4172 18.1043 15.6309 18.1508C16.4135 18.307 17.1598 18.6092 17.8307 19.0415C18.0152 19.1613 18.2351 19.2143 18.4539 19.1916C18.6727 19.1689 18.8771 19.0719 19.0331 18.9168L19.5318 18.418L20.3066 19.2018L19.8168 19.7005C19.6587 19.8547 19.5596 20.0594 19.5368 20.2791C19.514 20.4988 19.569 20.7195 19.6921 20.9029C20.1189 21.5702 20.4207 22.3096 20.5827 23.0849C20.6242 23.3027 20.7402 23.4992 20.9109 23.6406C21.0816 23.782 21.2962 23.8595 21.5179 23.8597H22.266V24.9374H21.5624C21.342 24.9372 21.1284 25.0135 20.9579 25.1531C20.7874 25.2928 20.6705 25.4872 20.6273 25.7033C20.467 26.482 20.1652 27.2247 19.7366 27.8943C19.6135 28.0776 19.5585 28.2983 19.5813 28.518C19.6041 28.7377 19.7032 28.9424 19.8613 29.0966L20.3512 29.5954L19.5763 30.3791L19.0687 29.8715C18.9041 29.7098 18.6873 29.6121 18.4572 29.5958C18.2271 29.5795 17.9987 29.6456 17.8129 29.7824C17.1434 30.2174 16.3966 30.5198 15.6131 30.673C15.4066 30.7177 15.2206 30.8292 15.0837 30.9902C14.9469 31.1511 14.8669 31.3527 14.856 31.5637V32.2762H13.7606V31.5637C13.7497 31.3527 13.6697 31.1511 13.5328 30.9902C13.396 30.8292 13.21 30.7177 13.0035 30.673C12.22 30.5198 11.4732 30.2174 10.8037 29.7824C10.6211 29.6616 10.4023 29.608 10.1846 29.6307C9.9669 29.6535 9.76387 29.7512 9.61024 29.9071L9.11149 30.4058Z" fill="#8133F1"/>
<path d="M14.3208 29.1235C15.2526 29.1235 16.1635 28.8472 16.9383 28.3295C17.7131 27.8118 18.317 27.076 18.6736 26.2151C19.0301 25.3542 19.1235 24.4069 18.9417 23.4929C18.7599 22.579 18.3112 21.7395 17.6522 21.0806C16.9933 20.4217 16.1539 19.973 15.2399 19.7912C14.326 19.6094 13.3787 19.7027 12.5178 20.0593C11.6569 20.4159 10.9211 21.0198 10.4034 21.7946C9.88569 22.5694 9.60938 23.4803 9.60938 24.4121C9.61173 25.6609 10.1089 26.8579 10.9919 27.741C11.875 28.624 13.072 29.1211 14.3208 29.1235ZM14.3208 21.4285C14.9109 21.4285 15.4877 21.6035 15.9784 21.9313C16.469 22.2592 16.8514 22.7251 17.0773 23.2703C17.3031 23.8155 17.3622 24.4154 17.247 24.9942C17.1319 25.5729 16.8478 26.1045 16.4305 26.5218C16.0132 26.9391 15.4816 27.2232 14.9029 27.3384C14.3241 27.4535 13.7242 27.3944 13.179 27.1686C12.6338 26.9428 12.1679 26.5603 11.84 26.0697C11.5122 25.579 11.3372 25.0022 11.3372 24.4121C11.3372 24.0203 11.4144 23.6323 11.5643 23.2703C11.7142 22.9083 11.934 22.5794 12.2111 22.3024C12.4881 22.0253 12.817 21.8056 13.179 21.6556C13.541 21.5057 13.929 21.4285 14.3208 21.4285Z" fill="#8133F1"/>
<path d="M43.0078 23.753C43.2101 23.648 43.3644 23.4694 43.439 23.254C43.5135 23.0386 43.5027 22.8029 43.4086 22.5952L40.9683 17.5187C40.9197 17.4338 40.8598 17.3559 40.7902 17.2871C40.7133 17.2224 40.6259 17.1712 40.5319 17.1357H40.4607C40.381 17.1227 40.2998 17.1227 40.2202 17.1357H40.0777C39.9802 17.1427 39.8842 17.1637 39.7927 17.198L34.7696 19.4246C34.5885 19.5259 34.4485 19.6872 34.3737 19.8807C34.299 20.0742 34.294 20.2877 34.3599 20.4845C34.4586 20.6887 34.6315 20.8476 34.8434 20.9287C35.0552 21.0098 35.29 21.007 35.4999 20.9209L38.7863 19.4691C34.1639 33.4074 24.0464 42.0376 10.8385 43.231C10.6516 43.2905 10.4895 43.4099 10.3775 43.5709C10.2654 43.7319 10.2096 43.9253 10.2187 44.1212C10.2279 44.3172 10.3014 44.5046 10.428 44.6544C10.5545 44.8043 10.727 44.9081 10.9186 44.9499H10.9899C24.8658 43.703 35.4553 34.7345 40.3271 20.2084L41.8589 23.3523C41.9316 23.4965 42.042 23.6182 42.1785 23.7045C42.315 23.7908 42.4724 23.8384 42.6338 23.8421C42.7632 23.8379 42.8904 23.8076 43.0078 23.753Z" fill="#8133F1"/>
<path d="M15.7016 47.2031H10.4023C10.1661 47.2031 9.9396 47.297 9.77258 47.464C9.60555 47.631 9.51172 47.8575 9.51172 48.0938V53.0723C9.51172 53.3086 9.60555 53.5351 9.77258 53.7021C9.9396 53.8691 10.1661 53.963 10.4023 53.963H15.7016C15.9378 53.963 16.1643 53.8691 16.3313 53.7021C16.4984 53.5351 16.5922 53.3086 16.5922 53.0723V48.0225C16.5742 47.7989 16.4725 47.5902 16.3074 47.4383C16.1423 47.2864 15.9259 47.2024 15.7016 47.2031ZM14.8109 52.1817H11.2484V48.8864H14.8109V52.1817Z" fill="#8133F1"/>
<path d="M23.9047 45.0391H18.6055C18.3693 45.0391 18.1427 45.1329 17.9757 45.2999C17.8087 45.4669 17.7148 45.6935 17.7148 45.9297V53.0547C17.7148 53.2909 17.8087 53.5174 17.9757 53.6845C18.1427 53.8515 18.3693 53.9453 18.6055 53.9453H23.9047C24.1409 53.9453 24.3674 53.8515 24.5345 53.6845C24.7015 53.5174 24.7953 53.2909 24.7953 53.0547V45.9297C24.7953 45.6935 24.7015 45.4669 24.5345 45.2999C24.3674 45.1329 24.1409 45.0391 23.9047 45.0391ZM23.0141 52.1641H19.4516V46.8203H23.0141V52.1641Z" fill="#8133F1"/>
<path d="M32.0622 41.0313H26.5938C26.3575 41.0313 26.131 41.1251 25.964 41.2921C25.797 41.4591 25.7031 41.6857 25.7031 41.9219V53.0013C25.7031 53.2375 25.797 53.464 25.964 53.631C26.131 53.798 26.3575 53.8919 26.5938 53.8919H32.0622C32.2984 53.8919 32.5249 53.798 32.692 53.631C32.859 53.464 32.9528 53.2375 32.9528 53.0013V41.8595C32.937 41.6343 32.8362 41.4235 32.6709 41.2697C32.5056 41.1159 32.288 41.0307 32.0622 41.0313ZM31.1716 52.1373H27.4577V42.7502H31.225L31.1716 52.1373Z" fill="#8133F1"/>
<path d="M40.6924 36.1772H35.1973C34.9611 36.1772 34.7345 36.2711 34.5675 36.4381C34.4005 36.6051 34.3066 36.8317 34.3066 37.0679V53.0012C34.3066 53.2374 34.4005 53.4639 34.5675 53.6309C34.7345 53.7979 34.9611 53.8918 35.1973 53.8918H40.6924C40.9286 53.8918 41.1552 53.7979 41.3222 53.6309C41.4892 53.4639 41.583 53.2374 41.583 53.0012V37.0412C41.5761 36.8096 41.4792 36.5899 41.3129 36.4286C41.1466 36.2673 40.9241 36.1771 40.6924 36.1772ZM39.8018 52.1372H36.0523V37.8872H39.8285L39.8018 52.1372Z" fill="#8133F1"/>
<path d="M48.8771 25.5967H43.3018C43.0655 25.5967 42.839 25.6905 42.672 25.8575C42.505 26.0246 42.4111 26.2511 42.4111 26.4873V53.0279C42.4111 53.2641 42.505 53.4907 42.672 53.6577C42.839 53.8247 43.0655 53.9186 43.3018 53.9186H48.8771C49.1133 53.9186 49.3398 53.8247 49.5068 53.6577C49.6739 53.4907 49.7677 53.2641 49.7677 53.0279V26.4606C49.7607 26.229 49.6639 26.0093 49.4976 25.848C49.3313 25.6867 49.1087 25.5966 48.8771 25.5967ZM47.9864 52.1373H44.1657V27.3245H48.0132L47.9864 52.1373Z" fill="#8133F1"/>
<path d="M6.11007 7.74867H10.0823C10.2136 7.78159 10.3507 7.78413 10.4831 7.7561C10.6156 7.72807 10.7399 7.67021 10.8467 7.58692C10.9534 7.50363 11.0398 7.3971 11.0991 7.27543C11.1585 7.15376 11.1894 7.02016 11.1894 6.88477C11.1894 6.74938 11.1585 6.61577 11.0991 6.4941C11.0398 6.37243 10.9534 6.2659 10.8467 6.18261C10.7399 6.09932 10.6156 6.04146 10.4831 6.01343C10.3507 5.98541 10.2136 5.98795 10.0823 6.02086H6.11007C5.97874 5.98795 5.84164 5.98541 5.70918 6.01343C5.57672 6.04146 5.4524 6.09932 5.34566 6.18261C5.23892 6.2659 5.15257 6.37243 5.09319 6.4941C5.0338 6.61577 5.00293 6.74938 5.00293 6.88477C5.00293 7.02016 5.0338 7.15376 5.09319 7.27543C5.15257 7.3971 5.23892 7.50363 5.34566 7.58692C5.4524 7.67021 5.57672 7.72807 5.70918 7.7561C5.84164 7.78413 5.97874 7.78159 6.11007 7.74867Z" fill="#8133F1"/>
<path d="M15.0159 7.74832H18.9881C19.1807 7.70006 19.3516 7.58883 19.4737 7.43231C19.5959 7.27579 19.6622 7.08295 19.6622 6.88441C19.6622 6.68588 19.5959 6.49304 19.4737 6.33652C19.3516 6.18 19.1807 6.06877 18.9881 6.02051H15.0159C14.8233 6.06877 14.6524 6.18 14.5303 6.33652C14.4081 6.49304 14.3418 6.68588 14.3418 6.88441C14.3418 7.08295 14.4081 7.27579 14.5303 7.43231C14.6524 7.58883 14.8233 7.70006 15.0159 7.74832Z" fill="#8133F1"/>
<path d="M23.9226 7.74867H27.8948C28.0873 7.70041 28.2583 7.58918 28.3804 7.43266C28.5025 7.27614 28.5689 7.0833 28.5689 6.88477C28.5689 6.68623 28.5025 6.49339 28.3804 6.33687C28.2583 6.18035 28.0873 6.06912 27.8948 6.02086H23.9226C23.7912 5.98795 23.6541 5.98541 23.5217 6.01343C23.3892 6.04146 23.2649 6.09932 23.1582 6.18261C23.0514 6.2659 22.9651 6.37243 22.9057 6.4941C22.8463 6.61577 22.8154 6.74938 22.8154 6.88477C22.8154 7.02016 22.8463 7.15376 22.9057 7.27543C22.9651 7.3971 23.0514 7.50363 23.1582 7.58692C23.2649 7.67021 23.3892 7.72807 23.5217 7.7561C23.6541 7.78413 23.7912 7.78159 23.9226 7.74867Z" fill="#8133F1"/>
</g>
<defs>
<clipPath id="clip0_1_9183">
<rect width="57" height="57" fill="white"/>
</clipPath>
</defs>
</svg>
