<svg width="57" height="57" viewBox="0 0 57 57" fill="none" xmlns="http://www.w3.org/2000/svg">
<g clip-path="url(#clip0_1_9029)">
<path fill-rule="evenodd" clip-rule="evenodd" d="M54.162 47.0365H2.87725C1.31418 47.0365 0.015625 45.738 0.015625 44.1749V6.09209C0.015625 4.521 1.31418 3.23047 2.87725 3.23047H54.162C55.5968 3.23047 56.7992 4.28855 56.9836 5.72337V5.81154V6.46082C57.0236 19.0135 57.0236 31.7986 57.0236 44.1749C57.0236 45.738 55.7331 47.0365 54.162 47.0365ZM2.87725 4.84163C2.18789 4.84163 1.63481 5.39472 1.63481 6.09209V44.1749C1.63481 44.8643 2.18789 45.4174 2.87725 45.4174H54.162C54.8594 45.4174 55.4125 44.8643 55.4125 44.1749C55.4125 31.7986 55.4125 19.0135 55.3644 6.46082V5.90773C55.2762 5.30655 54.7151 4.84163 54.162 4.84163H2.87725Z" fill="#8133F1"/>
<path fill-rule="evenodd" clip-rule="evenodd" d="M20.8808 53.7699C20.7445 53.7699 20.6083 53.7299 20.472 53.6818C20.0953 53.4493 19.959 52.9443 20.1914 52.5756L24.0711 45.8343C24.3035 45.4656 24.8085 45.3293 25.1772 45.5538C25.546 45.7862 25.6822 46.2993 25.4498 46.668L21.5782 53.4012C21.4339 53.6337 21.1614 53.7699 20.8808 53.7699Z" fill="#8133F1"/>
<path fill-rule="evenodd" clip-rule="evenodd" d="M36.1182 53.7698C35.8376 53.7698 35.5651 53.6335 35.4208 53.3609L31.5492 46.6197C31.3167 46.251 31.453 45.738 31.8217 45.5135C32.1904 45.2811 32.7034 45.4173 32.9279 45.7861L36.8075 52.5273C37.04 52.896 36.9037 53.401 36.535 53.6335C36.3907 53.7297 36.2544 53.7698 36.1182 53.7698Z" fill="#8133F1"/>
<path fill-rule="evenodd" clip-rule="evenodd" d="M40.1827 53.7696H16.8248C16.3599 53.7696 15.9912 53.4009 15.9912 52.944C15.9912 52.4791 16.3599 52.1104 16.8248 52.1104H40.1347C40.5915 52.1104 40.9603 52.4791 40.9603 52.944C40.9603 53.4009 40.5915 53.7696 40.1827 53.7696Z" fill="#8133F1"/>
<path fill-rule="evenodd" clip-rule="evenodd" d="M56.1981 38.3072H0.801208C0.34431 38.3072 -0.0244141 37.9385 -0.0244141 37.4816C-0.0244141 37.0167 0.34431 36.6479 0.801208 36.6479H56.1981C56.655 36.6479 57.0237 37.0167 57.0237 37.4816C57.0237 37.9385 56.655 38.3072 56.1981 38.3072Z" fill="#8133F1"/>
<path fill-rule="evenodd" clip-rule="evenodd" d="M31.8705 42.692H25.1774C24.7125 42.692 24.3438 42.3233 24.3438 41.8664C24.3438 41.4014 24.7125 41.0327 25.1774 41.0327H31.8705C32.3355 41.0327 32.7042 41.4014 32.7042 41.8664C32.7042 42.3233 32.2874 42.692 31.8705 42.692Z" fill="#8133F1"/>
<path fill-rule="evenodd" clip-rule="evenodd" d="M35.9338 28.8008C35.5651 28.8008 35.2365 28.5202 35.1483 28.1515L31.0843 10.1962C31.0362 10.0119 30.948 9.64315 30.6675 9.64315H25.0805C24.6236 9.64315 24.2549 9.27442 24.2549 8.80951C24.2549 8.35261 24.6236 7.98389 25.0805 7.98389H30.7156C31.6855 7.98389 32.471 8.67324 32.7035 9.77941L36.7595 27.6946C36.8556 28.1114 36.5751 28.5683 36.1583 28.6645C36.0701 28.8008 36.022 28.8008 35.9338 28.8008Z" fill="#8133F1"/>
<path fill-rule="evenodd" clip-rule="evenodd" d="M48.3507 23.9993H34.8682C34.4995 23.9993 34.1788 23.7268 34.0826 23.35L31.5016 11.9035C31.4535 11.6791 31.5016 11.3985 31.6378 11.2142C31.7741 11.0298 32.0066 10.8936 32.2871 10.8936H52.4147C52.9677 10.8936 53.5689 11.2142 53.8896 11.6791C54.122 12.0478 54.2102 12.4566 54.0258 12.8734L49.9618 22.6126C49.8256 22.9813 49.4087 23.9993 48.3507 23.9993ZM35.5175 22.3881H48.3026C48.3507 22.34 48.3988 22.2439 48.4869 22.0114L52.4547 12.5047H33.257L35.5175 22.3881Z" fill="#8133F1"/>
<path fill-rule="evenodd" clip-rule="evenodd" d="M49.2243 28.8009H35.9342C35.4693 28.8009 35.1006 28.4321 35.1006 27.9672C35.1006 27.5103 35.4693 27.1416 35.9342 27.1416H49.2243C49.6893 27.1416 50.058 27.5103 50.058 27.9672C50.058 28.4321 49.6893 28.8009 49.2243 28.8009Z" fill="#8133F1"/>
<path fill-rule="evenodd" clip-rule="evenodd" d="M36.7193 33.466C35.012 33.466 33.5771 32.0793 33.5771 30.3239C33.5771 28.5684 34.9639 27.1416 36.7193 27.1416C38.4668 27.1416 39.9016 28.5684 39.9016 30.3239C39.8535 32.0793 38.4668 33.466 36.7193 33.466ZM36.7193 28.8009C35.8857 28.8009 35.1963 29.4902 35.1963 30.3719C35.1963 31.1976 35.8376 31.8949 36.7193 31.8949C37.593 31.8949 38.2824 31.1976 38.2824 30.3719C38.2423 29.4902 37.5449 28.8009 36.7193 28.8009Z" fill="#8133F1"/>
<path fill-rule="evenodd" clip-rule="evenodd" d="M49.2242 33.466C47.4688 33.466 46.042 32.0793 46.042 30.3239C46.042 28.5684 47.4688 27.1416 49.2242 27.1416C50.9316 27.1416 52.3664 28.5684 52.3664 30.3239C52.3664 32.0793 50.9797 33.466 49.2242 33.466ZM49.2242 28.8009C48.3505 28.8009 47.6532 29.4902 47.6532 30.3719C47.6532 31.1976 48.3505 31.8949 49.2242 31.8949C50.0579 31.8949 50.7472 31.2457 50.7472 30.3719C50.7472 29.4902 50.0579 28.8009 49.2242 28.8009Z" fill="#8133F1"/>
<path fill-rule="evenodd" clip-rule="evenodd" d="M26.7478 15.5509H9.24945C8.79255 15.5509 8.42383 15.1821 8.42383 14.7252C8.42383 14.2603 8.79255 13.8916 9.24945 13.8916H26.7478C27.2047 13.8916 27.5735 14.2603 27.5735 14.7252C27.5735 15.1821 27.2047 15.5509 26.7478 15.5509Z" fill="#8133F1"/>
<path fill-rule="evenodd" clip-rule="evenodd" d="M21.2498 20.9532H3.75942C3.29451 20.9532 2.92578 20.5845 2.92578 20.1196C2.92578 19.6627 3.29451 19.2939 3.75942 19.2939H21.2498C21.7147 19.2939 22.0834 19.6627 22.0834 20.1196C22.0834 20.5845 21.7147 20.9532 21.2498 20.9532Z" fill="#8133F1"/>
<path fill-rule="evenodd" clip-rule="evenodd" d="M26.7478 26.6285H9.24945C8.79255 26.6285 8.42383 26.2598 8.42383 25.8029C8.42383 25.338 8.79255 24.9692 9.24945 24.9692H26.7478C27.2047 24.9692 27.5735 25.338 27.5735 25.8029C27.5735 26.2598 27.2047 26.6285 26.7478 26.6285Z" fill="#8133F1"/>
<path fill-rule="evenodd" clip-rule="evenodd" d="M51.4446 17.723C51.2122 17.723 50.9797 17.6268 50.8434 17.4425L46.4989 12.2723C46.2264 11.9517 46.2745 11.4467 46.5951 11.1181C46.9157 10.8455 47.4287 10.8936 47.7494 11.2142L52.0859 16.3844C52.3664 16.705 52.3183 17.218 51.9977 17.5387C51.8134 17.6749 51.629 17.723 51.4446 17.723Z" fill="#8133F1"/>
<path fill-rule="evenodd" clip-rule="evenodd" d="M50.2428 20.7207C50.0103 20.7207 49.7779 20.6326 49.6416 20.4482L42.8122 12.2321C42.5316 11.9034 42.5797 11.3984 42.9003 11.0778C43.229 10.7972 43.734 10.8453 44.0546 11.166L50.892 19.334C51.1646 19.6627 51.1165 20.1677 50.7959 20.4883C50.6115 20.6326 50.4271 20.7207 50.2428 20.7207Z" fill="#8133F1"/>
<path fill-rule="evenodd" clip-rule="evenodd" d="M48.9521 23.6306C48.7196 23.6306 48.4872 23.5344 48.3509 23.3501L39.1168 12.2723C38.8442 11.9517 38.8843 11.4467 39.213 11.1181C39.5336 10.8455 40.0386 10.8936 40.3672 11.2142L49.5933 22.292C49.8739 22.6126 49.8258 23.1256 49.5052 23.4463C49.3208 23.5825 49.1365 23.6306 48.9521 23.6306Z" fill="#8133F1"/>
<path fill-rule="evenodd" clip-rule="evenodd" d="M45.5775 23.9992C45.3451 23.9992 45.1206 23.911 44.9764 23.7267L35.3815 12.2321C35.101 11.9034 35.1491 11.3984 35.4697 11.0778C35.7903 10.7972 36.3033 10.8453 36.6239 11.166L46.1787 22.6125C46.4593 22.9411 46.4112 23.4461 46.0905 23.7667C45.9463 23.9511 45.7619 23.9992 45.5775 23.9992Z" fill="#8133F1"/>
<path fill-rule="evenodd" clip-rule="evenodd" d="M41.8421 23.9992C41.6097 23.9992 41.3772 23.911 41.241 23.7266L31.6862 12.232C31.4056 11.9034 31.4537 11.3984 31.7744 11.0778C32.103 10.7491 32.608 10.8453 32.9286 11.1659L42.4834 22.6124C42.764 22.9411 42.7159 23.4461 42.3952 23.7667C42.2109 23.9511 42.0265 23.9992 41.8421 23.9992Z" fill="#8133F1"/>
<path fill-rule="evenodd" clip-rule="evenodd" d="M38.1942 23.9991C37.9618 23.9991 37.7293 23.9109 37.5931 23.7265L33.0241 18.2758C32.7435 17.9552 32.7916 17.4422 33.1123 17.1215C33.4409 16.841 33.9459 16.8891 34.2665 17.2177L38.8435 22.6604C39.1161 22.981 39.068 23.4941 38.7473 23.8147C38.5149 23.951 38.3305 23.9991 38.1942 23.9991Z" fill="#8133F1"/>
</g>
<defs>
<clipPath id="clip0_1_9029">
<rect width="57" height="57" fill="white"/>
</clipPath>
</defs>
</svg>
