<svg width="128" height="128" viewBox="0 0 128 128" fill="none" xmlns="http://www.w3.org/2000/svg">
<g clip-path="url(#clip0_321_66)">
<path d="M27.8933 55.1943H17.6288C15.8362 55.1943 14.3827 56.6463 14.3827 58.4373V69.5172C14.3827 71.3078 15.8362 72.7598 17.6288 72.7598H27.8933C29.6861 72.7598 31.1393 71.3078 31.1393 69.5172V58.4373C31.1393 56.6463 29.6859 55.1943 27.8933 55.1943ZM26.1799 65.4034L28.5093 72.272L22.9488 67.9556L17.5762 72.2344L19.7178 65.5535L14.7584 61.8002H20.92L22.8736 55.6823L24.94 61.8002H30.7258L26.1799 65.4034ZM67.7823 72.8046C65.6907 72.8046 63.9949 71.1107 63.9949 69.0211V59.3348C63.9949 57.2453 65.6907 55.5513 67.7823 55.5513H77.1456V60.1928H68.9918V61.857H77.1456V66.4989H68.9918V68.1631H77.1456V72.805L67.7823 72.8046ZM46.893 59.3348C46.893 57.2453 45.1974 55.5513 43.1057 55.5513H32.7781V72.805H37.7755V60.1927H41.8961V72.805H46.8933L46.893 59.3348ZM3.78727 72.805C1.69577 72.805 0 71.1112 0 69.0215V59.3343C0 57.2448 1.69577 55.5506 3.78727 55.5506H12.9756V60.1927H4.99743V68.1631H12.9758V72.805H3.78727ZM46.677 55.5506H51.8499L55.269 66.061L58.7759 55.5506H63.9486L58.1622 72.805H52.3758L46.677 55.5506ZM104.882 72.8046C106.974 72.8046 108.669 71.1107 108.669 69.0211V65.6407C108.669 63.5514 106.974 61.8574 104.882 61.8574L99.6392 61.857V60.1928H108.056V55.5511H98.4298C96.3385 55.5511 94.6427 57.2451 94.6427 59.3346V62.7147C94.6427 64.8042 96.3385 66.4984 98.4298 66.4984H103.76V68.1629H94.642V72.805L104.882 72.8046ZM123.313 72.805L113.949 72.8046C111.858 72.8046 110.162 71.1107 110.162 69.0211V59.3348C110.162 57.2453 111.858 55.5513 113.949 55.5513H123.313V60.1928H115.159V61.857H123.313V66.4989H115.159V68.1631H123.313V72.805ZM90.4383 66.2548C91.8686 65.7141 92.8858 64.333 92.8858 62.7149V59.3348C92.8858 57.2453 91.19 55.5513 89.0987 55.5513H78.9463V72.805H83.9435V62.9954L88.415 72.805H93.5L90.4383 66.2548ZM88.0634 61.8443H83.9426V60.1801H88.0634V61.8443ZM127.5 56.3193C127.167 55.9878 126.764 55.8222 126.291 55.8222C125.822 55.8222 125.421 55.988 125.09 56.3193C124.756 56.6521 124.59 57.0532 124.59 57.5223C124.59 57.996 124.755 58.3995 125.085 58.7323C125.417 59.0666 125.819 59.2338 126.291 59.2338C126.764 59.2338 127.167 59.0665 127.5 58.7323C127.834 58.3979 128 57.9944 128 57.5223C128 57.0516 127.834 56.6504 127.5 56.3193ZM127.331 58.5672C127.045 58.8553 126.699 58.9994 126.291 58.9994C125.884 58.9994 125.537 58.8553 125.252 58.5672C124.969 58.2793 124.827 57.9309 124.827 57.5223C124.827 57.1165 124.969 56.7706 125.255 56.4841C125.541 56.1962 125.887 56.0522 126.291 56.0522C126.697 56.0522 127.044 56.1962 127.331 56.4841C127.616 56.7706 127.758 57.1165 127.758 57.5223C127.758 57.9309 127.616 58.2793 127.331 58.5672Z" fill="white"/>
<path d="M127.052 58.4305C127.044 58.415 127.038 58.3824 127.035 58.3329C127.032 58.2865 127.031 58.2401 127.031 58.1937V58.0566C127.031 57.9621 126.997 57.8654 126.929 57.7662C126.86 57.6672 126.753 57.606 126.605 57.5828C126.721 57.5642 126.812 57.5342 126.878 57.4923C127 57.4133 127.061 57.2903 127.061 57.1231C127.061 56.8877 126.964 56.7298 126.77 56.6493C126.662 56.6045 126.491 56.582 126.259 56.582H125.604V58.454H125.934V57.7154H126.194C126.369 57.7154 126.491 57.7355 126.561 57.7757C126.679 57.8455 126.738 57.9886 126.738 58.2053V58.354L126.745 58.4145C126.746 58.422 126.748 58.4292 126.749 58.4353L126.754 58.454H127.063L127.052 58.4305ZM126.545 57.4418C126.475 57.4698 126.37 57.4836 126.231 57.4836H125.934V56.8056H126.215C126.398 56.8056 126.531 56.8287 126.613 56.8752C126.696 56.9218 126.738 57.0131 126.738 57.1493C126.738 57.2933 126.674 57.3909 126.545 57.4418Z" fill="black"/>
</g>
<defs>
<clipPath id="clip0_321_66">
<rect width="128" height="128" fill="white"/>
</clipPath>
</defs>
</svg>
