<svg width="1296" height="600" viewBox="0 0 1296 600" fill="none" xmlns="http://www.w3.org/2000/svg">
<g opacity="0.15">
<mask id="mask0_449_33682" style="mask-type:alpha" maskUnits="userSpaceOnUse" x="0" y="0" width="1296" height="600">
<rect width="1296" height="600" rx="16" fill="#D9D9D9"/>
</mask>
<g mask="url(#mask0_449_33682)">
</g>
<g clip-path="url(#clip0_449_33682)">
<mask id="mask1_449_33682" style="mask-type:luminance" maskUnits="userSpaceOnUse" x="0" y="0" width="1296" height="600">
<path d="M1296 0H0V600H1296V0Z" fill="white"/>
</mask>
<g mask="url(#mask1_449_33682)">
<mask id="mask2_449_33682" style="mask-type:luminance" maskUnits="userSpaceOnUse" x="0" y="0" width="1077" height="607">
<path d="M1076.26 0H0V606.34H1076.26V0Z" fill="white"/>
</mask>
<g mask="url(#mask2_449_33682)">
<path d="M257.701 -13.8854L193.036 50.7795L201.613 59.3567L266.278 -5.30818L257.701 -13.8854Z" fill="#8133F1"/>
<path d="M482.05 -13.8849L417.385 50.78L425.962 59.3572L490.627 -5.30769L482.05 -13.8849Z" fill="#8133F1"/>
<path d="M538.13 59.3601L594.22 3.27012L650.3 59.3601L658.88 50.7801L602.79 -5.30988L594.22 -13.8799L585.64 -5.30988L529.55 50.7801L538.13 59.3601Z" fill="#8133F1"/>
<path d="M874.651 -13.8797L866.074 -5.30249L930.739 59.3624L939.316 50.7852L874.651 -13.8797Z" fill="#8133F1"/>
<path d="M1107.57 -5.30988L1099 -13.8799L1042.91 42.2101L986.82 -13.8799L978.25 -5.30988L1034.34 50.7801L986.83 98.2901L978.26 106.86L930.75 154.37L922.18 162.94L874.67 210.45L827.16 162.94L883.25 106.85L874.68 98.2801L818.59 154.37L810.02 162.94L818.59 171.51L866.1 219.02L818.59 266.53L762.5 210.44L753.93 219.01L810.02 275.1L818.59 283.67L827.16 275.1L874.67 227.59L922.18 275.1L930.75 283.67L978.26 331.18L930.75 378.69L874.66 322.6L866.09 331.17L922.18 387.26L930.75 395.83L978.26 443.34L930.75 490.85L874.66 434.76L866.09 443.33L922.18 499.42L930.75 507.99L978.26 555.5L986.83 564.07L1034.34 611.58L1042.91 620.15L1051.48 611.58L1107.57 555.49L1099 546.92L1042.91 603.01L995.4 555.5L986.83 546.93L939.32 499.42L986.83 451.91L1034.34 499.42L1042.91 507.99L1051.48 499.42L1098.99 451.91L1107.56 443.34L1098.99 434.77L1051.48 387.26L1098.99 339.75L1107.56 331.18L1098.99 322.61L1051.48 275.1L1107.57 219.01L1099 210.44L1042.91 266.53L1034.34 275.1L986.83 322.61L939.32 275.1L986.83 227.59L995.4 219.02L986.83 210.45L939.32 162.94L986.83 115.43L995.4 106.86L1042.91 59.3501L1099 115.44L1107.57 106.87L1051.48 50.7801L1107.57 -5.30988ZM1090.42 443.39L1042.91 490.9L995.4 443.39L1042.91 395.88L1090.42 443.39ZM995.4 331.22L1042.91 283.71L1090.42 331.22L1042.91 378.73L1034.34 387.3L986.83 434.81L939.32 387.3L986.83 339.79L995.4 331.22ZM978.25 219.04L930.74 266.55L883.23 219.04L930.74 171.53L978.25 219.04Z" fill="#8133F1"/>
<path d="M33.3483 98.2956L24.7711 106.873L89.436 171.538L98.0132 162.961L33.3483 98.2956Z" fill="#8133F1"/>
<path d="M1051.49 106.87L1042.92 98.3L1034.35 106.87L986.84 154.38L978.27 162.95L986.84 171.52L1034.35 219.03L978.26 275.12L986.83 283.69L1042.92 227.6L1051.49 219.03L1099 171.52L1107.57 162.95L1099 154.38L1051.49 106.87ZM1042.91 210.47L995.4 162.96L1042.91 115.45L1090.42 162.96L1042.91 210.47Z" fill="#8133F1"/>
<path d="M201.61 154.38L154.1 106.87L145.52 98.2902L89.4401 42.2102L80.8601 50.7802L136.95 106.87L145.52 115.44L193.03 162.95L201.61 171.53L257.7 227.62L266.27 219.04L210.18 162.95L201.61 154.38Z" fill="#8133F1"/>
<path d="M33.3506 210.463L-31.3143 275.128L-22.7371 283.705L41.9278 219.04L33.3506 210.463Z" fill="#8133F1"/>
<path d="M145.52 210.47L89.44 266.55L80.86 275.13L24.77 331.22L33.35 339.79L89.44 283.7L98.01 275.13L154.1 219.04L145.52 210.47Z" fill="#8133F1"/>
<path d="M201.61 266.55L193.03 275.13L249.12 331.22L257.7 339.79L266.27 331.22L322.36 275.13L313.78 266.55L257.7 322.64L201.61 266.55Z" fill="#8133F1"/>
<path d="M1042.91 322.64L978.246 387.305L986.823 395.882L1051.49 331.217L1042.91 322.64Z" fill="#8133F1"/>
<path d="M33.3539 434.811L24.7767 443.388L89.4416 508.053L98.0188 499.476L33.3539 434.811Z" fill="#8133F1"/>
<path d="M594.219 434.806L585.642 443.383L650.307 508.048L658.884 499.471L594.219 434.806Z" fill="#8133F1"/>
<path d="M210.18 499.48L201.61 490.9L145.52 546.99L136.95 555.56L80.8601 611.65L89.4401 620.22L145.52 564.14L201.61 620.22L210.18 611.65L154.1 555.56L210.18 499.48Z" fill="#8133F1"/>
<path d="M1042.91 546.99L986.82 490.9L978.25 499.48L1034.34 555.56L1042.91 564.14L1051.49 555.56L1107.57 499.48L1099 490.9L1042.91 546.99Z" fill="#8133F1"/>
<path d="M369.87 546.99L361.3 555.56L313.79 603.07L266.28 555.56L313.79 508.05L322.36 499.48L378.45 443.39L369.88 434.82L313.79 490.91L266.28 443.4L322.37 387.31L313.8 378.74L257.71 434.83L210.2 387.32L201.63 378.75L154.12 331.24L145.55 322.67L136.98 331.24L89.47 378.75L80.9 387.32L89.47 395.89L136.98 443.4L145.55 451.97L154.12 443.4L201.63 395.89L249.14 443.4L257.71 451.97L305.22 499.48L257.71 546.99L249.14 555.56L257.71 564.13L305.22 611.64L313.79 620.21L322.36 611.64L369.87 564.13L425.96 620.22L434.53 611.65L378.44 555.56L369.87 546.99ZM145.52 434.81L98.01 387.3L145.52 339.79L193.03 387.3L145.52 434.81Z" fill="#8133F1"/>
<path d="M602.79 555.56L594.22 546.99L546.71 499.48L538.14 490.91L490.63 443.4L538.14 395.89L546.71 387.32L538.14 378.75L490.63 331.24L538.14 283.73L546.71 275.16L538.14 266.59L490.63 219.08L538.14 171.57L546.71 163L602.8 106.91L594.23 98.34L538.14 154.43L490.63 106.92L482.06 98.35L473.49 106.92L425.98 154.43L378.47 106.92L369.9 98.35L313.81 42.26L305.24 50.83L361.33 106.92L305.24 163.01L313.81 171.58L369.9 115.49L417.41 163L425.98 171.57L473.49 219.08L425.98 266.59L369.89 210.5L361.32 219.07L417.41 275.16L425.98 283.73L473.49 331.24L482.06 339.81L529.57 387.32L482.06 434.83L473.49 443.4L482.06 451.97L529.57 499.48L473.48 555.57L482.05 564.14L538.14 508.05L585.65 555.56L529.56 611.65L538.13 620.22L594.22 564.13L602.79 555.56ZM434.53 162.95L482.04 115.44L529.55 162.95L482.04 210.46L434.53 162.95ZM434.53 275.13L482.04 227.62L529.55 275.13L482.04 322.64L434.53 275.13Z" fill="#8133F1"/>
<path d="M706.391 546.986L697.814 555.563L762.479 620.228L771.056 611.651L706.391 546.986Z" fill="#8133F1"/>
<path d="M874.65 546.99L818.56 603.08L771.05 555.57L762.48 547L714.97 499.49L706.4 490.92L658.89 443.41L706.4 395.9L753.91 443.41L762.48 451.98L818.57 508.07L827.14 499.5L771.05 443.41L762.48 434.84L714.97 387.33L771.06 331.24L762.49 322.67L706.4 378.76L658.89 331.25L650.32 322.68L641.75 331.25L594.24 378.76L546.73 331.25L594.24 283.74L602.81 275.17L650.32 227.66L706.41 283.75L714.98 275.18L658.89 219.09L650.32 210.52L602.81 163.01L650.32 115.5L658.89 106.93L706.4 59.4201L753.91 106.93L697.82 163.02L706.39 171.59L762.48 115.5L771.05 106.93L762.48 98.3601L714.97 50.8501L706.4 42.2801L650.31 -13.8099L641.74 -5.23988L697.83 50.8501L650.32 98.3601L602.81 50.8501L594.24 42.2801L585.67 50.8501L538.16 98.3601L490.65 50.8501L546.74 -5.23988L538.17 -13.8099L482.08 42.2801L473.51 50.8501L426 98.3601L378.49 50.8501L434.58 -5.23988L426.01 -13.8099L369.92 42.2801L322.41 -5.22988L313.84 -13.7999L305.27 -5.22988L257.76 42.2801L249.19 50.8501L201.68 98.3601L154.17 50.8501L210.18 -5.30988L201.61 -13.8799L145.52 42.2101L98.0101 -5.30988L89.4401 -13.8799L80.8701 -5.30988L33.3601 42.2001L-22.7399 -13.8799L-31.3099 -5.30988L24.7701 50.7801L-22.7399 98.2901L-31.3099 106.86L-22.7399 115.43L24.7701 162.94L-31.3199 219.03L-22.7499 227.6L33.3401 171.51L80.8501 219.02L33.3401 266.53L24.7701 275.1L-22.7399 322.61L-31.3099 331.18L-22.7399 339.75L24.7701 387.26L-22.7399 434.77L-31.3099 443.34L-22.7399 451.91L24.7701 499.42L-22.7399 546.93L-31.3099 555.5L-22.7399 564.07L24.7701 611.58L33.3401 620.15L41.91 611.58L89.4201 564.07L97.9901 555.5L145.5 507.99L154.07 499.42L201.58 451.91L249.09 499.42L201.58 546.93L193.01 555.5L201.58 564.07L257.67 620.16L266.24 611.59L210.15 555.5L257.66 507.99L266.23 499.42L257.66 490.85L210.15 443.34L201.58 434.77L193.01 443.34L145.5 490.85L97.9901 443.34L89.4201 434.77L41.91 387.26L89.4201 339.75L97.9901 331.18L145.5 283.67L193.01 331.18L201.58 339.75L249.09 387.26L257.66 395.83L266.23 387.26L313.74 339.75L361.25 387.26L305.16 443.35L313.73 451.92L369.82 395.83L417.33 443.34L369.82 490.85L361.25 499.42L305.16 555.51L313.73 564.08L369.82 507.99L417.33 555.5L425.9 564.07L473.41 611.58L481.98 620.15L490.55 611.58L546.64 555.49L538.07 546.92L481.98 603.01L434.47 555.5L481.98 507.99L490.55 499.42L481.98 490.85L434.47 443.34L481.98 395.83L490.55 387.26L481.98 378.69L434.47 331.18L425.9 322.61L378.39 275.1L369.82 266.53L322.31 219.02L369.82 171.51L425.91 227.6L434.48 219.03L378.39 162.94L369.82 154.37L361.25 162.94L313.74 210.45L266.23 162.94L313.74 115.43L322.31 106.86L313.74 98.2901L266.23 50.7801L313.78 3.27012L361.29 50.7801L369.86 59.3501L417.37 106.86L425.94 115.43L434.51 106.86L482.02 59.3501L529.53 106.86L538.1 115.43L546.67 106.86L594.18 59.3501L641.69 106.86L594.18 154.37L585.61 162.94L538.1 210.45L529.53 219.02L538.1 227.59L585.61 275.1L538.1 322.61L529.53 331.18L538.1 339.75L585.61 387.26L538.1 434.77L529.53 443.34L538.1 451.91L585.61 499.42L594.18 507.99L641.69 555.5L585.6 611.59L594.17 620.16L650.26 564.07L706.35 620.16L714.92 611.59L658.83 555.5L706.34 507.99L753.85 555.5L762.42 564.07L809.93 611.58L818.5 620.15L827.07 611.58L883.16 555.49L874.59 546.92L874.65 546.99ZM41.9201 162.95L33.3501 154.38L-14.1599 106.87L33.3501 59.3601L80.8601 106.87L89.4301 115.44L136.94 162.95L89.4301 210.46L41.9201 162.95ZM33.3501 603.07L-14.1599 555.56L33.3501 508.05L80.8601 555.56L33.3501 603.07ZM80.8601 443.39L89.4301 451.96L136.94 499.47L89.4301 546.98L41.9201 499.47L33.3501 490.9L-14.1599 443.39L33.3501 395.88L80.8601 443.39ZM136.95 275.13L89.4401 322.64L80.8701 331.21L33.3601 378.72L-14.1499 331.21L33.3601 283.7L41.9301 275.13L89.4401 227.62L98.0101 219.05L145.52 171.54L193.03 219.05L145.52 266.56L136.95 275.13ZM473.47 499.48L425.96 546.99L378.45 499.48L425.96 451.97L473.47 499.48ZM473.47 387.3L425.96 434.81L378.45 387.3L425.96 339.79L473.47 387.3ZM417.38 331.22L369.87 378.73L322.36 331.22L369.87 283.71L417.38 331.22ZM361.29 275.13L313.78 322.64L305.21 331.21L257.7 378.72L210.19 331.21L201.62 322.64L154.11 275.13L201.62 227.62L249.13 275.13L257.7 283.7L266.27 275.13L313.78 227.62L361.29 275.13ZM305.21 219.04L257.7 266.55L210.19 219.04L201.62 210.47L154.11 162.96L145.54 154.39L98.0301 106.88L89.4601 98.3101L41.9501 50.8001L89.4401 3.27012L136.95 50.7801L145.52 59.3501L193.03 106.86L201.6 115.43L249.11 162.94L257.68 171.51L305.19 219.02L305.21 219.04ZM305.21 106.87L257.7 154.38L210.19 106.87L257.7 59.3601L305.21 106.87ZM546.7 219.04L594.21 171.53L641.72 219.04L594.21 266.55L546.7 219.04ZM650.3 339.79L697.81 387.3L650.3 434.81L602.79 387.3L650.3 339.79ZM650.3 546.99L602.79 499.48L594.22 490.91L546.71 443.4L594.22 395.89L641.73 443.4L650.3 451.97L697.81 499.48L650.3 546.99Z" fill="#8133F1"/>
<path d="M930.74 546.99L883.23 499.48L874.66 490.91L827.15 443.4L874.66 395.89L930.75 451.98L939.32 443.41L883.23 387.32L874.66 378.75L827.15 331.24L874.66 283.73L930.75 339.82L939.32 331.25L883.23 275.16L874.66 266.59L866.09 275.16L818.58 322.67L771.07 275.16L762.5 266.59L714.99 219.08L762.5 171.57L818.59 227.66L827.16 219.09L771.07 163L818.58 115.49L827.15 106.92L874.66 59.4102L922.17 106.92L866.08 163.01L874.65 171.58L930.74 115.49L939.31 106.92L986.82 59.4102L995.39 50.8402L986.82 42.2702L930.73 -13.8198L922.16 -5.24982L978.25 50.8402L930.74 98.3502L883.23 50.8402L874.66 42.2702L827.15 -5.23982L818.58 -13.8098L810.01 -5.23982L762.5 42.2702L706.41 -13.8198L697.84 -5.24982L753.93 50.8402L762.5 59.4102L810.01 106.92L762.5 154.43L753.93 163L706.42 210.51L658.91 163L715 106.91L706.43 98.3402L650.34 154.43L641.77 163L650.34 171.57L697.85 219.08L706.42 227.65L753.93 275.16L706.42 322.67L658.91 275.16L650.34 266.59L641.77 275.16L585.68 331.25L594.25 339.82L650.34 283.73L697.85 331.24L706.42 339.81L714.99 331.24L762.5 283.73L810.01 331.24L762.5 378.75L753.93 387.32L762.5 395.89L810.01 443.4L818.58 451.97L866.09 499.48L818.58 546.99L771.07 499.48L762.5 490.91L706.41 434.82L697.84 443.39L753.93 499.48L762.5 508.05L810.01 555.56L818.58 564.13L827.15 555.56L874.66 508.05L922.17 555.56L866.08 611.65L874.65 620.22L930.74 564.13L986.83 620.22L995.4 611.65L939.31 555.56L930.74 546.99ZM771.05 50.7802L818.56 3.27018L866.07 50.7802L818.56 98.2902L771.05 50.7802ZM771.05 387.3L818.56 339.79L866.07 387.3L818.56 434.81L771.05 387.3Z" fill="#8133F1"/>
</g>
<mask id="mask3_449_33682" style="mask-type:luminance" maskUnits="userSpaceOnUse" x="1076" y="0" width="1077" height="607">
<path d="M1076.26 606.34L2152.52 606.34V6.10352e-05L1076.26 6.10352e-05V606.34Z" fill="white"/>
</mask>
<g mask="url(#mask3_449_33682)">
<path d="M1277.87 -13.8847L1213.2 50.7803L1221.78 59.3575L1286.45 -5.30749L1277.87 -13.8847Z" fill="#8133F1"/>
<path d="M1101.03 50.7799L1044.94 106.87L1053.51 115.44L1109.6 59.3499L1157.11 106.86L1165.68 115.43L1213.19 162.94L1165.68 210.45L1157.11 219.02L1165.68 227.59L1213.19 275.1L1165.68 322.61L1118.17 275.1L1109.6 266.53L1053.51 210.44L1044.94 219.01L1101.03 275.1L1053.52 322.61L1044.95 331.18L1053.52 339.75L1101.03 387.26L1053.52 434.77L1044.95 443.34L1053.52 451.91L1101.03 499.42L1109.6 507.99L1118.17 499.42L1165.68 451.91L1213.19 499.42L1165.68 546.93L1157.11 555.5L1109.6 603.01L1053.51 546.92L1044.94 555.49L1101.03 611.58L1109.6 620.15L1118.17 611.58L1165.68 564.07L1174.25 555.5L1221.76 507.99L1230.33 499.42L1286.42 443.33L1277.85 434.76L1221.76 490.85L1174.25 443.34L1221.76 395.83L1230.33 387.26L1286.42 331.17L1277.85 322.6L1221.76 378.69L1174.25 331.18L1221.76 283.67L1230.33 275.1L1277.84 227.59L1325.35 275.1L1333.92 283.67L1342.49 275.1L1398.58 219.01L1390.01 210.44L1333.92 266.53L1286.41 219.02L1333.92 171.51L1342.49 162.94L1333.92 154.37L1277.83 98.2799L1269.26 106.85L1325.35 162.94L1277.84 210.45L1230.33 162.94L1221.76 154.37L1174.25 106.86L1165.68 98.2899L1118.17 50.7799L1174.26 -5.31013L1165.69 -13.8801L1109.6 42.2099L1053.51 -13.8801L1044.94 -5.31013L1101.03 50.7799ZM1109.61 395.88L1157.12 443.39L1109.61 490.9L1062.1 443.39L1109.61 395.88ZM1165.7 339.79L1213.21 387.3L1165.7 434.81L1118.19 387.3L1109.62 378.73L1062.11 331.22L1109.62 283.71L1157.13 331.22L1165.7 339.79ZM1221.78 171.53L1269.29 219.04L1221.78 266.55L1174.27 219.04L1221.78 171.53Z" fill="#8133F1"/>
<path d="M1053.52 154.38L1044.95 162.95L1053.52 171.52L1101.03 219.03L1109.6 227.6L1165.69 283.69L1174.26 275.12L1118.17 219.03L1165.68 171.52L1174.25 162.95L1165.68 154.38L1118.17 106.87L1109.6 98.3L1101.03 106.87L1053.52 154.38ZM1062.1 162.95L1109.61 115.44L1157.12 162.95L1109.61 210.46L1062.1 162.95Z" fill="#8133F1"/>
<path d="M1109.62 322.644L1101.04 331.221L1165.71 395.886L1174.28 387.309L1109.62 322.644Z" fill="#8133F1"/>
<path d="M1109.61 546.99L1165.7 490.9L1174.27 499.48L1118.18 555.56L1109.61 564.14L1101.03 555.56L1044.95 499.48L1053.52 490.9L1109.61 546.99Z" fill="#8133F1"/>
<path d="M1269.29 555.56L1325.38 611.65L1333.95 620.22L1342.52 611.65L1390.03 564.14L1398.6 555.57L1446.11 508.06L1493.62 555.57L1437.53 611.66L1446.1 620.23L1502.19 564.14L1558.28 620.23L1566.85 611.66L1510.76 555.57L1558.27 508.06L1566.84 499.49L1614.35 451.98L1622.92 443.41L1614.35 434.84L1566.84 387.33L1614.35 339.82L1622.92 331.25L1614.35 322.68L1566.84 275.17L1614.35 227.66L1622.92 219.09L1614.35 210.52L1566.84 163.01L1558.27 154.44L1510.76 106.93L1558.27 59.4199L1605.78 106.93L1614.35 115.5L1622.92 106.93L1670.43 59.4199L1717.94 106.93L1726.51 115.5L1735.08 106.93L1782.59 59.4199L1791.16 50.8499L1838.67 3.33994L1886.18 50.8499L1838.67 98.3599L1830.1 106.93L1838.67 115.5L1886.18 163.01L1838.67 210.52L1791.16 163.01L1782.59 154.44L1774.02 163.01L1717.93 219.1L1726.5 227.67L1782.59 171.58L1830.1 219.09L1782.59 266.6L1774.02 275.17L1726.51 322.68L1717.94 331.25L1670.43 378.76L1661.86 387.33L1670.43 395.9L1717.94 443.41L1670.43 490.92L1661.86 499.49L1670.43 508.06L1717.94 555.57L1670.43 603.08L1614.34 546.99L1605.77 555.56L1661.86 611.65L1670.43 620.22L1679 611.65L1726.51 564.14L1735.08 555.57L1782.59 508.06L1838.68 564.15L1847.25 555.58L1791.16 499.49L1782.59 490.92L1735.08 443.41L1782.59 395.9L1838.68 451.99L1847.25 443.42L1791.16 387.33L1838.67 339.82L1886.18 387.33L1894.75 395.9L1903.32 387.33L1950.83 339.82L1959.4 331.25L2006.91 283.74L2054.42 331.25L2062.99 339.82L2110.5 387.33L2062.99 434.84L2054.42 443.41L2006.91 490.92L1959.4 443.41L1950.83 434.84L1942.26 443.41L1894.75 490.92L1886.18 499.49L1894.75 508.06L1942.26 555.57L1886.17 611.66L1894.74 620.23L1950.83 564.14L1959.4 555.57L1950.83 547L1903.32 499.49L1950.83 451.98L1998.34 499.49L2006.91 508.06L2054.42 555.57L2062.99 564.14L2110.5 611.65L2119.07 620.22L2127.64 611.65L2175.15 564.14L2183.72 555.57L2175.15 547L2127.64 499.49L2175.15 451.98L2183.72 443.41L2175.15 434.84L2127.64 387.33L2175.15 339.82L2183.72 331.25L2175.15 322.68L2127.64 275.17L2119.07 266.6L2071.56 219.09L2119.07 171.58L2175.16 227.67L2183.73 219.1L2127.64 163.01L2175.15 115.5L2183.72 106.93L2175.15 98.3599L2127.64 50.8499L2183.73 -5.24006L2175.16 -13.8101L2119.07 42.2799L2071.56 -5.23006L2062.99 -13.8001L2054.42 -5.23006L2006.91 42.2799L1950.82 -13.8101L1942.25 -5.24006L1998.34 50.8499L1950.83 98.3599L1903.32 50.8499L1894.75 42.2799L1847.24 -5.23006L1838.67 -13.8001L1830.1 -5.23006L1782.59 42.2799L1726.5 -13.8101L1717.93 -5.24006L1774.02 50.8499L1726.51 98.3599L1679 50.8499L1670.43 42.2799L1614.34 -13.8101L1605.77 -5.24006L1661.86 50.8499L1614.35 98.3599L1566.84 50.8499L1558.27 42.2799L1549.7 50.8499L1502.19 98.3599L1454.68 50.8499L1510.77 -5.24006L1502.2 -13.8101L1446.11 42.2799L1437.54 50.8499L1390.03 98.3599L1381.46 106.93L1390.03 115.5L1446.12 171.59L1454.69 163.02L1398.6 106.93L1446.11 59.4199L1493.62 106.93L1502.19 115.5L1549.7 163.01L1502.19 210.52L1493.62 219.09L1437.53 275.18L1446.1 283.75L1502.19 227.66L1549.7 275.17L1558.27 283.74L1605.78 331.25L1558.27 378.76L1510.76 331.25L1502.19 322.68L1493.62 331.25L1446.11 378.76L1390.02 322.67L1381.45 331.24L1437.54 387.33L1390.03 434.84L1381.46 443.41L1325.37 499.5L1333.94 508.07L1390.03 451.98L1398.6 443.41L1446.11 395.9L1493.62 443.41L1446.11 490.92L1437.54 499.49L1390.03 547L1381.46 555.57L1333.95 603.08L1277.86 546.99L1269.29 555.56ZM2063.08 210.47L2015.57 162.96L2063.08 115.45L2071.65 106.88L2119.16 59.3699L2166.67 106.88L2119.16 154.39L2110.59 162.96L2063.08 210.47ZM2071.66 555.56L2119.17 508.05L2166.68 555.56L2119.17 603.07L2071.66 555.56ZM2119.17 395.88L2166.68 443.39L2119.17 490.9L2110.6 499.47L2063.09 546.98L2015.58 499.47L2063.09 451.96L2071.66 443.39L2119.17 395.88ZM2007 266.55L1959.49 219.04L2007 171.53L2054.51 219.04L2063.08 227.61L2110.59 275.12L2119.16 283.69L2166.67 331.2L2119.16 378.71L2071.65 331.2L2063.08 322.63L2015.57 275.12L2007 266.55ZM1726.56 451.96L1774.07 499.47L1726.56 546.98L1679.05 499.47L1726.56 451.96ZM1726.56 339.79L1774.07 387.3L1726.56 434.81L1679.05 387.3L1726.56 339.79ZM1782.65 283.7L1830.16 331.21L1782.65 378.72L1735.14 331.21L1782.65 283.7ZM1838.74 227.62L1886.25 275.13L1894.82 283.7L1903.39 275.13L1950.9 227.62L1998.41 275.13L1950.9 322.64L1942.33 331.21L1894.82 378.72L1847.31 331.21L1838.74 322.64L1791.23 275.13L1838.74 227.62ZM1894.82 171.53L1903.39 162.96L1950.9 115.45L1959.47 106.88L2006.98 59.3699L2015.55 50.7999L2063.06 3.28994L2110.57 50.7999L2063.06 98.3099L2054.49 106.88L2006.98 154.39L1998.41 162.96L1950.9 210.47L1942.33 219.04L1894.82 266.55L1847.31 219.04L1894.82 171.53ZM1894.82 59.3599L1942.33 106.87L1894.82 154.38L1847.31 106.87L1894.82 59.3599ZM1558.3 266.55L1510.79 219.04L1558.3 171.53L1605.81 219.04L1558.3 266.55ZM1549.73 387.3L1502.22 434.81L1454.71 387.3L1502.22 339.79L1549.73 387.3ZM1454.7 499.48L1502.21 451.97L1510.78 443.4L1558.29 395.89L1605.8 443.4L1558.29 490.91L1549.72 499.48L1502.21 546.99L1454.7 499.48Z" fill="#8133F1"/>
<path d="M1213.21 555.56L1157.12 611.65L1165.69 620.22L1221.78 564.13L1277.87 620.22L1286.44 611.65L1230.35 555.56L1277.86 508.05L1325.37 555.56L1333.94 564.13L1342.51 555.56L1390.02 508.05L1398.59 499.48L1454.68 443.39L1446.11 434.82L1390.02 490.91L1381.45 499.48L1333.94 546.99L1286.43 499.48L1333.94 451.97L1342.51 443.4L1390.02 395.89L1398.59 387.32L1390.02 378.75L1342.51 331.24L1390.02 283.73L1437.53 331.24L1446.1 339.81L1454.67 331.24L1502.18 283.73L1558.27 339.82L1566.84 331.25L1510.75 275.16L1502.18 266.59L1493.61 275.16L1446.1 322.67L1398.59 275.16L1446.1 227.65L1454.67 219.08L1502.18 171.57L1510.75 163L1502.18 154.43L1446.09 98.3399L1437.52 106.91L1493.61 163L1446.1 210.51L1398.59 163L1390.02 154.43L1342.51 106.92L1390.02 59.4099L1398.59 50.8399L1454.68 -5.25007L1446.11 -13.8201L1390.02 42.2699L1342.51 -5.24007L1333.94 -13.8101L1325.37 -5.24007L1277.86 42.2699L1269.29 50.8399L1221.78 98.3499L1174.27 50.8399L1230.36 -5.25007L1221.79 -13.8201L1165.7 42.2699L1157.13 50.8399L1165.7 59.4099L1213.21 106.92L1221.78 115.49L1277.87 171.58L1286.44 163.01L1230.35 106.92L1277.86 59.4099L1325.37 106.92L1333.94 115.49L1381.45 163L1325.36 219.09L1333.93 227.66L1390.02 171.57L1437.53 219.08L1390.02 266.59L1381.45 275.16L1333.94 322.67L1286.43 275.16L1277.86 266.59L1269.29 275.16L1213.2 331.25L1221.77 339.82L1277.86 283.73L1325.37 331.24L1277.86 378.75L1269.29 387.32L1213.2 443.41L1221.77 451.98L1277.86 395.89L1325.37 443.4L1277.86 490.91L1269.29 499.48L1221.78 546.99L1213.21 555.56ZM1333.96 98.2899L1286.45 50.7799L1333.96 3.26993L1381.47 50.7799L1333.96 98.2899ZM1333.96 434.81L1286.45 387.3L1333.96 339.79L1381.47 387.3L1333.96 434.81Z" fill="#8133F1"/>
</g>
</g>
</g>
</g>
<defs>
<clipPath id="clip0_449_33682">
<rect width="1296" height="600" rx="16" fill="white"/>
</clipPath>
</defs>
</svg>
