<svg width="58" height="57" viewBox="0 0 58 57" fill="none" xmlns="http://www.w3.org/2000/svg">
<g clip-path="url(#clip0_1_8929)">
<path d="M21.5096 38.4204C22.9899 38.3893 24.1647 37.1642 24.1336 35.6839C24.1025 34.2036 22.8773 33.0288 21.397 33.0599C19.9168 33.091 18.742 34.3162 18.7731 35.7965C18.8042 37.2767 20.0294 38.4515 21.5096 38.4204Z" stroke="#8133F1" stroke-width="2.00044" stroke-miterlimit="10"/>
<path d="M24.8364 42.0799C21.352 43.9561 17.0636 42.6159 15.1875 39.1316C13.3113 35.6473 14.6514 31.3589 18.1357 29.4827C20.1906 28.4106 22.6028 28.3213 24.747 29.3934" stroke="#8133F1" stroke-width="2" stroke-miterlimit="10"/>
<path d="M30.0182 42.1692C26.4445 46.9043 19.7439 47.887 15.0088 44.4027C10.2737 40.9184 9.2909 34.1284 12.7752 29.3933C16.2596 24.6582 23.0495 23.6754 27.7846 27.1597C28.5887 27.7851 29.3928 28.4999 30.0182 29.3933" stroke="#8133F1" stroke-width="2" stroke-miterlimit="10"/>
<path d="M0.892578 32.967V38.5062L5.35966 39.9357C5.98506 41.5438 6.34242 42.3479 6.96781 43.8667L4.91295 48.1551L8.75465 51.9968L13.043 49.942L16.9741 51.5501L17.6888 56.0172H25.0148L25.7296 51.5501L29.6606 49.942L33.949 51.9968C35.9145 50.0313 35.9145 50.0313 37.7907 48.1551L35.7358 43.8667" stroke="#8133F1" stroke-width="2" stroke-miterlimit="10"/>
<path d="M33.056 29.4827H24.1218V41.9905H56.2848V29.4827H35.7363V27.4278L37.9698 23.1394C36.0043 21.1739 36.0043 21.1739 34.1281 19.2977L29.8397 21.3526L25.8193 19.6551L25.1046 15.188C22.335 15.188 20.4588 15.188 17.7786 15.188L17.0638 19.6551L13.1328 21.2632L8.8444 19.2084C6.87888 21.1739 6.87888 21.1739 5.00271 23.0501L7.05757 27.3385C6.34283 29.036 6.07481 29.6613 5.36008 31.2695H3.57324" stroke="#8133F1" stroke-width="2" stroke-miterlimit="10"/>
<path d="M26.8018 38.417H28.5886" stroke="#8133F1" stroke-width="2" stroke-miterlimit="10"/>
<path d="M30.375 38.417H32.1618" stroke="#8133F1" stroke-width="2" stroke-miterlimit="10"/>
<path d="M33.9492 38.417H46.4571" stroke="#8133F1" stroke-width="2" stroke-miterlimit="10"/>
<path d="M48.2441 38.417H50.031" stroke="#8133F1" stroke-width="2" stroke-miterlimit="10"/>
<path d="M51.8174 38.417H53.6042" stroke="#8133F1" stroke-width="2" stroke-miterlimit="10"/>
<path d="M26.8018 33.0564H28.5886" stroke="#8133F1" stroke-width="2" stroke-miterlimit="10"/>
<path d="M30.375 33.0564H32.1618" stroke="#8133F1" stroke-width="2" stroke-miterlimit="10"/>
<path d="M33.9492 33.0564H35.7361" stroke="#8133F1" stroke-width="2" stroke-miterlimit="10"/>
<path d="M37.5225 33.0564H39.3093" stroke="#8133F1" stroke-width="2" stroke-miterlimit="10"/>
<path d="M41.0967 33.0564H42.8835" stroke="#8133F1" stroke-width="2" stroke-miterlimit="10"/>
<path d="M44.6699 33.0564H46.4568" stroke="#8133F1" stroke-width="2" stroke-miterlimit="10"/>
<path d="M48.2432 33.0564H50.03" stroke="#8133F1" stroke-width="2" stroke-miterlimit="10"/>
<path d="M51.8174 33.0564H53.6042" stroke="#8133F1" stroke-width="2" stroke-miterlimit="10"/>
<path d="M26.8018 35.7366H30.3754" stroke="#8133F1" stroke-width="2" stroke-miterlimit="10"/>
<path d="M32.1621 35.7366H33.9489" stroke="#8133F1" stroke-width="2" stroke-miterlimit="10"/>
<path d="M35.7363 35.7366H37.5232" stroke="#8133F1" stroke-width="2" stroke-miterlimit="10"/>
<path d="M39.3096 35.7366H41.0964" stroke="#8133F1" stroke-width="2" stroke-miterlimit="10"/>
<path d="M42.8838 35.7366H44.6706" stroke="#8133F1" stroke-width="2" stroke-miterlimit="10"/>
<path d="M46.457 35.7366H48.2439" stroke="#8133F1" stroke-width="2" stroke-miterlimit="10"/>
<path d="M50.0303 35.7366H53.6039" stroke="#8133F1" stroke-width="2" stroke-miterlimit="10"/>
<path d="M57.1778 4.46704H0.892578V35.7366" stroke="#8133F1" stroke-width="2" stroke-miterlimit="10"/>
<path d="M46.4573 8.04077H0.803711" stroke="#8133F1" stroke-width="2" stroke-miterlimit="10"/>
<path d="M57.1784 9.82764H55.3916" stroke="#8133F1" stroke-width="2" stroke-miterlimit="10"/>
<path d="M53.6042 9.82764H51.8174" stroke="#8133F1" stroke-width="2" stroke-miterlimit="10"/>
<path d="M50.031 9.82764H48.2441" stroke="#8133F1" stroke-width="2" stroke-miterlimit="10"/>
<path d="M56.2852 12.5078V26.8025" stroke="#8133F1" stroke-width="2" stroke-miterlimit="10"/>
<path d="M48.2441 45.5642H50.031" stroke="#8133F1" stroke-width="2" stroke-miterlimit="10"/>
<path d="M51.8174 45.5642H53.6042" stroke="#8133F1" stroke-width="2" stroke-miterlimit="10"/>
<path d="M55.3916 45.5642H57.1784" stroke="#8133F1" stroke-width="2" stroke-miterlimit="10"/>
</g>
<defs>
<clipPath id="clip0_1_8929">
<rect width="57.1787" height="57" fill="white"/>
</clipPath>
</defs>
</svg>
