<svg width="57" height="57" viewBox="0 0 57 57" fill="none" xmlns="http://www.w3.org/2000/svg">
<g clip-path="url(#clip0_1_8981)">
<path d="M54.8138 49.5322H52.4976V18.9912C52.4976 17.7808 51.5125 16.7957 50.3021 16.7957H45.1328C45.1328 12.2198 45.1328 7.48403 45.1328 3.26391C45.1328 1.93376 44.0503 0.851318 42.7202 0.851318C34.6883 0.851318 23.0224 0.851318 14.2801 0.851318C12.9499 0.851318 11.8675 1.93376 11.8675 3.26391V16.7957H7.58346C5.88482 16.7957 4.50279 18.1778 4.50279 19.8764V49.5323H2.1865C1.45029 49.5323 0.851562 50.1314 0.851562 50.8675V54.8135C0.851562 55.5497 1.45029 56.1484 2.1865 56.1484H54.8138C55.55 56.1484 56.1487 55.5497 56.1487 54.8135V50.8675C56.1487 50.1313 55.55 49.5322 54.8138 49.5322ZM17.6793 1.93554H42.7202C43.4526 1.93554 44.0485 2.53137 44.0485 3.26391V6.01238H17.6794L17.6793 1.93554ZM12.9518 3.26391C12.9518 2.53148 13.5476 1.93554 14.2802 1.93554H16.5951V6.01238H12.9519L12.9518 3.26391ZM12.9518 7.0966H44.0485V35.3196C44.0485 36.052 43.4527 36.648 42.7202 36.648H14.2801C13.5476 36.648 12.9517 36.0522 12.9517 35.3196L12.9518 7.0966ZM14.2801 37.7322H42.7202C44.0503 37.7322 45.1328 36.6498 45.1328 35.3196V20.9532H47.7577C48.0791 20.9532 48.3402 21.2145 48.3402 21.5358V45.8762C48.3402 46.1976 48.079 46.4588 47.7577 46.4588H9.24292C8.92152 46.4588 8.66001 46.1975 8.66001 45.8762V21.5359C8.66001 21.2145 8.92152 20.9533 9.24292 20.9533H11.8675V35.3197C11.8675 36.6498 12.9499 37.7322 14.2801 37.7322ZM5.58702 19.8764C5.58702 18.7755 6.48254 17.88 7.58346 17.88H11.8676V19.8689H9.24292C8.32357 19.8689 7.57578 20.6167 7.57578 21.5359V45.8763C7.57578 46.7954 8.32357 47.5432 9.24292 47.5432H47.7577C48.6768 47.5432 49.4246 46.7954 49.4246 45.8763V21.5359C49.4246 20.6167 48.6768 19.8689 47.7577 19.8689H45.1328V17.88H50.3021C50.9148 17.88 51.4133 18.3784 51.4133 18.9912V49.5323C40.0539 49.5323 13.1494 49.5323 5.58702 49.5323V19.8764ZM32.5312 50.6165V51.9737C32.5312 52.1527 32.3856 52.2983 32.2067 52.2983H24.7937C24.6148 52.2983 24.4692 52.1527 24.4692 51.9737V50.6165H32.5312ZM55.0645 54.8135C55.0645 54.9517 54.9519 55.0642 54.8138 55.0642H2.1865C2.04834 55.0642 1.93579 54.9517 1.93579 54.8135V50.8675C1.93579 50.729 2.04834 50.6165 2.1865 50.6165H23.3848V51.9737C23.3848 52.7507 24.0167 53.3825 24.7936 53.3825H32.2066C32.9835 53.3825 33.6153 52.7506 33.6153 51.9737V50.6165H54.8136C54.9518 50.6165 55.0644 50.7291 55.0644 50.8675V54.8135H55.0645Z" fill="#8133F1"/>
<path d="M37.0008 3.43213H19.9562C19.6569 3.43213 19.4141 3.67482 19.4141 3.9743C19.4141 4.27366 19.6568 4.51646 19.9562 4.51646H37.0008C37.3002 4.51646 37.543 4.27377 37.543 3.9743C37.543 3.67482 37.3002 3.43213 37.0008 3.43213Z" fill="#8133F1"/>
<path d="M41.6845 3.43213H39.2775C38.9782 3.43213 38.7354 3.67482 38.7354 3.9743C38.7354 4.27366 38.978 4.51646 39.2775 4.51646H41.6845C41.9839 4.51646 42.2267 4.27377 42.2267 3.9743C42.2267 3.67482 41.9839 3.43213 41.6845 3.43213Z" fill="#8133F1"/>
<path d="M15.9014 25.5004C15.9014 25.7363 16.0536 25.9448 16.2783 26.0166L28.3137 29.8695C28.3674 29.8867 28.423 29.8954 28.4789 29.8954C28.5348 29.8954 28.5903 29.8867 28.6441 29.8695L40.6794 26.0166C40.9042 25.945 41.0564 25.7363 41.0564 25.5004C41.0564 25.2645 40.9042 25.056 40.6794 24.9842L36.2742 23.5739L40.6794 22.1636C40.9042 22.0919 41.0564 21.8833 41.0564 21.6474C41.0564 21.4114 40.9042 21.2029 40.6794 21.1311L36.2742 19.7208L40.6794 18.3105C40.9042 18.2388 41.0564 18.0302 41.0564 17.7943C41.0564 17.5584 40.9042 17.3499 40.6794 17.2781L28.6441 13.4252C28.5367 13.3908 28.4212 13.3908 28.3138 13.4252L16.2784 17.2781C16.0537 17.3498 15.9015 17.5584 15.9015 17.7943C15.9015 18.0302 16.0537 18.2387 16.2784 18.3105L20.6837 19.7208L16.2784 21.1311C16.0537 21.2028 15.9015 21.4114 15.9015 21.6474C15.9015 21.8833 16.0537 22.0918 16.2784 22.1636L20.6837 23.5739L16.2784 24.9842C16.0536 25.0559 15.9014 25.2645 15.9014 25.5004ZM18.2216 17.7946L28.4789 14.5109L38.7362 17.7946L28.4789 21.0784L18.2216 17.7946ZM18.2216 21.6475L22.4614 20.2902L28.3137 22.1637C28.4193 22.1975 28.5337 22.199 28.644 22.1637L34.4963 20.2902L38.7361 21.6475L28.4788 24.9312L18.2216 21.6475ZM22.4614 24.1431L28.3137 26.0166C28.4193 26.0505 28.5337 26.0519 28.644 26.0166L34.4963 24.1431L38.7361 25.5004L28.4788 28.7842L18.2214 25.5004L22.4614 24.1431Z" fill="#8133F1"/>
</g>
<defs>
<clipPath id="clip0_1_8981">
<rect width="57" height="57" fill="white"/>
</clipPath>
</defs>
</svg>
