<svg width="57" height="57" viewBox="0 0 57 57" fill="none" xmlns="http://www.w3.org/2000/svg">
<g clip-path="url(#clip0_1_9200)">
<path d="M24.4214 24.0281C24.2433 23.85 24.0017 23.75 23.7498 23.75C23.4979 23.75 23.2563 23.85 23.0781 24.0281L19.2781 27.8281C19.1 28.0063 19 28.2479 19 28.4998C19 28.7517 19.1 28.9933 19.2781 29.1714L23.0781 32.9714C23.2573 33.1445 23.4973 33.2403 23.7464 33.2381C23.9955 33.2359 24.2337 33.136 24.4099 32.9599C24.586 32.7837 24.6859 32.5455 24.6881 32.2964C24.6903 32.0473 24.5945 31.8073 24.4214 31.6281L21.2931 28.4998L24.4214 25.3714C24.5995 25.1933 24.6996 24.9517 24.6996 24.6998C24.6996 24.4479 24.5995 24.2063 24.4214 24.0281Z" fill="#8133F1"/>
<path d="M32.5781 24.0281C32.4 24.2063 32.3 24.4479 32.3 24.6998C32.3 24.9517 32.4 25.1933 32.5781 25.3714L35.7065 28.4998L32.5781 31.6281C32.4874 31.7158 32.415 31.8206 32.3652 31.9365C32.3154 32.0524 32.2892 32.1771 32.2881 32.3032C32.287 32.4294 32.3111 32.5545 32.3588 32.6712C32.4066 32.788 32.4771 32.894 32.5663 32.9832C32.6555 33.0724 32.7616 33.143 32.8784 33.1907C32.9951 33.2385 33.1202 33.2625 33.2463 33.2614C33.3725 33.2603 33.4971 33.2341 33.613 33.1843C33.7289 33.1346 33.8338 33.0622 33.9214 32.9714L37.7214 29.1714C37.8995 28.9933 37.9996 28.7517 37.9996 28.4998C37.9996 28.2479 37.8995 28.0063 37.7214 27.8281L33.9214 24.0281C33.7433 23.85 33.5017 23.75 33.2498 23.75C32.9979 23.75 32.7563 23.85 32.5781 24.0281Z" fill="#8133F1"/>
<path d="M29.6802 23.7787C29.4358 23.7178 29.1773 23.7564 28.9614 23.8861C28.7454 24.0158 28.5899 24.2259 28.5288 24.4703L26.6288 32.0703C26.5679 32.3145 26.6064 32.573 26.7359 32.7889C26.8654 33.0048 27.0753 33.1604 27.3195 33.2217C27.395 33.2404 27.4725 33.2499 27.5503 33.2502C27.7621 33.2499 27.9677 33.1789 28.1344 33.0484C28.3012 32.918 28.4196 32.7355 28.4709 32.5301L30.3709 24.9301C30.4318 24.6858 30.3933 24.4274 30.2638 24.2115C30.1343 23.9956 29.9244 23.8399 29.6802 23.7787Z" fill="#8133F1"/>
<path d="M57 28.5C57.0053 23.7274 55.8044 19.0309 53.5087 14.8466C53.4973 14.8181 53.4783 14.7953 53.4641 14.7678C51.0068 10.2955 47.3933 6.56543 43.0012 3.96756C38.6091 1.36969 33.5997 -0.000582347 28.4969 1.85658e-07C23.394 0.000582718 18.3849 1.372 13.9934 3.97087C9.60194 6.56974 5.98924 10.3006 3.53303 14.7735C3.51813 14.7965 3.5045 14.8203 3.49218 14.8447C1.20093 19.0314 0 23.7274 0 28.5C0 33.2727 1.20093 37.9686 3.49218 42.1553C3.50451 42.1795 3.51815 42.203 3.53303 42.2256C5.98915 46.6985 9.60179 50.4295 13.9932 53.0285C18.3847 55.6274 23.3937 56.9989 28.4966 56.9996C33.5995 57.0003 38.6088 55.6301 43.001 53.0323C47.3931 50.4345 51.0068 46.7045 53.4641 42.2323C53.4783 42.2047 53.4973 42.1819 53.5087 42.1534C55.8044 37.9692 57.0053 33.2727 57 28.5ZM1.92373 29.45H14.2614C14.3035 33.2873 14.7557 37.109 15.6104 40.85H4.95138C3.09564 37.3269 2.06061 33.4297 1.92373 29.45ZM4.95138 16.15H15.6104C14.7557 19.8911 14.3035 23.7128 14.2614 27.55H1.92373C2.06061 23.5704 3.09564 19.6732 4.95138 16.15ZM55.0762 27.55H42.7386C42.6965 23.7128 42.2443 19.8911 41.3896 16.15H52.0486C53.9043 19.6732 54.9393 23.5704 55.0762 27.55ZM40.2448 20.4469C39.0299 18.6843 37.4358 17.2161 35.5794 16.15H39.3841C39.728 17.519 40.0168 18.9563 40.2448 20.4469ZM40.85 28.5C40.85 30.9426 40.1257 33.3304 38.7686 35.3613C37.4116 37.3923 35.4828 38.9752 33.2261 39.91C30.9694 40.8447 28.4863 41.0893 26.0906 40.6127C23.6949 40.1362 21.4944 38.96 19.7672 37.2328C18.04 35.5056 16.8638 33.3051 16.3873 30.9094C15.9107 28.5137 16.1553 26.0306 17.0901 23.7739C18.0248 21.5172 19.6077 19.5884 21.6387 18.2314C23.6696 16.8743 26.0574 16.15 28.5 16.15C31.7742 16.1538 34.9133 17.4562 37.2286 19.7714C39.5438 22.0867 40.8462 25.2258 40.85 28.5ZM29.45 14.25V1.99504C33.345 2.67049 36.8011 7.44044 38.855 14.2548L29.45 14.25ZM27.55 1.99504V14.25H18.145C20.1989 7.43569 23.655 2.66574 27.55 1.99504ZM21.4215 16.15C19.5649 17.2162 17.9705 18.6843 16.7551 20.4469C16.9831 18.9563 17.2719 17.5199 17.6158 16.15H21.4215ZM16.7551 36.5532C17.9705 38.3158 19.5649 39.7839 21.4215 40.85H17.6158C17.2719 39.4801 16.9831 38.0437 16.7551 36.5532ZM27.55 42.75V55.0098C23.655 54.3343 20.1989 49.5644 18.145 42.7548L27.55 42.75ZM29.45 55.0098V42.75H38.855C36.8011 49.5644 33.345 54.3343 29.45 55.0098ZM35.5794 40.85C37.4358 39.784 39.0299 38.3158 40.2448 36.5532C40.0168 38.0437 39.728 39.4811 39.3841 40.85H35.5794ZM42.7386 29.45H55.0762C54.9393 33.4297 53.9043 37.3269 52.0486 40.85H41.3896C42.2443 37.109 42.6965 33.2873 42.7386 29.45ZM50.9437 14.25H40.8956C39.4478 9.13809 37.2333 5.06164 34.541 2.60019C41.3195 4.1939 47.2061 8.37484 50.9437 14.25ZM22.4589 2.60019C19.7666 5.06164 17.5522 9.13809 16.1044 14.25H6.05622C9.79381 8.37484 15.6805 4.1939 22.4589 2.60019ZM6.05622 42.75H16.1044C17.5522 47.862 19.7666 51.9384 22.4589 54.3999C15.6805 52.8062 9.79381 48.6252 6.05622 42.75ZM34.541 54.3999C37.2333 51.9384 39.4478 47.862 40.8956 42.75H50.9437C47.2061 48.6252 41.3195 52.8062 34.541 54.3999Z" fill="#8133F1"/>
</g>
<defs>
<clipPath id="clip0_1_9200">
<rect width="57" height="57" fill="white"/>
</clipPath>
</defs>
</svg>
