<svg width="72" height="72" viewBox="0 0 72 72" fill="none" xmlns="http://www.w3.org/2000/svg">
<path d="M4.5 26.9001C4.5 19.0593 4.5 15.1389 6.0259 12.1441C7.36814 9.50987 9.50987 7.36814 12.1441 6.0259C15.1389 4.5 19.0593 4.5 26.9001 4.5H45.0999C52.9407 4.5 56.8611 4.5 59.8559 6.0259C62.4902 7.36814 64.6319 9.50987 65.9741 12.1441C67.5 15.1389 67.5 19.0593 67.5 26.9001V45.0999C67.5 52.9407 67.5 56.8611 65.9741 59.8559C64.6319 62.4902 62.4902 64.6319 59.8559 65.9741C56.8611 67.5 52.9407 67.5 45.0999 67.5H26.9001C19.0593 67.5 15.1389 67.5 12.1441 65.9741C9.50987 64.6319 7.36814 62.4902 6.0259 59.8559C4.5 56.8611 4.5 52.9407 4.5 45.0999V26.9001Z" fill="white"/>
<path d="M18 48.4398V57.4259C18 59.2578 19.5006 60.7426 21.3487 60.7426H30.2749V48.4398H18Z" fill="#188038"/>
<path d="M41.7324 60.7453H50.6503C52.4984 60.7453 53.999 59.2605 53.999 57.4286V48.4398H41.7324V60.7453Z" fill="#1967D2"/>
<path d="M41.7291 48.4398H30.2734V60.7453H41.7291V48.4398Z" fill="#34A853"/>
<path d="M21.3487 11.25C19.5006 11.25 18 12.7348 18 14.5667V48.4394H30.2749V23.6464H41.7305V11.25H21.3487Z" fill="#FBBC05"/>
<path d="M53.999 23.6471H41.7324V48.4398H53.999V23.6471Z" fill="#4285F4"/>
<path d="M41.7324 23.6464H53.9963L41.7324 11.25V23.6464Z" fill="#EA4335"/>
</svg>
