<svg width="128" height="128" viewBox="0 0 128 128" fill="none" xmlns="http://www.w3.org/2000/svg">
<path fill-rule="evenodd" clip-rule="evenodd" d="M59.6082 86.1622L28.336 89.5249L34.5097 95.5479H78.782L62.3687 85.8594L59.6082 86.1622ZM59.6082 61.2144L102.677 49.719C102.677 49.719 108.951 49.2675 115.175 35.1623L59.6082 53.3839L16.389 67.4884C16.389 67.4884 12.6743 68.693 11.2187 69.697C11.2187 69.697 10.2147 70.3 10.2147 71.7044C10.2147 71.7044 10.3149 72.759 11.068 73.5127L12.9253 75.37L36.5171 69.2455C36.5171 69.2455 35.0615 67.3376 37.9727 66.9366L59.6082 61.2144ZM59.6082 83.7019C59.658 84.2039 60.0597 84.6568 60.0597 84.6568L59.6082 84.7059L26.8299 88.4206L20.6051 82.5982L59.6075 75.6204L92.937 69.697C87.4665 80.44 76.4227 80.44 76.4227 80.44L62.6695 82.1965C60.3606 82.2469 59.7085 82.8486 59.6075 83.4522L59.6082 83.7019ZM59.6082 65.129L105.036 53.6349C99.6651 65.7824 88.873 66.1835 88.873 66.1835L59.6082 72.1069L50.0206 74.0638C45.4021 74.1648 47.4102 76.5241 47.4102 76.5241L19.451 81.2934L14.2309 76.6749L59.6082 65.129ZM59.6082 40.5837L123.107 14.6318C123.107 14.6318 120.947 21.0074 119.592 24.2699C119.592 24.2699 117.936 29.4402 111.311 31.4981L59.6082 49.7701L14.7827 65.5314C14.7827 65.5314 9.01075 67.59 8.0565 69.9998C8.0565 69.9998 6.70117 72.7596 10.3661 75.8727L32.0002 95.5492H23.5176L6.09954 78.4824C6.09954 78.4824 2.18429 75.2697 1.88281 70.7017V69.7481C1.93328 69.4473 1.93328 69.1465 2.03355 68.7946C2.03355 68.7946 2.78659 63.7743 10.3156 60.7131L59.6082 40.5837ZM13.4274 98.7612H2.18429V101.522H4.74355V109.905H2.18429V112.766H13.4274V109.905H10.6669V107.245H18.9496V109.905H16.239V112.766H27.3326V109.905H24.6724V101.522H27.3326V98.7612H16.1885V101.522H18.9496V104.282H10.6669V101.522H13.4274V98.7612ZM112.164 105.237H114.322L112.164 101.974L111.912 101.673L109.955 105.237H112.164ZM112.164 98.7612H116.631L123.357 109.905H126.118V112.766H114.02V109.905H116.731L115.576 108.249H108.249L107.345 109.905H110.005V112.766H100.669V109.905H103.531L108.148 101.522H105.036V98.7612H112.164ZM90.6294 109.754C93.2896 109.453 94.8461 108.449 94.8461 105.839C94.8461 102.827 93.0897 101.874 90.6294 101.622C90.1778 101.572 89.7256 101.572 89.2249 101.572H86.4133V109.854H88.6724C89.375 109.854 90.0271 109.804 90.6294 109.754ZM90.6294 98.7612H92.4363C97.0547 98.7612 100.519 100.919 100.519 105.839C100.519 111.51 97.256 112.666 90.6294 112.766H78.0303V109.905H80.741V101.522H78.0303V98.7612H90.6294ZM39.1282 110.407C41.7386 110.356 43.7965 108.299 43.7965 105.788C43.7965 103.128 41.6881 101.121 39.1282 101.121H39.0777C36.5178 101.121 34.4599 103.128 34.4599 105.739C34.4599 108.198 36.4175 110.407 39.0279 110.407H39.1282ZM39.1282 98.058H39.2789C45.8543 98.058 50.1713 100.518 50.1713 105.588C50.1713 110.256 46.2056 113.368 39.1282 113.368H38.9276C32.0507 113.368 27.9342 110.708 27.9342 105.689C27.9342 100.87 32.0002 98.058 39.1282 98.058ZM62.1681 98.7612H51.0751V101.522H53.7353V109.905H51.0751V112.766H59.9097V109.905H57.1485V102.727L64.9292 112.765H73.5128V101.522H76.323V98.7606H67.187V101.522H70.0484V108.9L62.1681 98.7612Z" fill="white"/>
</svg>
