<svg width="57" height="57" viewBox="0 0 57 57" fill="none" xmlns="http://www.w3.org/2000/svg">
<path fill-rule="evenodd" clip-rule="evenodd" d="M1.0791 3.97277C1.0791 2.40595 2.40546 1.07959 3.97228 1.07959H53.0268C54.5937 1.07959 55.92 2.40595 55.92 3.97277V36.7046C55.92 37.0623 55.63 37.3523 55.2723 37.3523C54.9146 37.3523 54.6246 37.0623 54.6246 36.7046V3.97277C54.6246 3.12141 53.8782 2.37504 53.0268 2.37504H3.97228C3.12092 2.37504 2.37456 3.12141 2.37456 3.97277V42.75C2.37456 43.5689 3.08748 44.2614 3.97228 44.2614H34.2859C34.6437 44.2614 34.9336 44.5514 34.9336 44.9091C34.9336 45.2669 34.6437 45.5569 34.2859 45.5569H3.97228C2.43891 45.5569 1.0791 44.3494 1.0791 42.75V3.97277Z" fill="#8133F1"/>
<path fill-rule="evenodd" clip-rule="evenodd" d="M3.97228 2.37504C3.12092 2.37504 2.37456 3.12141 2.37456 3.97277V8.67959H17.3586C18.168 8.67959 18.8905 8.11584 19.1602 7.31518C19.5904 5.92864 20.7872 5.05232 22.195 5.05232H25.2177C26.6517 5.05232 27.8275 6.04015 28.2504 7.30885C28.252 7.31361 28.2535 7.31839 28.255 7.32319C28.5179 8.17747 29.2192 8.67959 30.0541 8.67959H54.6246V3.97277C54.6246 3.10502 53.9484 2.37504 53.0268 2.37504H3.97228ZM1.0791 3.97277C1.0791 2.40595 2.40546 1.07959 3.97228 1.07959H53.0268C54.6962 1.07959 55.92 2.42234 55.92 3.97277V9.32732C55.92 9.68505 55.63 9.97505 55.2723 9.97505H30.0541C28.6463 9.97505 27.4495 9.09871 27.0193 7.71217C26.7496 6.91151 26.0271 6.34777 25.2177 6.34777H22.195C21.3601 6.34777 20.6588 6.84989 20.3959 7.70417C20.3944 7.70897 20.3929 7.71375 20.3913 7.71851C19.9684 8.98721 18.7926 9.97505 17.3586 9.97505H1.72683C1.3691 9.97505 1.0791 9.68505 1.0791 9.32732V3.97277Z" fill="#8133F1"/>
<path fill-rule="evenodd" clip-rule="evenodd" d="M29.7803 7.2367C30.2084 5.84552 31.407 4.96582 32.8176 4.96582H35.9267C37.3607 4.96582 38.5364 5.95365 38.9593 7.22236C38.9609 7.22712 38.9625 7.2319 38.9639 7.2367C39.2268 8.09097 39.9281 8.59309 40.763 8.59309C41.1208 8.59309 41.4108 8.88309 41.4108 9.24082C41.4108 9.59855 41.1208 9.88855 40.763 9.88855C39.3552 9.88855 38.1584 9.01222 37.7282 7.62568C37.4586 6.82501 36.736 6.26127 35.9267 6.26127H32.8176C31.9874 6.26127 31.2892 6.75776 31.023 7.60328C30.7888 8.51188 30.1128 9.16771 29.3591 9.49072C29.0303 9.63164 28.6495 9.47932 28.5086 9.15052C28.3677 8.82171 28.52 8.44093 28.8488 8.30001C29.2989 8.10709 29.6552 7.73345 29.771 7.27009C29.7738 7.25888 29.7769 7.24774 29.7803 7.2367Z" fill="#8133F1"/>
<path fill-rule="evenodd" clip-rule="evenodd" d="M5.52717 4.87944C5.16944 4.87944 4.87944 5.16944 4.87944 5.52717C4.87944 5.8849 5.16944 6.17489 5.52717 6.17489C5.8849 6.17489 6.17489 5.8849 6.17489 5.52717C6.17489 5.16944 5.8849 4.87944 5.52717 4.87944ZM3.58398 5.52717C3.58398 4.45398 4.45398 3.58398 5.52717 3.58398C6.60036 3.58398 7.47035 4.45398 7.47035 5.52717C7.47035 6.60036 6.60036 7.47035 5.52717 7.47035C4.45398 7.47035 3.58398 6.60036 3.58398 5.52717Z" fill="#8133F1"/>
<path fill-rule="evenodd" clip-rule="evenodd" d="M10.3631 4.87944C10.0054 4.87944 9.71538 5.16944 9.71538 5.52717C9.71538 5.8849 10.0054 6.17489 10.3631 6.17489C10.7208 6.17489 11.0108 5.8849 11.0108 5.52717C11.0108 5.16944 10.7208 4.87944 10.3631 4.87944ZM8.41992 5.52717C8.41992 4.45398 9.28991 3.58398 10.3631 3.58398C11.4363 3.58398 12.3063 4.45398 12.3063 5.52717C12.3063 6.60036 11.4363 7.47035 10.3631 7.47035C9.28991 7.47035 8.41992 6.60036 8.41992 5.52717Z" fill="#8133F1"/>
<path fill-rule="evenodd" clip-rule="evenodd" d="M15.2 4.87944C14.8423 4.87944 14.5523 5.16944 14.5523 5.52717C14.5523 5.8849 14.8423 6.17489 15.2 6.17489C15.5577 6.17489 15.8477 5.8849 15.8477 5.52717C15.8477 5.16944 15.5577 4.87944 15.2 4.87944ZM13.2568 5.52717C13.2568 4.45398 14.1268 3.58398 15.2 3.58398C16.2732 3.58398 17.1432 4.45398 17.1432 5.52717C17.1432 6.60036 16.2732 7.47035 15.2 7.47035C14.1268 7.47035 13.2568 6.60036 13.2568 5.52717Z" fill="#8133F1"/>
<path fill-rule="evenodd" clip-rule="evenodd" d="M25.5205 23.4046C25.5205 23.0468 25.8105 22.7568 26.1682 22.7568H30.9182C31.2759 22.7568 31.5659 23.0468 31.5659 23.4046V26.3151C33.5316 26.7011 35.4092 27.5177 37.043 28.5997L38.9941 26.5041C39.1139 26.3754 39.2809 26.301 39.4567 26.2978C39.6324 26.2947 39.8019 26.3632 39.9262 26.4875L43.2944 29.8556C43.5474 30.1086 43.5474 30.5187 43.2944 30.7717L41.2581 32.808C42.0099 33.9337 42.6211 35.1394 43.0228 36.425C43.1295 36.7664 42.9392 37.1297 42.5978 37.2364C42.2563 37.3431 41.893 37.1528 41.7863 36.8114C41.3788 35.5073 40.723 34.273 39.8911 33.1083C39.7071 32.8507 39.7363 32.4977 39.9602 32.2738L41.9204 30.3137L39.4849 27.8781L37.6105 29.8914C37.3887 30.1296 37.0247 30.1662 36.7599 29.9771C35.0188 28.7335 32.9535 27.8276 30.8197 27.4993C30.5037 27.4507 30.2705 27.1788 30.2705 26.8591V24.0523H26.8159V26.8591C26.8159 27.1802 26.5807 27.4528 26.2631 27.4998C24.0497 27.8278 22.0717 28.7306 20.3265 29.9771C20.0689 30.1611 19.7159 30.1319 19.492 29.908L17.5319 27.9479L15.0797 30.4L17.0399 32.3602C17.2638 32.5841 17.293 32.937 17.1089 33.1947C15.8653 34.9358 14.9594 37.0011 14.6311 39.1349C14.5825 39.4509 14.3106 39.6841 13.9909 39.6841H11.1841V41.3682C11.1841 41.7259 10.8941 42.0159 10.5364 42.0159C10.1787 42.0159 9.88867 41.7259 9.88867 41.3682V39.0364C9.88867 38.6787 10.1787 38.3887 10.5364 38.3887H13.4469C13.8343 36.4163 14.6551 34.5327 15.7426 32.8949L13.7057 30.858C13.5842 30.7366 13.5159 30.5718 13.5159 30.4C13.5159 30.2282 13.5842 30.0635 13.7057 29.942L17.0738 26.5738C17.3268 26.3209 17.7369 26.3209 17.9899 26.5738L20.0262 28.6101C21.6546 27.5222 23.4866 26.6984 25.5205 26.3118V23.4046Z" fill="#8133F1"/>
<path fill-rule="evenodd" clip-rule="evenodd" d="M19.9932 41.3681C19.9932 36.6922 23.8241 32.8613 28.5 32.8613C33.1759 32.8613 37.0068 36.6922 37.0068 41.3681C37.0068 41.7259 36.7168 42.0159 36.3591 42.0159C36.0013 42.0159 35.7113 41.7259 35.7113 41.3681C35.7113 37.4077 32.4604 34.1568 28.5 34.1568C24.5395 34.1568 21.2886 37.4077 21.2886 41.3681C21.2886 41.7259 20.9986 42.0159 20.6409 42.0159C20.2832 42.0159 19.9932 41.7259 19.9932 41.3681Z" fill="#8133F1"/>
<path fill-rule="evenodd" clip-rule="evenodd" d="M43.9589 42.6206C43.2802 42.6206 42.7066 43.1943 42.7066 43.8729V53.3729C42.7066 54.0516 43.2802 54.6252 43.9589 54.6252H53.3725C54.0325 54.6252 54.6248 54.0705 54.6248 53.2866V43.8729C54.6248 43.1943 54.0511 42.6206 53.3725 42.6206H43.9589ZM41.4111 43.8729C41.4111 42.4788 42.5648 41.3252 43.9589 41.3252H53.3725C54.7666 41.3252 55.9202 42.4788 55.9202 43.8729V53.2866C55.9202 54.7481 54.7852 55.9207 53.3725 55.9207H43.9589C42.5648 55.9207 41.4111 54.767 41.4111 53.3729V43.8729Z" fill="#8133F1"/>
<path fill-rule="evenodd" clip-rule="evenodd" d="M48.7085 35.107C46.9935 35.107 45.5562 36.5443 45.5562 38.2592V41.9729C45.5562 42.3306 45.2662 42.6206 44.9085 42.6206C44.5507 42.6206 44.2607 42.3306 44.2607 41.9729V38.2592C44.2607 35.8288 46.278 33.8115 48.7085 33.8115C51.1389 33.8115 53.1562 35.8288 53.1562 38.2592V41.9729C53.1562 42.3306 52.8662 42.6206 52.5085 42.6206C52.1507 42.6206 51.8607 42.3306 51.8607 41.9729V38.2592C51.8607 36.5443 50.4235 35.107 48.7085 35.107Z" fill="#8133F1"/>
<path fill-rule="evenodd" clip-rule="evenodd" d="M48.6221 45.3843C48.0298 45.3843 47.5425 45.8716 47.5425 46.4639C47.5425 46.8398 47.6855 47.096 47.9903 47.3399C48.1698 47.4835 48.2598 47.7115 48.2267 47.9389L47.6436 51.948H49.614L49.1023 47.9275C49.0738 47.7035 49.1639 47.4809 49.3402 47.3399C49.639 47.1008 49.7487 46.7998 49.7104 46.5704C49.7046 46.5352 49.7016 46.4995 49.7016 46.4639C49.7016 45.8716 49.2143 45.3843 48.6221 45.3843ZM46.2471 46.4639C46.2471 45.1561 47.3143 44.0889 48.6221 44.0889C49.9124 44.0889 50.9686 45.1278 50.9965 46.4116C51.0851 47.0569 50.8291 47.653 50.4289 48.0901L50.9919 52.5139C51.0154 52.6985 50.9584 52.8842 50.8354 53.0238C50.7124 53.1634 50.5354 53.2434 50.3493 53.2434H46.8948C46.7067 53.2434 46.528 53.1617 46.4049 53.0195C46.2819 52.8772 46.2268 52.6886 46.2538 52.5025L46.8955 48.0912C46.4982 47.676 46.2471 47.1454 46.2471 46.4639Z" fill="#8133F1"/>
</svg>
