<svg width="73" height="72" viewBox="0 0 73 72" fill="none" xmlns="http://www.w3.org/2000/svg">
<g clip-path="url(#clip0_1_13022)">
<path d="M57.7055 0.986328H15.2945C7.66848 0.986328 1.48633 7.16848 1.48633 14.7945V57.2055C1.48633 64.8316 7.66848 71.0137 15.2945 71.0137H57.7055C65.3316 71.0137 71.5137 64.8316 71.5137 57.2055V14.7945C71.5137 7.16848 65.3316 0.986328 57.7055 0.986328Z" fill="white"/>
<path fill-rule="evenodd" clip-rule="evenodd" d="M15.2945 1.9726C8.21317 1.9726 2.4726 7.71317 2.4726 14.7945V57.2055C2.4726 64.2868 8.21317 70.0274 15.2945 70.0274H57.7055C64.7868 70.0274 70.5274 64.2868 70.5274 57.2055V14.7945C70.5274 7.71317 64.7868 1.9726 57.7055 1.9726H15.2945ZM0.5 14.7945C0.5 6.62373 7.12373 0 15.2945 0H57.7055C65.8763 0 72.5 6.62373 72.5 14.7945V57.2055C72.5 65.3763 65.8763 72 57.7055 72H15.2945C7.12373 72 0.5 65.3763 0.5 57.2055V14.7945Z" fill="#134514"/>
<path d="M37.4808 60.8825L36.1509 60.428C36.1509 60.428 36.3133 53.6477 33.8798 53.1612C32.258 51.2793 34.1399 -26.6481 39.9794 52.9014C39.9794 52.9014 37.9677 53.9068 37.6109 55.6267C37.2214 57.3138 37.4808 60.8825 37.4808 60.8825Z" fill="#A6A385"/>
<path d="M38.1963 54.3292C38.1963 54.3292 49.8436 46.6725 47.1179 30.7429C44.4904 19.1613 38.2937 15.3655 37.6124 13.9055C36.8664 12.8673 36.1523 11.0508 36.1523 11.0508L36.6393 43.2659C36.6393 43.2986 35.6331 53.1282 38.1963 54.3292Z" fill="#499D4A"/>
<path d="M35.4706 54.7507C35.4706 54.7507 24.537 47.2887 25.186 34.1498C25.8023 21.0105 33.5236 14.5544 35.016 13.3865C35.9895 12.3483 36.0219 11.9588 36.0869 10.9207C36.7682 12.3807 36.6385 32.7548 36.7355 35.1553C37.0273 44.4014 36.2166 52.9992 35.4706 54.7507Z" fill="#58AA50"/>
</g>
<defs>
<clipPath id="clip0_1_13022">
<rect width="72" height="72" fill="white" transform="translate(0.5)"/>
</clipPath>
</defs>
</svg>
