<svg width="72" height="72" viewBox="0 0 72 72" fill="none" xmlns="http://www.w3.org/2000/svg">
<g clip-path="url(#clip0_1_13008)">
<mask id="mask0_1_13008" style="mask-type:luminance" maskUnits="userSpaceOnUse" x="0" y="0" width="72" height="72">
<path d="M72 0H0V72H72V0Z" fill="white"/>
</mask>
<g mask="url(#mask0_1_13008)">
<path d="M33.6423 0.0193783C33.4875 0.0334545 32.9946 0.0827214 32.5512 0.117912C22.3249 1.0399 12.746 6.55779 6.67917 15.0387C3.30087 19.7543 1.14018 25.1032 0.323754 30.7689C0.0351906 32.7468 0 33.3309 0 36.0123C0 38.694 0.0351906 39.2781 0.323754 41.2557C2.28035 54.7761 11.9015 66.1356 24.9502 70.3443C27.2868 71.0973 29.7502 71.6112 32.5512 71.9208C33.6423 72.0405 38.3577 72.0405 39.4488 71.9208C44.2839 71.3859 48.3801 70.1895 52.4199 68.1273C53.0394 67.8105 53.1588 67.7262 53.0745 67.6557C53.0181 67.6134 50.379 64.0734 47.2116 59.7942L41.4546 52.017L34.2405 41.3403C30.2709 35.4705 27.0053 30.6705 26.9771 30.6705C26.949 30.6633 26.9208 35.4072 26.9067 41.1993C26.8856 51.3414 26.8786 51.7497 26.7519 51.9888C26.5689 52.3338 26.4281 52.4745 26.1325 52.6293C25.9073 52.7421 25.7103 52.7631 24.6475 52.7631H23.4299L23.1062 52.5591C22.895 52.4253 22.7402 52.2492 22.6346 52.0452L22.4868 51.7284L22.5009 37.617L22.522 23.4985L22.7402 23.2241C22.8528 23.0763 23.0921 22.8862 23.261 22.7947C23.5496 22.654 23.6622 22.6399 24.8797 22.6399C26.3155 22.6399 26.5548 22.6962 26.9279 23.1044C27.0334 23.217 30.9396 29.1009 35.613 36.1884C40.2861 43.2756 46.6767 52.953 49.8159 57.7038L55.5168 66.3396L55.8054 66.1497C58.3602 64.4886 61.0629 62.1237 63.2022 59.6604C67.7559 54.4311 70.6908 48.0546 71.6763 41.2557C71.9649 39.2781 72 38.694 72 36.0123C72 33.3309 71.9649 32.7468 71.6763 30.7689C69.7197 17.2487 60.0984 5.88918 47.0499 1.68037C44.7483 0.934335 42.2991 0.420552 39.5544 0.110874C38.8785 0.0404928 34.2264 -0.0369267 33.6423 0.0193783ZM48.3801 21.7953C48.7179 21.9643 48.9924 22.288 49.0908 22.6258C49.1472 22.8088 49.1613 26.722 49.1472 35.5407L49.1262 48.1953L46.8951 44.7747L44.6568 41.3544V32.1555C44.6568 26.2082 44.685 22.8651 44.7273 22.7032C44.8398 22.3091 45.0861 21.9994 45.4239 21.8164C45.7125 21.6686 45.8181 21.6546 46.9233 21.6546C47.9649 21.6546 48.1479 21.6686 48.3801 21.7953Z" fill="#8133F1"/>
</g>
</g>
<defs>
<clipPath id="clip0_1_13008">
<rect width="72" height="72" fill="white"/>
</clipPath>
</defs>
</svg>
