<svg width="73" height="72" viewBox="0 0 73 72" fill="none" xmlns="http://www.w3.org/2000/svg">
<g clip-path="url(#clip0_1_13031)">
<path d="M36.0943 57.9507C35.8505 57.9507 35.6229 57.8857 35.4116 57.7719L33.25 56.488C32.925 56.3092 33.0875 56.2442 33.185 56.2117C33.6238 56.0654 33.7051 56.0329 34.1602 55.7728C34.2089 55.7403 34.2739 55.7566 34.3227 55.7891L35.9805 56.7805C36.0455 56.813 36.1268 56.813 36.1755 56.7805L42.6604 53.0261C42.7254 52.9936 42.7579 52.9286 42.7579 52.8473V45.3548C42.7579 45.2735 42.7254 45.2085 42.6604 45.176L36.1755 41.4379C36.1105 41.4053 36.0292 41.4053 35.9805 41.4379L29.4956 45.176C29.4306 45.2085 29.3981 45.2898 29.3981 45.3548V52.8473C29.3981 52.9123 29.4306 52.9936 29.4956 53.0261L31.2672 54.05C32.2261 54.5376 32.8274 53.9688 32.8274 53.3999V46.0049C32.8274 45.9074 32.9087 45.8099 33.0225 45.8099H33.8514C33.9489 45.8099 34.0464 45.8911 34.0464 46.0049V53.3999C34.0464 54.6839 33.3475 55.4315 32.1286 55.4315C31.7548 55.4315 31.4622 55.4315 30.6333 55.0252L28.9268 54.05C28.5042 53.8062 28.2441 53.3512 28.2441 52.8636V45.371C28.2441 44.8835 28.5042 44.4284 28.9268 44.1846L35.4116 40.4302C35.818 40.2026 36.3706 40.2026 36.7769 40.4302L43.2617 44.1846C43.6843 44.4284 43.9444 44.8835 43.9444 45.371V52.8636C43.9444 53.3512 43.6843 53.8062 43.2617 54.05L36.7769 57.8044C36.5656 57.902 36.3218 57.9507 36.0943 57.9507ZM38.0934 52.7986C35.2491 52.7986 34.664 51.4983 34.664 50.3932C34.664 50.2956 34.7453 50.1981 34.859 50.1981H35.7042C35.8017 50.1981 35.883 50.2631 35.883 50.3607C36.013 51.2221 36.3868 51.6446 38.1096 51.6446C39.4748 51.6446 40.0599 51.3358 40.0599 50.6044C40.0599 50.1819 39.8974 49.8731 37.7683 49.6618C35.9967 49.483 34.8915 49.0929 34.8915 47.6789C34.8915 46.3625 35.9967 45.5823 37.8496 45.5823C39.9299 45.5823 40.9538 46.2974 41.0839 47.8577C41.0839 47.9065 41.0676 47.9552 41.0351 48.004C41.0026 48.0365 40.9538 48.069 40.9051 48.069H40.0599C39.9787 48.069 39.8974 48.004 39.8812 47.9227C39.6861 47.0288 39.1823 46.7363 37.8496 46.7363C36.3543 46.7363 36.1755 47.2564 36.1755 47.6464C36.1755 48.1178 36.3868 48.264 38.4022 48.5241C40.4012 48.7841 41.3439 49.1579 41.3439 50.5557C41.3277 51.9859 40.1575 52.7986 38.0934 52.7986Z" fill="#539E43"/>
<path d="M15.9734 28.6469C15.9734 28.3543 15.8109 28.078 15.5508 27.9318L8.65961 23.9661C8.54584 23.9011 8.41582 23.8685 8.2858 23.8523H8.22079C8.09076 23.8523 7.96074 23.9011 7.84697 23.9661L0.955776 27.9318C0.695731 28.078 0.533203 28.3543 0.533203 28.6469L0.549456 39.3087C0.549456 39.455 0.63072 39.6013 0.760743 39.6663C0.890765 39.7476 1.05329 39.7476 1.16706 39.6663L5.26277 37.3259C5.52282 37.1796 5.68535 36.9033 5.68535 36.6108V31.6211C5.68535 31.3286 5.84788 31.0523 6.10792 30.906L7.84697 29.8983C7.977 29.8171 8.12327 29.7846 8.26955 29.7846C8.41582 29.7846 8.5621 29.8171 8.67587 29.8983L10.4149 30.906C10.675 31.0523 10.8375 31.3286 10.8375 31.6211V36.6108C10.8375 36.9033 11 37.1796 11.2601 37.3259L15.3558 39.6663C15.4858 39.7476 15.6483 39.7476 15.7783 39.6663C15.9084 39.6013 15.9896 39.455 15.9896 39.3087L15.9734 28.6469Z" fill="white"/>
<path d="M49.0957 13.9706C48.9657 13.9056 48.8032 13.9056 48.6894 13.9706C48.5594 14.0519 48.4781 14.1819 48.4781 14.3282V24.8925C48.4781 24.99 48.4294 25.0876 48.3318 25.1526C48.2343 25.2013 48.1368 25.2013 48.0393 25.1526L46.3165 24.1612C46.0564 24.0149 45.7476 24.0149 45.4876 24.1612L38.5964 28.1431C38.3364 28.2894 38.1738 28.5657 38.1738 28.8582V36.8058C38.1738 37.0984 38.3364 37.3747 38.5964 37.521L45.4876 41.5029C45.7476 41.6492 46.0564 41.6492 46.3165 41.5029L53.2077 37.521C53.4677 37.3747 53.6303 37.0984 53.6303 36.8058V16.9937C53.6303 16.6849 53.4677 16.4086 53.2077 16.2623L49.0957 13.9706ZM48.4619 34.1891C48.4619 34.2704 48.4294 34.3354 48.3643 34.3679L46.0077 35.7332C45.9427 35.7657 45.8614 35.7657 45.7964 35.7332L43.4397 34.3679C43.3747 34.3354 43.3422 34.2542 43.3422 34.1891V31.4587C43.3422 31.3774 43.3747 31.3124 43.4397 31.2799L45.7964 29.9147C45.8614 29.8821 45.9427 29.8821 46.0077 29.9147L48.3643 31.2799C48.4294 31.3124 48.4619 31.3937 48.4619 31.4587V34.1891Z" fill="white"/>
<path d="M72.03 31.3937C72.2901 31.2474 72.4363 30.9711 72.4363 30.6786V28.7445C72.4363 28.4519 72.2738 28.1757 72.03 28.0294L65.1876 24.0637C64.9275 23.9174 64.6187 23.9174 64.3587 24.0637L57.4675 28.0456C57.2075 28.1919 57.0449 28.4682 57.0449 28.7608V36.7084C57.0449 37.0009 57.2075 37.2772 57.4675 37.4235L64.3099 41.3242C64.57 41.4705 64.8788 41.4705 65.1226 41.3242L69.267 39.0163C69.3971 38.9513 69.4783 38.805 69.4783 38.6587C69.4783 38.5124 69.3971 38.3662 69.267 38.3012L62.3433 34.3192C62.2133 34.238 62.1321 34.1079 62.1321 33.9617V31.475C62.1321 31.3287 62.2133 31.1824 62.3433 31.1174L64.505 29.8822C64.635 29.8009 64.7975 29.8009 64.9275 29.8822L67.0892 31.1174C67.2192 31.1987 67.3005 31.3287 67.3005 31.475V33.4253C67.3005 33.5716 67.3817 33.7179 67.5117 33.7829C67.6418 33.8641 67.8043 33.8641 67.9343 33.7829L72.03 31.3937Z" fill="white"/>
<path d="M64.6673 31.0199C64.716 30.9874 64.781 30.9874 64.8298 31.0199L66.1463 31.7837C66.195 31.8163 66.2275 31.865 66.2275 31.93V33.4578C66.2275 33.5228 66.195 33.5716 66.1463 33.6041L64.8298 34.3679C64.781 34.4004 64.716 34.4004 64.6673 34.3679L63.3508 33.6041C63.302 33.5716 63.2695 33.5228 63.2695 33.4578V31.93C63.2695 31.865 63.302 31.8163 63.3508 31.7837L64.6673 31.0199Z" fill="#539E43"/>
<path d="M27.4976 24.0962C27.2375 23.9499 26.9287 23.9499 26.6687 24.0962L19.8262 28.0456C19.5662 28.1919 19.4199 28.4682 19.4199 28.7607V36.6758C19.4199 36.9684 19.5825 37.2447 19.8262 37.391L26.6687 41.3404C26.9287 41.4867 27.2375 41.4867 27.4976 41.3404L34.34 37.391C34.6001 37.2447 34.7463 36.9684 34.7463 36.6758V28.7607C34.7463 28.4682 34.5838 28.1919 34.34 28.0456L27.4976 24.0962Z" fill="url(#paint0_linear_1_13031)"/>
<mask id="mask0_1_13031" style="mask-type:luminance" maskUnits="userSpaceOnUse" x="19" y="23" width="16" height="19">
<path d="M27.4976 24.0962C27.2375 23.9499 26.9287 23.9499 26.6687 24.0962L19.8262 28.0456C19.5662 28.1919 19.4199 28.4682 19.4199 28.7607V36.6758C19.4199 36.9684 19.5825 37.2447 19.8262 37.391L26.6687 41.3404C26.9287 41.4867 27.2375 41.4867 27.4976 41.3404L34.34 37.391C34.6001 37.2447 34.7463 36.9684 34.7463 36.6758V28.7607C34.7463 28.4682 34.5838 28.1919 34.34 28.0456L27.4976 24.0962Z" fill="white"/>
</mask>
<g mask="url(#mask0_1_13031)">
<path d="M34.3565 28.0456L27.4815 24.0962C27.4165 24.0637 27.3353 24.0311 27.2702 24.0149L19.5664 37.2122C19.6314 37.2934 19.7127 37.3585 19.7939 37.4072L26.6689 41.3567C26.8639 41.4704 27.0915 41.5029 27.3027 41.4379L34.5353 28.2081C34.4865 28.1431 34.4215 28.0944 34.3565 28.0456Z" fill="url(#paint1_linear_1_13031)"/>
</g>
<mask id="mask1_1_13031" style="mask-type:luminance" maskUnits="userSpaceOnUse" x="19" y="23" width="16" height="19">
<path d="M27.4976 24.0962C27.2375 23.9499 26.9287 23.9499 26.6687 24.0962L19.8262 28.0456C19.5662 28.1919 19.4199 28.4682 19.4199 28.7607V36.6758C19.4199 36.9684 19.5825 37.2447 19.8262 37.391L26.6687 41.3404C26.9287 41.4867 27.2375 41.4867 27.4976 41.3404L34.34 37.391C34.6001 37.2447 34.7463 36.9684 34.7463 36.6758V28.7607C34.7463 28.4682 34.5838 28.1919 34.34 28.0456L27.4976 24.0962Z" fill="white"/>
</mask>
<g mask="url(#mask1_1_13031)">
<path fill-rule="evenodd" clip-rule="evenodd" d="M34.3724 37.391C34.5675 37.2772 34.7138 37.0822 34.7788 36.8709L27.2375 23.9987C27.0424 23.9662 26.8311 23.9824 26.6524 24.0962L19.8262 28.0294L27.1887 41.4542C27.2862 41.438 27.4 41.4054 27.4975 41.3567L34.3724 37.391Z" fill="url(#paint2_linear_1_13031)"/>
<path fill-rule="evenodd" clip-rule="evenodd" d="M34.3726 37.391L27.5139 41.3404C27.4164 41.3892 27.3188 41.4217 27.2051 41.4379L27.3351 41.6817L34.9414 37.2772V37.1797L34.7464 36.8546C34.7139 37.0822 34.5676 37.2772 34.3726 37.391Z" fill="url(#paint3_linear_1_13031)"/>
<path fill-rule="evenodd" clip-rule="evenodd" d="M34.3726 37.391L27.5139 41.3404C27.4164 41.3892 27.3188 41.4217 27.2051 41.4379L27.3351 41.6817L34.9414 37.2772V37.1797L34.7464 36.8546C34.7139 37.0822 34.5676 37.2772 34.3726 37.391Z" fill="url(#paint4_linear_1_13031)"/>
</g>
</g>
<defs>
<linearGradient id="paint0_linear_1_13031" x1="1064.5" y1="329.37" x2="314.479" y2="1507.83" gradientUnits="userSpaceOnUse">
<stop stop-color="#41873F"/>
<stop offset="0.3288" stop-color="#418B3D"/>
<stop offset="0.6352" stop-color="#419637"/>
<stop offset="0.9319" stop-color="#3FA92D"/>
<stop offset="1" stop-color="#3FAE2A"/>
</linearGradient>
<linearGradient id="paint1_linear_1_13031" x1="667.367" y1="987.05" x2="2545.69" y2="-33.4365" gradientUnits="userSpaceOnUse">
<stop offset="0.1376" stop-color="#41873F"/>
<stop offset="0.4032" stop-color="#54A044"/>
<stop offset="0.7136" stop-color="#66B848"/>
<stop offset="0.9081" stop-color="#6CC04A"/>
</linearGradient>
<linearGradient id="paint2_linear_1_13031" x1="-45.7978" y1="897.451" x2="1537.5" y2="897.451" gradientUnits="userSpaceOnUse">
<stop offset="0.0919165" stop-color="#6CC04A"/>
<stop offset="0.2864" stop-color="#66B848"/>
<stop offset="0.5968" stop-color="#54A044"/>
<stop offset="0.8624" stop-color="#41873F"/>
</linearGradient>
<linearGradient id="paint3_linear_1_13031" x1="-776.297" y1="279.539" x2="807.004" y2="279.539" gradientUnits="userSpaceOnUse">
<stop offset="0.0919165" stop-color="#6CC04A"/>
<stop offset="0.2864" stop-color="#66B848"/>
<stop offset="0.5968" stop-color="#54A044"/>
<stop offset="0.8624" stop-color="#41873F"/>
</linearGradient>
<linearGradient id="paint4_linear_1_13031" x1="1037.67" y1="-981.996" x2="636.561" y2="1119.82" gradientUnits="userSpaceOnUse">
<stop stop-color="#41873F"/>
<stop offset="0.3288" stop-color="#418B3D"/>
<stop offset="0.6352" stop-color="#419637"/>
<stop offset="0.9319" stop-color="#3FA92D"/>
<stop offset="1" stop-color="#3FAE2A"/>
</linearGradient>
<clipPath id="clip0_1_13031">
<rect width="72" height="72" fill="white" transform="translate(0.5)"/>
</clipPath>
</defs>
</svg>
