<svg width="72" height="72" viewBox="0 0 72 72" fill="none" xmlns="http://www.w3.org/2000/svg">
<path d="M15.6371 14.9608C17.6526 16.5982 18.4087 16.4732 22.1933 16.2208L57.8737 14.0783C58.6302 14.0783 58.0009 13.3234 57.7489 13.1979L51.8228 8.9141C50.6876 8.03263 49.1746 7.0231 46.2756 7.27562L11.7264 9.79553C10.4664 9.92047 10.2147 10.5504 10.7166 11.0554L15.6371 14.9608ZM17.7793 23.276V60.8179C17.7793 62.8353 18.7875 63.5904 21.0569 63.4656L60.2694 61.1966C62.5398 61.0718 62.7927 59.6837 62.7927 58.0449V20.755C62.7927 19.1187 62.1634 18.2362 60.7734 18.3621L19.7959 20.755C18.2837 20.8821 17.7793 21.6385 17.7793 23.276ZM56.4898 25.2898C56.7414 26.4248 56.4898 27.5588 55.3527 27.6863L53.4634 28.0627V55.7784C51.8228 56.6601 50.3103 57.1641 49.0498 57.1641C47.0317 57.1641 46.5262 56.5339 45.0146 54.6451L32.6562 35.2439V54.0153L36.5668 54.8976C36.5668 54.8976 36.5668 57.1641 33.4117 57.1641L24.7138 57.6686C24.4611 57.1641 24.7138 55.9056 25.596 55.6531L27.8658 55.0243V30.2052L24.7143 29.9527C24.4616 28.8177 25.0911 27.1813 26.8575 27.0543L36.1885 26.4253L49.0498 46.079V28.6927L45.7707 28.3163C45.519 26.9288 46.5262 25.9213 47.7872 25.7964L56.4898 25.2898ZM8.82555 6.39415L44.7623 3.74775C49.1756 3.36925 50.3108 3.62279 53.0847 5.63767L64.5558 13.7003C66.4489 15.0868 67.0796 15.4643 67.0796 16.9757V61.1966C67.0796 63.9677 66.0702 65.6068 62.5402 65.8574L20.8072 68.3779C18.1576 68.5041 16.8965 68.1264 15.5089 66.3614L7.06117 55.4011C5.54744 53.3837 4.91797 51.8741 4.91797 50.1081V10.8019C4.91797 8.53558 5.92779 6.64514 8.82555 6.39415Z" fill="#8133F1"/>
</svg>
