<svg width="128" height="128" viewBox="0 0 128 128" fill="none" xmlns="http://www.w3.org/2000/svg">
<g clip-path="url(#clip0_321_69)">
<path d="M20.6676 41.6763C32.6352 41.6763 35.4302 53.4631 33.752 63.994C32.0711 74.5311 25.4947 86.3225 13.5271 86.3225C1.55952 86.3225 -1.23694 74.5313 0.447707 63.994C2.13344 53.4631 8.7 41.6763 20.6676 41.6763ZM15.2633 75.4334C19.7215 75.4334 21.2921 66.6794 21.7252 63.9942C22.1577 61.3086 23.3822 52.5521 18.9322 52.5521C14.4735 52.5521 12.9062 61.3086 12.4747 63.9942C12.0422 66.6794 10.813 75.4334 15.2633 75.4334ZM39.9694 42.416H53.8441C60.778 42.416 68.405 45.3941 66.9086 54.7246C66.1301 59.581 62.3443 63.3646 57.3727 63.3646L57.3545 63.4838C63.058 63.9449 65.5612 67.4814 64.6355 73.27C63.7827 78.591 59.4255 85.5731 48.9087 85.5731H33.0677L39.9694 42.416ZM47.3407 76.2416C49.9411 76.2416 52.4501 74.9849 52.9225 72.0667C53.3883 69.1463 51.3223 67.9458 48.6069 67.9458H47.6785L46.3503 76.2411H47.3405V76.2416H47.3407ZM49.7762 59.1924C52.1993 59.1924 54.6155 58.218 55.0609 55.4106C55.4752 52.8293 53.8568 51.747 51.425 51.747H50.2706L49.0849 59.1924H49.7762ZM72.338 42.416H94.2501L92.6157 52.6005H82.5029L81.5425 58.6161H90.6227L88.9892 68.8H79.9138L78.8708 75.3844H88.9781L87.3437 85.5733H65.4364L72.338 42.416ZM99.1252 85.5731L102.057 67.2526L95.2754 42.416H107.528L109.45 55.7517H109.564L115.799 42.416H128L113.845 67.2525L110.921 85.5729L99.1252 85.5731ZM123.27 84.2909C122.414 85.1481 121.385 85.5731 120.171 85.5731C118.965 85.5731 117.935 85.1481 117.086 84.2909C116.24 83.4385 115.819 82.4072 115.819 81.1938C115.819 79.9957 116.244 78.9674 117.097 78.113C117.947 77.2657 118.973 76.8436 120.172 76.8436C121.386 76.8436 122.414 77.2655 123.271 78.113C124.124 78.9654 124.549 79.99 124.549 81.1938C124.549 82.4015 124.123 83.436 123.27 84.2909ZM117.516 78.5471C116.783 79.2781 116.418 80.1622 116.418 81.1996C116.418 82.2457 116.779 83.1351 117.51 83.8728C118.245 84.6066 119.134 84.9739 120.179 84.9739C121.226 84.9739 122.117 84.6066 122.849 83.8728C123.581 83.1351 123.95 82.2459 123.95 81.1996C123.95 80.1622 123.581 79.2778 122.849 78.5471C122.113 77.8105 121.223 77.4424 120.179 77.4424C119.14 77.4422 118.253 77.8105 117.516 78.5471ZM120.094 78.7743C120.691 78.7743 121.128 78.8313 121.407 78.9489C121.901 79.1544 122.151 79.5608 122.151 80.1622C122.151 80.5933 121.993 80.9096 121.682 81.1095C121.514 81.2163 121.285 81.2946 120.987 81.3409C121.361 81.4016 121.63 81.5571 121.805 81.813C121.975 82.0659 122.061 82.3169 122.061 82.5566V82.9072C122.061 83.0199 122.064 83.1374 122.07 83.265C122.082 83.3941 122.096 83.4773 122.117 83.5146L122.151 83.5754H121.347C121.343 83.5596 121.339 83.5439 121.335 83.5272C121.334 83.5126 121.328 83.4939 121.324 83.4724L121.305 83.3186V82.9414C121.305 82.3849 121.152 82.0198 120.85 81.8392C120.671 81.7373 120.36 81.6854 119.907 81.6854H119.24V83.5748H118.416V78.7743H120.094ZM121.002 79.553C120.789 79.4345 120.444 79.3748 119.971 79.3748H119.24V81.086H120.011C120.373 81.086 120.646 81.0525 120.827 80.9803C121.159 80.8519 121.327 80.6042 121.327 80.2445C121.327 79.8979 121.22 79.6704 121.002 79.553Z" fill="white"/>
</g>
<defs>
<clipPath id="clip0_321_69">
<rect width="128" height="128" fill="white"/>
</clipPath>
</defs>
</svg>
