<svg width="172" height="172" viewBox="0 0 172 172" fill="none" xmlns="http://www.w3.org/2000/svg">
<path fill-rule="evenodd" clip-rule="evenodd" d="M26.9123 88.8791V83.1192C26.9123 81.281 28.2089 80.1816 29.9971 80.1816H45.5368C47.3251 80.1816 48.6216 81.281 48.6216 83.1192V88.8791C48.6216 90.7182 47.3251 91.8157 45.5368 91.8157H29.9971C28.2089 91.8157 26.9123 90.7182 26.9123 88.8791ZM2.52881 80.1825H21.5798C23.4011 80.1825 24.189 81.9217 24.189 83.5296V84.8752C24.189 86.9097 22.9745 88.3874 20.858 88.3874H5.18792V91.8157H2.52881V80.1825ZM51.4931 80.1825H70.6253C71.987 80.1825 73.2345 81.0847 73.2345 82.5124V85.532C73.2345 86.7955 72.2493 87.4674 71.1339 87.7637C72.7419 88.5186 73.0703 90.1917 73.2345 91.8157H70.6253C70.5102 90.0605 69.7553 88.3874 67.7378 88.3874H54.1513V91.8157H51.4931V80.1825ZM97.3048 80.1825V82.5124H79.6172C78.9114 82.5124 78.616 83.021 78.616 83.6938C78.616 84.3336 78.9444 84.8262 79.6172 84.8262H94.0407C96.4035 84.8262 97.6831 85.9585 97.6831 88.3705C97.6831 90.3889 96.6007 91.8157 94.5011 91.8157H76.3692V89.4859H94.0416C94.6483 89.4859 94.9116 88.9612 94.9116 88.4195C94.9116 87.7976 94.7813 87.1399 94.0416 87.1399H79.0595C77.1232 87.1399 76.0078 85.6471 76.0078 83.7929C76.0078 81.4791 77.2543 80.1834 79.6181 80.1834L97.3048 80.1825ZM121.131 80.1825V82.5124H103.671C103.262 82.5124 103.114 82.9059 103.114 83.2512V88.913C103.114 89.2583 103.328 89.4868 103.671 89.4868H121.131V91.8166H103.671C101.768 91.8166 100.473 90.504 100.473 88.5837V83.5965C100.473 81.3979 101.408 80.1834 103.671 80.1834L121.131 80.1825ZM123.985 80.1825H126.66V84.7111H142.102V80.1825H144.841V91.8157H142.102V87.0409H126.66V91.8157H123.985V80.1825ZM147.648 80.1825H169.471V82.5124H150.305V84.761H169.471V87.0739H150.305V89.4859H169.471V91.8157H147.648V80.1825Z" fill="white"/>
<path fill-rule="evenodd" clip-rule="evenodd" d="M31.1134 89.4861H44.6018C45.4218 89.4861 46.0946 89.1256 46.0946 88.1895V83.8091C46.0946 82.874 45.4388 82.5126 44.6018 82.5126H31.1134C30.2765 82.5126 29.6036 82.874 29.6036 83.8091V88.1895C29.6036 89.1256 30.2925 89.4861 31.1134 89.4861ZM5.18799 82.5126V86.0569H20.3494C21.0061 86.0569 21.5799 85.7946 21.5799 85.0557V83.744C21.5799 82.973 21.1204 82.5135 20.3494 82.5135L5.18799 82.5126ZM54.1514 82.5126V86.0569H69.9695C70.4942 86.0569 70.6254 85.6134 70.6254 85.1708V83.595C70.6254 82.8401 70.347 82.5117 69.5751 82.5117L54.1514 82.5126Z" fill="#040010"/>
</svg>
