<svg width="128" height="128" viewBox="0 0 128 128" fill="none" xmlns="http://www.w3.org/2000/svg">
<path fill-rule="evenodd" clip-rule="evenodd" d="M7.7653 73.0538H6.12575C5.98896 73.0538 5.64697 73.0538 5.64697 72.8486C5.64697 72.7125 5.71537 72.6435 5.92056 72.5751C7.42398 72.0963 7.7653 71.2768 7.7653 70.1161V57.8849C7.7653 56.7912 7.42331 55.9711 5.92056 55.4246C5.71537 55.4246 5.64697 55.2878 5.64697 55.2194C5.64697 54.9465 5.98896 55.0142 6.12575 55.0142H19.6545C22.729 55.0142 25.2578 57.4738 25.2578 60.5484C25.2578 63.6236 22.729 66.0826 19.6545 66.0826H12.8214V70.2509C12.8905 71.3439 13.2318 72.0949 14.6668 72.5737C14.872 72.6428 14.9397 72.7112 14.9397 72.8473C14.9397 73.0525 14.5984 73.0525 14.4616 73.0525H7.7653V73.0538ZM108.619 66.4259H111.83L108.619 60.9595L108.276 60.4123L105.408 66.4259H108.619ZM108.619 54.9471H110.806L119.961 71.0736C120.234 71.482 120.576 71.8931 120.987 72.0969C121.328 72.3705 121.738 72.4396 122.079 72.5757C122.217 72.6448 122.353 72.7132 122.353 72.8493C122.353 73.0545 122.011 73.0545 121.874 73.0545H113.743C113.607 73.0545 113.196 73.0545 113.196 72.8493C113.196 72.7132 113.334 72.6441 113.471 72.5757C113.881 72.4396 114.153 72.2344 114.289 71.8247C114.427 71.3459 114.289 71.0736 113.948 70.4574C113.484 69.4713 113.006 68.492 112.514 67.5196H104.86L104.793 67.6558C104.724 67.9293 104.178 68.8856 103.767 69.9109C103.221 71.0039 103.016 71.2768 103.152 71.824C103.221 72.2337 103.561 72.4389 103.971 72.5751C104.109 72.6441 104.178 72.7125 104.178 72.8486C104.178 73.0538 103.835 73.0538 103.699 73.0538H99.9404C99.8042 73.0538 99.4616 73.0538 99.4616 72.8486C99.4616 72.7125 99.5306 72.6435 99.7352 72.5751C100.078 72.4389 100.486 72.3699 100.828 72.0963C101.238 71.8924 101.581 71.4814 101.853 71.073L102.332 70.047L107.525 59.1831L106.772 57.8849C106.09 56.7912 105.406 56.1079 104.654 55.6982C104.313 55.493 103.971 55.493 103.63 55.3562C103.425 55.2878 103.356 55.2194 103.425 55.0826C103.425 54.9458 103.561 55.0142 103.63 54.9458H108.619V54.9471ZM88.188 72.9848H88.4616C101.035 72.9848 100.899 55.0149 88.4616 55.0149H78.1442C77.939 55.0149 77.5983 54.9465 77.5983 55.2201C77.5983 55.2885 77.7345 55.4252 77.8706 55.4252C79.374 55.9034 79.716 56.7235 79.7837 57.7488V70.2529C79.716 71.3459 79.374 72.0969 77.8706 72.5757C77.7345 72.6448 77.5983 72.7132 77.5983 72.8493C77.5983 73.0545 77.9397 73.0545 78.1442 73.0545H84.7721V72.9854L88.188 72.9848ZM88.188 56.3131C90.1024 56.3131 91.6742 57.8849 91.6742 59.7974V68.1339C91.6742 70.047 90.1024 71.6188 88.188 71.6188H84.7714V56.3131H88.188ZM62.1551 66.4259H65.3665L62.1551 60.9595L61.8138 60.4123L58.9445 66.4259H62.1551ZM62.1551 54.9471H64.4103L73.5662 71.0736C73.7714 71.482 74.1134 71.8931 74.5231 72.0969C74.8644 72.3705 75.2755 72.4396 75.6852 72.5757C75.8213 72.6448 75.9575 72.7132 75.9575 72.8493C75.9575 73.0545 75.5477 73.0545 75.4116 73.0545H67.2816C67.1442 73.0545 66.8028 73.0545 66.8028 72.8493C66.8028 72.7132 66.8706 72.6441 67.0751 72.5757C67.4178 72.4396 67.7584 72.2344 67.8275 71.8247C67.9636 71.3459 67.8275 71.0736 67.5539 70.4574C67.0751 69.4328 66.5293 68.4759 66.0518 67.5196H58.3966L58.3289 67.6558C58.2605 67.9293 57.7817 68.8856 57.3036 69.9109C56.8255 71.0039 56.5525 71.2768 56.6893 71.824C56.8261 72.2337 57.099 72.4389 57.5094 72.5751C57.6456 72.6441 57.7824 72.7125 57.7824 72.8486C57.7824 73.0538 57.441 73.0538 57.2365 73.0538H53.5457C53.4089 73.0538 52.9985 73.0538 52.9985 72.8486C52.9985 72.7125 53.1353 72.6435 53.2721 72.5751C53.6825 72.4389 54.0238 72.3699 54.4342 72.0963C54.7755 71.8924 55.1859 71.4814 55.3904 71.073L55.8686 70.047L61.1305 59.1831L60.3788 57.8849C59.6955 56.7912 58.9438 56.1079 58.2605 55.6982C57.8501 55.493 57.5772 55.493 57.1668 55.3562C57.03 55.2878 56.8932 55.2194 56.9623 55.0826C57.03 54.9458 57.1668 55.0142 57.2358 54.9458H62.1551V54.9471ZM39.6066 66.9047C41.1784 67.4506 43.0915 67.5867 44.5943 67.1099L50.5395 72.2344L51.0177 72.6441C51.0867 72.7132 51.0867 72.7802 51.0867 72.8493C51.0867 73.0545 50.7447 73.0545 50.6079 73.0545H44.322L39.6073 69.1598L35.7803 66.0846V70.3219C35.8494 71.3466 36.2591 72.0976 37.6935 72.5764C37.8303 72.6454 37.8987 72.7138 37.8987 72.85C37.8987 73.0552 37.5567 73.0552 37.4199 73.0552H29.1518C28.9472 73.0552 28.6052 73.0552 28.6052 72.85C28.6052 72.7138 28.742 72.6448 28.8782 72.5764C30.5184 72.0305 30.7236 71.2104 30.7913 69.9122V58.0894C30.7229 56.8596 30.5177 55.9711 28.8782 55.4246C28.7414 55.4246 28.6052 55.2878 28.6052 55.2194C28.6052 54.9465 28.9472 55.0142 29.1518 55.0142H42.476C43.2036 55.0111 43.9247 55.1522 44.5975 55.4292C45.2704 55.7062 45.8818 56.1137 46.3963 56.6282C46.9109 57.1427 47.3185 57.754 47.5956 58.4269C47.8727 59.0997 48.0138 59.8208 48.0108 60.5484C48.0139 61.2761 47.8728 61.9972 47.5958 62.67C47.3187 63.3429 46.9111 63.9543 46.3965 64.4688C45.8819 64.9833 45.2706 65.3908 44.5977 65.6678C43.9247 65.9448 43.2036 66.0858 42.476 66.0826H38.1716C38.3768 66.4923 38.8549 66.6298 39.2646 66.835C39.4014 66.8357 39.4698 66.9047 39.6066 66.9047ZM39.6066 64.7864H40.1531C41.9294 64.7864 43.4329 62.8726 43.4329 60.4123C43.4329 58.021 41.9294 56.1079 40.1531 56.1079H35.7797V64.7864H39.6066ZM16.7161 56.1086H12.8214V64.7871H17.3316C19.1764 64.7871 20.6114 62.8733 20.6114 60.4129C20.6114 58.0217 19.1764 56.1086 17.3316 56.1086H16.7161Z" fill="white"/>
</svg>
