<svg width="57" height="57" viewBox="0 0 57 57" fill="none" xmlns="http://www.w3.org/2000/svg">
<g clip-path="url(#clip0_1_9309)">
<path d="M51.6562 0.890625H5.34375C4.16314 0.892039 3.03129 1.36166 2.19648 2.19648C1.36166 3.03129 0.892039 4.16314 0.890625 5.34375V51.6562C0.892039 52.8369 1.36166 53.9687 2.19648 54.8035C3.03129 55.6383 4.16314 56.108 5.34375 56.1094H51.6562C52.8369 56.108 53.9687 55.6383 54.8035 54.8035C55.6383 53.9687 56.108 52.8369 56.1094 51.6562V5.34375C56.108 4.16314 55.6383 3.03129 54.8035 2.19648C53.9687 1.36166 52.8369 0.892039 51.6562 0.890625ZM5.34375 2.67188H51.6562C52.3649 2.67188 53.0445 2.95338 53.5456 3.45445C54.0466 3.95552 54.3281 4.63512 54.3281 5.34375V11.5781H2.67188V5.34375C2.67188 4.63512 2.95338 3.95552 3.45445 3.45445C3.95552 2.95338 4.63512 2.67188 5.34375 2.67188ZM51.6562 54.3281H5.34375C4.63512 54.3281 3.95552 54.0466 3.45445 53.5456C2.95338 53.0445 2.67188 52.3649 2.67188 51.6562V13.3594H54.3281V51.6562C54.3281 52.3649 54.0466 53.0445 53.5456 53.5456C53.0445 54.0466 52.3649 54.3281 51.6562 54.3281Z" fill="#8133F1"/>
<path d="M7.125 9.79688C7.65345 9.79688 8.17003 9.64017 8.60941 9.34658C9.0488 9.05299 9.39126 8.6357 9.59349 8.14748C9.79572 7.65926 9.84863 7.12204 9.74554 6.60374C9.64244 6.08545 9.38797 5.60937 9.0143 5.2357C8.64063 4.86203 8.16455 4.60756 7.64626 4.50447C7.12796 4.40137 6.59074 4.45428 6.10252 4.65651C5.6143 4.85874 5.19701 5.2012 4.90342 5.64059C4.60983 6.07997 4.45312 6.59655 4.45312 7.125C4.45312 7.83363 4.73463 8.51323 5.2357 9.0143C5.73677 9.51538 6.41637 9.79688 7.125 9.79688ZM7.125 6.23438C7.30115 6.23438 7.47334 6.28661 7.61981 6.38447C7.76627 6.48234 7.88042 6.62143 7.94783 6.78417C8.01524 6.94691 8.03288 7.12599 7.99851 7.29875C7.96415 7.47152 7.87932 7.63021 7.75477 7.75477C7.63021 7.87932 7.47152 7.96415 7.29875 7.99851C7.12599 8.03288 6.94691 8.01524 6.78417 7.94783C6.62143 7.88042 6.48234 7.76627 6.38447 7.61981C6.28661 7.47334 6.23438 7.30115 6.23438 7.125C6.23438 6.88879 6.32821 6.66226 6.49523 6.49523C6.66226 6.32821 6.88879 6.23438 7.125 6.23438Z" fill="#8133F1"/>
<path d="M14.25 9.79688C14.7784 9.79688 15.295 9.64017 15.7344 9.34658C16.1738 9.05299 16.5163 8.6357 16.7185 8.14748C16.9207 7.65926 16.9736 7.12204 16.8705 6.60374C16.7674 6.08545 16.513 5.60937 16.1393 5.2357C15.7656 4.86203 15.2896 4.60756 14.7713 4.50447C14.253 4.40137 13.7157 4.45428 13.2275 4.65651C12.7393 4.85874 12.322 5.2012 12.0284 5.64059C11.7348 6.07997 11.5781 6.59655 11.5781 7.125C11.5781 7.83363 11.8596 8.51323 12.3607 9.0143C12.8618 9.51538 13.5414 9.79688 14.25 9.79688ZM14.25 6.23438C14.4261 6.23438 14.5983 6.28661 14.7448 6.38447C14.8913 6.48234 15.0054 6.62143 15.0728 6.78417C15.1402 6.94691 15.1579 7.12599 15.1235 7.29875C15.0891 7.47152 15.0043 7.63021 14.8798 7.75477C14.7552 7.87932 14.5965 7.96415 14.4238 7.99851C14.251 8.03288 14.0719 8.01524 13.9092 7.94783C13.7464 7.88042 13.6073 7.76627 13.5095 7.61981C13.4116 7.47334 13.3594 7.30115 13.3594 7.125C13.3594 6.88879 13.4532 6.66226 13.6202 6.49523C13.7873 6.32821 14.0138 6.23438 14.25 6.23438Z" fill="#8133F1"/>
<path d="M21.375 9.79688C21.9034 9.79688 22.42 9.64017 22.8594 9.34658C23.2988 9.05299 23.6413 8.6357 23.8435 8.14748C24.0457 7.65926 24.0986 7.12204 23.9955 6.60374C23.8924 6.08545 23.638 5.60937 23.2643 5.2357C22.8906 4.86203 22.4146 4.60756 21.8963 4.50447C21.378 4.40137 20.8407 4.45428 20.3525 4.65651C19.8643 4.85874 19.447 5.2012 19.1534 5.64059C18.8598 6.07997 18.7031 6.59655 18.7031 7.125C18.7031 7.83363 18.9846 8.51323 19.4857 9.0143C19.9868 9.51538 20.6664 9.79688 21.375 9.79688ZM21.375 6.23438C21.5511 6.23438 21.7233 6.28661 21.8698 6.38447C22.0163 6.48234 22.1304 6.62143 22.1978 6.78417C22.2652 6.94691 22.2829 7.12599 22.2485 7.29875C22.2141 7.47152 22.1293 7.63021 22.0048 7.75477C21.8802 7.87932 21.7215 7.96415 21.5488 7.99851C21.376 8.03288 21.1969 8.01524 21.0342 7.94783C20.8714 7.88042 20.7323 7.76627 20.6345 7.61981C20.5366 7.47334 20.4844 7.30115 20.4844 7.125C20.4844 6.88879 20.5782 6.66226 20.7452 6.49523C20.9123 6.32821 21.1388 6.23438 21.375 6.23438Z" fill="#8133F1"/>
<path d="M26.9343 24.0736L25.3312 23.6737C25.1768 23.1993 24.9863 22.7375 24.7612 22.2923L25.609 20.8789C25.711 20.7086 25.7532 20.5091 25.7288 20.3121C25.7044 20.115 25.615 19.9318 25.4745 19.7915L22.9559 17.2728C22.8155 17.1324 22.6323 17.0429 22.4353 17.0185C22.2382 16.9942 22.0387 17.0363 21.8684 17.1383L20.4577 17.9906C20.0127 17.7655 19.5512 17.5747 19.0772 17.4197L18.6764 15.8166C18.6285 15.6237 18.5174 15.4523 18.3609 15.3298C18.2043 15.2073 18.0113 15.1407 17.8125 15.1406H14.25C14.0515 15.1406 13.8586 15.207 13.7021 15.3291C13.5456 15.4513 13.4343 15.6222 13.3861 15.8148L12.9853 17.418C12.5113 17.5729 12.0498 17.7637 11.6048 17.9888L10.1914 17.141C10.0211 17.039 9.82159 16.9968 9.62457 17.0212C9.42755 17.0456 9.24431 17.135 9.10397 17.2755L6.58528 19.7915C6.44487 19.9318 6.35538 20.115 6.33102 20.3121C6.30665 20.5091 6.34881 20.7086 6.4508 20.8789L7.30312 22.2923C7.07801 22.7375 6.88744 23.1993 6.73312 23.6737L5.13 24.0736C4.93691 24.1213 4.76536 24.2323 4.64268 24.3889C4.52001 24.5455 4.45328 24.7386 4.45312 24.9375V28.5C4.45318 28.6987 4.51966 28.8916 4.64198 29.0481C4.76431 29.2047 4.93546 29.3158 5.12822 29.3639L6.73134 29.7638C6.88631 30.2382 7.07746 30.7 7.30312 31.1452L6.45525 32.5586C6.35326 32.7289 6.3111 32.9284 6.33547 33.1254C6.35983 33.3225 6.44933 33.5057 6.58973 33.646L9.10842 36.1647C9.24877 36.3051 9.432 36.3946 9.62902 36.419C9.82604 36.4433 10.0256 36.4012 10.1959 36.2992L11.6093 35.4513C12.0542 35.6764 12.5157 35.8669 12.9898 36.0213L13.3905 37.6245C13.4389 37.816 13.5496 37.986 13.7052 38.1077C13.8608 38.2294 14.0525 38.296 14.25 38.2969H17.8125C18.0112 38.2968 18.2041 38.2303 18.3606 38.108C18.5172 37.9857 18.6283 37.8145 18.6764 37.6218L19.0772 36.0187C19.5513 35.8643 20.0128 35.6737 20.4577 35.4487L21.8711 36.2965C22.0414 36.3985 22.2409 36.4407 22.4379 36.4163C22.635 36.3919 22.8182 36.3025 22.9585 36.162L25.4772 33.6434C25.6176 33.503 25.7071 33.3198 25.7315 33.1228C25.7558 32.9257 25.7137 32.7262 25.6117 32.5559L24.7638 31.1425C24.9889 30.6973 25.1794 30.2355 25.3338 29.7611L26.937 29.3612C27.1288 29.3128 27.299 29.2018 27.4208 29.0459C27.5425 28.8899 27.6089 28.6979 27.6094 28.5V24.9375C27.6093 24.7388 27.5428 24.5459 27.4205 24.3894C27.2982 24.2328 27.127 24.1217 26.9343 24.0736ZM25.8281 27.8044L24.4094 28.1607C24.2552 28.1993 24.1142 28.2785 24.001 28.39C23.8878 28.5015 23.8064 28.6413 23.7654 28.7948C23.5838 29.4701 23.3143 30.1187 22.9639 30.7239C22.8857 30.8619 22.8458 31.0183 22.8483 31.1769C22.8508 31.3355 22.8956 31.4906 22.9781 31.6261L23.7298 32.8783L22.1935 34.4146L20.9386 33.6656C20.8023 33.5837 20.6467 33.5398 20.4877 33.5384C20.3287 33.537 20.1723 33.5781 20.0346 33.6576C19.4295 34.0082 18.7809 34.2777 18.1055 34.4592C17.9521 34.5003 17.8126 34.5817 17.7012 34.6949C17.5899 34.8081 17.5108 34.9491 17.4723 35.1031L17.1178 36.5156H14.9447L14.5884 35.0969C14.5499 34.9428 14.4708 34.8019 14.3595 34.6887C14.2482 34.5755 14.1086 34.4941 13.9552 34.4529C13.2798 34.2715 12.6312 34.002 12.0261 33.6514C11.8884 33.5719 11.732 33.5308 11.573 33.5322C11.4141 33.5336 11.2584 33.5775 11.1221 33.6594L9.86991 34.4111L8.33536 32.8783L9.08437 31.6261C9.16627 31.4898 9.2102 31.3342 9.2116 31.1752C9.21301 31.0162 9.17185 30.8598 9.09239 30.7221C8.74196 30.1169 8.47247 29.4683 8.29083 28.793C8.24983 28.6395 8.1685 28.4997 8.05527 28.3882C7.94205 28.2767 7.80105 28.1975 7.64691 28.1589L6.23438 27.8044V25.6331L7.65314 25.2768C7.80739 25.2381 7.94846 25.1588 8.0617 25.0471C8.17493 24.9355 8.2562 24.7955 8.29706 24.6418C8.47882 23.9665 8.7483 23.318 9.09862 22.7127C9.17664 22.5748 9.21645 22.4186 9.21395 22.2601C9.21144 22.1017 9.16671 21.9468 9.08437 21.8114L8.33269 20.5592L9.86902 19.0238L11.1212 19.7745C11.2577 19.8565 11.4136 19.9003 11.5727 19.9016C11.7318 19.9028 11.8884 19.8614 12.0261 19.7817C12.6312 19.4328 13.2795 19.1648 13.9543 18.9846C14.1077 18.9434 14.2473 18.862 14.3586 18.7488C14.4699 18.6356 14.549 18.4947 14.5875 18.3406L14.9447 16.9219H17.1178L17.4741 18.3406C17.5126 18.4947 17.5917 18.6356 17.703 18.7488C17.8143 18.862 17.9539 18.9434 18.1073 18.9846C18.7821 19.1648 19.4304 19.4328 20.0355 19.7817C20.1732 19.8607 20.3296 19.9015 20.4884 19.8997C20.6472 19.898 20.8026 19.8539 20.9386 19.7719L22.1908 19.0211L23.7271 20.5565L22.9781 21.8114C22.8964 21.9476 22.8526 22.1031 22.8512 22.2619C22.8497 22.4206 22.8908 22.5769 22.9701 22.7145C23.3204 23.3197 23.5899 23.9683 23.7717 24.6436C23.8125 24.7973 23.8938 24.9372 24.007 25.0489C24.1203 25.1606 24.2613 25.2399 24.4156 25.2786L25.8344 25.6349L25.8281 27.8044Z" fill="#8133F1"/>
<path d="M16.0313 20.4844C14.7982 20.4844 13.5929 20.85 12.5676 21.5351C11.5424 22.2201 10.7433 23.1938 10.2714 24.333C9.79958 25.4721 9.67611 26.7257 9.91667 27.935C10.1572 29.1444 10.751 30.2552 11.6229 31.1271C12.4948 31.999 13.6056 32.5928 14.815 32.8333C16.0243 33.0739 17.2779 32.9504 18.417 32.4786C19.5562 32.0067 20.5299 31.2076 21.2149 30.1824C21.9 29.1571 22.2656 27.9518 22.2656 26.7188C22.2637 25.0659 21.6063 23.4812 20.4375 22.3125C19.2688 21.1437 17.6841 20.4863 16.0313 20.4844ZM16.0313 31.1719C15.1505 31.1719 14.2895 30.9107 13.5572 30.4214C12.8249 29.9321 12.2541 29.2366 11.9171 28.4229C11.5801 27.6092 11.4919 26.7138 11.6637 25.85C11.8355 24.9862 12.2596 24.1927 12.8824 23.5699C13.5052 22.9471 14.2987 22.523 15.1625 22.3512C16.0263 22.1794 16.9217 22.2676 17.7354 22.6046C18.5491 22.9416 19.2446 23.5124 19.7339 24.2447C20.2232 24.977 20.4844 25.838 20.4844 26.7188C20.483 27.8994 20.0133 29.0312 19.1785 29.866C18.3437 30.7008 17.2119 31.1705 16.0313 31.1719Z" fill="#8133F1"/>
<path d="M51.6562 16.0312H30.2812C30.045 16.0312 29.8185 16.1251 29.6515 16.2921C29.4845 16.4591 29.3906 16.6857 29.3906 16.9219V36.5156C29.3906 36.7518 29.4845 36.9784 29.6515 37.1454C29.8185 37.3124 30.045 37.4062 30.2812 37.4062H51.6562C51.8925 37.4062 52.119 37.3124 52.286 37.1454C52.453 36.9784 52.5469 36.7518 52.5469 36.5156V16.9219C52.5469 16.6857 52.453 16.4591 52.286 16.2921C52.119 16.1251 51.8925 16.0312 51.6562 16.0312ZM50.7656 35.625H31.1719V17.8125H50.7656V35.625Z" fill="#8133F1"/>
<path d="M36.5156 20.4844H45.4219V22.2656H36.5156V20.4844Z" fill="#8133F1"/>
<path d="M47.2031 20.4844H48.9844V22.2656H47.2031V20.4844Z" fill="#8133F1"/>
<path d="M32.9531 24.0469H48.9844V25.8281H32.9531V24.0469Z" fill="#8133F1"/>
<path d="M32.9531 27.6094H48.9844V29.3906H32.9531V27.6094Z" fill="#8133F1"/>
<path d="M32.9531 31.1719H48.9844V32.9531H32.9531V31.1719Z" fill="#8133F1"/>
<path d="M16.9219 24.0469H15.1406V26.7188C15.1406 26.955 15.2345 27.1815 15.4015 27.3485C15.5685 27.5155 15.795 27.6094 16.0312 27.6094H18.7031V25.8281H16.9219V24.0469Z" fill="#8133F1"/>
<path d="M26.7188 40.0781H5.34375C5.10754 40.0781 4.88101 40.172 4.71398 40.339C4.54696 40.506 4.45312 40.7325 4.45312 40.9688V49.875C4.45312 50.1112 4.54696 50.3377 4.71398 50.5048C4.88101 50.6718 5.10754 50.7656 5.34375 50.7656H26.7188C26.955 50.7656 27.1815 50.6718 27.3485 50.5048C27.5155 50.3377 27.6094 50.1112 27.6094 49.875V40.9688C27.6094 40.7325 27.5155 40.506 27.3485 40.339C27.1815 40.172 26.955 40.0781 26.7188 40.0781ZM25.8281 48.9844H6.23438V41.8594H25.8281V48.9844Z" fill="#8133F1"/>
<path d="M29.3906 41.8594H52.5469V43.6406H29.3906V41.8594Z" fill="#8133F1"/>
<path d="M29.3906 45.4219H52.5469V47.2031H29.3906V45.4219Z" fill="#8133F1"/>
<path d="M29.3906 48.9844H52.5469V50.7656H29.3906V48.9844Z" fill="#8133F1"/>
</g>
<defs>
<clipPath id="clip0_1_9309">
<rect width="57" height="57" fill="white"/>
</clipPath>
</defs>
</svg>
