<svg width="57" height="57" viewBox="0 0 57 57" fill="none" xmlns="http://www.w3.org/2000/svg">
<path d="M52.5368 7.66797H50.1331V9.27041H52.5368C52.7492 9.27062 52.9529 9.35511 53.1031 9.50532C53.2533 9.65553 53.3378 9.85921 53.338 10.0716V38.1145H3.66202V10.0717C3.66223 9.85924 3.74671 9.65557 3.89692 9.50535C4.04714 9.35514 4.25081 9.27066 4.46324 9.27045H6.86692V7.66797H4.46324C3.82596 7.66866 3.21497 7.92214 2.76435 8.37277C2.31372 8.8234 2.06026 9.43439 2.05957 10.0717V42.9219C2.06027 43.5592 2.31373 44.1701 2.76436 44.6208C3.21498 45.0714 3.82596 45.3249 4.46324 45.3256H22.8914C22.8914 48.1197 22.9681 48.1407 22.5581 48.9925C22.3751 49.3525 22.2433 49.7364 22.1665 50.1329H20.1364C19.6002 50.1323 19.0793 50.3113 18.6566 50.6413C18.234 50.9713 17.9341 51.4333 17.8047 51.9537L17.3071 53.9446C17.2776 54.0627 17.2754 54.186 17.3006 54.305C17.3259 54.4241 17.3779 54.5359 17.4528 54.6319C17.5277 54.7278 17.6235 54.8055 17.7328 54.8589C17.8422 54.9123 17.9623 54.9402 18.084 54.9403H38.9159C39.0377 54.9402 39.1578 54.9123 39.2671 54.8589C39.3765 54.8055 39.4723 54.7278 39.5472 54.6319C39.6221 54.5359 39.6741 54.4241 39.6993 54.305C39.7246 54.186 39.7224 54.0627 39.6929 53.9446L39.1953 51.9537C39.0659 51.4333 38.7659 50.9713 38.3433 50.6413C37.9207 50.3113 37.3998 50.1323 36.8636 50.1329H34.8336C34.6049 48.9047 34.1086 48.8532 34.1086 47.5993V45.3256H52.5367C53.174 45.3249 53.785 45.0714 54.2356 44.6208C54.6863 44.1702 54.9397 43.5592 54.9404 42.9219V10.0717C54.9397 9.43439 54.6863 8.8234 54.2357 8.37277C53.785 7.92214 53.174 7.66866 52.5368 7.66797ZM37.6413 52.3425L37.8901 53.3378H19.1099L19.3587 52.3425C19.4019 52.169 19.502 52.015 19.643 51.905C19.7839 51.7949 19.9576 51.7352 20.1364 51.7354H36.8636C37.0424 51.7352 37.2161 51.7949 37.357 51.905C37.498 52.015 37.5981 52.169 37.6413 52.3425ZM33.1908 50.1329H23.8092C24.0103 49.5418 24.4939 49.0293 24.4939 47.5993V45.3256H32.5062V47.5993C32.5061 49.0277 32.9937 49.5536 33.1908 50.1329ZM53.338 42.9219C53.3378 43.1343 53.2533 43.338 53.1031 43.4882C52.9529 43.6384 52.7492 43.7229 52.5368 43.7231H4.46324C4.25081 43.7229 4.04714 43.6384 3.89693 43.4882C3.74671 43.338 3.66223 43.1343 3.66202 42.9219V39.717H53.338V42.9219Z" fill="#8133F1"/>
<path d="M5.26465 40.9189H6.86711V42.5214H5.26465V40.9189Z" fill="#8133F1"/>
<path d="M8.46973 40.9189H10.0722V42.5214H8.46973V40.9189Z" fill="#8133F1"/>
<path d="M11.6738 40.9189H13.2763V42.5214H11.6738V40.9189Z" fill="#8133F1"/>
<path d="M12.4758 35.711H44.5248C45.587 35.7098 46.6052 35.2873 47.3562 34.5363C48.1073 33.7853 48.5297 32.767 48.531 31.7049V6.06569C48.5297 5.00358 48.1073 3.98534 47.3562 3.23431C46.6052 2.48329 45.587 2.06082 44.5248 2.05957H12.4758C11.4137 2.06082 10.3955 2.48329 9.64447 3.23431C8.89345 3.98534 8.47097 5.00358 8.46973 6.06569V31.7049C8.47097 32.767 8.89345 33.7853 9.64447 34.5363C10.3955 35.2873 11.4137 35.7098 12.4758 35.711ZM44.5248 34.1086H12.4758C11.8386 34.1079 11.2276 33.8544 10.777 33.4038C10.3264 32.9532 10.0729 32.3422 10.0722 31.7049V10.0719H46.9285V31.7049C46.9278 32.3422 46.6743 32.9532 46.2237 33.4038C45.7731 33.8544 45.1621 34.1079 44.5248 34.1086ZM12.4758 3.66202H44.5248C45.1621 3.66272 45.7731 3.91619 46.2237 4.36682C46.6743 4.81744 46.9278 5.42842 46.9285 6.06569V8.46938H10.0722V6.06569C10.0729 5.42842 10.3264 4.81744 10.777 4.36682C11.2276 3.91619 11.8386 3.66272 12.4758 3.66202Z" fill="#8133F1"/>
<path d="M11.6738 5.26465H13.2763V6.86711H11.6738V5.26465Z" fill="#8133F1"/>
<path d="M14.8789 5.26465H16.4814V6.86711H14.8789V5.26465Z" fill="#8133F1"/>
<path d="M18.084 5.26465H19.6864V6.86711H18.084V5.26465Z" fill="#8133F1"/>
<path d="M28.5 5.26465H45.3257V6.86711H28.5V5.26465Z" fill="#8133F1"/>
<path d="M22.0898 11.6743C20.0297 11.6743 18.0159 12.2852 16.303 13.4297C14.5901 14.5742 13.2551 16.201 12.4667 18.1042C11.6783 20.0075 11.4721 22.1018 11.874 24.1223C12.2759 26.1428 13.2679 27.9987 14.7246 29.4554C16.1813 30.9121 18.0372 31.9041 20.0577 32.306C22.0782 32.7079 24.1725 32.5017 26.0758 31.7133C27.979 30.9249 29.6058 29.5899 30.7503 27.877C31.8948 26.1641 32.5057 24.1503 32.5057 22.0902C32.5026 19.3287 31.4042 16.6812 29.4515 14.7285C27.4988 12.7758 24.8513 11.6774 22.0898 11.6743ZM30.8626 21.289H28.4755C28.3534 18.5741 27.6193 16.1841 26.4879 14.464C27.7099 15.1687 28.7449 16.1563 29.5062 17.3439C30.2674 18.5315 30.7326 19.8844 30.8626 21.289ZM21.2885 13.4152V21.289H17.3053C17.5093 17.3608 19.1903 14.0936 21.2885 13.4152ZM21.2885 22.8915V30.7653C19.1903 30.0869 17.5093 26.8197 17.3053 22.8915H21.2885ZM22.891 30.7653V22.8915H26.8742C26.6702 26.8197 24.9892 30.0869 22.891 30.7653ZM22.891 21.2891V13.4152C24.9892 14.0936 26.6702 17.3608 26.8742 21.289L22.891 21.2891ZM17.6916 14.4641C16.5602 16.1842 15.8261 18.5742 15.704 21.2891H13.3169C13.4469 19.8845 13.9121 18.5316 14.6733 17.344C15.4346 16.1564 16.4696 15.1688 17.6916 14.4641ZM13.3169 22.8915H15.704C15.8261 25.6064 16.5602 27.9964 17.6916 29.7165C16.4696 29.0118 15.4346 28.0242 14.6733 26.8366C13.9121 25.649 13.4469 24.2961 13.3169 22.8915ZM26.4879 29.7165C27.6193 27.9963 28.3534 25.6064 28.4755 22.8915H30.8626C30.7325 24.2961 30.2674 25.649 29.5061 26.8366C28.7449 28.0242 27.7098 29.0118 26.4879 29.7165Z" fill="#8133F1"/>
<path d="M44.5243 11.6743H34.9096C34.8044 11.6743 34.7002 11.695 34.603 11.7352C34.5058 11.7755 34.4174 11.8345 34.343 11.9089C34.2686 11.9833 34.2096 12.0717 34.1693 12.1689C34.1291 12.2661 34.1084 12.3703 34.1084 12.4755V18.8853C34.1084 18.9906 34.1291 19.0948 34.1693 19.192C34.2096 19.2892 34.2686 19.3776 34.343 19.452C34.4174 19.5264 34.5058 19.5854 34.603 19.6256C34.7002 19.6659 34.8044 19.6866 34.9096 19.6866H44.5243C44.6295 19.6866 44.7337 19.6659 44.831 19.6256C44.9282 19.5854 45.0165 19.5264 45.0909 19.452C45.1653 19.3776 45.2244 19.2892 45.2646 19.192C45.3049 19.0948 45.3256 18.9906 45.3256 18.8853V12.4755C45.3256 12.3703 45.3049 12.2661 45.2646 12.1689C45.2244 12.0717 45.1653 11.9833 45.0909 11.9089C45.0165 11.8345 44.9282 11.7755 44.831 11.7352C44.7338 11.695 44.6295 11.6743 44.5243 11.6743ZM43.7231 18.0841H35.7108V13.2768H43.7231V18.0841Z" fill="#8133F1"/>
<path d="M34.1084 21.2891H36.5121V22.8915H34.1084V21.2891Z" fill="#8133F1"/>
<path d="M38.1143 21.2891H45.3253V22.8915H38.1143V21.2891Z" fill="#8133F1"/>
<path d="M34.1084 24.4937H36.5121V26.0961H34.1084V24.4937Z" fill="#8133F1"/>
<path d="M38.1143 24.4937H45.3253V26.0961H38.1143V24.4937Z" fill="#8133F1"/>
<path d="M34.1084 27.6987H36.5121V29.3012H34.1084V27.6987Z" fill="#8133F1"/>
<path d="M38.1143 27.6987H45.3253V29.3012H38.1143V27.6987Z" fill="#8133F1"/>
<path d="M34.1084 30.9038H36.5121V32.5063H34.1084V30.9038Z" fill="#8133F1"/>
<path d="M38.1143 30.9038H45.3253V32.5063H38.1143V30.9038Z" fill="#8133F1"/>
</svg>
