<svg width="128" height="128" viewBox="0 0 128 128" fill="none" xmlns="http://www.w3.org/2000/svg">
<path fill-rule="evenodd" clip-rule="evenodd" d="M123.741 46.4224C123.109 46.4224 122.503 46.6734 122.056 47.1203C121.609 47.5672 121.358 48.1733 121.358 48.8053C121.358 49.4373 121.609 50.0434 122.056 50.4903C122.503 50.9372 123.109 51.1883 123.741 51.1883C124.054 51.188 124.364 51.1259 124.653 51.0056C124.942 50.8853 125.205 50.7091 125.426 50.4872C125.646 50.2652 125.821 50.0018 125.94 49.7121C126.059 49.4224 126.119 49.1121 126.118 48.799C126.118 48.1686 125.867 47.5641 125.422 47.1184C124.976 46.6727 124.371 46.4224 123.741 46.4224ZM123.741 50.9014C123.465 50.9016 123.192 50.8473 122.937 50.7416C122.682 50.6359 122.451 50.481 122.256 50.2856C122.061 50.0903 121.907 49.8584 121.802 49.6033C121.698 49.3482 121.644 49.0748 121.645 48.799C121.645 48.5242 121.7 48.2521 121.805 47.9983C121.911 47.7445 122.065 47.514 122.26 47.32C122.455 47.126 122.686 46.9722 122.94 46.8676C123.194 46.7629 123.466 46.7093 123.741 46.7099C124.295 46.7099 124.826 46.93 125.218 47.3218C125.61 47.7136 125.83 48.2449 125.83 48.799C125.831 49.0744 125.778 49.3473 125.674 49.6021C125.57 49.857 125.416 50.0887 125.222 50.284C125.028 50.4794 124.797 50.6345 124.543 50.7404C124.289 50.8463 124.016 50.901 123.741 50.9014Z" fill="black"/>
<path fill-rule="evenodd" clip-rule="evenodd" d="M124.966 48.1753C124.966 47.9508 124.866 47.7138 124.666 47.6015C124.466 47.4833 124.242 47.4707 124.016 47.4707H122.856V50.1342H123.181V48.9051H123.78L124.54 50.1342H124.928L124.122 48.9051C124.597 48.8925 124.966 48.6992 124.966 48.1753ZM123.68 48.6494H123.181V47.7078H123.942C124.272 47.7078 124.634 47.7576 124.634 48.1693C124.635 48.7118 124.053 48.6494 123.68 48.6494ZM43.9571 88.1027L28.4283 80.5199C28.087 80.3433 27.911 79.8917 27.9176 79.5962L27.9588 75.41C27.9648 75.1152 28.0232 74.8124 28.4104 74.5348C30.0705 73.4763 35.2116 70.6309 40.5227 62.8794C47.5961 52.5554 40.5227 43.8815 29.4675 46.2429C19.6489 48.34 9.65288 53.6564 5.31729 56.547C1.45317 59.1228 1.98972 62.2353 1.88281 65.0263C2.0973 66.2063 2.52694 66.0994 3.49314 64.9187C10.6842 58.2642 21.6324 53.2194 23.6717 52.3608C25.711 51.5022 30.5413 48.6043 36.2302 49.8919C41.6947 51.1297 40.3666 58.5591 38.6985 61.6987C36.8737 65.1332 31.6682 70.1242 29.3068 71.3587C28.4097 71.8275 28.073 71.3587 28.073 70.607L28.4489 54.4532C28.4489 53.3801 27.9654 52.8967 26.8923 53.2725L25.1751 54.1312C23.9944 54.8291 24.0482 55.0974 23.9406 55.956L23.6803 74.5787C23.6717 74.9804 23.4844 75.3031 23.2633 75.3981L17.6614 78.549C16.3738 79.1932 16.6952 80.1593 17.6614 80.4814L22.1696 82.6276C23.2434 83.0566 23.5654 83.3787 23.5654 84.4518L23.4041 93.4683C27.4296 92.6634 27.6972 90.731 27.8047 89.4428V86.7056C27.9117 86.0614 28.2875 85.847 28.8241 85.9545L41.9185 92.2869C43.0992 92.8241 43.7433 92.6083 44.6019 91.1069C45.4599 89.6055 45.5675 88.8544 43.9571 88.1027ZM66.841 65.3543C65.0215 66.4048 64.1795 68.3711 64.8967 69.6122C65.6125 70.854 67.7774 71.0625 69.5982 70.0106C71.419 68.9594 72.2066 67.047 71.4894 65.8059C70.7736 64.5648 68.6619 64.3025 66.841 65.3543Z" fill="white"/>
<path fill-rule="evenodd" clip-rule="evenodd" d="M60.1269 66.6905C59.6322 67.2935 58.678 69.1329 58.1414 70.2598C57.6048 71.386 56.478 73.9353 55.3511 73.9353C54.1597 73.9353 54.009 70.9843 54.009 69.9105C54.009 68.8367 53.3649 68.676 53.0428 68.7298C52.7207 68.7836 51.8083 69.105 51.5401 70.2326C51.2718 71.3595 49.8228 76.2436 48.2125 76.2436C47.1932 76.2436 46.4415 73.2919 46.3884 72.3795C46.3346 71.4677 45.9049 70.716 44.9925 70.716C44.3484 70.716 43.5435 71.0381 43.2215 71.4139C42.8994 71.7898 42.8463 72.3795 41.1284 72.0043C39.5719 71.9505 38.0691 72.756 36.245 75.8146C35.1466 77.656 34.2541 81.0878 35.9229 82.4691C37.4794 83.7567 40.216 81.4491 41.0215 80.4829C41.8263 79.5174 42.5242 78.8194 42.8463 78.2835C43.1677 77.7463 43.4904 77.8001 43.6511 78.3367C43.8118 78.8739 44.7242 80.9663 45.9056 80.9132C47.0863 80.8594 48.589 79.947 50.36 76.8339C50.6821 76.1898 51.1649 76.2436 51.2724 76.7801C51.38 77.3174 52.0773 79.0884 53.258 79.0884C54.3849 79.0884 55.6386 77.2981 56.2635 76.2442C56.6924 75.5198 57.3366 75.8691 57.3366 76.5663C57.3366 77.2636 57.0145 93.7394 57.0145 93.7394C57.0145 94.4904 57.3093 94.7049 57.8459 94.7049H60.1807C60.6097 94.7049 60.9855 94.3297 60.9855 93.7394L61.4683 67.0398C61.469 66.395 60.7445 65.9395 60.1269 66.6905ZM41.8808 77.2091C41.3973 78.0146 40.1097 80.1608 38.9828 79.7856C38.3925 79.4636 39.1794 77.3167 39.5732 76.5656C40.1635 75.4388 41.894 73.6438 42.6856 74.0967C43.4373 74.5257 42.3635 76.4043 41.8808 77.2091ZM123.651 60.7486C123.438 60.9365 123.088 61.2586 122.31 60.9093C120.968 60.3727 120.861 57.8507 120.164 55.5424C119.536 53.4693 118.026 53.5994 117.48 54.5497L115.844 57.1793C115.548 57.7159 114.905 58.9503 114.26 58.9503C113.509 58.9503 113.845 57.8766 113.885 56.8035C113.911 56.079 113.455 55.1672 112.704 55.1672C111.845 55.1672 110.934 56.4814 110.236 57.9848C109.748 59.036 108.491 63.0562 106.907 63.0562C105.888 63.0562 105.78 60.1045 105.727 59.1921C105.674 58.2796 105.352 57.1528 104.44 57.1528C103.822 57.1528 103.42 57.4741 103.098 57.85C102.776 58.2259 102.723 58.5473 101.596 58.3866C100.039 58.3328 97.4632 59.7824 95.6384 62.841C94.5401 64.6824 93.218 68.5439 94.8874 69.9251C96.4439 71.2127 99.2336 68.2072 100.039 67.2417C100.843 66.2755 101.541 65.5776 101.864 65.0417C102.185 64.5045 102.507 64.5583 102.668 65.0955C102.829 65.632 103.742 67.7251 104.923 67.6713C106.104 67.6175 107.069 67.3493 108.84 64.2362C109.162 63.5927 109.752 63.5124 109.86 64.0489C109.967 64.5855 110.075 66.0079 111.202 66.0079C113.133 66.0079 115.322 61.3071 115.871 60.2114C116.354 59.2452 117.131 59.5135 117.4 60.2379C117.784 61.2752 118.124 64.612 120.217 64.612C122.31 64.612 123.732 62.3848 124.161 61.6869C124.645 60.9903 124.393 60.0998 123.651 60.7486ZM100.897 63.9686C100.414 64.7734 99.3405 66.5444 98.2136 66.1686C97.6233 65.8465 98.3564 64.2906 98.7508 63.5389C99.3412 62.412 101.071 60.5912 101.864 61.0434C102.614 61.4731 101.38 63.1631 100.897 63.9686ZM90.5292 61.1557C90.5292 61.1557 85.9678 57.8281 84.6796 56.326C83.8143 55.3166 84.4113 54.555 84.9479 54.126C88.1672 51.9791 93.212 48.6516 95.1982 43.4998C97.1113 38.5341 94.1244 34.2157 91.9775 33.5178C89.0358 32.5622 82.8003 34.484 79.6872 40.2799C77.6718 44.0337 76.7369 45.2709 76.4679 55.4674C76.4161 57.3984 76.3603 59.5998 76.3603 62.0149C76.3603 64.4301 76.0921 70.977 75.8231 72.2108C74.8038 75.1087 77.8631 73.3915 79.2576 72.2652C80.6534 71.1377 80.5452 69.4477 80.5452 68.7232C80.5452 67.8101 80.5996 51.7108 81.0824 48.115C81.3832 45.8785 81.7272 41.7288 84.0872 38.133C86.4493 34.5371 88.8638 35.9868 89.5086 36.5764C90.152 37.1668 91.0651 38.6695 90.581 41.7288C89.8313 46.4761 84.3555 51.6571 82.9597 53.2667C81.5652 54.8764 81.8872 56.2722 82.6927 57.3991C83.2645 58.2006 84.6783 59.7605 86.1272 61.2094C87.5762 62.6584 87.4148 63.9467 87.201 64.9129C86.4486 67.8101 78.6135 75.6459 78.6135 75.6459C76.9493 77.417 78.6666 80.3149 79.2569 81.2804C79.8486 82.2466 80.599 81.9252 81.0817 81.1197C83.0141 77.5245 91.3321 68.8301 91.3321 68.8301C93.7499 65.7708 92.7292 62.8191 90.5292 61.1557Z" fill="white"/>
</svg>
