<svg width="68" height="60" viewBox="0 0 68 60" fill="none" xmlns="http://www.w3.org/2000/svg">
<path d="M39.7777 29.9457C39.7777 26.7183 37.0793 24.1016 33.7502 24.1016C30.4215 24.1016 27.7227 26.7183 27.7227 29.9457C27.7227 33.1736 30.4215 35.7901 33.7502 35.7901C37.0793 35.7901 39.7777 33.1736 39.7777 29.9457Z" fill="#53C1DE"/>
<path fill-rule="evenodd" clip-rule="evenodd" d="M53.3259 19.0958C54.5987 14.0808 56.1987 4.78083 50.5584 1.62786C44.9444 -1.51137 37.6389 4.50396 33.7813 8.11465C29.9349 4.53994 22.4242 -1.44967 16.7887 1.71331C11.1769 4.86306 12.9074 14.0088 14.2085 19.0553C8.9737 20.4969 0 23.6019 0 29.9458C0 36.2716 8.96436 39.6498 14.1682 41.09C12.8623 46.1644 11.2184 55.1795 16.8374 58.3223C22.4939 61.4847 29.9813 55.6376 33.8747 51.9874C37.757 55.6194 44.9924 61.5047 50.6075 58.3531C56.2401 55.1917 54.7731 46.0164 53.4719 40.9406C58.5164 39.4972 67.5 36.1927 67.5 29.9458C67.5 23.6629 58.4782 20.5327 53.3259 19.0958ZM52.6865 38.2507C51.8321 35.6286 50.679 32.8402 49.2685 29.9597C50.6149 27.1472 51.7232 24.3948 52.5537 21.7895C56.3308 22.8513 64.6166 25.2779 64.6166 29.9458C64.6166 34.6575 56.6654 37.1071 52.6865 38.2507ZM49.1625 55.9335C44.973 58.2847 38.7497 52.6566 35.8825 49.982C37.7847 47.9649 39.6855 45.6199 41.5406 43.016C44.804 42.7354 47.8867 42.2764 50.6826 41.6498C51.5984 45.2401 53.3704 53.5717 49.1625 55.9335ZM18.2781 55.9C14.0882 53.5575 16.0033 45.5128 16.964 41.7749C19.7288 42.368 22.7894 42.7946 26.0604 43.0518C27.9277 45.5997 29.8836 47.9417 31.8546 49.9928C29.4194 52.2768 22.4876 58.2532 18.2781 55.9ZM2.88335 29.9458C2.88335 25.2165 11.1197 22.8074 14.9828 21.7483C15.8276 24.4121 16.9356 27.1974 18.2728 30.014C16.9183 32.8723 15.7945 35.7017 14.9419 38.397C11.2583 37.3746 2.88335 34.678 2.88335 29.9458ZM18.2333 4.13296C22.4404 1.77186 28.9681 7.52211 31.7608 10.1103C29.7999 12.152 27.862 14.4763 26.0107 17.0096C22.8361 17.2949 19.7972 17.753 17.0035 18.3668C15.9553 14.2966 14.0308 6.49152 18.2333 4.13296ZM43.6034 20.0485C45.7571 20.3119 47.8206 20.6625 49.7581 21.0913C49.1764 22.899 48.4515 24.7892 47.5976 26.7269C46.3599 24.4499 45.0313 22.2186 43.6034 20.0485ZM33.7822 12.1082C35.1121 13.5052 36.4441 15.0652 37.7546 16.7576C35.0966 16.6357 32.4344 16.6352 29.7765 16.7558C31.088 15.0791 32.4315 13.5214 33.7822 12.1082ZM19.9271 26.7249C19.0874 24.7939 18.369 22.8954 17.7822 21.0619C19.7082 20.644 21.762 20.3025 23.9018 20.0433C22.4699 22.2087 21.1435 24.4391 19.9271 26.7249ZM23.9632 40.0478C21.7528 39.8086 19.6678 39.4844 17.7425 39.0781C18.3385 37.2124 19.0728 35.2729 19.9304 33.3003C21.1635 35.6099 22.5101 37.8619 23.9632 40.0478ZM33.8621 47.9809C32.4954 46.551 31.1321 44.9695 29.8008 43.2685C32.4738 43.3702 35.152 43.3704 37.8248 43.2547C36.5103 44.9868 35.183 46.5706 33.8621 47.9809ZM47.6251 33.1999C48.5273 35.1939 49.2878 37.1228 49.8919 38.957C47.9347 39.3901 45.8217 39.7389 43.5953 39.9979C45.0337 37.7866 46.3835 35.5206 47.6251 33.1999ZM39.9314 40.3367C35.8427 40.62 31.7286 40.6168 27.6385 40.3599C25.3145 37.0684 23.2456 33.6067 21.4598 30.013C23.2371 26.4268 25.2909 22.9719 27.6039 19.6855C31.6969 19.3856 35.8151 19.3847 39.908 19.6873C42.2012 22.9735 44.2519 26.4193 46.0703 29.9732C44.2735 33.5577 42.2089 37.0195 39.9314 40.3367ZM49.1182 4.04985C53.3263 6.40321 51.4532 14.7613 50.5339 18.3958C47.7335 17.7692 44.6924 17.303 41.5087 17.0132C39.6538 14.4526 37.732 12.1242 35.8029 10.1088C38.6314 7.46492 44.9507 1.7195 49.1182 4.04985Z" fill="#53C1DE"/>
</svg>
