<svg width="128" height="128" viewBox="0 0 128 128" fill="none" xmlns="http://www.w3.org/2000/svg">
<path fill-rule="evenodd" clip-rule="evenodd" d="M98.9722 65.7118C97.9682 71.1703 94.1618 73.0356 90.7406 73.0356H72.0887V56.3486C72.0887 55.1972 72.3962 55.0172 73.3883 54.3844L66.3766 54.3107C66.7524 54.4946 67.8016 55.0245 67.8016 56.257L67.7784 72.3682C67.7784 73.7269 67.2079 74.2103 66.3766 74.5105L90.9113 74.4985C97.2729 74.5218 99.862 72.08 101.709 69.892C103.727 67.52 104.798 63.1432 102.506 59.378C100.864 56.6601 97.763 54.3684 94.2289 53.8153C93.4081 53.6891 92.3702 53.4819 91.0826 53.4819C89.805 53.4819 88.6429 53.632 87.7418 53.8153C84.8232 54.5066 81.1066 56.3951 79.4072 59.5042C77.6522 62.7289 78.5294 66.2297 79.8302 68.1867C81.0043 69.9949 83.8092 72.3676 87.5718 72.4937L87.6847 72.4479C85.2111 71.1696 83.9573 68.8434 83.193 65.7111C82.6226 63.3159 83.0336 59.7459 85.1188 57.5001C86.67 55.8533 88.9736 54.9555 91.0819 54.9322C93.2142 54.9555 95.4136 55.7497 96.9535 57.3965C99.0526 59.6423 99.4052 63.4427 98.9722 65.7118ZM24.1601 72.9081L17.9121 64.9734C24.8441 63.8684 24.1601 54.1599 15.9285 54.1599H1.88184C2.8394 54.4939 3.47822 54.9774 3.47822 55.9104V72.3888C3.48951 73.1611 2.95362 74.0476 2.23511 74.4965H8.9168C8.1983 74.128 7.49175 73.0801 7.49175 72.4466V65.308H13.2152L20.1014 74.5184L25.9956 74.5078C25.3687 74.2083 24.7418 73.6565 24.1601 72.9081ZM13.2013 63.8332H7.48909L7.46585 55.6574L14.2611 55.6341C19.1757 55.6567 20.3498 63.7415 13.2013 63.8332ZM49.7626 56.4117C49.2613 55.3061 49.8536 54.6726 50.7202 54.3047H42.8532C43.6746 54.9495 44.6096 55.4216 44.9742 56.6654L53.8559 74.5032H55.931L64.243 56.0664C64.7211 54.9721 65.1892 54.7071 65.668 54.3047H61.0389C61.8829 54.5464 62.5669 55.2835 62.031 56.4695L55.931 70.0009L49.7626 56.4117ZM107.055 72.183C107.055 73.4035 106.006 74.2322 105.595 74.4972H110.076C109.666 74.2322 108.685 73.5874 108.685 72.3669V58.0871L122.674 74.4972H124.726V56.2338C124.726 55.0132 125.718 54.575 126.118 54.3107H121.659C122.059 54.5756 123.108 55.1972 123.108 56.4064L123.085 68.2219L111.011 54.3107H104.569C105.253 54.6566 107.055 55.4044 107.055 57.0745V72.183ZM42.393 54.3H26.1124C26.8874 54.7151 27.5946 55.0252 27.5946 56.2809L27.5833 72.4492C27.5833 73.5668 27.1271 74.0729 26.3521 74.4992H43.1918L44.7769 69.6164C43.9562 70.5839 42.0065 73.013 38.4492 73.0024L32.0305 72.9905V64.883H36.7047C38.1869 64.883 38.9618 65.7005 39.4526 66.4834V61.6704C38.7573 62.6611 38.1417 63.3517 36.6934 63.3517H32.0305V55.7165L38.6086 55.739C41.379 55.7623 42.565 57.524 43.1806 58.5606L42.393 54.3Z" fill="white"/>
</svg>
