<svg width="57" height="57" viewBox="0 0 57 57" fill="none" xmlns="http://www.w3.org/2000/svg">
<path d="M5.71891 8.52669C6.36567 8.52669 6.88997 8.00239 6.88997 7.35563C6.88997 6.70887 6.36567 6.18457 5.71891 6.18457C5.07215 6.18457 4.54785 6.70887 4.54785 7.35563C4.54785 8.00239 5.07215 8.52669 5.71891 8.52669Z" fill="#8133F1"/>
<path d="M10.172 8.52669C10.8188 8.52669 11.3431 8.00239 11.3431 7.35563C11.3431 6.70887 10.8188 6.18457 10.172 6.18457C9.52528 6.18457 9.00098 6.70887 9.00098 7.35563C9.00098 8.00239 9.52528 8.52669 10.172 8.52669Z" fill="#8133F1"/>
<path d="M14.6252 8.52669C15.2719 8.52669 15.7962 8.00239 15.7962 7.35563C15.7962 6.70887 15.2719 6.18457 14.6252 6.18457C13.9784 6.18457 13.4541 6.70887 13.4541 7.35563C13.4541 8.00239 13.9784 8.52669 14.6252 8.52669Z" fill="#8133F1"/>
<path d="M56.1176 49.4244C55.785 49.0936 55.3901 48.8496 54.9552 48.7032C54.9523 48.0842 54.7081 47.4788 54.2618 47.0325L49.0176 41.7883C50.8135 39.0982 51.778 35.9353 51.778 32.6212C51.778 28.198 50.06 24.044 46.9404 20.9244C43.8162 17.8 39.6622 16.0795 35.2437 16.0795C30.8252 16.0795 26.6711 17.8 23.5469 20.9244C20.4273 24.0439 18.7092 28.1979 18.7092 32.6212C18.7092 34.7178 19.0959 36.7537 19.8342 38.6478H2.9778C2.23146 38.6478 1.62428 38.0406 1.62428 37.2943V11.8358H49.3242V20.2199C49.3242 20.6684 49.6877 21.032 50.1363 21.032C50.5848 21.032 50.9484 20.6684 50.9484 20.2199V5.37917C50.9484 3.73719 49.6126 2.40137 47.9706 2.40137H16.8245C16.3759 2.40137 16.0123 2.76496 16.0123 3.21351C16.0123 3.66205 16.3759 4.02564 16.8245 4.02564H47.9706C48.717 4.02564 49.3242 4.63283 49.3242 5.37917V10.2115H1.62428V5.37917C1.62428 4.63283 2.23146 4.02564 2.9778 4.02564H12.6689C13.1175 4.02564 13.4811 3.66205 13.4811 3.21351C13.4811 2.76496 13.1175 2.40137 12.6689 2.40137H2.9778C1.33583 2.40137 0 3.73719 0 5.37917V37.2942C0 38.9361 1.33583 40.272 2.9778 40.272H20.5725C21.3419 41.746 22.3388 43.1097 23.5469 44.3177C26.6711 47.4421 30.8251 49.1627 35.2437 49.1627C38.4487 49.1627 41.5141 48.2566 44.1487 46.567L49.4379 51.8562C49.8842 52.3026 50.4896 52.5469 51.1086 52.5497C51.256 52.9874 51.5023 53.3845 51.8363 53.7185C53.0084 54.9346 55.1324 54.8866 56.2355 53.6012C57.2992 52.4202 57.2464 50.5463 56.1176 49.4244ZM24.6955 43.1694C21.8827 40.3566 20.3336 36.6105 20.3336 32.6212C20.3336 28.6318 21.8828 24.8858 24.6955 22.0729C27.513 19.2554 31.2589 17.7038 35.2437 17.7038C39.2284 17.7038 42.9744 19.2554 45.7919 22.0729C48.6047 24.8858 50.1538 28.6318 50.1538 32.6212C50.1538 36.6105 48.6046 40.3566 45.7919 43.1694C42.9744 45.9869 39.2284 47.5386 35.2437 47.5386C31.259 47.5386 27.5129 45.9869 24.6955 43.1694ZM55.0285 52.5144C54.515 53.1115 53.5287 53.1374 52.9847 52.5703C52.764 52.3495 52.6259 52.0692 52.5855 51.76C52.5214 51.1626 51.8832 50.7367 51.3062 50.9018C51.0453 50.9699 50.776 50.8975 50.5864 50.7079L45.4886 45.6101C46.4161 44.8772 47.2876 44.0225 48.039 43.1069L53.1132 48.1812C53.3027 48.3706 53.3752 48.6397 53.3072 48.9006C53.1425 49.4768 53.5665 50.1162 54.1636 50.1801C54.4721 50.22 54.7518 50.3571 54.9725 50.5765C55.4966 51.0973 55.5218 51.9668 55.0285 52.5144Z" fill="#8133F1"/>
<path d="M44.6297 23.2355C42.1226 20.7283 38.7892 19.3477 35.2437 19.3477C31.6981 19.3477 28.3647 20.7283 25.8576 23.2355C23.3505 25.7426 21.9697 29.076 21.9697 32.6215C21.9697 36.1671 23.3505 39.5004 25.8576 42.0076C27.3251 43.4751 29.0543 44.5508 30.9972 45.2046C31.4224 45.3478 31.8829 45.1191 32.026 44.694C32.1691 44.2689 31.9404 43.8082 31.5153 43.6652C29.812 43.0919 28.2949 42.1479 27.0062 40.8591C24.8058 38.6587 23.5941 35.7334 23.5941 32.6216C23.5941 29.5099 24.8059 26.5844 27.0062 24.3841C29.2065 22.1839 32.132 20.9722 35.2437 20.9722C38.3554 20.9722 41.2808 22.184 43.4812 24.3841C48.0234 28.9263 48.0234 36.317 43.4812 40.8591C41.2808 43.0594 38.3554 44.2711 35.2437 44.2711C34.7952 44.2711 34.4316 44.6347 34.4316 45.0833C34.4316 45.5318 34.7952 45.8954 35.2437 45.8954C38.7893 45.8954 42.1226 44.5147 44.6297 42.0076C49.8051 36.8321 49.8051 28.411 44.6297 23.2355Z" fill="#8133F1"/>
<path d="M36.4582 35.7973C36.4582 35.3488 36.0946 34.9852 35.646 34.9852H33.7815V33.4333H35.4486C35.8972 33.4333 36.2608 33.0697 36.2608 32.6211C36.2608 32.1726 35.8972 31.809 35.4486 31.809H33.7815V30.2571H35.646C36.0946 30.2571 36.4582 29.8935 36.4582 29.4449C36.4582 28.9964 36.0946 28.6328 35.646 28.6328H32.9694C32.5208 28.6328 32.1572 28.9964 32.1572 29.4449V35.7974C32.1572 36.246 32.5208 36.6096 32.9694 36.6096H35.646C36.0946 36.6095 36.4582 36.2459 36.4582 35.7973Z" fill="#8133F1"/>
<path d="M27.9418 35.0145C27.3076 35.0145 26.6974 34.759 26.3095 34.3309C26.0084 33.9986 25.4948 33.9733 25.1623 34.2745C24.8299 34.5757 24.8047 35.0893 25.1058 35.4217C25.7965 36.1838 26.8567 36.6388 27.9417 36.6388C29.298 36.6388 30.437 35.7729 30.6501 34.5799C30.8104 33.6817 30.4033 32.5086 28.7794 31.9097C27.9939 31.6199 27.2624 31.3044 27.0358 31.2052C26.8667 31.0683 26.8725 30.8781 26.8838 30.7988C26.8998 30.6877 26.9807 30.4161 27.3862 30.294C28.2828 30.0238 29.1154 30.6798 29.1405 30.6999C29.4837 30.9846 29.993 30.9392 30.2806 30.5973C30.5691 30.254 30.5248 29.7417 30.1815 29.453C30.1207 29.402 28.6747 28.2093 26.9177 28.7387C26.0286 29.0066 25.3996 29.7075 25.276 30.568C25.1539 31.4109 25.5515 32.2537 26.3024 32.657C26.3394 32.6736 27.2226 33.0667 28.2172 33.4335C28.4958 33.5363 29.1346 33.8258 29.051 34.2943C28.9881 34.6484 28.5558 35.0145 27.9418 35.0145Z" fill="#8133F1"/>
<path d="M45.6379 32.6212C45.6379 30.4059 43.8356 28.6035 41.6201 28.6035C39.4048 28.6035 37.6025 30.4058 37.6025 32.6212C37.6025 34.8366 39.4048 36.6388 41.6201 36.6388C43.8356 36.6388 45.6379 34.8366 45.6379 32.6212ZM39.2269 32.6212C39.2269 31.3016 40.3006 30.2278 41.6203 30.2278C42.9399 30.2278 44.0137 31.3014 44.0137 32.6212C44.0137 33.9409 42.9401 35.0146 41.6203 35.0146C40.3006 35.0146 39.2269 33.9409 39.2269 32.6212Z" fill="#8133F1"/>
<path d="M18.9329 21.3502C18.9329 17.0658 15.4472 13.5801 11.1627 13.5801C6.87826 13.5801 3.39258 17.0658 3.39258 21.3502C3.39258 25.6347 6.87826 29.1204 11.1627 29.1204C15.4472 29.1204 18.9329 25.6347 18.9329 21.3502ZM17.2533 20.5381H15.5069C15.4152 18.902 15.0479 17.3751 14.4486 16.1604C15.9489 17.1137 17.0092 18.6983 17.2533 20.5381ZM10.3506 15.5189V20.5381H8.44521C8.59728 18.0716 9.42678 16.2246 10.3506 15.5189ZM10.3506 22.1624V27.1815C9.42678 26.4758 8.59728 24.6287 8.44532 22.1624H10.3506ZM11.9749 27.1816V22.1624H13.8802C13.7283 24.6288 12.8987 26.4759 11.9749 27.1816ZM11.9749 20.5381V15.5189C12.8987 16.2246 13.7283 18.0716 13.8802 20.5381H11.9749ZM7.87687 16.1604C7.2776 17.3751 6.9101 18.902 6.81859 20.5381H5.07219C5.31633 18.6983 6.37662 17.1137 7.87687 16.1604ZM5.07219 22.1624H6.81859C6.91021 23.7984 7.2776 25.3253 7.87699 26.54C6.37662 25.5867 5.31633 24.0022 5.07219 22.1624ZM14.4486 26.54C15.0479 25.3253 15.4153 23.7984 15.5069 22.1624H17.2533C17.0092 24.0022 15.9489 25.5867 14.4486 26.54Z" fill="#8133F1"/>
<path d="M16.6081 32.8063C16.6081 32.3577 16.2445 31.9941 15.796 31.9941H5.07288C4.62434 31.9941 4.26074 32.3577 4.26074 32.8063C4.26074 33.2548 4.62434 33.6184 5.07288 33.6184H15.796C16.2444 33.6184 16.6081 33.2548 16.6081 32.8063Z" fill="#8133F1"/>
<path d="M5.07288 35.4688C4.62434 35.4688 4.26074 35.8323 4.26074 36.2809C4.26074 36.7294 4.62434 37.093 5.07288 37.093H8.36263C8.81117 37.093 9.17477 36.7294 9.17477 36.2809C9.17477 35.8323 8.81117 35.4688 8.36263 35.4688H5.07288Z" fill="#8133F1"/>
</svg>
