<svg width="57" height="57" viewBox="0 0 57 57" fill="none" xmlns="http://www.w3.org/2000/svg">
<g clip-path="url(#clip0_1_9240)">
<path d="M38.9009 52.3002C40.7007 52.3002 42.1647 50.836 42.1647 49.0364C42.1647 47.2367 40.7007 45.7725 38.9009 45.7725C37.1012 45.7725 35.6371 47.2367 35.6371 49.0364C35.637 50.836 37.1012 52.3002 38.9009 52.3002ZM38.9009 47.5537C39.7184 47.5537 40.3835 48.2188 40.3835 49.0364C40.3835 49.8539 39.7183 50.519 38.9009 50.519C38.0836 50.519 37.4184 49.8539 37.4184 49.0364C37.4183 48.2188 38.0835 47.5537 38.9009 47.5537ZM3.95983 49.0364C3.95983 48.5446 4.35861 48.1458 4.85046 48.1458H27.8306C28.3224 48.1458 28.7212 48.5446 28.7212 49.0364C28.7212 49.5282 28.3224 49.927 27.8306 49.927H4.85046C4.35861 49.927 3.95983 49.5282 3.95983 49.0364ZM38.9009 37.1205C40.7007 37.1205 42.1647 35.6563 42.1647 33.8567C42.1647 32.0571 40.7007 30.5929 38.9009 30.5929C37.1012 30.5929 35.6371 32.0571 35.6371 33.8567C35.6371 35.6563 37.1012 37.1205 38.9009 37.1205ZM38.9009 32.374C39.7184 32.374 40.3835 33.0391 40.3835 33.8566C40.3835 34.6741 39.7183 35.3391 38.9009 35.3391C38.0836 35.3391 37.4184 34.6741 37.4184 33.8566C37.4184 33.0391 38.0835 32.374 38.9009 32.374ZM3.95983 33.8567C3.95983 33.3649 4.35861 32.9661 4.85046 32.9661H27.8306C28.3224 32.9661 28.7212 33.3649 28.7212 33.8567C28.7212 34.3485 28.3224 34.7473 27.8306 34.7473H4.85046C4.35861 34.7473 3.95983 34.3485 3.95983 33.8567ZM28.7212 18.677C28.7212 19.1688 28.3224 19.5676 27.8306 19.5676H4.85046C4.35861 19.5676 3.95983 19.1688 3.95983 18.677C3.95983 18.1852 4.35861 17.7864 4.85046 17.7864H27.8306C28.3224 17.7864 28.7212 18.185 28.7212 18.677ZM51.5505 11.916L50.2353 11.7477C50.2316 11.7387 50.2279 11.7298 50.224 11.7209L51.035 10.6719C51.3091 10.3174 51.2772 9.81439 50.9602 9.49744L49.259 7.79612C48.9418 7.47928 48.4391 7.44722 48.0844 7.72131L47.0355 8.53233C47.0266 8.52855 47.0175 8.52488 47.0086 8.5212L46.8403 7.20597C46.7833 6.76144 46.405 6.42845 45.9568 6.42845H43.5509C43.1028 6.42845 42.7244 6.76144 42.6674 7.20597L42.4991 8.5212C42.4902 8.52488 42.4811 8.52855 42.4722 8.53233L41.4233 7.72131C41.0686 7.44722 40.5656 7.47928 40.2487 7.79612L38.5476 9.49744C38.2306 9.81439 38.1987 10.3174 38.4728 10.6719L39.2838 11.7209C39.28 11.7298 39.2763 11.7388 39.2726 11.7477L37.9573 11.916C37.5128 11.9729 37.1798 12.3512 37.1798 12.7994V15.2053C37.1798 15.6535 37.5128 16.0318 37.9573 16.0887L39.2726 16.2571C39.2762 16.2661 39.2799 16.275 39.2838 16.284L38.4728 17.3329C38.1987 17.6875 38.2307 18.1905 38.5476 18.5074L40.2488 20.2088C40.5657 20.5257 41.0687 20.5577 41.4234 20.2836L42.4723 19.4725C42.4813 19.4763 42.4903 19.48 42.4992 19.4837L42.6675 20.7989C42.7245 21.2434 43.1028 21.5764 43.551 21.5764H45.9569C46.405 21.5764 46.7834 21.2434 46.8404 20.7989L47.0087 19.4837C47.0177 19.48 47.0267 19.4763 47.0356 19.4725L48.0845 20.2836C48.4392 20.5577 48.9422 20.5256 49.2591 20.2088L50.9603 18.5074C51.2772 18.1905 51.3092 17.6875 51.0351 17.3329L50.2241 16.284C50.2279 16.275 50.2316 16.2661 50.2354 16.2571L51.5506 16.0887C51.9951 16.0318 52.3281 15.6535 52.3281 15.2053V12.7994C52.328 12.3512 51.995 11.9728 51.5505 11.916ZM50.5468 14.4215L49.4665 14.5597C49.117 14.6044 48.8267 14.8511 48.7261 15.1888C48.6452 15.4602 48.5361 15.7238 48.4017 15.9721C48.2338 16.2821 48.2647 16.6618 48.4803 16.9407L49.1464 17.8023L48.5538 18.3949L47.6923 17.7288C47.4132 17.5132 47.0335 17.4826 46.7236 17.6501C46.4753 17.7846 46.2116 17.8937 45.9403 17.9746C45.6027 18.0753 45.3561 18.3656 45.3113 18.7151L45.1732 19.7953H44.335L44.1968 18.7151C44.1521 18.3656 43.9056 18.0754 43.5679 17.9747C43.2963 17.8937 43.0327 17.7845 42.7845 17.6501C42.4748 17.4824 42.0947 17.5132 41.8158 17.7288L40.9544 18.3949L40.3618 17.8023L41.0279 16.9407C41.2435 16.6618 41.2743 16.282 41.1065 15.9721C40.9721 15.7238 40.8629 15.4602 40.7821 15.1888C40.6814 14.8511 40.3911 14.6044 40.0416 14.5597L38.9614 14.4215V13.5834L40.0416 13.4451C40.3912 13.4005 40.6814 13.1539 40.7821 12.8162C40.863 12.5447 40.9721 12.2812 41.1065 12.0329C41.2743 11.7229 41.2434 11.343 41.0279 11.0642L40.3618 10.2026L40.9544 9.60988L41.8158 10.276C42.0949 10.4915 42.4748 10.5222 42.7845 10.3547C43.0327 10.2203 43.2963 10.1111 43.5679 10.03C43.9056 9.92939 44.1521 9.63916 44.1968 9.2897L44.335 8.20948H45.1732L45.3113 9.2897C45.3561 9.63916 45.6026 9.92939 45.9402 10.03C46.2119 10.1111 46.4755 10.2203 46.7236 10.3547C47.0335 10.5223 47.4134 10.4915 47.6923 10.276L48.5538 9.60988L49.1464 10.2026L48.4803 11.0642C48.2646 11.343 48.2338 11.7229 48.4017 12.0329C48.5361 12.2811 48.6453 12.5447 48.7261 12.8162C48.8267 13.1539 49.1171 13.4005 49.4665 13.4451L50.5468 13.5834V14.4215ZM44.7539 10.6833C42.9238 10.6833 41.4349 12.1723 41.4349 14.0023C41.4349 15.8323 42.9238 17.3214 44.7539 17.3214C46.584 17.3214 48.0729 15.8323 48.0729 14.0023C48.0729 12.1723 46.584 10.6833 44.7539 10.6833ZM44.7539 15.5402C43.9059 15.5402 43.2161 14.8503 43.2161 14.0024C43.2161 13.1546 43.9059 12.4647 44.7539 12.4647C45.6019 12.4647 46.2917 13.1546 46.2917 14.0024C46.2917 14.8503 45.6019 15.5402 44.7539 15.5402ZM44.7539 1.75635C38.5204 1.75635 33.3601 6.43792 32.6036 12.4696H2.33767C1.04871 12.4696 0 13.5183 0 14.8072V22.5467C0 23.8357 1.04871 24.8844 2.33767 24.8844H5.85296V27.6494H2.33767C1.04871 27.6493 0 28.698 0 29.9869V37.7264C0 39.0154 1.04871 40.0641 2.33767 40.0641H5.85296V42.8291H2.33767C1.04871 42.829 0 43.8777 0 45.1667V52.9062C0 54.1951 1.04871 55.2438 2.33767 55.2438H43.3069C44.5958 55.2438 45.6445 54.1951 45.6445 52.9062V45.1667C45.6445 43.8778 44.5958 42.8291 43.3069 42.8291H39.7916V40.0641H43.3069C44.5958 40.0641 45.6445 39.0154 45.6445 37.7264V29.9869C45.6445 28.698 44.5958 27.6493 43.3069 27.6493H39.7916V25.1968C41.3093 25.8722 42.9884 26.2484 44.7539 26.2484C51.5064 26.2484 57 20.7548 57 14.0023C57 7.24995 51.5064 1.75635 44.7539 1.75635ZM1.78125 22.5467V14.8072C1.78125 14.5004 2.03085 14.2507 2.33767 14.2507H32.5109C32.5812 17.7599 34.1345 20.9115 36.569 23.1031H2.33767C2.03085 23.1031 1.78125 22.8535 1.78125 22.5467ZM43.8633 45.1667V52.9062C43.8633 53.213 43.6137 53.4626 43.3069 53.4626H2.33767C2.03085 53.4626 1.78125 53.213 1.78125 52.9062V45.1667C1.78125 44.8599 2.03085 44.6103 2.33767 44.6103H43.3069C43.6137 44.6102 43.8633 44.8599 43.8633 45.1667ZM38.0103 42.829H7.63421V40.064H38.0103V42.829ZM43.8633 29.9869V37.7264C43.8633 38.0332 43.6137 38.2829 43.3069 38.2829H2.33767C2.03085 38.2829 1.78125 38.0333 1.78125 37.7264V29.9869C1.78125 29.6801 2.03085 29.4305 2.33767 29.4305H43.3069C43.6137 29.4305 43.8633 29.6802 43.8633 29.9869ZM7.63421 27.6493V24.8843H38.0103V27.6493H7.63421ZM44.7539 24.4672C38.9835 24.4672 34.2891 19.7727 34.2891 14.0023C34.2891 8.23197 38.9835 3.53749 44.7539 3.53749C50.5243 3.53749 55.2188 8.23197 55.2188 14.0023C55.2188 19.7727 50.5243 24.4672 44.7539 24.4672Z" fill="#8133F1"/>
</g>
<defs>
<clipPath id="clip0_1_9240">
<rect width="57" height="57" fill="white"/>
</clipPath>
</defs>
</svg>
