<svg width="57" height="57" viewBox="0 0 57 57" fill="none" xmlns="http://www.w3.org/2000/svg">
<path fill-rule="evenodd" clip-rule="evenodd" d="M0.222656 15.1201C0.222656 14.659 0.596481 14.2852 1.05762 14.2852H48.3745C48.8357 14.2852 49.2095 14.659 49.2095 15.1201C49.2095 15.5813 48.8357 15.9551 48.3745 15.9551H1.05762C0.596481 15.9551 0.222656 15.5813 0.222656 15.1201Z" fill="#8133F1"/>
<path fill-rule="evenodd" clip-rule="evenodd" d="M10.8545 5.39941C10.8545 4.93828 11.2283 4.56445 11.6895 4.56445H47.4814C48.5574 4.56445 49.4297 5.43669 49.4297 6.5127V18.9425C49.4297 19.4036 49.0559 19.7774 48.5947 19.7774C48.1336 19.7774 47.7598 19.4036 47.7598 18.9425V6.5127C47.7598 6.35897 47.6352 6.23438 47.4814 6.23438H11.6895C11.2283 6.23438 10.8545 5.86055 10.8545 5.39941Z" fill="#8133F1"/>
<path fill-rule="evenodd" clip-rule="evenodd" d="M1.94824 6.23438C1.79451 6.23438 1.66992 6.35897 1.66992 6.5127V50.4873C1.66992 50.641 1.79451 50.7656 1.94824 50.7656H47.4814C47.6352 50.7656 47.7598 50.641 47.7598 50.4873V41.6431C47.7598 41.1819 48.1336 40.8081 48.5947 40.8081C49.0559 40.8081 49.4297 41.1819 49.4297 41.6431V50.4873C49.4297 51.5633 48.5574 52.4355 47.4814 52.4355H1.94824C0.872241 52.4355 0 51.5633 0 50.4873V6.5127C0 5.43669 0.872241 4.56445 1.94824 4.56445H7.9043C8.36543 4.56445 8.73926 4.93828 8.73926 5.39941C8.73926 5.86055 8.36543 6.23438 7.9043 6.23438H1.94824Z" fill="#8133F1"/>
<path fill-rule="evenodd" clip-rule="evenodd" d="M28.0488 9.4248C27.5877 9.4248 27.2139 9.79863 27.2139 10.2598C27.2139 10.7209 27.5877 11.0947 28.0488 11.0947C28.51 11.0947 28.8838 10.7209 28.8838 10.2598C28.8838 9.79863 28.51 9.4248 28.0488 9.4248ZM25.5439 10.2598C25.5439 8.87636 26.6654 7.75488 28.0488 7.75488C29.4322 7.75488 30.5537 8.87636 30.5537 10.2598C30.5537 11.6432 29.4322 12.7646 28.0488 12.7646C26.6654 12.7646 25.5439 11.6432 25.5439 10.2598Z" fill="#8133F1"/>
<path fill-rule="evenodd" clip-rule="evenodd" d="M35.0068 9.4248C34.5457 9.4248 34.1719 9.79863 34.1719 10.2598C34.1719 10.7209 34.5457 11.0947 35.0068 11.0947C35.468 11.0947 35.8418 10.7209 35.8418 10.2598C35.8418 9.79863 35.468 9.4248 35.0068 9.4248ZM32.502 10.2598C32.502 8.87636 33.6234 7.75488 35.0068 7.75488C36.3902 7.75488 37.5117 8.87636 37.5117 10.2598C37.5117 11.6432 36.3902 12.7646 35.0068 12.7646C33.6234 12.7646 32.502 11.6432 32.502 10.2598Z" fill="#8133F1"/>
<path fill-rule="evenodd" clip-rule="evenodd" d="M41.9648 9.4248C41.5037 9.4248 41.1299 9.79863 41.1299 10.2598C41.1299 10.7209 41.5037 11.0947 41.9648 11.0947C42.426 11.0947 42.7998 10.7209 42.7998 10.2598C42.7998 9.79863 42.426 9.4248 41.9648 9.4248ZM39.46 10.2598C39.46 8.87636 40.5814 7.75488 41.9648 7.75488C43.3483 7.75488 44.4697 8.87636 44.4697 10.2598C44.4697 11.6432 43.3483 12.7646 41.9648 12.7646C40.5814 12.7646 39.46 11.6432 39.46 10.2598Z" fill="#8133F1"/>
<path fill-rule="evenodd" clip-rule="evenodd" d="M25.3828 20.0391V40.6348H55.3301V38.1299C55.3301 37.6687 55.7039 37.2949 56.165 37.2949C56.6262 37.2949 57 37.6687 57 38.1299V40.8018C57 41.6318 56.3271 42.3047 55.4971 42.3047H25.2158C24.3857 42.3047 23.7129 41.6318 23.7129 40.8018V19.8721C23.7129 19.042 24.3857 18.3691 25.2158 18.3691H55.4971C56.3271 18.3691 57 19.042 57 19.8721V34.2902C57 34.7513 56.6262 35.1251 56.165 35.1251C55.7039 35.1251 55.3301 34.7513 55.3301 34.2902V20.0391H25.3828Z" fill="#8133F1"/>
<path fill-rule="evenodd" clip-rule="evenodd" d="M45.5911 31.2588C46.4077 30.6371 47.5462 30.6652 48.3311 31.3259L53.2839 35.4951C53.6367 35.792 53.6819 36.3188 53.385 36.6715C53.088 37.0243 52.5613 37.0696 52.2085 36.7726L47.2558 32.6035C47.2557 32.6035 47.2558 32.6035 47.2558 32.6035C47.0686 32.446 46.7973 32.4394 46.6028 32.5875L41.4785 36.4887C41.1116 36.768 40.5877 36.697 40.3084 36.3301C40.029 35.9632 40.1 35.4393 40.4669 35.16L45.5911 31.2588C45.5912 31.2588 45.5911 31.2589 45.5911 31.2588Z" fill="#8133F1"/>
<path fill-rule="evenodd" clip-rule="evenodd" d="M52.1078 35.5956C52.405 35.243 52.9318 35.1982 53.2843 35.4955L53.3632 35.5619C53.7157 35.8592 53.7605 36.386 53.4633 36.7385C53.166 37.091 52.6392 37.1359 52.2867 36.8386L52.2079 36.7721C51.8553 36.4749 51.8105 35.9481 52.1078 35.5956Z" fill="#8133F1"/>
<path fill-rule="evenodd" clip-rule="evenodd" d="M35.411 30.6713C35.223 30.4474 34.8878 30.4215 34.6676 30.6136L28.5743 35.9297C28.2268 36.2329 27.6994 36.1969 27.3962 35.8495C27.0931 35.502 27.129 34.9745 27.4765 34.6714L33.5696 29.3554C33.5696 29.3554 33.5697 29.3554 33.5696 29.3554C34.4941 28.5488 35.9005 28.6578 36.6897 29.5972C36.6896 29.5971 36.6897 29.5972 36.6897 29.5972L43.2856 37.448C43.5823 37.8011 43.5365 38.3278 43.1834 38.6244C42.8304 38.921 42.3037 38.8753 42.0071 38.5222L35.411 30.6713Z" fill="#8133F1"/>
<path fill-rule="evenodd" clip-rule="evenodd" d="M28.7227 23.3789V37.2949H51.9902V23.3789H28.7227ZM27.0527 23.2119C27.0527 22.3818 27.7256 21.709 28.5557 21.709H52.1572C52.9873 21.709 53.6602 22.3818 53.6602 23.2119V37.4619C53.6602 38.292 52.9873 38.9648 52.1572 38.9648H28.5557C27.7256 38.9648 27.0527 38.292 27.0527 37.4619V23.2119Z" fill="#8133F1"/>
<path fill-rule="evenodd" clip-rule="evenodd" d="M42.7686 26.9785C42.1844 26.9785 41.7109 27.452 41.7109 28.0361C41.7109 28.6202 42.1844 29.0938 42.7686 29.0938C43.3527 29.0938 43.8262 28.6202 43.8262 28.0361C43.8262 27.452 43.3527 26.9785 42.7686 26.9785ZM40.041 28.0361C40.041 26.5298 41.2622 25.3086 42.7686 25.3086C44.2749 25.3086 45.4961 26.5298 45.4961 28.0361C45.4961 29.5425 44.2749 30.7637 42.7686 30.7637C41.2622 30.7637 40.041 29.5425 40.041 28.0361Z" fill="#8133F1"/>
<path fill-rule="evenodd" clip-rule="evenodd" d="M17.7418 24.5696C18.0987 24.2776 18.6247 24.3302 18.9168 24.6871L20.9207 27.1363C21.1723 27.4439 21.1723 27.8862 20.9207 28.1938L18.9168 30.643C18.6247 30.9999 18.0987 31.0525 17.7418 30.7605C17.3849 30.4685 17.3323 29.9425 17.6243 29.5856L19.1956 27.6651L17.6243 25.7446C17.3323 25.3877 17.3849 24.8616 17.7418 24.5696Z" fill="#8133F1"/>
<path fill-rule="evenodd" clip-rule="evenodd" d="M14.4417 28.5C13.3829 28.5 12.5244 29.3584 12.5244 30.4173V34.0478C12.5244 34.509 12.1506 34.8828 11.6895 34.8828C11.2283 34.8828 10.8545 34.509 10.8545 34.0478V30.4173C10.8545 28.4361 12.4606 26.8301 14.4417 26.8301H19.2721C19.7333 26.8301 20.1071 27.2039 20.1071 27.665C20.1071 28.1262 19.7333 28.5 19.2721 28.5H14.4417Z" fill="#8133F1"/>
<path fill-rule="evenodd" clip-rule="evenodd" d="M6.3457 39.2988C6.06907 39.2988 5.84473 39.5232 5.84473 39.7998V43.1396C5.84473 43.4163 6.06907 43.6406 6.3457 43.6406H17.0332C17.3098 43.6406 17.5342 43.4163 17.5342 43.1396V39.7998C17.5342 39.5232 17.3098 39.2988 17.0332 39.2988H6.3457ZM4.1748 39.7998C4.1748 38.6009 5.1468 37.6289 6.3457 37.6289H17.0332C18.2321 37.6289 19.2041 38.6009 19.2041 39.7998V43.1396C19.2041 44.3386 18.2321 45.3105 17.0332 45.3105H6.3457C5.1468 45.3105 4.1748 44.3386 4.1748 43.1396V39.7998Z" fill="#8133F1"/>
<path fill-rule="evenodd" clip-rule="evenodd" d="M29.8789 45.4404C29.8789 44.9793 30.2527 44.6055 30.7139 44.6055H41.624C42.0852 44.6055 42.459 44.9793 42.459 45.4404C42.459 45.9016 42.0852 46.2754 41.624 46.2754H30.7139C30.2527 46.2754 29.8789 45.9016 29.8789 45.4404Z" fill="#8133F1"/>
<path fill-rule="evenodd" clip-rule="evenodd" d="M4.1748 19.2041C4.1748 18.743 4.54863 18.3691 5.00977 18.3691H7.9043C8.36543 18.3691 8.73926 18.743 8.73926 19.2041C8.73926 19.6652 8.36543 20.0391 7.9043 20.0391H5.00977C4.54863 20.0391 4.1748 19.6652 4.1748 19.2041Z" fill="#8133F1"/>
<path fill-rule="evenodd" clip-rule="evenodd" d="M4.1748 22.5439C4.1748 22.0828 4.54863 21.709 5.00977 21.709H7.9043C8.36543 21.709 8.73926 22.0828 8.73926 22.5439C8.73926 23.0051 8.36543 23.3789 7.9043 23.3789H5.00977C4.54863 23.3789 4.1748 23.0051 4.1748 22.5439Z" fill="#8133F1"/>
</svg>
