<svg width="128" height="128" viewBox="0 0 128 128" fill="none" xmlns="http://www.w3.org/2000/svg">
<g clip-path="url(#clip0_1_8554)">
<path d="M106.467 42.4624C107.578 42.4624 108.782 42.8942 109.646 43.7586L126.715 60.8897C128.428 62.6029 128.428 65.4734 126.715 67.1866L109.646 84.2712C108.782 85.1356 107.578 85.5674 106.498 85.5364H21.491C20.3949 85.5364 19.222 85.0588 18.4042 84.2403L1.33435 67.2169C-0.424639 65.4734 -0.455628 62.6332 1.30336 60.889L18.3577 43.7586C19.191 42.9407 20.3949 42.4624 21.491 42.4624H106.467ZM105.632 82.9751C106.651 82.9751 107.67 82.6039 108.441 81.8318L123.489 66.8006C124.223 66.0655 124.635 65.0692 124.635 64.0304C124.635 62.9916 124.223 61.9953 123.489 61.2602L108.441 46.1973C107.67 45.4408 106.62 45.0554 105.632 45.0244H22.0623C21.074 45.0244 20.0244 45.4414 19.284 46.1663L4.23658 61.2292C2.70867 62.7571 2.73966 65.2417 4.2669 66.7696L19.3143 81.8015C20.0547 82.5426 21.1043 82.9434 22.0616 82.9758L105.632 82.9751Z" fill="white"/>
<path d="M33.7603 76.6315C37.7418 76.6315 39.9643 72.8811 38.1278 69.5315C36.0906 65.8889 31.2138 61.2439 27.9727 57.3547C27.71 57.0771 27.803 56.5213 28.544 56.5213H35.2573C35.9673 56.4903 36.2449 56.2128 36.2449 55.5492V52.4159C36.2139 51.8446 35.7666 51.3353 35.1643 51.3353H23.6665C19.6999 51.3353 18.6819 56.0888 19.9161 58.2803C22.1696 62.2935 27.4634 67.4788 29.979 70.6424C30.1952 70.9665 30.0403 71.4145 29.4697 71.4145H21.8921C21.748 71.4115 21.6047 71.4372 21.4706 71.4901C21.3365 71.5429 21.2143 71.6218 21.1109 71.7223C21.0076 71.8228 20.9252 71.9427 20.8686 72.0753C20.812 72.2078 20.7823 72.3503 20.7811 72.4944V75.6425C20.8121 76.2751 21.1207 76.5991 21.7688 76.6308L33.7603 76.6315ZM47.0023 75.5819V66.1058H52.1876V75.5819C52.1876 76.1222 52.8202 76.6315 53.2372 76.6315H57.852C58.4233 76.6315 58.9326 76.2145 58.9326 75.5819L58.9016 52.4166C58.9016 51.8143 58.5155 51.3057 57.7907 51.3057H53.3915C52.6046 51.3367 52.2186 51.9383 52.2186 52.4166V60.3182H47.0023V52.4166C47.0023 51.8143 46.493 51.3057 45.8449 51.3057H41.4619C40.7208 51.3367 40.32 51.815 40.32 52.4166L40.3503 75.6129C40.3813 76.1532 40.8906 76.6315 41.3696 76.6315H45.9843C46.4613 76.6315 47.0023 76.1532 47.0023 75.5819ZM83.9956 76.6315H98.4259C99.0579 76.6005 99.5059 76.3532 99.5059 75.5819V72.4641C99.5059 71.8315 99.0579 71.3835 98.4569 71.3835H89.8291V66.1361H95.5857C96.1576 66.1671 96.5733 65.6275 96.5423 65.1485V61.9384C96.5733 61.4601 96.095 61.0121 95.5244 60.9508H89.8291V56.522H98.4873C98.9662 56.522 99.4749 56.1212 99.4439 55.5499V52.3856C99.4439 51.722 99.0895 51.336 98.395 51.336H84.0266C83.4553 51.3663 82.8847 51.9073 82.8847 52.4166V75.5819C82.9157 76.0292 83.4553 76.6005 83.9956 76.6315ZM102.5 76.6005H106.759C107.331 76.6005 107.748 76.2455 107.748 75.6129V52.3856C107.717 51.8143 107.3 51.336 106.697 51.336H102.531C101.835 51.3663 101.451 51.722 101.451 52.3856V75.6129C101.481 76.2145 101.99 76.6005 102.5 76.6005ZM61.5714 73.0044C61.2938 66.9835 61.2938 60.953 61.5714 54.9321C61.6334 53.4662 63.2542 51.398 65.2288 51.336H76.5265C78.1467 51.336 80.0148 53.3422 80.0613 54.9011C80.3699 60.8275 80.3699 66.8462 80.0613 73.0044C80.0613 74.7485 78.4559 76.6625 76.5265 76.6625H65.1978C63.3304 76.6625 61.5714 74.5943 61.5714 73.0044ZM69.0715 71.6624C70.2134 71.7237 71.387 71.7237 72.6063 71.6624C73.1156 71.6314 73.3009 71.0911 73.3312 70.4578C73.6243 66.1058 73.6243 61.8151 73.3312 57.4786C73.3009 56.7531 72.9923 56.2438 72.6063 56.2438C71.4179 56.1515 70.2141 56.1515 69.0715 56.2748C68.5939 56.3367 68.2698 56.7228 68.2078 57.4793C67.8528 61.8158 67.9606 66.1368 68.2078 70.4585C68.2388 71.2454 68.6552 71.6307 69.0715 71.6624Z" fill="white"/>
</g>
<defs>
<clipPath id="clip0_1_8554">
<rect width="128" height="128" fill="white"/>
</clipPath>
</defs>
</svg>
