<svg width="57" height="57" viewBox="0 0 57 57" fill="none" xmlns="http://www.w3.org/2000/svg">
<g clip-path="url(#clip0_1_9076)">
<path d="M53.3645 11.5666H27.032C26.8892 11.2656 26.5833 11.0569 26.2279 11.0569H24.8228C24.5605 10.0706 24.1704 9.12967 23.6577 8.24583L24.6518 7.25167C24.9996 6.90377 24.9996 6.34001 24.6518 5.99222L21.6753 3.01553C21.5083 2.84842 21.2817 2.75457 21.0455 2.75457C20.8092 2.75457 20.5828 2.84842 20.4157 3.01541L19.4214 4.00969C18.5374 3.4968 17.5963 3.10681 16.6104 2.84441V1.43945C16.6104 0.947605 16.2116 0.548828 15.7198 0.548828H11.5102C11.0184 0.548828 10.6196 0.947605 10.6196 1.43945V2.84453C9.63345 3.10681 8.6925 3.49691 7.80855 4.0098L6.81439 3.01553C6.46661 2.66785 5.90273 2.66785 5.55494 3.01553L2.57814 5.99199C2.41114 6.1591 2.3173 6.38554 2.3173 6.62178C2.3173 6.85802 2.41114 7.08446 2.57814 7.25156L3.57241 8.24572C3.05952 9.13 2.66943 10.0709 2.40725 11.0568H1.00195C0.510105 11.0568 0.111328 11.4555 0.111328 11.9474V16.1569C0.111328 16.6488 0.510105 17.0475 1.00195 17.0475H2.40725C2.66954 18.0336 3.05963 18.9746 3.57241 19.8585L2.57814 20.8527C2.23035 21.2006 2.23035 21.7644 2.57814 22.1122L4.6602 24.1944V46.794C4.6602 48.7372 6.24117 50.3182 8.1844 50.3182H19.7189L17.2836 54.4972C17.0461 54.9047 17.0431 55.3896 17.2757 55.7942C17.5087 56.1998 17.9421 56.4516 18.4067 56.4516H43.1421C43.6066 56.4516 44.0398 56.1996 44.273 55.7943C44.5055 55.3897 44.5028 54.9049 44.2653 54.4972L41.83 50.3182H53.3645C55.3078 50.3182 56.8887 48.7372 56.8887 46.794V15.0908C56.8887 13.1476 55.3077 11.5666 53.3645 11.5666ZM27.1185 16.157V13.3479H53.3645C54.3256 13.3479 55.1074 14.1297 55.1074 15.0908V44.1272H6.44145V25.312C6.57793 25.271 6.70641 25.1968 6.81428 25.089L7.80867 24.0946C8.69283 24.6075 9.63389 24.9976 10.6196 25.2599V26.6652C10.6196 27.157 11.0184 27.5558 11.5102 27.5558H15.7198C16.2116 27.5558 16.6104 27.157 16.6104 26.6652V25.2599C17.5966 24.9976 18.5376 24.6076 19.4214 24.0947L20.4157 25.089C20.7635 25.4367 21.3274 25.4367 21.6751 25.089L24.6518 22.1124C24.8188 21.9453 24.9127 21.7189 24.9127 21.4826C24.9127 21.2464 24.8188 21.02 24.6518 20.8529L23.6576 19.8586C24.1705 18.9745 24.5605 18.0334 24.8228 17.0477H26.2279C26.7198 17.0477 27.1185 16.6489 27.1185 16.157ZM5.44294 19.494C4.72844 18.4235 4.23871 17.242 3.98755 15.9829C3.9045 15.5664 3.5389 15.2664 3.11418 15.2664H1.89258V12.8381H3.11418C3.5389 12.8381 3.90461 12.5382 3.98766 12.1215C4.23848 10.8629 4.72822 9.68163 5.44305 8.61032C5.67874 8.25696 5.6322 7.78649 5.33195 7.48613L4.4676 6.62178L6.18472 4.90465L7.04907 5.76911C7.34944 6.06937 7.82002 6.11557 8.17327 5.88011C9.2438 5.16549 10.4251 4.67587 11.6844 4.42472C12.1009 4.34155 12.4008 3.97606 12.4008 3.55124V2.32997H14.8291V3.55135C14.8291 3.97606 15.129 4.34178 15.5456 4.42483C16.8045 4.67576 17.9858 5.16538 19.0569 5.88011C19.4103 6.11601 19.8808 6.06937 20.181 5.76911L21.0455 4.90465L22.7626 6.62189L21.8982 7.48624C21.5979 7.7866 21.5515 8.2573 21.7872 8.61054C22.5018 9.68096 22.9914 10.8624 23.2426 12.1217C23.3257 12.5382 23.6913 12.8382 24.116 12.8382H25.3374V15.2665H24.1159C23.6912 15.2665 23.3255 15.5664 23.2424 15.983C22.9915 17.2417 22.5019 18.423 21.787 19.4943C21.5512 19.8476 21.5978 20.3181 21.8981 20.6185L22.7626 21.4829L21.0455 23.2L20.181 22.3355C19.8806 22.0352 19.4099 21.989 19.0568 22.2245C17.9863 22.939 16.805 23.4287 15.5455 23.6798C15.129 23.7629 14.8291 24.1285 14.8291 24.5533V25.7749H12.4008V24.5532C12.4008 24.1285 12.1009 23.7627 11.6842 23.6797C10.4257 23.4289 9.24435 22.9393 8.17315 22.2244C7.82013 21.9886 7.34944 22.0352 7.04907 22.3354L6.1845 23.2L4.46749 21.4829L5.33195 20.6184C5.6322 20.3178 5.67874 19.8472 5.44294 19.494ZM42.3046 54.6704H19.2443L21.7807 50.3182H39.7683L42.3046 54.6704ZM53.3645 48.5369H8.1844C7.2233 48.5369 6.44145 47.7551 6.44145 46.794V45.9085H55.1074V46.794C55.1074 47.7551 54.3256 48.5369 53.3645 48.5369ZM34.3639 30.6163H29.6355C29.1437 30.6163 28.7449 31.0151 28.7449 31.507V42.4041C28.7449 42.8959 29.1437 43.2947 29.6355 43.2947H34.3639C34.8557 43.2947 35.2545 42.8959 35.2545 42.4041V31.507C35.2545 31.0151 34.8558 30.6163 34.3639 30.6163ZM33.4733 41.5135H30.5262V32.3976H33.4733V41.5135ZM42.6209 26.2879H37.8925C37.4007 26.2879 37.0019 26.6867 37.0019 27.1785V42.4041C37.0019 42.8959 37.4007 43.2947 37.8925 43.2947H42.6209C43.1127 43.2947 43.5115 42.8959 43.5115 42.4041V27.1785C43.5115 26.6867 43.1128 26.2879 42.6209 26.2879ZM41.7302 41.5135H38.7832V28.0691H41.7302V41.5135ZM26.107 34.9447H21.3788C20.8869 34.9447 20.4882 35.3434 20.4882 35.8353V42.4041C20.4882 42.8959 20.8869 43.2947 21.3788 43.2947H26.107C26.5989 43.2947 26.9976 42.8959 26.9976 42.4041V35.8353C26.9976 35.3434 26.5989 34.9447 26.107 34.9447ZM25.2164 41.5135H22.2694V36.7259H25.2164V41.5135ZM43.5394 24.1238C43.7297 24.562 44.1613 24.845 44.639 24.845H45.2589V42.4041C45.2589 42.8959 45.6577 43.2947 46.1495 43.2947H50.8778C51.3697 43.2947 51.7685 42.8959 51.7685 42.4041V24.845H52.3883C52.8661 24.845 53.2977 24.562 53.4879 24.1239C53.6782 23.6859 53.5906 23.1773 53.2646 22.8281L49.5308 18.8276C49.2686 18.5467 48.8978 18.3855 48.5137 18.3855C48.1296 18.3855 47.7588 18.5466 47.4965 18.8277L43.7627 22.828C43.4369 23.1773 43.3492 23.6859 43.5394 24.1238ZM48.5137 20.3485L51.0478 23.0637H50.8778C50.386 23.0637 49.9872 23.4625 49.9872 23.9543V41.5135H47.0401V23.9543C47.0401 23.4625 46.6414 23.0637 46.1495 23.0637H45.9795L48.5137 20.3485ZM20.3843 27.6507C20.2843 28.0238 20.3354 28.4131 20.5281 28.7468L21.5659 30.5443C21.7586 30.8782 22.0702 31.1172 22.4433 31.2171C22.568 31.2505 22.6943 31.2669 22.82 31.2669C23.0702 31.2669 23.317 31.2015 23.5392 31.0731L40.9401 21.0267L41.2725 21.6024C41.5248 22.0402 41.996 22.2911 42.5006 22.257C43.0026 22.2234 43.4336 21.912 43.6253 21.4447L45.5792 16.6818C45.7347 16.3025 45.7064 15.8815 45.5015 15.5266C45.2966 15.1717 44.9461 14.9368 44.5398 14.882L39.4381 14.1926C38.9371 14.1253 38.4524 14.3426 38.1722 14.7605C37.8904 15.1809 37.8724 15.7137 38.1249 16.151L38.4574 16.727L21.0564 26.7735C20.7231 26.9662 20.4843 27.2777 20.3843 27.6507ZM40.1198 17.8243C40.5457 17.5784 40.6917 17.0336 40.4457 16.6077L40.1441 16.0854L43.7015 16.5661L42.3391 19.8872L42.0376 19.365C41.7917 18.939 41.2468 18.7932 40.821 19.039L22.9403 29.3622L22.239 28.1476L40.1198 17.8243ZM13.615 21.5016C17.7225 21.5016 21.0644 18.1597 21.0644 14.0523C21.0644 9.9447 17.7225 6.60285 13.615 6.60285C9.50742 6.60285 6.16569 9.9447 6.16569 14.0523C6.16569 18.1597 9.50742 21.5016 13.615 21.5016ZM13.615 8.3841C16.7404 8.3841 19.2831 10.9268 19.2831 14.0523C19.2831 17.1776 16.7404 19.7203 13.615 19.7203C10.4896 19.7203 7.94694 17.1776 7.94694 14.0523C7.94694 10.9267 10.4896 8.3841 13.615 8.3841ZM10.5673 16.6451L8.60422 14.682C8.25643 14.3341 8.25643 13.7704 8.60422 13.4225L10.5673 11.4594C10.9151 11.1118 11.4789 11.1118 11.8267 11.4594C12.1745 11.8073 12.1745 12.3711 11.8267 12.719L10.4935 14.0523L11.8267 15.3855C12.1745 15.7334 12.1745 16.2972 11.8267 16.6451C11.6528 16.819 11.4249 16.9059 11.1969 16.9059C10.9689 16.9059 10.7412 16.8189 10.5673 16.6451ZM15.403 11.4594C15.7508 11.1118 16.3147 11.1118 16.6625 11.4594L18.6255 13.4225C18.9733 13.7704 18.9733 14.3341 18.6255 14.682L16.6625 16.6451C16.4886 16.819 16.2607 16.9059 16.0327 16.9059C15.8047 16.9059 15.5768 16.819 15.4029 16.6451C15.0551 16.2972 15.0551 15.7334 15.4029 15.3855L16.7362 14.0523L15.4029 12.719C15.0552 12.3711 15.0552 11.8073 15.403 11.4594ZM12.0712 16.3723L13.4381 11.2711C13.5654 10.7959 14.0541 10.514 14.5289 10.6413C15.004 10.7686 15.286 11.2569 15.1587 11.7321L13.7918 16.8334C13.6851 17.2312 13.3253 17.4937 12.932 17.4937C12.8556 17.4937 12.7781 17.4838 12.701 17.4632C12.2258 17.3359 11.9439 16.8475 12.0712 16.3723ZM17.3259 32.4163C17.3259 32.9081 16.9271 33.3069 16.4353 33.3069H9.54939C9.05754 33.3069 8.65877 32.9081 8.65877 32.4163C8.65877 31.9244 9.05754 31.5257 9.54939 31.5257H16.4353C16.9271 31.5257 17.3259 31.9244 17.3259 32.4163ZM17.3259 36.2719C17.3259 36.7638 16.9271 37.1625 16.4353 37.1625H9.54939C9.05754 37.1625 8.65877 36.7638 8.65877 36.2719C8.65877 35.7801 9.05754 35.3813 9.54939 35.3813H16.4353C16.9271 35.3813 17.3259 35.7801 17.3259 36.2719ZM17.3259 40.1275C17.3259 40.6194 16.9271 41.0182 16.4353 41.0182H9.54939C9.05754 41.0182 8.65877 40.6194 8.65877 40.1275C8.65877 39.6357 9.05754 39.2369 9.54939 39.2369H16.4353C16.9271 39.2369 17.3259 39.6357 17.3259 40.1275Z" fill="#8133F1"/>
</g>
<defs>
<clipPath id="clip0_1_9076">
<rect width="57" height="57" fill="white"/>
</clipPath>
</defs>
</svg>
