<svg width="64" height="38" viewBox="0 0 64 38" fill="none" xmlns="http://www.w3.org/2000/svg">
<path d="M16.25 12.7C18.35 4.29997 23.6 0.0999756 32 0.0999756C44.6 0.0999756 46.175 9.54997 52.475 11.125C56.675 12.175 60.35 10.6 63.5 6.39997C61.4 14.8 56.15 19 47.75 19C35.15 19 33.575 9.54998 27.275 7.97498C23.075 6.92498 19.4 8.49997 16.25 12.7ZM0.5 31.6C2.6 23.2 7.85 19 16.25 19C28.85 19 30.425 28.45 36.725 30.025C40.925 31.075 44.6 29.5 47.75 25.3C45.65 33.7 40.4 37.9 32 37.9C19.4 37.9 17.825 28.45 11.525 26.875C7.325 25.825 3.65 27.4 0.5 31.6Z" fill="#44A8B3"/>
</svg>
