<svg width="57" height="57" viewBox="0 0 57 57" fill="none" xmlns="http://www.w3.org/2000/svg">
<path d="M40.7439 38.3779V25.9975C40.7439 25.6286 40.4447 25.3295 40.0759 25.3295H23.7067V24.5094C23.7067 23.2957 22.7191 22.3083 21.5054 22.3083C20.2917 22.3083 19.3041 23.2957 19.3041 24.5094V25.3295H15.3152C14.9464 25.3295 14.6472 25.6286 14.6472 25.9975V38.3779C14.6472 38.7467 14.9464 39.0459 15.3152 39.0459H19.972C20.3409 39.0459 20.64 38.7467 20.64 38.3779V36.8899C20.64 36.4128 21.0282 36.0246 21.5054 36.0246C21.9825 36.0246 22.3707 36.4128 22.3707 36.8899V38.3779C22.3707 38.7467 22.6699 39.0459 23.0387 39.0459H31.6844V39.8658C31.6844 41.0796 32.6719 42.0671 33.8857 42.0671C35.0995 42.0671 36.087 41.0796 36.087 39.8658V39.0459H40.0759C40.4447 39.0459 40.7439 38.7467 40.7439 38.3779ZM27.0276 33.7211V37.71H23.7067V36.8899C23.7067 35.6761 22.7191 34.6886 21.5054 34.6886C20.2917 34.6886 19.3041 35.6761 19.3041 36.8899V37.71H15.9832V26.6654H19.972C20.3409 26.6654 20.64 26.3663 20.64 25.9975V24.5094C20.64 24.0323 21.0282 23.6442 21.5054 23.6442C21.9825 23.6442 22.3707 24.0323 22.3707 24.5094V25.9975C22.3707 26.3663 22.6699 26.6654 23.0387 26.6654H27.0276V30.6543C27.0276 31.0231 27.3267 31.3223 27.6956 31.3223H29.1836C29.6607 31.3223 30.0489 31.7105 30.0489 32.1876C30.0489 32.6648 29.6607 33.053 29.1836 33.053H27.6956C27.3267 33.053 27.0276 33.3521 27.0276 33.721V33.7211ZM39.4079 37.71H35.4191C35.0502 37.71 34.7511 38.0091 34.7511 38.3779V39.8658C34.7511 40.343 34.3629 40.7312 33.8857 40.7312C33.4086 40.7312 33.0204 40.343 33.0204 39.8658V38.3779C33.0204 38.0091 32.7212 37.71 32.3524 37.71H28.3635V34.389H29.1836C30.3974 34.389 31.3849 33.4016 31.3849 32.1877C31.3849 30.9739 30.3974 29.9865 29.1836 29.9865H28.3635V26.6655H39.4079V37.7101V37.71ZM36.7011 52.3817C36.8419 52.7226 36.6797 53.1132 36.3388 53.254C33.5959 54.3872 30.6879 54.9618 27.6957 54.9618C25.4631 54.9618 23.2544 54.6363 21.1311 53.9943C20.778 53.8875 20.5782 53.5147 20.685 53.1616C20.7918 52.8086 21.1649 52.6091 21.5176 52.7155C23.5156 53.3197 25.5941 53.626 27.6957 53.626C30.512 53.626 33.2485 53.0855 35.8287 52.0195C36.1698 51.8787 36.5604 52.0408 36.7011 52.3817ZM5.56675 37.159C5.22052 35.5715 5.04484 33.9404 5.04484 32.311C5.04484 27.966 6.27869 23.7445 8.61313 20.103C10.8858 16.5578 14.0878 13.7197 17.8733 11.8952C18.2057 11.7351 18.6049 11.8747 18.765 12.2069C18.9252 12.5392 18.7856 12.9384 18.4533 13.0988C11.1196 16.6333 6.38078 24.1746 6.38078 32.311C6.38078 33.8448 6.54599 35.3801 6.87196 36.8743C6.95056 37.2347 6.72211 37.5907 6.36174 37.6693C6.31376 37.6798 6.26589 37.6848 6.21869 37.6848C5.91142 37.6848 5.63488 37.4716 5.56675 37.159ZM36.6261 12.2068C36.7862 11.8746 37.1853 11.735 37.5178 11.8951C41.3033 13.7196 44.5054 16.5578 46.778 20.103C49.1124 23.7445 50.3463 27.966 50.3463 32.311C50.3463 32.6798 50.0471 32.979 49.6783 32.979C49.3095 32.979 49.0103 32.6798 49.0103 32.311C49.0103 24.1746 44.2715 16.6333 36.9378 13.0986C36.6055 12.9384 36.4659 12.5392 36.6261 12.2068ZM22.682 17.848H32.7091C33.5683 17.848 34.2675 17.0947 34.2675 16.1689V11.7344C34.2675 10.2886 33.0912 9.11221 31.6452 9.11221H23.7459C22.3 9.11221 21.1237 10.2885 21.1237 11.7344V16.1689C21.1237 17.0947 21.8228 17.848 22.682 17.848ZM22.4597 11.7344C22.4597 11.0252 23.0367 10.4481 23.7459 10.4481H27.0276V13.4703C27.0276 13.8391 27.3267 14.1382 27.6956 14.1382C28.0644 14.1382 28.3635 13.8391 28.3635 13.4703V10.4481H31.6452C32.3545 10.4481 32.9315 11.0252 32.9315 11.7344V16.1689C32.9315 16.3621 32.812 16.5121 32.7091 16.5121H22.682C22.5792 16.5121 22.4597 16.3621 22.4597 16.1689V11.7344ZM27.6956 8.40049C29.7046 8.40049 31.3391 6.76597 31.3391 4.75694C31.3391 2.74791 29.7046 1.11328 27.6956 1.11328C25.6865 1.11328 24.0519 2.7478 24.0519 4.75694C24.0519 6.76608 25.6864 8.40049 27.6956 8.40049ZM27.6956 2.44922C28.968 2.44922 30.0032 3.48446 30.0032 4.75694C30.0032 6.02942 28.968 7.06455 27.6956 7.06455C26.4231 7.06455 25.3878 6.02942 25.3878 4.75694C25.3878 3.48446 26.4231 2.44922 27.6956 2.44922ZM14.2207 47.151H6.32133C4.87551 47.151 3.69922 48.3273 3.69922 49.7732V54.2077C3.69922 55.1335 4.39825 55.8868 5.25748 55.8868H15.2846C16.1438 55.8868 16.843 55.1335 16.843 54.2077V49.7732C16.843 48.3274 15.6667 47.151 14.2207 47.151ZM15.507 54.2077C15.507 54.4009 15.3874 54.5509 15.2846 54.5509H5.25748C5.15472 54.5509 5.03516 54.4009 5.03516 54.2077V49.7732C5.03516 49.064 5.61217 48.487 6.32133 48.487H14.2207C14.93 48.487 15.507 49.064 15.507 49.7732V54.2077ZM6.62748 42.7958C6.62748 44.8049 8.262 46.4394 10.271 46.4394C12.2801 46.4394 13.9147 44.8049 13.9147 42.7958C13.9147 40.7866 12.2802 39.1521 10.271 39.1521C8.26189 39.1521 6.62748 40.7866 6.62748 42.7958ZM12.5788 42.7958C12.5788 44.0682 11.5435 45.1035 10.271 45.1035C8.99855 45.1035 7.96342 44.0682 7.96342 42.7958C7.96342 41.5233 8.99855 40.488 10.271 40.488C11.5435 40.488 12.5788 41.5233 12.5788 42.7958ZM50.6796 42.7788H42.7803C41.3345 42.7788 40.1582 43.9551 40.1582 45.4011V49.8356C40.1582 50.7614 40.8572 51.5146 41.7164 51.5146H51.7435C52.6028 51.5146 53.3018 50.7614 53.3018 49.8356V45.4011C53.3018 43.9552 52.1255 42.7788 50.6796 42.7788ZM46.1552 44.1148H47.3047V46.8524C47.3047 47.1693 47.0468 47.427 46.7299 47.427C46.4129 47.427 46.1552 47.1693 46.1552 46.8524V44.1148ZM51.9658 49.8356C51.9658 50.0287 51.8462 50.1787 51.7434 50.1787H41.7163C41.6136 50.1787 41.494 50.0287 41.494 49.8356V45.4011C41.494 44.6918 42.071 44.1148 42.7802 44.1148H44.8192V46.8524C44.8192 47.9059 45.6763 48.7629 46.7299 48.7629C47.7835 48.7629 48.6405 47.9059 48.6405 46.8524V44.1148H50.6795C51.3887 44.1148 51.9658 44.6918 51.9658 45.4011V49.8356ZM46.7299 34.7801C44.7208 34.7801 43.0862 36.4146 43.0862 38.4237C43.0862 40.4327 44.7207 42.0673 46.7299 42.0673C48.739 42.0673 50.3735 40.4328 50.3735 38.4237C50.3735 36.4145 48.739 34.7801 46.7299 34.7801ZM46.7299 40.7313C45.4574 40.7313 44.4222 39.696 44.4222 38.4236C44.4222 37.1511 45.4574 36.116 46.7299 36.116C48.0024 36.116 49.0376 37.1511 49.0376 38.4236C49.0376 39.696 48.0024 40.7313 46.7299 40.7313Z" fill="#8133F1"/>
</svg>
