<svg width="128" height="128" viewBox="0 0 128 128" fill="none" xmlns="http://www.w3.org/2000/svg">
<path fill-rule="evenodd" clip-rule="evenodd" d="M79.2296 43.0811V40.5469H69.0916V54.461H79.2296V52.1659H71.9127V48.3885H78.3205V45.9021H71.9127V43.0811H79.2296ZM76.4086 55.8954V61.2507H70.8607V55.8954H67.9932V69.7623H70.8607V63.5458H76.4086V69.7623H79.2296V55.8954H76.4086ZM79.2296 73.6818V71.1968H69.0916V85.3008H79.2296V82.7679H71.9127V79.0377H78.3205V76.7433H71.9127V73.6818H79.2296ZM67.4666 40.5469H64.6455V45.9021H59.099V40.5469H56.2779V54.461H59.099V48.245H64.6455V54.461H67.4666V40.5469ZM44.133 40.5469V43.0811H48.4363V54.461H51.2574V43.0811H55.5607V40.5469H44.133ZM35.2394 55.5129C30.7927 55.5129 28.4497 58.0471 28.4497 62.8285C28.4497 67.8491 30.7927 70.3354 35.2394 70.3354C39.6862 70.3354 41.9813 67.8491 41.9813 62.8285C41.9813 58.0471 39.6862 55.5129 35.2394 55.5129ZM31.5099 62.8285C31.5099 59.6249 32.7531 58.0471 35.2394 58.0471C37.9171 58.0471 39.1602 59.6249 39.1602 62.8285C39.1602 66.224 37.9171 67.8491 35.2394 67.8491C32.7531 67.8491 31.5099 66.224 31.5099 62.8285ZM24.3855 55.8954V65.6974L18.839 55.8954H15.8267V69.7623H18.5043V60.0075L24.1942 69.7623H27.2066V55.8954H24.3855ZM37.5345 76.9339V73.6818H44.6589V71.1968H34.7135V85.3008H37.5345V79.4202H43.7983V76.9339H37.5345ZM66.9413 58.3818V55.8954H55.5607V58.3818H59.8162V69.7623H62.6851V58.3818H66.9413ZM49.297 64.4549C50.2054 64.4549 50.9227 64.5977 51.2574 64.9802L51.7833 69.7623H54.9869V69.4276C54.6522 69.2357 54.461 68.3757 54.461 66.7493C54.461 64.7896 53.7437 63.737 52.6918 63.2111C54.1263 62.6373 54.8435 61.5854 54.8435 59.8162C54.8435 57.3298 53.409 55.8954 50.3967 55.8954H43.4158V69.7623H46.2846V64.4549H49.297ZM46.2846 62.1113V58.3818H49.8229C51.2574 58.3818 51.9746 58.9077 51.9746 60.1509C51.9746 61.3941 51.2574 62.1113 49.6795 62.1113H46.2846ZM51.2574 71.1968H47.8625L42.8898 85.3008H45.9021L47.0019 82.2413H52.1659L53.0265 85.3008H56.0867L51.2574 71.1968ZM49.4882 74.399L51.2574 79.9469H47.7191L49.4882 74.399ZM65.1721 75.8335H67.9932C67.8491 74.591 67.4666 73.539 66.6052 72.6299C65.3627 71.578 63.9283 70.8607 61.9679 70.8607C60.0075 70.8607 58.573 71.578 57.3298 72.8218C56.2779 74.0643 55.5607 75.8335 55.5607 78.1771C55.5607 83.1498 57.6645 85.6348 61.7766 85.6348C65.3627 85.6348 67.3225 83.8657 67.9932 80.4715H65.1721C64.7896 82.0965 63.5457 82.9579 61.9679 82.9579C59.6249 82.9579 58.573 81.3806 58.573 78.3198C58.573 74.9735 59.6249 73.3471 61.9679 73.3471C63.5457 73.3471 64.4549 74.2563 65.1721 75.8335ZM29.7407 85.1102C30.2189 85.1102 30.6014 84.9183 30.889 84.6799C31.128 84.393 31.3186 84.0105 31.3186 83.4852C31.3186 82.9107 31.1274 82.5282 30.889 82.2891C30.6021 82.0507 30.2196 81.9066 29.7407 81.9066H29.6929C29.1192 81.9066 28.7366 82.0507 28.4976 82.2891C28.2592 82.5275 28.115 82.9107 28.115 83.4852V83.5316C28.115 84.0105 28.2585 84.393 28.4976 84.6799C28.7366 84.9183 29.1198 85.1102 29.6929 85.1102H29.7407ZM29.6929 85.4927C29.0235 85.4927 28.5454 85.2543 28.2107 84.9183C27.876 84.5836 27.7325 84.1061 27.7325 83.5316V83.4852C27.7325 82.8144 27.876 82.3369 28.2107 82.0029C28.5454 81.6682 29.0235 81.5241 29.6929 81.5241H29.7407C30.3145 81.5241 30.7927 81.6682 31.1274 82.0029C31.4621 82.3376 31.7011 82.8151 31.7011 83.4852C31.7011 84.1067 31.4621 84.5836 31.1274 84.9183C30.946 85.1013 30.7299 85.2464 30.4919 85.345C30.2538 85.4437 29.9984 85.4939 29.7407 85.4927H29.6929ZM29.8842 83.2932H29.932C30.1233 83.2932 30.2189 83.1969 30.2189 82.9585V82.9107C30.2189 82.9107 30.1711 82.9107 30.1711 82.8629C30.1233 82.8151 30.0276 82.8151 29.8842 82.8151H29.3582V83.2939L29.8842 83.2932ZM30.2189 83.6279L30.6014 84.1068C30.6492 84.2017 30.6014 84.2973 30.5536 84.3452C30.458 84.4415 30.3145 84.393 30.2667 84.3452L29.7886 83.6758H29.3582V84.201C29.3582 84.2973 29.2626 84.393 29.167 84.393C29.0713 84.393 28.9757 84.2967 28.9757 84.201V82.6238C28.9757 82.5275 29.0713 82.4332 29.167 82.4332H29.932C30.1233 82.4332 30.3145 82.4797 30.4102 82.576C30.458 82.6238 30.5058 82.6238 30.5058 82.6723C30.6014 82.7686 30.6014 82.8629 30.6014 82.9592C30.6014 83.341 30.5058 83.5316 30.2189 83.6279ZM81.1894 40.5469C90.0836 40.5469 97.7811 43.7983 103.997 50.0142C110.404 56.4214 113.608 64.0717 113.608 73.0124V85.3008H100.603V72.6299C100.603 67.6585 98.8337 63.3545 95.2476 59.8162C94.3863 58.9077 93.4784 58.1905 92.4265 57.4733C89.5576 55.5129 86.1628 54.6522 82.6245 54.6522H81.1901V40.5469H81.1894ZM99.3583 85.3008H89.2216V75.4988C89.2216 73.8737 88.6963 72.6299 87.5966 71.578C86.5446 70.4796 85.1102 69.9529 83.6758 69.9529H81.1894V55.8954H82.6238C86.3527 55.8954 89.5563 56.9473 92.4258 59.099C93.1431 59.4337 93.8603 60.1509 94.3856 60.6769C97.7811 64.0724 99.3583 67.9932 99.3583 72.6306V85.3008ZM87.9791 85.3008H81.1887V71.1968H83.6758C84.7755 71.1968 85.8274 71.578 86.7352 72.4393C87.4524 73.1565 87.9791 74.2562 87.9791 75.4988V85.3008Z" fill="white"/>
</svg>
