<svg width="128" height="128" viewBox="0 0 128 128" fill="none" xmlns="http://www.w3.org/2000/svg">
<g clip-path="url(#clip0_321_61)">
<path d="M41.4268 61.3845V57.8511H37.8825V52.175H32.8374V57.8504H30.1123V61.3838H32.8374V69.2397C32.8374 74.0397 35.9215 76.7411 41.4268 76.7808V72.5946C39.0927 72.5472 37.8825 71.1348 37.8825 68.473V61.3845H41.4268ZM109.092 57.8485V76.1402H106.085V57.8485H109.092ZM115.685 57.8485V60.7502H115.757C117.007 58.5327 118.987 57.4235 121.701 57.4235C122.904 57.4235 123.907 57.5893 124.708 57.9202C125.51 58.2498 126.159 58.7106 126.656 59.2994C127.149 59.8894 127.499 60.5915 127.699 61.4043C127.899 62.2184 128 63.1201 128 64.1108V76.1402H124.993V63.7569C124.993 62.6235 124.662 61.7288 124.003 61.0683C123.343 60.4085 122.433 60.0776 121.278 60.0776C120.358 60.0776 119.562 60.219 118.889 60.5019C118.218 60.7867 117.658 61.1867 117.21 61.7051C116.753 62.2376 116.41 62.8579 116.2 63.5278C115.975 64.2235 115.864 64.9844 115.864 65.8094V76.1402H112.858V57.8485H115.685ZM56.6605 76.1402V73.5936H56.553C55.9175 74.6547 55.0919 75.4214 54.0769 75.8931C53.0625 76.3648 52.0244 76.601 50.9614 76.601C49.618 76.601 48.516 76.423 47.6558 76.0691C46.7931 75.7146 46.1153 75.2147 45.6206 74.5651C45.1246 73.9168 44.7771 73.1277 44.5755 72.1952C44.3758 71.2628 44.276 70.2324 44.276 69.0983V57.8472H49.2993V68.1793C49.2993 69.6877 49.5348 70.8154 50.0065 71.5572C50.4782 72.3008 51.3153 72.6727 52.5178 72.6727C53.8868 72.6727 54.8775 72.2656 55.49 71.4516C56.105 70.6388 56.4116 69.3012 56.4116 67.4375V57.8485H61.4362V76.1402H56.6605ZM69.5596 57.8485V60.3963H69.6658C70.3007 59.3346 71.1282 58.5615 72.1407 58.0789C73.1557 57.5957 74.1957 57.3538 75.2555 57.3538C76.5995 57.3538 77.7035 57.5368 78.5656 57.901C79.4257 58.2671 80.1035 58.7739 80.5995 59.4229C81.0942 60.0718 81.4417 60.8622 81.6433 61.7941C81.843 62.7259 81.9447 63.7576 81.9447 64.8891V76.1402H76.9208V65.8094C76.9208 64.3003 76.6821 63.1739 76.2117 62.4296C75.7387 61.6872 74.9016 61.316 73.7003 61.316C72.332 61.316 71.3407 61.723 70.7269 62.5365C70.1145 63.3512 69.8073 64.69 69.8073 66.5531V76.1402H64.7827V57.8485H69.5596ZM90.6666 71.7536C91.4218 72.4851 92.5066 72.8506 93.9216 72.8506C94.9347 72.8506 95.8096 72.5971 96.5404 72.0903C97.2719 71.5828 97.7219 71.0464 97.8844 70.4801H102.308C101.602 72.6733 100.514 74.2432 99.0531 75.1853C97.5907 76.1286 95.8217 76.6016 93.7482 76.6016C92.3069 76.6016 91.0109 76.3699 89.8544 75.911C88.698 75.4509 87.7181 74.7962 86.9181 73.9475C86.1169 73.0983 85.4961 72.0845 85.0609 70.905C84.6244 69.7255 84.4055 68.4276 84.4055 67.0126C84.4055 65.6443 84.6314 64.372 85.0775 63.1912C85.5262 62.0117 86.1623 60.9915 86.9898 60.1301C87.8148 59.2693 88.8004 58.5915 89.944 58.0955C91.0883 57.6008 92.3562 57.3538 93.7482 57.3538C95.3046 57.3538 96.6614 57.6546 97.816 58.2549C98.9705 58.8565 99.9202 59.6648 100.664 60.6798C101.407 61.6949 101.945 62.8494 102.275 64.1473C102.606 65.4433 102.722 66.8001 102.629 68.2151H89.432C89.4986 69.8426 89.9101 71.0221 90.6666 71.7536ZM96.3446 62.1288C95.7443 61.4689 94.8297 61.1381 93.6042 61.1381C92.801 61.1381 92.1347 61.2763 91.6035 61.5457C91.0717 61.8177 90.6493 62.1531 90.3319 62.5537C90.0119 62.955 89.7879 63.38 89.6567 63.8273C89.528 64.276 89.4506 64.6766 89.4282 65.0311H97.6016C97.3654 63.7569 96.9475 62.7905 96.3446 62.1288ZM109.53 52.175C109.53 52.6901 109.325 53.1841 108.961 53.5482C108.597 53.9124 108.103 54.1169 107.587 54.1167C107.072 54.1165 106.578 53.9117 106.214 53.5473C105.85 53.1829 105.645 52.6888 105.646 52.1737C105.646 51.6585 105.851 51.1645 106.215 50.8004C106.579 50.4362 107.074 50.2318 107.589 50.2319C108.104 50.2321 108.598 50.4369 108.962 50.8013C109.326 51.1657 109.531 51.6598 109.53 52.175Z" fill="white"/>
<path d="M12.3192 59.8477C11.1508 59.8463 10.0306 59.3816 9.20429 58.5555C8.37801 57.7293 7.91313 56.6092 7.9116 55.4407C7.90948 54.8618 8.02232 54.2883 8.24358 53.7534C8.46484 53.2185 8.79012 52.7328 9.20055 52.3246C9.60895 51.9141 10.0947 51.5886 10.6297 51.367C11.1647 51.1455 11.7383 51.0322 12.3173 51.0337C13.4859 51.0351 14.6062 51.4999 15.4325 52.3262C16.2588 53.1525 16.7236 54.2728 16.725 55.4413C16.7241 56.6096 16.2597 57.7298 15.4337 58.5559C14.6076 59.3821 13.4875 59.8467 12.3192 59.8477ZM0 61.6115C0 61.3805 0.187518 61.193 0.419196 61.193H12.2821C14.4223 61.193 16.163 62.9273 16.163 65.0598V68.5055C16.163 68.5608 16.1521 68.6155 16.131 68.6666C16.1098 68.7176 16.0788 68.764 16.0397 68.8031C16.0005 68.8421 15.9541 68.8731 15.903 68.8942C15.8519 68.9153 15.7972 68.9261 15.7419 68.926C15.7349 68.926 15.7259 68.926 15.7176 68.9273L3.8662 68.9254C2.84102 68.924 1.85823 68.5161 1.13343 67.791C0.408632 67.066 0.00101599 66.0831 0 65.0579L0 61.6115ZM21.1409 61.1373H24.5399C24.7703 61.1373 24.9585 61.3261 24.9585 61.5558V65.0041C24.9575 66.0292 24.5498 67.012 23.825 67.7368C23.1001 68.4617 22.1173 68.8693 21.0923 68.8703L17.7022 68.8697C17.6464 68.871 17.5909 68.8611 17.5389 68.8406C17.4869 68.8202 17.4396 68.7896 17.3996 68.7506C17.3596 68.7116 17.3278 68.6651 17.306 68.6136C17.2842 68.5622 17.2729 68.507 17.2728 68.4511V65.0048C17.274 63.9793 17.6819 62.9962 18.4071 62.2711C19.1323 61.5461 20.1154 61.1383 21.1409 61.1373ZM15.7426 70.037H8.89527C8.7842 70.0374 8.67777 70.0816 8.59923 70.1602C8.52069 70.2387 8.47641 70.3452 8.47608 70.4562V77.3515C8.47608 77.5864 8.66551 77.7688 8.90615 77.7688L12.2956 77.7694C13.321 77.7684 14.3042 77.3606 15.0294 76.6356C15.7546 75.9105 16.1625 74.9274 16.1637 73.902V70.4556C16.1628 70.3444 16.1181 70.238 16.0392 70.1597C15.9604 70.0813 15.8538 70.0372 15.7426 70.037Z" fill="white"/>
</g>
<defs>
<clipPath id="clip0_321_61">
<rect width="128" height="128" fill="white"/>
</clipPath>
</defs>
</svg>
