<svg width="57" height="57" viewBox="0 0 57 57" fill="none" xmlns="http://www.w3.org/2000/svg">
<g clip-path="url(#clip0_1_8796)">
<path fill-rule="evenodd" clip-rule="evenodd" d="M4.01287 1.66991C2.73395 1.66991 1.69726 2.70661 1.69726 3.98552V35.8998H55.3016L55.3017 3.98552C55.3017 2.70661 54.265 1.66991 52.986 1.66991H4.01287ZM0.0273438 3.98552C0.0273438 1.78434 1.81169 0 4.01287 0H52.986C55.1872 0 56.9716 1.78434 56.9716 3.98552L56.9715 36.7347C56.9715 37.1959 56.5976 37.5697 56.1365 37.5697H0.8623C0.401166 37.5697 0.0273438 37.1959 0.0273438 36.7347V3.98552Z" fill="#8133F1"/>
<path fill-rule="evenodd" clip-rule="evenodd" d="M0.0273438 36.7346C0.0273438 36.2735 0.401166 35.8997 0.8623 35.8997H56.1365C56.5976 35.8997 56.9715 36.2735 56.9715 36.7346V42.2558C56.9715 42.2558 56.9715 42.2559 56.9715 42.2558C56.9716 44.457 55.1872 46.2413 52.986 46.2413H4.01287C1.81168 46.2413 0.0273438 44.457 0.0273438 42.2558V36.7346ZM1.69726 37.5696V42.2558C1.69726 43.5347 2.73395 44.5714 4.01287 44.5714H52.986C54.265 44.5714 55.3016 43.5347 55.3015 42.256V37.5696H1.69726Z" fill="#8133F1"/>
<path fill-rule="evenodd" clip-rule="evenodd" d="M21.6787 45.4065C21.6787 44.9454 22.0525 44.5715 22.5137 44.5715H34.4846C34.9457 44.5715 35.3195 44.9454 35.3195 45.4065V48.5253C35.3195 48.9865 34.9457 49.3603 34.4846 49.3603C34.0234 49.3603 33.6496 48.9865 33.6496 48.5253V46.2414H23.3486V55.3302H33.6496V52.4465C33.6496 51.9854 34.0234 51.6116 34.4846 51.6116C34.9457 51.6116 35.3195 51.9854 35.3195 52.4465V56.1651C35.3195 56.6263 34.9457 57.0001 34.4846 57.0001H22.5137C22.0525 57.0001 21.6787 56.6263 21.6787 56.1651V45.4065Z" fill="#8133F1"/>
<path fill-rule="evenodd" clip-rule="evenodd" d="M17.6221 56.1477C17.6221 55.6866 17.9959 55.3127 18.457 55.3127H38.5416C39.0027 55.3127 39.3766 55.6866 39.3766 56.1477C39.3766 56.6088 39.0027 56.9827 38.5416 56.9827H18.457C17.9959 56.9827 17.6221 56.6088 17.6221 56.1477Z" fill="#8133F1"/>
<path fill-rule="evenodd" clip-rule="evenodd" d="M25.998 41.0706C25.998 40.6094 26.3719 40.2356 26.833 40.2356H30.1665C30.6276 40.2356 31.0015 40.6094 31.0015 41.0706C31.0015 41.5317 30.6276 41.9055 30.1665 41.9055H26.833C26.3719 41.9055 25.998 41.5317 25.998 41.0706Z" fill="#8133F1"/>
<path fill-rule="evenodd" clip-rule="evenodd" d="M8.1841 10.6013C8.55252 10.8786 8.62635 11.4021 8.34902 11.7705C6.87892 13.7234 6.0078 16.1512 6.0078 18.7849C6.0078 25.2326 11.2346 30.4594 17.6824 30.4594C21.8712 30.4594 25.5456 28.2539 27.6065 24.9368C27.8498 24.5451 28.3647 24.4249 28.7563 24.6682C29.148 24.9116 29.2683 25.4264 29.0249 25.8181C26.6721 29.605 22.4724 32.1293 17.6824 32.1293C10.3124 32.1293 4.33789 26.1549 4.33789 18.7849C4.33789 15.7765 5.33441 12.9985 7.01487 10.7662C7.29221 10.3978 7.81569 10.3239 8.1841 10.6013Z" fill="#8133F1"/>
<path fill-rule="evenodd" clip-rule="evenodd" d="M17.6826 7.11034C15.1647 7.11034 12.8352 7.90644 10.929 9.26085C10.5531 9.52794 10.0318 9.43973 9.76473 9.06382C9.49764 8.68791 9.58586 8.16666 9.96177 7.89957C12.1413 6.35099 14.8069 5.44043 17.6826 5.44043C22.5355 5.44043 26.7823 8.03129 29.1169 11.9014C29.3551 12.2962 29.2281 12.8094 28.8332 13.0476C28.4384 13.2858 27.9252 13.1588 27.687 12.7639C25.6421 9.37405 21.9263 7.11034 17.6826 7.11034Z" fill="#8133F1"/>
<path fill-rule="evenodd" clip-rule="evenodd" d="M22.2559 14.2214C22.717 14.2214 23.0908 14.5953 23.0908 15.0564V22.513C23.0908 22.9742 22.717 23.348 22.2559 23.348C21.7947 23.348 21.4209 22.9742 21.4209 22.513V15.0564C21.4209 14.5953 21.7947 14.2214 22.2559 14.2214Z" fill="#8133F1"/>
<path fill-rule="evenodd" clip-rule="evenodd" d="M18.2887 14.2214C18.7499 14.2214 19.1237 14.5953 19.1237 15.0564V20.1821C19.1237 21.548 18.3086 22.4484 17.259 22.977C16.8092 23.2035 16.2732 23.349 15.6506 23.3481C14.9168 23.3471 14.3097 23.1316 13.8277 22.8236C13.3921 22.5454 12.9966 22.2012 12.7116 21.7531C12.4205 21.2954 12.2725 20.7725 12.2725 20.1875V15.0565C12.2725 14.5954 12.6463 14.2215 13.1074 14.2215C13.5686 14.2215 13.9424 14.5954 13.9424 15.0565V20.1875C13.9424 20.4764 14.011 20.6845 14.1207 20.8569C14.2365 21.039 14.4259 21.2242 14.7268 21.4164L14.7268 21.4164C14.962 21.5667 15.2609 21.6777 15.6529 21.6782C16.0053 21.6787 16.284 21.5983 16.5079 21.4855L16.8834 22.2313L16.5079 21.4855C17.1746 21.1498 17.4538 20.7378 17.4538 20.1821V15.0564C17.4538 14.5953 17.8276 14.2214 18.2887 14.2214Z" fill="#8133F1"/>
<path fill-rule="evenodd" clip-rule="evenodd" d="M39.3162 7.11034C32.8685 7.11034 27.6416 12.3372 27.6416 18.7849C27.6416 25.2326 32.8685 30.4595 39.3162 30.4595C45.7639 30.4595 50.9907 25.2326 50.9907 18.7849C50.9907 12.3372 45.7639 7.11034 39.3162 7.11034ZM25.9717 18.7849C25.9717 11.415 31.9462 5.44043 39.3162 5.44043C46.6861 5.44043 52.6607 11.415 52.6607 18.7849C52.6607 26.1549 46.6861 32.1294 39.3162 32.1294C31.9462 32.1294 25.9717 26.1549 25.9717 18.7849Z" fill="#8133F1"/>
<path fill-rule="evenodd" clip-rule="evenodd" d="M40.5861 14.3736C40.9632 14.1082 41.484 14.1989 41.7494 14.576L46.995 22.0327C47.2604 22.4099 47.1697 22.9307 46.7926 23.196C46.4154 23.4613 45.8946 23.3707 45.6292 22.9935L40.3836 15.5369C40.1182 15.1597 40.2089 14.6389 40.5861 14.3736Z" fill="#8133F1"/>
<path fill-rule="evenodd" clip-rule="evenodd" d="M46.4234 14.3739C46.8004 14.6394 46.8907 15.1603 46.6251 15.5373L41.3721 22.994C41.1065 23.371 40.5856 23.4613 40.2087 23.1957C39.8317 22.9301 39.7414 22.4092 40.0069 22.0322L45.26 14.5756C45.5255 14.1986 46.0464 14.1083 46.4234 14.3739Z" fill="#8133F1"/>
<path fill-rule="evenodd" clip-rule="evenodd" d="M37.5036 14.2214C37.9647 14.2214 38.3385 14.5953 38.3385 15.0564V20.1821C38.3385 21.548 37.5234 22.4484 36.4739 22.977C36.024 23.2035 35.488 23.349 34.8654 23.3481C34.1316 23.3471 33.5246 23.1316 33.0425 22.8236C32.607 22.5454 32.2115 22.2012 31.9265 21.7531C31.6353 21.2954 31.4873 20.7725 31.4873 20.1875V15.0565C31.4873 14.5954 31.8611 14.2215 32.3223 14.2215C32.7834 14.2215 33.1572 14.5954 33.1572 15.0565V20.1875C33.1572 20.4764 33.2259 20.6845 33.3356 20.8569C33.4514 21.039 33.6408 21.2242 33.9416 21.4164L33.9416 21.4164C34.1768 21.5667 34.4758 21.6777 34.8677 21.6782C35.2201 21.6787 35.4988 21.5983 35.7227 21.4855L36.0983 22.2313L35.7227 21.4855C36.3894 21.1498 36.6686 20.7378 36.6686 20.1821V15.0564C36.6686 14.5953 37.0425 14.2214 37.5036 14.2214Z" fill="#8133F1"/>
</g>
<defs>
<clipPath id="clip0_1_8796">
<rect width="57" height="57" fill="white"/>
</clipPath>
</defs>
</svg>
