<svg width="83" height="68" viewBox="0 0 83 68" fill="none" xmlns="http://www.w3.org/2000/svg">
<path d="M1.74588 12.4895C2.74197 6.64416 7.21451 2.33536 13.1749 1.60922C19.1361 0.882372 26.3721 3.80699 31.3589 9.036C36.3466 14.2659 38.8396 21.5998 37.489 27.2873C37.2522 28.2858 36.874 29.2736 36.0506 29.7959C34.0271 31.0794 30.3119 28.5453 29.5067 25.7784C28.7015 23.0115 30.0824 20.6036 32.0475 19.2465C36.6864 16.0452 44.5973 17.6017 50.1548 22.3984C55.7133 27.1961 58.706 34.6575 57.9802 40.7195C57.705 43.0183 56.116 45.4603 53.6717 44.4086C51.7689 43.5895 50.8484 41.1268 51.0481 39.3325C51.4404 35.7977 54.8691 33.789 58.6201 34.1941C62.3712 34.5991 66.2486 37.0521 69.1914 40.1522C72.1341 43.2524 74.257 46.9532 76.0539 50.6557C78.6274 55.9611 80.6308 61.409 82.0072 66.8483" stroke="white" stroke-width="2" stroke-miterlimit="10" stroke-linecap="round" stroke-linejoin="round"/>
</svg>
