<svg width="57" height="57" viewBox="0 0 57 57" fill="none" xmlns="http://www.w3.org/2000/svg">
<path d="M51.0399 1.78125H5.96006C3.65602 1.78125 1.78125 3.65602 1.78125 5.96006V51.0399C1.78125 53.344 3.65602 55.2188 5.96006 55.2188H51.0399C53.344 55.2188 55.2188 53.344 55.2188 51.0399V5.96006C55.2188 3.65602 53.344 1.78125 51.0399 1.78125ZM3.5625 5.96006C3.5625 4.63838 4.63838 3.5625 5.96006 3.5625H51.0399C52.3616 3.5625 53.4375 4.63838 53.4375 5.96006V11.5559H3.5625V5.96006ZM51.0399 53.4375H5.96006C4.63838 53.4375 3.5625 52.3616 3.5625 51.0399V13.338H53.4375V51.0399C53.4375 52.3616 52.3616 53.4375 51.0399 53.4375Z" fill="#8133F1"/>
<path d="M9.14438 6.66895H7.38184C6.88932 6.66895 6.49121 7.06705 6.49121 7.55957C6.49121 8.05209 6.88932 8.4502 7.38184 8.4502H9.14438C9.6369 8.4502 10.035 8.05209 10.035 7.55957C10.035 7.06705 9.6369 6.66895 9.14438 6.66895Z" fill="#8133F1"/>
<path d="M14.0653 6.66895H12.3027C11.8102 6.66895 11.4121 7.06705 11.4121 7.55957C11.4121 8.05209 11.8102 8.4502 12.3027 8.4502H14.0653C14.5578 8.4502 14.9559 8.05209 14.9559 7.55957C14.9559 7.06705 14.5578 6.66895 14.0653 6.66895Z" fill="#8133F1"/>
<path d="M18.9881 6.66895H17.2256C16.7331 6.66895 16.335 7.06705 16.335 7.55957C16.335 8.05209 16.7331 8.4502 17.2256 8.4502H18.9881C19.4806 8.4502 19.8788 8.05209 19.8788 7.55957C19.8788 7.06705 19.4806 6.66895 18.9881 6.66895Z" fill="#8133F1"/>
<path d="M49.6197 6.66895H32.7236C32.2311 6.66895 31.833 7.06705 31.833 7.55957C31.833 8.05209 32.2311 8.4502 32.7236 8.4502H49.6197C50.1122 8.4502 50.5103 8.05209 50.5103 7.55957C50.5103 7.06705 50.1122 6.66895 49.6197 6.66895Z" fill="#8133F1"/>
<path d="M50.51 22.5311C50.51 20.0124 49.0378 17.6968 46.7578 16.6325C46.4817 16.5043 46.1602 16.5256 45.9028 16.6877C45.6463 16.8516 45.4905 17.1348 45.4905 17.4394V22.0609L44.0076 23.0762L42.5158 22.06V17.4394C42.5158 17.1357 42.3608 16.8525 42.1052 16.6886C41.8478 16.5247 41.529 16.5016 41.2511 16.6316C38.9657 17.6888 37.4873 20.0035 37.4873 22.5311C37.4873 24.7416 38.6015 26.7838 40.4273 27.9826V38.793C38.6006 39.9927 37.4873 42.0349 37.4873 44.2446C37.4873 46.7579 38.9586 49.0735 41.2368 50.1432C41.3571 50.1993 41.4862 50.2278 41.6154 50.2278C41.7819 50.2278 41.9476 50.1806 42.0927 50.0888C42.3501 49.925 42.506 49.6417 42.506 49.3371V44.7166L43.9978 43.7066L45.4807 44.7157V49.3363C45.4807 49.64 45.6356 49.9223 45.8912 50.0862C46.146 50.2518 46.4684 50.2732 46.7436 50.1449C49.0307 49.0922 50.51 46.7757 50.51 44.2437C50.51 42.034 49.3967 39.9918 47.5701 38.7921V27.9817C49.3959 26.783 50.51 24.7416 50.51 22.5311ZM46.2537 40.0782C47.7811 40.91 48.7288 42.5061 48.7288 44.2446C48.7288 45.56 48.181 46.7935 47.2628 47.6699V44.2446C47.2628 43.9498 47.1167 43.6737 46.8727 43.508L44.5001 41.8942C44.3487 41.7918 44.1741 41.7401 43.9996 41.7401C43.825 41.7401 43.6504 41.7918 43.4999 41.8933L41.1166 43.5071C40.8717 43.6737 40.7256 43.9489 40.7256 44.2446V47.6556C39.8136 46.7757 39.2694 45.5466 39.2694 44.2446C39.2694 42.5061 40.2171 40.91 41.7445 40.0782C42.0304 39.9223 42.2085 39.6222 42.2085 39.2962V27.4785C42.2085 27.1526 42.0304 26.8524 41.7436 26.6957C40.2171 25.8656 39.2694 24.2696 39.2694 22.5302C39.2694 21.2183 39.8163 19.9857 40.7354 19.1084V22.5302C40.7354 22.825 40.8806 23.1011 41.1246 23.2659L43.5079 24.8895C43.8116 25.0961 44.2106 25.0952 44.5126 24.8895L46.8852 23.2659C47.1274 23.0993 47.2735 22.825 47.2735 22.5311V19.1173C48.1855 19.9955 48.7306 21.2255 48.7306 22.5311C48.7306 24.2705 47.7829 25.8665 46.2564 26.6966C45.9696 26.8533 45.7915 27.1535 45.7915 27.4794V39.2971C45.7915 39.6231 45.9696 39.9232 46.2555 40.0791L46.2537 40.0782Z" fill="#8133F1"/>
<path d="M43.999 28.0278C43.5065 28.0278 43.1084 28.4259 43.1084 28.9185V37.8577C43.1084 38.3502 43.5065 38.7483 43.999 38.7483C44.4915 38.7483 44.8896 38.3502 44.8896 37.8577V28.9185C44.8896 28.4259 44.4915 28.0278 43.999 28.0278Z" fill="#8133F1"/>
<path d="M7.63584 27.9672H8.93527C8.96644 28.0483 8.99939 28.1275 9.03323 28.2059L8.12034 29.1197C7.58241 29.6558 7.57528 30.542 8.11856 31.1085L10.077 33.066C10.6257 33.5942 11.4878 33.596 12.0542 33.0518L12.9627 32.1389C13.0428 32.1736 13.1248 32.2075 13.2058 32.2387V33.5283C13.2058 34.3031 13.8328 34.9337 14.6032 34.9337H17.3597C18.1354 34.9337 18.766 34.3031 18.766 33.5283V32.2369C18.8461 32.2057 18.9263 32.1727 19.0047 32.1389L19.9193 33.0536C20.4653 33.5995 21.3524 33.5995 21.8992 33.0536L23.8479 31.1067C24.1186 30.8341 24.2647 30.4743 24.2603 30.0931C24.2558 29.7164 24.1035 29.3664 23.8479 29.1215L22.935 28.2023C22.968 28.124 23 28.0456 23.0312 27.9654H24.3288C25.0992 27.9654 25.7262 27.3349 25.7262 26.5591V23.8116C25.7262 23.0367 25.0992 22.4062 24.3288 22.4062H23.0321C23.0009 22.326 22.968 22.2467 22.935 22.1692L23.8345 21.2635C24.1062 21.0025 24.2576 20.6507 24.2611 20.2749C24.2647 19.8937 24.1178 19.5348 23.847 19.264L21.9001 17.3171C21.3541 16.7712 20.4671 16.7712 19.9202 17.3171L19.0056 18.2318C18.9272 18.1979 18.847 18.165 18.7669 18.1338V16.8433C18.7669 16.0676 18.1363 15.437 17.3606 15.437H14.6041C13.8337 15.437 13.2067 16.0676 13.2067 16.8433V18.132C13.1248 18.1641 13.0428 18.1971 12.9627 18.2318L12.04 17.3029C11.4896 16.7747 10.6275 16.7747 10.0664 17.3171L8.10788 19.2756C7.57706 19.8278 7.58241 20.7131 8.12034 21.251L9.03502 22.1657C9.00117 22.2449 8.96822 22.3242 8.93705 22.4053H7.63763C6.86723 22.4053 6.24023 23.0358 6.24023 23.8107V26.5582C6.24023 27.334 6.86723 27.9645 7.63763 27.9645L7.63584 27.9672ZM8.0197 24.1892H9.57384C9.97106 24.1892 10.3211 23.9256 10.4297 23.5435C10.5455 23.1418 10.7005 22.7651 10.892 22.424C11.0861 22.0757 11.0256 21.6411 10.7441 21.3597L9.64509 20.2597L11.0585 18.8463L12.1495 19.9427C12.4283 20.2232 12.8594 20.2865 13.2085 20.0959C13.5772 19.8937 13.9459 19.7432 14.3378 19.6327C14.7225 19.525 14.988 19.1741 14.988 18.7751V17.22H16.9856V18.7751C16.9856 19.1723 17.2493 19.5223 17.6322 19.6319C18.0321 19.7459 18.408 19.9008 18.75 20.0923C19.0991 20.2856 19.5328 20.2259 19.8142 19.9445L20.9097 18.849L22.3214 20.2606L21.2286 21.3597C20.9507 21.6375 20.8875 22.0668 21.0745 22.4133C21.2633 22.7615 21.4209 23.1454 21.5447 23.5559C21.6578 23.9318 22.0043 24.1892 22.3971 24.1892H23.9441V26.186H22.3971C22.0052 26.186 21.6578 26.4434 21.5447 26.8192C21.42 27.2289 21.2624 27.6136 21.0745 27.961C20.8875 28.3065 20.9979 28.7839 21.2758 29.0618L22.3214 30.1136L20.9097 31.5253L19.8142 30.4298C19.5328 30.1484 19.0982 30.0896 18.75 30.2819C18.4088 30.4734 18.0321 30.6284 17.6304 30.7442C17.2484 30.8537 16.9856 31.2029 16.9856 31.6001V33.1542H14.988V31.6001C14.988 31.2011 14.7225 30.8511 14.3387 30.7424C13.9459 30.632 13.5763 30.4806 13.2076 30.2784C12.8585 30.0869 12.4274 30.1501 12.1486 30.4316L11.0585 31.5288L9.64331 30.1145L10.7432 29.0146C11.0247 28.7332 11.0852 28.2976 10.8911 27.9503C10.6996 27.6092 10.5446 27.2324 10.4288 26.8308C10.3193 26.4487 9.97017 26.186 9.57295 26.186H8.01881V24.1892H8.0197Z" fill="#8133F1"/>
<path d="M15.9827 29.8404C18.5477 29.8404 20.6353 27.7528 20.6353 25.1878C20.6353 22.6228 18.5477 20.5352 15.9827 20.5352C13.4177 20.5352 11.3301 22.6228 11.3301 25.1878C11.3301 27.7528 13.4177 29.8404 15.9827 29.8404ZM15.9827 22.3173C17.5653 22.3173 18.8541 23.6051 18.8541 25.1887C18.8541 26.7722 17.5662 28.06 15.9827 28.06C14.3992 28.06 13.1113 26.7722 13.1113 25.1887C13.1113 23.6051 14.3992 22.3173 15.9827 22.3173Z" fill="#8133F1"/>
<path d="M32.2943 36.9697H14.4551C13.9626 36.9697 13.5645 37.3678 13.5645 37.8604C13.5645 38.3529 13.9626 38.751 14.4551 38.751H32.2934C32.7859 38.751 33.184 38.3529 33.184 37.8604C33.184 37.3678 32.7868 36.9697 32.2943 36.9697Z" fill="#8133F1"/>
<path d="M7.38281 38.751H10.3842C10.8767 38.751 11.2748 38.3529 11.2748 37.8604C11.2748 37.3678 10.8767 36.9697 10.3842 36.9697H7.38281C6.8903 36.9697 6.49219 37.3678 6.49219 37.8604C6.49219 38.3529 6.8903 38.751 7.38281 38.751Z" fill="#8133F1"/>
<path d="M33.1832 41.6841C33.1832 41.1916 32.785 40.7935 32.2925 40.7935H7.38086C6.88834 40.7935 6.49023 41.1916 6.49023 41.6841C6.49023 42.1766 6.88834 42.5747 7.38086 42.5747H32.2925C32.785 42.5747 33.1832 42.1766 33.1832 41.6841Z" fill="#8133F1"/>
<path d="M32.2944 44.6201H29.3643C28.8717 44.6201 28.4736 45.0182 28.4736 45.5107C28.4736 46.0033 28.8717 46.4014 29.3643 46.4014H32.2944C32.7869 46.4014 33.185 46.0033 33.185 45.5107C33.185 45.0182 32.7869 44.6201 32.2944 44.6201Z" fill="#8133F1"/>
<path d="M7.38281 44.6201C6.8903 44.6201 6.49219 45.0182 6.49219 45.5107C6.49219 46.0033 6.8903 46.4014 7.38281 46.4014H25.2933C25.7858 46.4014 26.1839 46.0033 26.1839 45.5107C26.1839 45.0182 25.7858 44.6201 25.2933 44.6201H7.38281Z" fill="#8133F1"/>
<path d="M26.198 48.4463H7.38086C6.88834 48.4463 6.49023 48.8444 6.49023 49.3369C6.49023 49.8294 6.88834 50.2275 7.38086 50.2275H26.198C26.6905 50.2275 27.0886 49.8294 27.0886 49.3369C27.0886 48.8444 26.6905 48.4463 26.198 48.4463Z" fill="#8133F1"/>
</svg>
