<svg width="73" height="72" viewBox="0 0 73 72" fill="none" xmlns="http://www.w3.org/2000/svg">
<g clip-path="url(#clip0_1_13018)">
<path fill-rule="evenodd" clip-rule="evenodd" d="M0.5 35.9989C0.5 50.2486 8.78024 62.5632 20.7889 68.3977L3.61636 21.3486C1.62055 25.824 0.5 30.7787 0.5 35.9989ZM60.8024 34.183C60.8024 29.7324 59.2025 26.6521 57.8345 24.2558C56.0097 21.288 54.2974 18.7768 54.2974 15.8112C54.2974 12.5014 56.8062 9.42105 60.3433 9.42105C60.5031 9.42105 60.6538 9.44126 60.8091 9.45026C54.4054 3.58207 45.8709 0 36.4993 0C23.9214 0 12.8578 6.45319 6.42039 16.2252C7.26642 16.2523 8.06294 16.268 8.73796 16.268C12.5023 16.268 18.3323 15.8112 18.3323 15.8112C20.2718 15.6965 20.5013 18.5496 18.5618 18.7768C18.5618 18.7768 16.6109 19.0063 14.4419 19.1211L27.5508 58.1148L35.4305 34.4868L29.8234 19.1211C27.8838 19.0063 26.0455 18.7768 26.0455 18.7768C24.1059 18.6621 24.3332 15.6965 26.275 15.8112C26.275 15.8112 32.2197 16.268 35.7568 16.268C39.5212 16.268 45.3511 15.8112 45.3511 15.8112C47.2929 15.6965 47.5202 18.5496 45.5806 18.7768C45.5806 18.7768 43.6276 19.0063 41.4607 19.1211L54.4707 57.8178L58.064 45.8204C59.6166 40.8387 60.8024 37.2634 60.8024 34.183ZM68.0899 18.728C68.2451 19.8756 68.3329 21.1041 68.3329 22.4294C68.3329 26.0813 67.6489 30.1876 65.5945 35.3245L54.5984 67.1157C65.302 60.8763 72.5 49.2795 72.5 35.9995C72.5 29.7398 70.9002 23.8559 68.0899 18.728ZM37.1316 39.148L26.329 70.5343C29.5556 71.4839 32.9667 72.0014 36.4993 72.0014C40.6912 72.0014 44.7121 71.2769 48.4539 69.9606C48.3594 69.8053 48.2694 69.6433 48.1974 69.4655L37.1316 39.148Z" fill="#00759D"/>
</g>
<defs>
<clipPath id="clip0_1_13018">
<rect width="72" height="72" fill="white" transform="translate(0.5)"/>
</clipPath>
</defs>
</svg>
