<svg width="128" height="128" viewBox="0 0 128 128" fill="none" xmlns="http://www.w3.org/2000/svg">
<path d="M41.1835 79.178C41.4275 79.4214 41.621 79.7105 41.7529 80.0289C41.8848 80.3473 41.9525 80.6886 41.9521 81.0332C41.9521 81.8339 41.5937 82.4788 41.1842 82.8886C40.4026 83.6688 39.3391 84.4814 37.9495 85.0563C36.7469 85.5551 35.4575 85.8111 34.1555 85.8096H9.91496C7.17692 85.8096 4.6984 84.7004 2.90401 82.9062C1.10961 81.1119 0 78.6335 0 75.8949V51.6534C0 48.9154 1.10918 46.4371 2.90401 44.6431C4.69818 42.8494 7.17692 41.7398 9.91496 41.7398H34.1553C35.4573 41.738 36.7467 41.9936 37.9495 42.492C39.5519 43.1561 40.5765 43.9749 41.5655 45.0425C41.9593 45.4676 42.3341 46.0965 42.3341 46.8979C42.3341 47.5691 42.0776 48.2405 41.5655 48.7531C41.3221 48.997 41.0329 49.1905 40.7145 49.3224C40.3962 49.4543 40.0549 49.522 39.7103 49.5217C39.0147 49.5202 38.3479 49.2439 37.8551 48.7531C37.1559 48.0532 36.7722 47.6939 35.9704 47.3544C35.3964 47.1112 34.7792 46.9862 34.1557 46.9869H9.91496C8.62796 46.9869 7.46122 47.5103 6.6163 48.3561C5.77159 49.2006 5.24803 50.3668 5.24803 51.6536V75.8951C5.24803 77.1832 5.77159 78.349 6.6163 79.1935C7.46122 80.0387 8.62796 80.5626 9.91496 80.5626H34.1553C34.7981 80.5626 35.4115 80.4325 35.97 80.1952C36.5317 79.956 37.042 79.6107 37.4729 79.1782C37.9657 78.6872 38.6327 78.411 39.3283 78.41C39.6729 78.4095 40.0142 78.477 40.3326 78.6088C40.651 78.7406 40.9402 78.9341 41.1835 79.178ZM34.0782 76.055C33.9837 74.1412 32.6907 71.1947 29.4408 70.8074H17.8784L31.1998 58.0544C31.7621 57.5177 33.0246 55.6981 32.1258 53.7401C31.4037 52.1658 30.1947 51.4948 28.0818 51.4948H11.4871C11.5548 53.6963 12.6534 56.3247 15.5712 56.7952H25.0536L11.0399 69.9655C10.4713 70.5112 9.53625 72.1888 10.2743 73.8927C10.9403 75.4282 12.0626 76.055 14.1487 76.055H34.0782ZM72.041 64.0396V73.8123C72.041 77.4274 70.9349 80.5706 68.4266 83.0778C66.1722 85.333 63.3234 86.261 60.1955 86.261C54.0618 86.261 50.9017 81.5216 50.9017 81.5216C52.5508 79.8725 54.8446 78.8704 57.0903 80.2158C57.468 80.4417 58.6002 81.0601 60.2205 81.0601C65.8972 81.0601 66.8212 75.9873 66.8212 74.4772C64.8546 75.6662 62.6339 76.2578 60.1683 76.2591H60.1651C56.9574 76.2578 54.1441 75.2439 51.8039 73.2428L51.7731 73.2163C49.4767 71.0141 48.3018 68.2978 48.2822 65.1397C48.2667 64.4911 48.2667 62.4135 48.2822 61.9305C48.2895 58.8258 49.4638 56.1199 51.7731 53.9084C54.1046 51.6754 56.9287 50.5425 60.1648 50.5417H60.1676C64.4684 50.5417 67.6259 52.6708 69.0857 54.4415C69.4582 54.8922 69.6739 55.4731 69.6739 56.1027C69.6739 56.8316 69.3795 57.492 68.9014 57.9703C68.6563 58.2158 68.3651 58.4105 68.0446 58.5431C67.724 58.6758 67.3805 58.7438 67.0335 58.7433C66.3117 58.7433 65.6213 58.4415 65.1823 57.9841C63.5439 56.2807 61.986 55.7433 60.1666 55.7431C58.3474 55.7433 56.8311 56.3503 55.5313 57.5977C54.24 58.8153 53.6309 60.1999 53.6128 61.9609C53.5839 62.7315 53.5839 64.3696 53.6117 65.1091C53.6261 66.9134 54.2327 68.3185 55.5205 69.5523C56.8629 70.7777 58.3866 71.3782 60.1668 71.379C61.947 71.3782 63.4711 70.7777 64.8247 69.5413C65.5308 68.8636 66.0323 68.1312 66.3414 67.3074C66.5897 66.6459 67.109 65.2656 68.8648 64.5651C70.3443 63.9762 72.041 64.0396 72.041 64.0396ZM96.8345 64.5653C95.0787 65.2654 94.5599 66.6453 94.3113 67.3074C94.0016 68.131 93.4998 68.8641 92.7935 69.5413C91.4409 70.7774 89.9166 71.3779 88.1362 71.3788C86.3557 71.3779 84.8337 70.7774 83.4902 69.5523C82.2015 68.3185 81.5958 66.9136 81.5809 65.1091C81.5538 64.3689 81.5538 62.7315 81.5829 61.9609C81.6006 60.1997 82.2088 58.8153 83.5008 57.5974C84.7999 56.3499 86.3166 55.7429 88.1362 55.7429C89.955 55.7431 91.5136 56.2805 93.1513 57.9839C93.5906 58.4415 94.2812 58.7431 95.0034 58.7431C95.7331 58.7431 96.3937 58.4475 96.8705 57.9701C97.1161 57.7251 97.3109 57.434 97.4436 57.1135C97.5764 56.7929 97.6445 56.4494 97.6441 56.1024C97.6441 55.4733 97.4268 54.8924 97.0558 54.441C95.5945 52.6701 92.4378 50.5412 88.1378 50.5412H88.1347C84.8979 50.5421 82.0752 51.675 79.743 53.908C77.433 56.1195 76.2592 58.8254 76.2523 61.9301C76.2357 62.4131 76.2357 64.4907 76.2523 65.1391C76.2717 68.2972 77.4464 71.0139 79.743 73.2161L79.773 73.2426C82.1136 75.2437 84.9268 76.2576 88.1347 76.2587H88.1373C90.6029 76.2576 92.823 75.666 94.7898 74.4768C94.7898 75.9867 93.8654 81.0597 88.1893 81.0597C86.569 81.0597 85.4361 80.4415 85.0587 80.2156C82.8132 78.8702 80.519 79.8716 78.8703 81.5212C78.8703 81.5212 82.0301 86.2605 88.1649 86.2605C91.2924 86.2605 94.1408 85.3328 96.3961 83.0776C98.9045 80.5702 100.01 77.4269 100.01 73.8119V64.0389C100.008 64.0396 98.3127 63.9762 96.8345 64.5653ZM127.988 61.9516C127.981 58.8271 126.806 56.1205 124.498 53.9082C122.166 51.675 119.341 50.5423 116.104 50.5414H116.101C112.865 50.5423 110.042 51.6752 107.709 53.9082C105.4 56.1197 104.227 58.8256 104.219 61.9303C104.203 62.4131 104.203 64.4909 104.219 65.1393C104.239 68.2972 105.414 71.0139 107.709 73.2161L107.741 73.2426C110.08 75.2437 112.893 76.2578 116.101 76.2589H116.105C119.31 76.2578 122.124 75.2437 124.467 73.2437L124.498 73.2161C126.794 71.0139 127.968 68.2968 127.988 65.1516C128.004 64.4911 128.004 62.4133 127.988 61.9516ZM116.103 71.379C114.323 71.3782 112.801 70.7777 111.457 69.5523C110.169 68.3183 109.562 66.9138 109.548 65.1091C109.52 64.3692 109.52 62.7315 109.549 61.9609C109.568 60.1999 110.176 58.8153 111.467 57.5977C112.767 56.3499 114.283 55.7431 116.103 55.7431C117.922 55.7433 119.438 56.3503 120.743 57.6035C122.031 58.8155 122.64 60.2001 122.659 61.9779C122.684 62.6987 122.694 64.3291 122.659 65.1298C122.643 66.9141 122.035 68.3203 120.761 69.5415C119.408 70.7777 117.883 71.3784 116.103 71.379ZM44.0733 51.4948C41.3217 51.4997 38.8248 53.8071 38.8248 56.282V76.055C41.5765 76.049 44.0733 73.7425 44.0733 71.2678V51.4948Z" fill="white"/>
</svg>
